<?xml version="1.0" encoding="UTF-8" standalone="no"?>
<!-- Created with Inkscape (http://www.inkscape.org/) -->

<svg
   xmlns:dc="http://purl.org/dc/elements/1.1/"
   xmlns:cc="http://creativecommons.org/ns#"
   xmlns:rdf="http://www.w3.org/1999/02/22-rdf-syntax-ns#"
   xmlns:svg="http://www.w3.org/2000/svg"
   xmlns="http://www.w3.org/2000/svg"
   xmlns:sodipodi="http://sodipodi.sourceforge.net/DTD/sodipodi-0.dtd"
   xmlns:inkscape="http://www.inkscape.org/namespaces/inkscape"
   id="svg3836"
   version="1.1"
   inkscape:version="0.91 r13725"
   width="876.4129"
   height="925.26196"
   viewBox="0 0 876.4129 925.26196"
   sodipodi:docname="dessinSafia.svg">
  <metadata
     id="metadata3842">
    <rdf:RDF>
      <cc:Work
         rdf:about="">
        <dc:format>image/svg+xml</dc:format>
        <dc:type
           rdf:resource="http://purl.org/dc/dcmitype/StillImage" />
        <dc:title></dc:title>
      </cc:Work>
    </rdf:RDF>
  </metadata>
  <defs
     id="defs3840" />
  <sodipodi:namedview
     pagecolor="#ffffff"
     bordercolor="#666666"
     borderopacity="1"
     objecttolerance="10"
     gridtolerance="10"
     guidetolerance="10"
     inkscape:pageopacity="0"
     inkscape:pageshadow="2"
     inkscape:window-width="1301"
     inkscape:window-height="744"
     id="namedview3838"
     showgrid="false"
     inkscape:zoom="0.43852551"
     inkscape:cx="499.17922"
     inkscape:cy="455.64545"
     inkscape:window-x="65"
     inkscape:window-y="24"
     inkscape:window-maximized="1"
     inkscape:current-layer="layer2"
     fit-margin-top="0"
     fit-margin-left="0"
     fit-margin-right="0"
     fit-margin-bottom="0" />
  <g
     inkscape:groupmode="layer"
     id="layer2"
     inkscape:label="Layer 1"
     style="display:inline"
     transform="translate(-96.653346,-81.143457)">
    <path
       style="fill:none;fill-rule:evenodd;stroke:#000000;stroke-width:1px;stroke-linecap:butt;stroke-linejoin:miter;stroke-opacity:1"
       d="M 97.32084,999.60049 C 150.10502,819.80436 166.60008,656.50329 148.45552,603.71911 117.11491,326.60214 275.46746,171.54859 303.50906,150.10502 522.89333,-6.5980278 696.09144,151.75454 714.236,173.19811 c 75.87727,72.57825 90.72281,288.6635 90.72281,288.6635 -8.24753,168.24959 -3.299,303.50907 46.18617,389.28337 24.74259,59.38221 59.3822,150.10502 59.3822,150.10502 z"
       id="path3929"
       inkscape:connector-curvature="0"
       sodipodi:nodetypes="cccccccc" />
    <path
       style="fill:none;fill-rule:evenodd;stroke:#000000;stroke-width:1px;stroke-linecap:butt;stroke-linejoin:miter;stroke-opacity:1"
       d="m 240.82784,498.15074 c 9.89703,39.58814 62.68122,211.13674 94.02183,230.93081 36.28913,44.53666 151.75453,95.67134 174.84761,70.92875 140.20799,-46.18616 153.40404,-95.67134 163.30107,-123.71294 L 725.78254,484.9547 c -45.08649,-40.13798 -90.17299,-80.27595 -135.25948,-120.41393 0,0 61.03172,79.17628 82.47529,85.7743 -19.79407,-8.24753 -123.71293,-85.77429 -130.31095,-105.56836 -4.94852,23.09308 133.60996,138.55848 133.60996,138.55848 0,0 -146.80601,-70.92875 -178.14662,-118.76442 42.88715,57.7327 108.86738,95.67134 108.86738,95.67134 0,0 -140.20799,-51.13468 -191.34267,-138.55849 26.39209,67.62974 46.18617,98.97035 67.62974,117.11491 -36.28913,-24.74259 -74.22776,-44.53665 -100.61985,-130.31095 -13.19605,80.82578 -72.57826,98.97034 -141.8575,189.69316 z"
       id="path3931"
       inkscape:connector-curvature="0"
       sodipodi:nodetypes="ccccccccccccccc" />
    <ellipse
       style="fill:#000000;fill-rule:evenodd;stroke:#000000;stroke-width:1.05561745px;stroke-linecap:butt;stroke-linejoin:miter;stroke-opacity:1"
       id="path3933"
       cx="286.50552"
       cy="576.77356"
       rx="42.716331"
       ry="52.808006"
       transform="matrix(0.99186405,-0.12730165,0.14219761,0.98983829,0,0)" />
    <ellipse
       style="fill:#ffffff"
       id="path3935"
       cx="348.49683"
       cy="513.19781"
       rx="33.213642"
       ry="42.709309"
       transform="matrix(0.99793801,0.0641851,0.03427014,0.99941261,0,0)" />
    <path
       style="fill:#000000;fill-rule:evenodd;stroke:#000000;stroke-width:1px;stroke-linecap:butt;stroke-linejoin:miter;stroke-opacity:1"
       d="m 296.91104,570.729 c -11.54654,-3.29901 -23.09308,-39.58814 -23.09308,-39.58814 6.59802,-37.93863 57.7327,-52.78419 57.7327,-52.78419 56.0832,-1.64951 54.43369,4.94852 74.22776,21.44358 -34.63962,-11.54654 -74.22776,-4.94852 -74.22776,-4.94852 -36.28913,6.59802 -41.23765,42.88715 -41.23765,42.88715 0,0 1.64951,24.74259 6.59803,32.99012 z"
       id="path3939"
       inkscape:connector-curvature="0"
       sodipodi:nodetypes="ccccccc" />
    <path
       style="fill:none;fill-rule:evenodd;stroke:#000000;stroke-width:1px;stroke-linecap:butt;stroke-linejoin:miter;stroke-opacity:1"
       d="m 484.9547,626.81219 0,-1.6495"
       id="path3951"
       inkscape:connector-curvature="0" />
    <path
       style="fill:none;fill-rule:evenodd;stroke:#000000;stroke-width:1px;stroke-linecap:butt;stroke-linejoin:miter;stroke-opacity:1"
       d="m 445.36656,715.8855 c 21.44357,11.54654 94.02183,-4.94851 94.02183,-4.94851"
       id="path3955"
       inkscape:connector-curvature="0"
       sodipodi:nodetypes="cc" />
    <path
       style="fill:none;fill-rule:evenodd;stroke:#000000;stroke-width:1px;stroke-linecap:butt;stroke-linejoin:miter;stroke-opacity:1"
       d="m 475.05766,742.27759 c 19.79407,6.59802 28.0416,0 28.0416,0"
       id="path3959"
       inkscape:connector-curvature="0"
       sodipodi:nodetypes="cc" />
    <path
       style="fill:none;fill-rule:evenodd;stroke:#000000;stroke-width:1px;stroke-linecap:butt;stroke-linejoin:miter;stroke-opacity:1"
       d="m 239.17834,453.61408 c 47.83567,-49.48517 151.75453,-41.23764 169.89909,-32.99011"
       id="path3963"
       inkscape:connector-curvature="0"
       sodipodi:nodetypes="cc" />
    <path
       style="fill:none;fill-rule:evenodd;stroke:#000000;stroke-width:1px;stroke-linecap:butt;stroke-linejoin:miter;stroke-opacity:1"
       d="m 326.60214,463.51112 c 29.6911,-8.24753 79.17628,16.49506 79.17628,16.49506"
       id="path3965"
       inkscape:connector-curvature="0"
       sodipodi:nodetypes="cc" />
    <path
       style="fill:none;fill-rule:evenodd;stroke:#000000;stroke-width:1px;stroke-linecap:butt;stroke-linejoin:miter;stroke-opacity:1"
       d="m 254.02389,544.3369 c -36.28913,0 -34.63962,47.83567 -34.63962,47.83567 13.19605,28.0416 29.6911,44.53666 41.23764,62.68122 8.24753,21.44357 21.44357,28.04159 46.18616,29.6911 C 272.16845,630.1112 270.51895,592.17257 254.02389,544.3369 Z"
       id="path3969"
       inkscape:connector-curvature="0"
       sodipodi:nodetypes="ccccc" />
    <path
       style="fill:none;fill-rule:evenodd;stroke:#000000;stroke-width:1px;stroke-linecap:butt;stroke-linejoin:miter;stroke-opacity:1"
       d="m 234.22982,583.92504 c 0,0 -4.94852,-16.49506 11.54654,-24.74259"
       id="path3971"
       inkscape:connector-curvature="0"
       sodipodi:nodetypes="cc" />
    <path
       style="fill:none;fill-rule:evenodd;stroke:#000000;stroke-width:1px;stroke-linecap:butt;stroke-linejoin:miter;stroke-opacity:1"
       d="m 245.77636,597.12109 c 0,0 6.59802,28.04159 26.39209,41.23764"
       id="path3973"
       inkscape:connector-curvature="0"
       sodipodi:nodetypes="cc" />
    <path
       style="fill:none;fill-rule:evenodd;stroke:#000000;stroke-width:1px;stroke-linecap:butt;stroke-linejoin:miter;stroke-opacity:1"
       d="m 387.63386,270.51895 -6.59803,52.78418"
       id="path3975"
       inkscape:connector-curvature="0" />
    <path
       style="fill:none;fill-rule:evenodd;stroke:#000000;stroke-width:1px;stroke-linecap:butt;stroke-linejoin:miter;stroke-opacity:1"
       d="M 272.16845,346.39621 C 102.26936,569.07949 268.86944,936.91928 258.97241,997.95099"
       id="path3979"
       inkscape:connector-curvature="0"
       sodipodi:nodetypes="cc" />
    <path
       style="fill:none;fill-rule:evenodd;stroke:#000000;stroke-width:1px;stroke-linecap:butt;stroke-linejoin:miter;stroke-opacity:1"
       d="m 265.57043,389.28336 c -32.99012,32.99012 -69.27924,171.5486 -69.27924,171.5486"
       id="path3981"
       inkscape:connector-curvature="0"
       sodipodi:nodetypes="cc" />
    <path
       style="fill:none;fill-rule:evenodd;stroke:#000000;stroke-width:1px;stroke-linecap:butt;stroke-linejoin:miter;stroke-opacity:1"
       d="m 206.18822,570.729 c 4.94852,-44.53666 34.63962,-75.87727 34.63962,-75.87727"
       id="path3983"
       inkscape:connector-curvature="0"
       sodipodi:nodetypes="cc" />
    <path
       style="fill:none;fill-rule:evenodd;stroke:#000000;stroke-width:1px;stroke-linecap:butt;stroke-linejoin:miter;stroke-opacity:1"
       d="m 712.58649,374.43781 c 128.66145,181.44563 -18.14457,503.09926 18.14456,623.51318"
       id="path3989"
       inkscape:connector-curvature="0"
       sodipodi:nodetypes="cc" />
    <path
       style="fill:none;fill-rule:evenodd;stroke:#000000;stroke-width:1px;stroke-linecap:butt;stroke-linejoin:miter;stroke-opacity:1"
       d="m 676.29736,663.10132 c 28.0416,13.19605 32.99012,-6.59803 47.83567,-36.28913 0,0 36.28912,-26.39209 26.39209,-64.33072 0,0 -4.94851,-36.28913 -44.53665,-9.89704 z"
       id="path3991"
       inkscape:connector-curvature="0"
       sodipodi:nodetypes="ccccc" />
    <path
       style="fill:none;fill-rule:evenodd;stroke:#000000;stroke-width:1px;stroke-linecap:butt;stroke-linejoin:miter;stroke-opacity:1"
       d="m 737.32908,560.83196 c -21.44357,0 -28.0416,14.84555 -28.0416,14.84555"
       id="path3993"
       inkscape:connector-curvature="0"
       sodipodi:nodetypes="cc" />
    <path
       style="fill:none;fill-rule:evenodd;stroke:#000000;stroke-width:1px;stroke-linecap:butt;stroke-linejoin:miter;stroke-opacity:1"
       d="m 702.68946,585.57455 c 0,0 4.94851,28.04159 -6.59803,32.99011"
       id="path3995"
       inkscape:connector-curvature="0"
       sodipodi:nodetypes="cc" />
    <path
       style="fill:none;fill-rule:evenodd;stroke:#000000;stroke-width:1px;stroke-linecap:butt;stroke-linejoin:miter;stroke-opacity:1"
       d="M 701.03995,633.41021 C 714.236,628.46169 715.8855,620.21417 715.8855,620.21417"
       id="path3997"
       inkscape:connector-curvature="0"
       sodipodi:nodetypes="cc" />
    <path
       style="fill:none;fill-rule:evenodd;stroke:#000000;stroke-width:1px;stroke-linecap:butt;stroke-linejoin:miter;stroke-opacity:1"
       d="m 531.14086,440.41804 c 90.72282,-32.99012 191.34267,11.54654 191.34267,11.54654"
       id="path3999"
       inkscape:connector-curvature="0"
       sodipodi:nodetypes="cc" />
    <path
       style="fill:none;fill-rule:evenodd;stroke:#000000;stroke-width:1px;stroke-linecap:butt;stroke-linejoin:miter;stroke-opacity:1"
       d="m 570.729,473.40815 c 28.0416,-9.89703 74.22775,-13.19604 74.22775,-13.19604"
       id="path4001"
       inkscape:connector-curvature="0"
       sodipodi:nodetypes="cc" />
    <path
       style="fill:none;fill-rule:evenodd;stroke:#000000;stroke-width:1px;stroke-linecap:butt;stroke-linejoin:miter;stroke-opacity:1"
       d="m 710.93699,414.02595 c 29.6911,36.28913 44.53665,123.71293 44.53665,123.71293"
       id="path4003"
       inkscape:connector-curvature="0"
       sodipodi:nodetypes="cc" />
    <path
       style="fill:none;fill-rule:evenodd;stroke:#000000;stroke-width:1px;stroke-linecap:butt;stroke-linejoin:miter;stroke-opacity:1"
       d="m 725.78254,481.65568 c 13.19605,26.39209 28.0416,52.78419 28.0416,52.78419"
       id="path4005"
       inkscape:connector-curvature="0"
       sodipodi:nodetypes="cc" />
    <path
       style="fill:none;fill-rule:evenodd;stroke:#000000;stroke-width:1px;stroke-linecap:butt;stroke-linejoin:miter;stroke-opacity:1"
       d="m 616.91516,748.87562 c 0,0 -8.24754,192.99217 28.04159,247.42586"
       id="path4007"
       inkscape:connector-curvature="0"
       sodipodi:nodetypes="cc" />
    <path
       style="fill:none;fill-rule:evenodd;stroke:#000000;stroke-width:1px;stroke-linecap:butt;stroke-linejoin:miter;stroke-opacity:1"
       d="M 128.66145,997.95099 C 131.96046,884.13509 237.52883,892.38262 237.52883,892.38262"
       id="path4009"
       inkscape:connector-curvature="0"
       sodipodi:nodetypes="cc" />
    <path
       style="fill:none;fill-rule:evenodd;stroke:#000000;stroke-width:1px;stroke-linecap:butt;stroke-linejoin:miter;stroke-opacity:1"
       d="m 352.99423,747.22611 c 36.99436,48.55511 -4.94851,249.07537 -4.94851,249.07537"
       id="path4011"
       inkscape:connector-curvature="0"
       sodipodi:nodetypes="cc" />
    <path
       style="fill:none;fill-rule:evenodd;stroke:#000000;stroke-width:1px;stroke-linecap:butt;stroke-linejoin:miter;stroke-opacity:1"
       d="m 291.96252,793.41227 c 0,0 16.49506,37.93863 21.44358,202.88921"
       id="path4013"
       inkscape:connector-curvature="0"
       sodipodi:nodetypes="cc" />
    <path
       style="fill:none;fill-rule:evenodd;stroke:#000000;stroke-width:1px;stroke-linecap:butt;stroke-linejoin:miter;stroke-opacity:1"
       d="m 732.38056,865.99053 c 133.60997,23.09308 122.06343,131.96046 122.06343,131.96046"
       id="path4015"
       inkscape:connector-curvature="0"
       sodipodi:nodetypes="cc" />
    <path
       style="fill:none;fill-rule:evenodd;stroke:#000000;stroke-width:1px;stroke-linecap:butt;stroke-linejoin:miter;stroke-opacity:1"
       d="m 562.48147,776.91722 c -0.64294,24.74259 2.17472,49.48517 -6.59803,74.22776"
       id="path4017"
       inkscape:connector-curvature="0"
       sodipodi:nodetypes="cc" />
    <path
       style="fill:none;fill-rule:evenodd;stroke:#000000;stroke-width:1px;stroke-linecap:butt;stroke-linejoin:miter;stroke-opacity:1"
       d="m 412.37644,781.86573 c 0,61.03171 14.84555,84.1248 14.84555,84.1248"
       id="path4019"
       inkscape:connector-curvature="0"
       sodipodi:nodetypes="cc" />
    <path
       style="fill:none;fill-rule:evenodd;stroke:#000000;stroke-width:1px;stroke-linecap:butt;stroke-linejoin:miter;stroke-opacity:1"
       d="m 361.24176,862.69152 c 0,0 34.63962,-4.94852 54.43369,-32.99012"
       id="path4021"
       inkscape:connector-curvature="0"
       sodipodi:nodetypes="cc" />
    <path
       style="fill:none;fill-rule:evenodd;stroke:#000000;stroke-width:1px;stroke-linecap:butt;stroke-linejoin:miter;stroke-opacity:1"
       d="m 560.83196,819.80437 c 21.44357,24.74259 54.43369,31.34061 54.43369,31.34061"
       id="path4023"
       inkscape:connector-curvature="0"
       sodipodi:nodetypes="cc" />
    <path
       style="fill:none;fill-rule:evenodd;stroke:#000000;stroke-width:1px;stroke-linecap:butt;stroke-linejoin:miter;stroke-opacity:1"
       d="m 623.51318,935.26977 c -62.68122,9.89703 -84.1248,3.29901 -90.72282,26.39209"
       id="path4025"
       inkscape:connector-curvature="0"
       sodipodi:nodetypes="cc" />
    <path
       style="fill:none;fill-rule:evenodd;stroke:#000000;stroke-width:1px;stroke-linecap:butt;stroke-linejoin:miter;stroke-opacity:1"
       d="m 354.64374,936.91928 c 0,0 110.51688,8.24753 127.01194,34.63962"
       id="path4027"
       inkscape:connector-curvature="0"
       sodipodi:nodetypes="cc" />
    <path
       style="fill:none;fill-rule:evenodd;stroke:#000000;stroke-width:1px;stroke-linecap:butt;stroke-linejoin:miter;stroke-opacity:1"
       d="m 684.54489,923.72323 11.54654,74.22776"
       id="path4029"
       inkscape:connector-curvature="0" />
    <path
       style="fill:none;fill-rule:evenodd;stroke:#000000;stroke-width:1px;stroke-linecap:butt;stroke-linejoin:miter;stroke-opacity:1"
       d="M 235.87932,885.7846 285.3645,997.95099"
       id="path4031"
       inkscape:connector-curvature="0" />
    <ellipse
       style="fill:#000000"
       id="path4035"
       cx="704.1991"
       cy="506.70551"
       rx="39.583023"
       ry="53.446884"
       transform="matrix(0.99836879,0.05709434,-0.19766127,0.98027038,0,0)" />
    <ellipse
       style="fill:#ffffff"
       id="path4039"
       cx="739.61615"
       cy="387.76773"
       rx="29.656673"
       ry="43.394749"
       transform="matrix(0.97405385,0.22631638,-0.30309798,0.9529594,0,0)" />
    <path
       style="fill:#000000;fill-rule:evenodd;stroke:#000000;stroke-width:1px;stroke-linecap:butt;stroke-linejoin:miter;stroke-opacity:1"
       d="m 555.88344,527.84185 c 3.29901,-24.74259 26.3921,-44.53666 26.3921,-44.53666 49.48517,-21.44357 92.37232,11.54654 92.37232,11.54654 21.44357,21.44357 16.49506,44.53666 16.49506,44.53666 l -16.49506,29.6911 c 0,0 9.89703,-39.58814 -8.24753,-56.0832 -13.19605,-24.74259 -70.92875,-24.74258 -70.92875,-24.74258 0,0 -23.09308,23.09308 -39.58814,39.58814 z"
       id="path4041"
       inkscape:connector-curvature="0"
       sodipodi:nodetypes="cccccccc" />
    <path
       style="fill:#000000;fill-rule:evenodd;stroke:#000000;stroke-width:1px;stroke-linecap:butt;stroke-linejoin:miter;stroke-opacity:1"
       d="m 338.14868,592.17257 72.57826,-8.24753 -59.38221,-3.29901 z"
       id="path4043"
       inkscape:connector-curvature="0" />
    <path
       style="fill:#000000;fill-rule:evenodd;stroke:#000000;stroke-width:1px;stroke-linecap:butt;stroke-linejoin:miter;stroke-opacity:1"
       d="m 565.78048,583.92504 72.57825,13.19605 -26.39209,-13.19605 z"
       id="path4045"
       inkscape:connector-curvature="0" />
    <rect
       style="fill:none"
       id="rect4070"
       width="867.64001"
       height="968.25989"
       x="77.526772"
       y="46.186161" />
    <text
       xml:space="preserve"
       style="font-style:italic;font-variant:normal;font-weight:normal;font-stretch:normal;font-size:40px;line-height:125%;font-family:'Liberation Serif';-inkscape-font-specification:'Liberation Serif Italic';letter-spacing:0px;word-spacing:0px;fill:#000000;fill-opacity:1;stroke:none;stroke-width:1px;stroke-linecap:butt;stroke-linejoin:miter;stroke-opacity:1"
       x="892.38263"
       y="938.56879"
       id="text4874"
       sodipodi:linespacing="125%"><tspan
         sodipodi:role="line"
         id="tspan4876"
         x="892.38263"
         y="938.56879">Safia</tspan></text>
    <path
       style="fill:none;fill-rule:evenodd;stroke:#000000;stroke-width:1px;stroke-linecap:butt;stroke-linejoin:miter;stroke-opacity:1"
       d="m 351.34473,968.25988 -4.94852,34.63962"
       id="path5168"
       inkscape:connector-curvature="0" />
    <path
       style="fill:none;fill-rule:evenodd;stroke:#000000;stroke-width:1px;stroke-linecap:butt;stroke-linejoin:miter;stroke-opacity:1"
       d="m 641.65774,988.05395 8.24753,18.14455"
       id="path5170"
       inkscape:connector-curvature="0" />
    <ellipse
       style="fill:#000000;stroke:none;stroke-width:1;stroke-linejoin:round;stroke-miterlimit:4;stroke-dasharray:none;stroke-opacity:1"
       id="path5273"
       cx="265.22421"
       cy="584.32782"
       rx="21.327755"
       ry="30.622715"
       transform="matrix(0.98960939,-0.14378195,0.17750634,0.98411966,0,0)" />
    <ellipse
       style="fill:#ffffff;stroke:none;stroke-width:1;stroke-linejoin:round;stroke-miterlimit:4;stroke-dasharray:none;stroke-opacity:1"
       id="path5275"
       cx="349.69522"
       cy="527.84186"
       rx="11.54654"
       ry="13.196046" />
    <ellipse
       style="fill:#ffffff;stroke:none;stroke-width:1;stroke-linejoin:round;stroke-miterlimit:4;stroke-dasharray:none;stroke-opacity:1"
       id="path5277"
       cx="381.8606"
       cy="549.2854"
       rx="9.0722818"
       ry="13.196046" />
    <ellipse
       style="display:inline;fill:#000000;stroke:none;stroke-width:1;stroke-linejoin:round;stroke-miterlimit:4;stroke-dasharray:none;stroke-opacity:1"
       id="path5273-0"
       cx="739.94055"
       cy="270.03366"
       rx="19.951899"
       ry="30.395113"
       transform="matrix(0.92553947,0.37865115,-0.3004258,0.95380519,0,0)" />
    <ellipse
       style="fill:#ffffff;stroke:none;stroke-width:1;stroke-linejoin:round;stroke-miterlimit:4;stroke-dasharray:none;stroke-opacity:1"
       id="path5296"
       cx="775.30298"
       cy="157.94733"
       rx="8.247529"
       ry="11.54654"
       transform="matrix(0.8673245,0.49774312,-0.49774312,0.8673245,0,0)" />
    <ellipse
       style="fill:#ffffff;stroke:none;stroke-width:1;stroke-linejoin:round;stroke-miterlimit:4;stroke-dasharray:none;stroke-opacity:1"
       id="path5300"
       cx="610.31708"
       cy="556.70819"
       rx="8.247529"
       ry="12.371293" />
    <path
       style="fill:#ffd5d5;stroke:none;stroke-width:1;stroke-linejoin:round;stroke-miterlimit:4;stroke-dasharray:none;stroke-opacity:1"
       d="M 643.56667,989.79965 C 626.37099,958.92316 617.68362,893.65029 617.68362,795.32662 l 0,-44.01195 8.14659,-5.98015 c 21.68579,-15.91884 39.49588,-41.15319 48.08075,-68.12357 3.41986,-10.74386 4.15468,-11.83915 7.1933,-10.72179 1.86139,0.68447 6.86599,1.2401 11.12135,1.23476 10.19478,-0.0132 14.88524,-4.54208 25.24587,-24.37823 4.5699,-8.74939 11.71005,-19.2035 16.82457,-24.63334 4.88695,-5.18824 10.89618,-13.72443 13.35383,-18.96932 3.89968,-8.32231 4.45968,-11.5308 4.39948,-25.20646 -0.0788,-17.91592 -2.55156,-24.51799 -11.14527,-29.75787 -6.63865,-4.04782 -12.11275,-4.07006 -22.58292,-0.0917 -4.54587,1.72729 -8.26523,2.83708 -8.26523,2.46619 0,-0.60502 7.57262,-28.10601 14.22544,-51.6616 l 2.52519,-8.94098 11.64797,22.13703 c 6.40638,12.17536 13.02936,23.90726 14.71777,26.07086 2.91217,3.73185 3.06979,3.76043 3.06979,0.55673 0,-5.91163 -13.27466,-56.50351 -18.91221,-72.07748 -6.2545,-17.27833 -15.89591,-37.18154 -21.84719,-45.10019 -7.0247,-9.34691 -5.88077,-4.65207 1.96852,8.07911 11.8079,19.15182 27.96171,64.85279 32.89421,93.06145 1.04383,5.96952 0.93377,6.28376 -1.15528,3.29902 -1.26995,-1.81446 -6.9256,-12.00667 -12.56811,-22.64937 -5.6425,-10.64269 -10.83325,-19.17888 -11.53498,-18.96931 -0.70175,0.20956 -10.45184,-7.78067 -21.66688,-17.75608 -11.21504,-9.97542 -21.91831,-19.4751 -23.78505,-21.11042 -3.34401,-2.92946 -3.30893,-2.95723 2.37921,-1.8843 3.1753,0.59897 13.46431,3.64475 22.86445,6.76844 9.40013,3.12367 17.48256,5.288 17.96095,4.80963 1.3254,-1.32542 -26.58112,-11.05913 -45.20401,-15.76705 -5.51809,-1.39499 -14.615,-8.66908 -46.70373,-37.34537 -21.91797,-19.58713 -40.26414,-35.19965 -40.76926,-34.69452 -1.45634,1.45633 24.71733,33.74852 44.61744,55.04749 5.32058,5.69457 9.03197,10.34715 8.24753,10.33903 -1.8873,-0.0195 -34.93754,-24.93823 -56.67068,-42.72771 -21.07856,-17.25363 -36.31966,-32.01613 -41.02102,-39.73281 l -3.51732,-5.77327 -0.007,5.17293 c -0.01,8.54035 11.96073,24.18251 41.18343,53.81362 l 27.26489,27.64597 -16.20621,-0.0167 -16.20623,-0.0167 -11.83537,-7.65209 c -22.55674,-14.58434 -43.2366,-30.80957 -55.95923,-43.90564 -7.03102,-7.23739 -12.78367,-12.44308 -12.78367,-11.56823 0,4.31141 38.96142,44.95843 57.66862,60.16355 l 7.35867,5.9811 -6.15265,1.15424 c -5.53034,1.03751 -8.01672,0.0924 -24.58167,-9.34456 -48.82621,-27.8158 -86.69734,-60.013 -108.7016,-92.41569 -3.85595,-5.67816 -7.28127,-9.51265 -7.61178,-8.52108 -0.84019,2.52054 17.88132,45.99312 27.93659,64.87061 4.59083,8.61866 11.62237,20.39698 15.62567,26.17404 4.0033,5.77705 6.91673,10.86574 6.47426,11.30819 -1.34938,1.34939 -21.00246,-14.40027 -31.93324,-25.59077 -18.62449,-19.06701 -33.67773,-44.93006 -44.5761,-76.58635 -4.61375,-13.40151 -4.66381,-13.93397 -2.67967,-28.50219 1.11205,-8.16505 2.00994,-17.07238 1.99531,-19.79407 l -0.0266,-4.94852 -1.39861,4.94852 c -0.76925,2.72169 -2.5616,13.63236 -3.98301,24.24595 -5.75376,42.96293 -17.67119,65.8586 -54.65776,105.00805 l -13.02683,13.7886 -15.6703,3.90941 c -18.83695,4.69943 -42.59091,16.06749 -53.33503,25.52485 -10.14253,8.9278 -8.70039,10.55004 1.69209,1.9034 4.36204,-3.62928 12.01353,-8.86425 17.00328,-11.63326 8.47657,-4.70396 36.85447,-15.11623 41.19822,-15.11623 1.07151,0 -7.69969,10.20631 -19.49155,22.6807 -11.79187,12.47439 -25.79503,27.87665 -31.11813,34.22725 -5.32311,6.35059 -13.36264,15.30822 -17.86564,19.90582 -13.9043,14.19642 -32.1051,54.18138 -32.1051,70.53102 0,5.90462 1.73042,1.79573 4.98842,-11.84499 1.75461,-7.34625 5.4084,-18.24897 8.11954,-24.22827 4.85946,-10.7173 19.70402,-34.47274 20.83498,-33.34177 0.69229,0.6923 12.24322,40.57588 12.24322,42.27396 0,0.64651 -3.25446,2.04592 -7.23214,3.10978 -13.85724,3.70624 -25.75798,23.26306 -25.75798,42.32883 0,8.31027 8.19681,23.53528 24.93723,46.31916 7.33243,9.97951 15.07195,21.56456 17.19894,25.74456 8.09851,15.91537 18.24348,23.27116 35.19685,25.52011 l 8.44064,1.11969 7.83546,14.99415 c 6.15152,11.77169 11.42191,18.72747 24.52312,32.36527 9.17822,9.55412 18.1848,20.34024 20.01465,23.96915 7.06588,14.01291 9.3957,30.63225 9.44126,67.34749 0.0399,32.13236 -0.16479,34.50918 -3.15929,36.7015 -2.92835,2.14387 -2.95156,2.34413 -0.27164,2.34413 2.65196,0 2.82353,1.21417 1.80644,12.78367 -2.393,27.22097 -7.16977,58.89137 -8.97309,59.49248 -1.20632,0.4021 -1.31509,1.29697 -0.30681,2.5244 1.61368,1.9644 -1.34407,22.81298 -4.36496,30.76782 -0.8613,2.26807 -2.08067,8.57743 -2.70967,14.0208 -1.98375,17.16685 1.07082,15.67078 -31.98707,15.66678 l -29.16757,-0.004 -23.50257,-53.44033 C 240.34143,892.456 239.81778,891.00067 231.80494,857.0498 216.05732,790.32622 206.72316,738.99388 201.1294,688.35247 c -3.43255,-31.0755 -5.09567,-106.98765 -2.72875,-124.55167 2.03657,-15.11259 16.36716,-62.89767 29.41865,-98.09594 10.61324,-28.62264 24.36323,-57.25287 32.74942,-68.19082 6.79377,-8.861 6.97027,-12.40966 0.21811,-4.38518 -14.26267,16.95022 -35.38875,65.84293 -51.54798,119.29902 -3.52326,11.65524 -6.65558,19.95575 -6.9607,18.44558 -1.55938,-7.71794 10.47892,-61.46832 19.63421,-87.66575 7.67916,-21.97356 25.95467,-58.59112 39.23497,-78.61279 6.48428,-9.77583 11.78958,-18.17026 11.78958,-18.6543 0,-2.78011 -4.93971,3.36803 -15.17673,18.8895 -52.40104,79.45099 -72.57057,186.21997 -59.71378,316.09958 5.01089,50.62003 13.0887,97.85452 27.68371,161.87868 4.93503,21.64856 9.28802,41.30067 9.67332,43.67134 0.69688,4.28781 0.63088,4.31534 -12.63597,5.26857 -54.07548,3.88541 -89.87599,40.03922 -94.52181,95.45459 l -0.94372,11.25668 -13.78156,0 c -7.57986,0 -13.781563,-0.39033 -13.781563,-0.8674 0,-0.47705 4.002263,-15.87931 8.893933,-34.22724 27.79918,-104.2708 43.02421,-191.38769 47.06013,-269.2759 1.70753,-32.95318 0.11214,-67.39694 -3.82837,-82.65272 -6.5825,-25.48432 -7.60181,-108.2216 -1.85678,-150.71562 12.97357,-95.96114 46.24642,-179.34103 100.14113,-250.94803 30.64334,-40.71415 56.57651,-63.42741 98.143,-85.95739 84.08801,-45.577605 168.98147,-52.93468 252.07196,-21.84517 28.62242,10.70949 59.48357,27.60081 82.47529,45.14143 16.09449,12.27865 39.58144,35.88344 48.33875,48.58127 32.94993,47.77645 58.42633,135.95683 70.2699,243.22216 1.97965,17.92932 2.10652,28.70958 0.69884,59.38221 -1.96687,42.85696 -0.7861,152.33448 1.9342,179.33352 7.18564,71.31795 18.79821,119.25563 38.89929,160.57952 11.24172,23.11083 65.01655,156.26817 65.01655,160.99416 0,0.49759 -58.2049,0.90474 -129.34423,0.90474 l -129.34424,0 -5.74149,-10.30945 z m 48.42771,-27.10319 c -5.73147,-36.9956 -6.48531,-40.85971 -7.72871,-39.61633 -0.86799,0.868 8.55495,66.39409 10.48408,72.90517 2.89359,9.7663 1.722,-4.38833 -2.75537,-33.28884 z m 36.75594,20.03638 c -3.83496,-21.9225 -2.05448,-74.51476 3.70424,-109.41642 0.89572,-5.42869 1.06164,-5.53074 7.35597,-4.52425 12.11488,1.93725 33.74525,9.59239 48.59693,17.19879 21.18322,10.84913 42.10441,31.65451 51.72324,51.43688 7.79389,16.02914 11.39992,28.99236 13.44273,48.32498 l 1.42984,13.53149 -0.49274,-16.49506 c -0.84562,-28.30867 -12.5141,-55.17941 -32.86633,-75.68619 -18.23621,-18.37468 -40.12179,-30.09544 -71.59977,-38.34507 -16.25524,-4.26009 -16.69788,-4.50056 -15.98025,-8.68107 2.59332,-15.10724 19.28604,-122.16886 22.01681,-141.20859 20.41831,-142.36198 13.3631,-240.02173 -22.52217,-311.75659 -7.37431,-14.74129 -20.08134,-34.48723 -21.36646,-33.20213 -0.54285,0.54287 1.67231,4.99225 4.92257,9.8875 15.03264,22.64079 28.69001,55.24929 36.38799,86.88036 7.57585,31.12923 9.59753,49.44455 10.52734,95.37195 1.23337,60.92192 -2.6098,105.36368 -16.85267,194.8813 -21.42738,134.67295 -22.86523,146.27212 -22.90129,184.74465 -0.0238,25.33733 2.08001,46.81624 5.05728,51.63356 2.00122,3.23807 1.84349,-0.70357 -0.58326,-14.57609 z M 313.55134,968.35607 c -1.54912,-39.09364 -3.89471,-71.05826 -7.71649,-105.15599 -3.6184,-32.28328 -10.20452,-67.11367 -13.21994,-69.91319 -1.5207,-1.41182 -1.72892,-0.88013 -0.89423,2.28346 8.55832,32.43763 15.68122,91.59954 18.27076,151.75453 1.388,32.24302 2.6976,49.48517 3.75858,49.48517 0.51086,0 0.42145,-12.80429 -0.19868,-28.45398 z"
       id="path5302"
       inkscape:connector-curvature="0" />
    <path
       style="fill:#ffd5d5;stroke:none;stroke-width:1;stroke-linejoin:round;stroke-miterlimit:4;stroke-dasharray:none;stroke-opacity:1"
       d="m 608.24655,445.60667 c -12.90182,-7.36815 -23.06433,-14.03338 -22.58335,-14.81162 0.48098,-0.77824 6.81239,-1.41498 14.06981,-1.41498 l 13.1953,0 15.98608,14.30492 c 8.79234,7.86771 16.29536,14.5482 16.67337,14.84555 0.37801,0.29735 -2.5911,0.52536 -6.59803,0.50669 -6.0579,-0.0282 -11.23743,-2.29096 -30.74318,-13.43056 z"
       id="path5304"
       inkscape:connector-curvature="0" />
    <path
       style="fill:#ffd5d5;stroke:none;stroke-width:1;stroke-linejoin:round;stroke-miterlimit:4;stroke-dasharray:none;stroke-opacity:1"
       d="m 568.34363,441.92814 c -13.63683,-6.95846 -13.78412,-7.0986 -8.55903,-8.14362 4.62011,-0.92402 6.74011,0.0143 16.18348,7.16315 5.9768,4.52456 9.82837,8.18919 8.55904,8.14362 -1.26933,-0.0456 -8.5519,-3.26898 -16.18349,-7.16315 z"
       id="path5306"
       inkscape:connector-curvature="0" />
    <path
       style="fill:#ffd5d5;stroke:none;stroke-width:1;stroke-linejoin:round;stroke-miterlimit:4;stroke-dasharray:none;stroke-opacity:1"
       d=""
       id="path5310"
       inkscape:connector-curvature="0" />
    <path
       style="fill:#ffd5d5;stroke:none;stroke-width:1;stroke-linejoin:round;stroke-miterlimit:4;stroke-dasharray:none;stroke-opacity:1"
       d="m 650.09635,468.77899 c -8.83575,-4.5591 -9.39472,-5.16547 -6.62717,-7.18916 3.07131,-2.24579 3.77149,-1.8177 17.84387,10.90964 3.08778,2.79266 -1.62064,1.23091 -11.2167,-3.72048 z"
       id="path5312"
       inkscape:connector-curvature="0" />
    <path
       style="fill:#ffd5d5;stroke:none;stroke-width:1;stroke-linejoin:round;stroke-miterlimit:4;stroke-dasharray:none;stroke-opacity:1"
       d="m 260.23569,996.25028 c 1.46461,-3.81672 -1.93357,-27.97555 -7.15189,-50.84521 -8.76244,-38.40206 -10.26223,-40.27859 17.02495,21.3015 l 14.07028,31.75299 -12.39556,0 c -9.67982,0 -12.20982,-0.48403 -11.54778,-2.20928 z"
       id="path5314"
       inkscape:connector-curvature="0" />
    <path
       style="fill:none;stroke:none;stroke-width:1;stroke-linejoin:round;stroke-miterlimit:4;stroke-dasharray:none;stroke-opacity:1"
       d="m 613.08365,918.0762 c -7.21166,-0.45254 -13.11212,-1.83292 -13.11212,-3.06751 0,-6.96461 -9.66012,-65.52973 -11.44059,-69.35932 -1.85268,-3.98494 -1.98912,-3.84098 -1.08064,1.14019 0.57185,3.1355 2.59852,16.47566 4.50373,29.64479 1.90518,13.16914 4.1097,27.792 4.89891,32.49526 l 1.43495,8.55139 -22.82282,0 c -16.19842,0 -23.5528,-0.87954 -25.33771,-3.03023 -3.01535,-3.63326 -14.02844,-32.25452 -15.50569,-40.29678 -0.57593,-3.13551 -1.95496,-9.80559 -3.06447,-14.8224 -1.10951,-5.01682 -2.66197,-14.25231 -3.44988,-20.52333 -0.78791,-6.27101 -1.84924,-13.95702 -2.35852,-17.07998 -1.4297,-8.7675 -3.41063,-60.46951 -4.12537,-107.67201 l -0.64591,-42.65872 15.52701,-13.90168 c 19.09579,-17.09689 28.1252,-29.92645 37.69942,-53.56562 l 7.38865,-18.24295 9.27734,0.77478 c 12.03707,1.00525 18.98312,-3.63742 25.95562,-17.34848 3.01807,-5.93489 12.1434,-19.70401 20.27848,-30.59802 10.10032,-13.52573 15.65249,-23.39813 17.50737,-31.13007 5.68072,-23.67994 -3.7028,-45.97833 -19.34841,-45.97833 -4.19658,0 -10.40468,1.05488 -13.79577,2.34418 -3.3911,1.2893 -6.52232,1.98748 -6.95828,1.55154 -0.73318,-0.73321 3.28168,-16.53813 11.9563,-47.06721 l 3.51952,-12.38653 13.50745,24.74796 c 7.42907,13.61138 14.13347,25.34231 14.89867,26.06874 2.47459,2.34922 -1.77998,-18.50332 -9.73375,-47.70716 -7.41127,-27.21197 -28.15921,-75.25218 -32.50042,-75.25218 -1.08723,0 1.41636,6.41353 5.56354,14.2523 14.01526,26.49089 36.03553,90.65665 31.10537,90.6392 -0.85019,-0.002 -6.16354,-8.2369 -11.80746,-18.29752 -8.82648,-15.73375 -13.70485,-21.19318 -34.88098,-39.0355 -13.54062,-11.40891 -24.23911,-21.12367 -23.77439,-21.58839 0.46471,-0.46471 9.86095,1.76891 20.88056,4.96361 11.01961,3.19469 20.42782,5.41638 20.90711,4.93707 0.47931,-0.47931 -9.63917,-4.24623 -22.48549,-8.37091 -17.40446,-5.58825 -26.84384,-10.17068 -37.03917,-17.98103 -7.52522,-5.76487 -14.1953,-11.03644 -14.8224,-11.71465 -4.8414,-5.23593 -54.55033,-47.9723 -55.7991,-47.9723 -2.02089,0 8.7576,13.66782 31.28028,39.66547 9.7174,11.21668 17.24629,20.81566 16.73086,21.33109 -1.12876,1.12876 -54.61071,-40.35906 -71.87224,-55.75381 -6.74889,-6.01901 -15.18808,-14.94577 -18.75373,-19.83721 -4.9188,-6.74768 -6.48304,-7.81826 -6.48304,-4.43709 0,7.98086 13.01554,25.25563 39.84678,52.88634 l 26.32702,27.11144 -8.57294,1.41696 c -4.71512,0.77931 -11.27795,1.42824 -14.5841,1.44203 -10.0253,0.042 -44.55211,-24.40585 -72.09147,-51.04647 -7.83877,-7.58296 -14.25231,-12.45563 -14.25231,-10.82815 0,1.62748 13.8386,16.73378 30.75247,33.56959 27.33775,27.21155 30.05975,30.60086 24.51396,30.52354 -21.80938,-0.30402 -97.16335,-57.25476 -126.60969,-95.68853 -9.07628,-11.84652 -11.04314,-13.50503 -9.79658,-8.26073 2.74518,11.54893 23.43556,55.64878 35.56192,75.79732 6.45769,10.72978 11.35252,19.89741 10.87741,20.37253 -1.67635,1.67634 -30.4219,-24.93618 -40.55167,-37.54256 -12.85708,-16.00053 -25.26815,-39.46501 -32.90107,-62.20314 -5.4094,-16.11436 -5.69794,-18.8714 -3.5558,-33.9755 2.98635,-21.05648 1.37084,-23.10697 -2.16526,-2.74828 -10.04892,57.85542 -16.21518,70.83021 -54.06691,113.76535 -13.4721,15.28136 -15.1088,16.38607 -29.56102,19.95252 -8.41461,2.0765 -20.89044,6.33518 -27.72407,9.46374 -13.26636,6.07353 -35.67199,21.50146 -33.85903,23.31442 0.6001,0.6001 5.82786,-2.52571 11.61726,-6.94625 9.30218,-7.10274 33.23328,-18.47245 48.81055,-23.19001 5.04277,-1.52719 5.20754,-1.32191 2.28037,2.84115 -1.73532,2.468 -18.74579,21.67231 -37.80103,42.67627 -25.95339,28.60755 -36.91626,42.56309 -43.69486,55.62278 -9.78592,18.85362 -17.1565,42.85616 -13.79753,44.93212 1.13504,0.70149 2.19198,-0.83744 2.34876,-3.41987 0.89653,-14.76783 21.79002,-61.15193 28.53555,-63.34965 2.65897,-0.86634 12.22604,26.89802 12.22604,35.48087 0,2.55413 -1.95693,5.24428 -4.37269,6.01101 -12.53485,3.9784 -23.34705,19.14311 -26.30112,36.88878 -1.96184,11.78511 0.91466,17.73263 28.59576,59.12523 23.47852,35.10831 27.07277,38.94466 39.62304,42.29206 16.7906,4.47837 18.98659,6.16265 26.55925,20.37043 4.13439,7.7569 14.65027,21.93197 23.36865,31.50012 8.71835,9.56816 18.44903,23.03759 21.62371,29.93211 5.49881,11.94181 5.77191,14.47956 5.76696,53.58867 -0.002,22.57926 -0.19406,43.10554 -0.42483,45.61395 -0.23077,2.5084 -0.46795,9.37929 -0.52702,15.26862 -0.0591,5.88933 -0.42214,12.55941 -0.80681,14.8224 -0.38468,2.26299 -2.44944,15.91542 -4.58836,30.33876 -2.13889,14.42333 -5.36755,33.94393 -7.17479,43.37912 -1.80724,9.43516 -3.28588,19.40418 -3.28588,22.15335 0,7.81428 -6.83048,9.71971 -34.84241,9.71971 l -26.02077,0 -17.20713,-39.33637 c -27.62271,-63.14691 -36.07808,-88.37322 -44.14042,-131.69131 -0.58357,-3.13551 -1.57677,-7.15174 -2.20709,-8.92496 -0.63032,-1.77321 -1.71699,-6.90404 -2.41481,-11.40184 -0.69782,-4.4978 -3.26895,-17.92639 -5.71362,-29.84132 -2.44468,-11.91493 -4.9787,-25.25509 -5.63117,-29.6448 -0.65248,-4.38971 -2.67514,-17.21679 -4.49482,-28.50461 -4.47376,-27.75171 -8.624082,-108.47392 -7.09331,-137.96233 1.27234,-24.51018 4.37983,-38.11815 19.00704,-83.23347 13.63507,-42.05523 31.86208,-83.78662 44.81983,-102.61661 l 4.70766,-6.84111 -5.24014,4.56074 c -8.26763,7.1957 -30.65605,55.78677 -44.6066,96.81264 -12.50957,36.78823 -16.74947,46.80551 -14.03881,33.1684 0.7479,-3.76261 1.79844,-9.40653 2.33454,-12.54203 2.26889,-13.27029 12.89667,-56.68852 15.92141,-65.04463 8.23995,-22.76363 35.2427,-75.0374 48.56275,-94.01112 1.98109,-2.82195 2.94071,-5.13083 2.1325,-5.13083 -2.90892,0 -26.95767,39.22472 -36.84289,60.09263 -29.85109,63.01627 -41.220858,126.3197 -39.154963,218.00294 1.616393,71.73437 7.929803,116.39946 32.409683,229.28655 8.58965,39.61051 9.28467,36.11104 -7.55227,38.0268 -45.904998,5.22327 -77.143142,31.23985 -88.505229,73.71129 -1.67764,6.27101 -3.062436,14.65296 -3.077322,18.62653 -0.04835,12.90709 -1.649525,14.43882 -15.093438,14.43882 -9.6573493,0 -12.2980564,-0.7691 -12.2980564,-3.58176 0,-1.96996 5.0817503,-23.35631 11.2927784,-47.52521 C 53.184921,722.01909 67.252251,599.91692 54.99376,528.67807 48.624215,491.66219 49.839335,391.79356 57.102431,355.37002 67.895272,301.24523 82.555101,254.27494 99.296449,220.1798 c 5.717651,-11.64448 10.395731,-21.76363 10.395731,-22.487 0,-2.76976 23.33644,-39.77391 38.72956,-61.41273 C 180.7714,90.804633 218.99509,58.45885 268.03177,35.063237 340.02138,0.71669632 404.30772,-6.1991165 477.46782,12.532478 c 9.75643,2.497998 20.53117,5.998449 23.94388,7.77878 3.41269,1.780332 7.39784,3.243289 8.85588,3.251015 4.2247,0.02235 50.00092,24.29848 65.40149,34.683784 18.43692,12.432842 45.0816,38.202877 57.68791,55.794223 23.60088,32.93362 51.407,111.90694 61.28521,174.05885 0.69771,4.38972 1.68599,9.52055 2.19625,11.40185 0.51023,1.8813 1.58851,8.96372 2.39612,15.7387 0.80764,6.77497 1.82265,14.15755 2.25563,16.40572 2.83089,14.6997 3.72895,46.05687 4.23882,148.00474 0.62199,124.36658 1.99083,143.38025 14.28272,198.39211 6.98065,31.2416 14.16509,51.21061 41.84183,116.29882 21.62928,50.86614 47.91193,116.9308 47.91193,120.43249 0,1.10582 -11.54437,2.67581 -25.65416,3.48883 -25.75907,1.48429 -146.50194,1.35283 -171.02768,-0.18631 l 0,1.2e-4 z m 18.62524,-23.49909 c -1.98338,-18.68785 -1.35023,-56.78167 1.3059,-78.57254 2.99065,-24.53513 4.06247,-28.50406 7.69221,-28.48422 7.61768,0.0417 48.18978,15.4609 59.09524,22.4589 15.15754,9.72657 35.17982,31.07931 42.11609,44.9146 7.23565,14.43253 10.60002,24.92945 14.47598,45.16558 l 3.11848,16.28138 -1.25637,-15.17754 c -2.48485,-30.01778 -14.05307,-55.20416 -34.68471,-75.51572 -17.35886,-17.08959 -34.49093,-26.97057 -61.95152,-35.73072 -12.53726,-3.99949 -23.17826,-7.97525 -23.64665,-8.83499 -0.46839,-0.85975 0.47929,-9.23442 2.10594,-18.61037 1.62668,-9.37596 3.51693,-21.04628 4.2006,-25.93404 0.68366,-4.88777 4.82554,-32.10616 9.20417,-60.48535 14.31852,-92.80241 15.89004,-110.2784 15.81591,-175.87862 -0.0584,-51.71807 -0.76853,-64.217 -4.92537,-86.70027 -8.1453,-44.05557 -21.75324,-81.12785 -40.16116,-109.41147 -10.84338,-16.66077 -10.48511,-13.36894 0.66072,6.07071 11.51862,20.08984 23.61311,49.5539 29.80682,72.61415 9.77503,36.39405 11.15634,51.60672 10.97302,120.84743 -0.2066,78.01809 -0.74315,83.43923 -21.33,215.49488 -15.46624,99.20919 -17.94852,123.51986 -16.27851,159.42664 1.20983,26.01201 3.15806,40.41854 5.19099,38.38562 0.41842,-0.41841 -0.26909,-10.46423 -1.52778,-22.32404 z m -417.0454,-47.60569 c -4.37777,-67.51938 -12.90915,-128.04592 -18.82894,-133.58345 -1.65018,-1.54363 -1.97332,-1.44918 -1.00016,0.29232 1.57842,2.82462 9.87855,52.25452 11.82122,70.39912 0.67141,6.27101 1.67105,13.96726 2.22142,17.10277 0.55036,3.1355 1.72281,18.52799 2.60543,34.20553 0.88262,15.67754 1.81038,31.07003 2.06168,34.20554 0.25131,3.1355 0.78327,14.42333 1.18215,25.08406 0.67079,17.92789 0.79234,18.35592 1.61903,5.70092 0.49159,-7.52522 -0.26523,-31.55828 -1.68183,-53.40681 z"
       id="path5316"
       inkscape:connector-curvature="0"
       transform="translate(96.653346,81.143457)" />
    <path
       style="fill:#ffffff;stroke:none;stroke-width:1;stroke-linejoin:round;stroke-miterlimit:4;stroke-dasharray:none;stroke-opacity:1"
       d="m 613.08365,918.0762 c -7.21166,-0.45254 -13.11212,-1.83292 -13.11212,-3.06751 0,-6.96461 -9.66012,-65.52973 -11.44059,-69.35932 -1.85268,-3.98494 -1.98912,-3.84098 -1.08064,1.14019 0.57185,3.1355 2.59852,16.47566 4.50373,29.64479 1.90518,13.16914 4.1097,27.792 4.89891,32.49526 l 1.43495,8.55139 -22.82282,0 c -16.19842,0 -23.5528,-0.87954 -25.33771,-3.03023 -3.01535,-3.63326 -14.02844,-32.25452 -15.50569,-40.29678 -0.57593,-3.13551 -1.95496,-9.80559 -3.06447,-14.8224 -1.10951,-5.01682 -2.66197,-14.25231 -3.44988,-20.52333 -0.78791,-6.27101 -1.84924,-13.95702 -2.35852,-17.07998 -1.4297,-8.7675 -3.41063,-60.46951 -4.12537,-107.67201 l -0.64591,-42.65872 15.52701,-13.90168 c 19.09579,-17.09689 28.1252,-29.92645 37.69942,-53.56562 l 7.38865,-18.24295 9.27734,0.77478 c 12.03707,1.00525 18.98312,-3.63742 25.95562,-17.34848 3.01807,-5.93489 12.1434,-19.70401 20.27848,-30.59802 10.10032,-13.52573 15.65249,-23.39813 17.50737,-31.13007 5.68072,-23.67994 -3.7028,-45.97833 -19.34841,-45.97833 -4.19658,0 -10.40468,1.05488 -13.79577,2.34418 -3.3911,1.2893 -6.52232,1.98748 -6.95828,1.55154 -0.73318,-0.73321 3.28168,-16.53813 11.9563,-47.06721 l 3.51952,-12.38653 13.50745,24.74796 c 7.42907,13.61138 14.13347,25.34231 14.89867,26.06874 2.47459,2.34922 -1.77998,-18.50332 -9.73375,-47.70716 -7.41127,-27.21197 -28.15921,-75.25218 -32.50042,-75.25218 -1.08723,0 1.41636,6.41353 5.56354,14.2523 14.01526,26.49089 36.03553,90.65665 31.10537,90.6392 -0.85019,-0.002 -6.16354,-8.2369 -11.80746,-18.29752 -8.82648,-15.73375 -13.70485,-21.19318 -34.88098,-39.0355 -13.54062,-11.40891 -24.23911,-21.12367 -23.77439,-21.58839 0.46471,-0.46471 9.86095,1.76891 20.88056,4.96361 11.01961,3.19469 20.42782,5.41638 20.90711,4.93707 0.47931,-0.47931 -9.63917,-4.24623 -22.48549,-8.37091 -17.40446,-5.58825 -26.84384,-10.17068 -37.03917,-17.98103 -7.52522,-5.76487 -14.1953,-11.03644 -14.8224,-11.71465 -4.8414,-5.23593 -54.55033,-47.9723 -55.7991,-47.9723 -2.02089,0 8.7576,13.66782 31.28028,39.66547 9.7174,11.21668 17.24629,20.81566 16.73086,21.33109 -1.12876,1.12876 -54.61071,-40.35906 -71.87224,-55.75381 -6.74889,-6.01901 -15.18808,-14.94577 -18.75373,-19.83721 -4.9188,-6.74768 -6.48304,-7.81826 -6.48304,-4.43709 0,7.98086 13.01554,25.25563 39.84678,52.88634 l 26.32702,27.11144 -8.57294,1.41696 c -4.71512,0.77931 -11.27795,1.42824 -14.5841,1.44203 -10.0253,0.042 -44.55211,-24.40585 -72.09147,-51.04647 -7.83877,-7.58296 -14.25231,-12.45563 -14.25231,-10.82815 0,1.62748 13.8386,16.73378 30.75247,33.56959 27.33775,27.21155 30.05975,30.60086 24.51396,30.52354 -21.80938,-0.30402 -97.16335,-57.25476 -126.60969,-95.68853 -9.07628,-11.84652 -11.04314,-13.50503 -9.79658,-8.26073 2.74518,11.54893 23.43556,55.64878 35.56192,75.79732 6.45769,10.72978 11.35252,19.89741 10.87741,20.37253 -1.67635,1.67634 -30.4219,-24.93618 -40.55167,-37.54256 -12.85708,-16.00053 -25.26815,-39.46501 -32.90107,-62.20314 -5.4094,-16.11436 -5.69794,-18.8714 -3.5558,-33.9755 2.98635,-21.05648 1.37084,-23.10697 -2.16526,-2.74828 -10.04892,57.85542 -16.21518,70.83021 -54.06691,113.76535 -13.4721,15.28136 -15.1088,16.38607 -29.56102,19.95252 -8.41461,2.0765 -20.89044,6.33518 -27.72407,9.46374 -13.26636,6.07353 -35.67199,21.50146 -33.85903,23.31442 0.6001,0.6001 5.82786,-2.52571 11.61726,-6.94625 9.30218,-7.10274 33.23328,-18.47245 48.81055,-23.19001 5.04277,-1.52719 5.20754,-1.32191 2.28037,2.84115 -1.73532,2.468 -18.74579,21.67231 -37.80103,42.67627 -25.95339,28.60755 -36.91626,42.56309 -43.69486,55.62278 -9.78592,18.85362 -17.1565,42.85616 -13.79753,44.93212 1.13504,0.70149 2.19198,-0.83744 2.34876,-3.41987 0.89653,-14.76783 21.79002,-61.15193 28.53555,-63.34965 2.65897,-0.86634 12.22604,26.89802 12.22604,35.48087 0,2.55413 -1.95693,5.24428 -4.37269,6.01101 -12.53485,3.9784 -23.34705,19.14311 -26.30112,36.88878 -1.96184,11.78511 0.91466,17.73263 28.59576,59.12523 23.47852,35.10831 27.07277,38.94466 39.62304,42.29206 16.7906,4.47837 18.98659,6.16265 26.55925,20.37043 4.13439,7.7569 14.65027,21.93197 23.36865,31.50012 8.71835,9.56816 18.44903,23.03759 21.62371,29.93211 5.49881,11.94181 5.77191,14.47956 5.76696,53.58867 -0.002,22.57926 -0.19406,43.10554 -0.42483,45.61395 -0.23077,2.5084 -0.46795,9.37929 -0.52702,15.26862 -0.0591,5.88933 -0.42214,12.55941 -0.80681,14.8224 -0.38468,2.26299 -2.44944,15.91542 -4.58836,30.33876 -2.13889,14.42333 -5.36755,33.94393 -7.17479,43.37912 -1.80724,9.43516 -3.28588,19.40418 -3.28588,22.15335 0,7.81428 -6.83048,9.71971 -34.84241,9.71971 l -26.02077,0 -17.20713,-39.33637 c -27.62271,-63.14691 -36.07808,-88.37322 -44.14042,-131.69131 -0.58357,-3.13551 -1.57677,-7.15174 -2.20709,-8.92496 -0.63032,-1.77321 -1.71699,-6.90404 -2.41481,-11.40184 -0.69782,-4.4978 -3.26895,-17.92639 -5.71362,-29.84132 -2.44468,-11.91493 -4.9787,-25.25509 -5.63117,-29.6448 -0.65248,-4.38971 -2.67514,-17.21679 -4.49482,-28.50461 -4.47376,-27.75171 -8.624082,-108.47392 -7.09331,-137.96233 1.27234,-24.51018 4.37983,-38.11815 19.00704,-83.23347 13.63507,-42.05523 31.86208,-83.78662 44.81983,-102.61661 l 4.70766,-6.84111 -5.24014,4.56074 c -8.26763,7.1957 -30.65605,55.78677 -44.6066,96.81264 -12.50957,36.78823 -16.74947,46.80551 -14.03881,33.1684 0.7479,-3.76261 1.79844,-9.40653 2.33454,-12.54203 2.26889,-13.27029 12.89667,-56.68852 15.92141,-65.04463 8.23995,-22.76363 35.2427,-75.0374 48.56275,-94.01112 1.98109,-2.82195 2.94071,-5.13083 2.1325,-5.13083 -2.90892,0 -26.95767,39.22472 -36.84289,60.09263 -29.85109,63.01627 -41.220858,126.3197 -39.154963,218.00294 1.616393,71.73437 7.929803,116.39946 32.409683,229.28655 8.58965,39.61051 9.28467,36.11104 -7.55227,38.0268 -45.904998,5.22327 -77.143142,31.23985 -88.505229,73.71129 -1.67764,6.27101 -3.062436,14.65296 -3.077322,18.62653 -0.04835,12.90709 -1.649525,14.43882 -15.093438,14.43882 -9.6573493,0 -12.2980564,-0.7691 -12.2980564,-3.58176 0,-1.96996 5.0817503,-23.35631 11.2927784,-47.52521 C 53.184921,722.01909 67.252251,599.91692 54.99376,528.67807 48.624215,491.66219 49.839335,391.79356 57.102431,355.37002 67.895272,301.24523 82.555101,254.27494 99.296449,220.1798 c 5.717651,-11.64448 10.395731,-21.76363 10.395731,-22.487 0,-2.76976 23.33644,-39.77391 38.72956,-61.41273 C 180.7714,90.804633 218.99509,58.45885 268.03177,35.063237 340.02138,0.71669632 404.30772,-6.1991165 477.46782,12.532478 c 9.75643,2.497998 20.53117,5.998449 23.94388,7.77878 3.41269,1.780332 7.39784,3.243289 8.85588,3.251015 4.2247,0.02235 50.00092,24.29848 65.40149,34.683784 18.43692,12.432842 45.0816,38.202877 57.68791,55.794223 23.60088,32.93362 51.407,111.90694 61.28521,174.05885 0.69771,4.38972 1.68599,9.52055 2.19625,11.40185 0.51023,1.8813 1.58851,8.96372 2.39612,15.7387 0.80764,6.77497 1.82265,14.15755 2.25563,16.40572 2.83089,14.6997 3.72895,46.05687 4.23882,148.00474 0.62199,124.36658 1.99083,143.38025 14.28272,198.39211 6.98065,31.2416 14.16509,51.21061 41.84183,116.29882 21.62928,50.86614 47.91193,116.9308 47.91193,120.43249 0,1.10582 -11.54437,2.67581 -25.65416,3.48883 -25.75907,1.48429 -146.50194,1.35283 -171.02768,-0.18631 l 0,1.2e-4 z m 18.62524,-23.49909 c -1.98338,-18.68785 -1.35023,-56.78167 1.3059,-78.57254 2.99065,-24.53513 4.06247,-28.50406 7.69221,-28.48422 7.61768,0.0417 48.18978,15.4609 59.09524,22.4589 15.15754,9.72657 35.17982,31.07931 42.11609,44.9146 7.23565,14.43253 10.60002,24.92945 14.47598,45.16558 l 3.11848,16.28138 -1.25637,-15.17754 c -2.48485,-30.01778 -14.05307,-55.20416 -34.68471,-75.51572 -17.35886,-17.08959 -34.49093,-26.97057 -61.95152,-35.73072 -12.53726,-3.99949 -23.17826,-7.97525 -23.64665,-8.83499 -0.46839,-0.85975 0.47929,-9.23442 2.10594,-18.61037 1.62668,-9.37596 3.51693,-21.04628 4.2006,-25.93404 0.68366,-4.88777 4.82554,-32.10616 9.20417,-60.48535 14.31852,-92.80241 15.89004,-110.2784 15.81591,-175.87862 -0.0584,-51.71807 -0.76853,-64.217 -4.92537,-86.70027 -8.1453,-44.05557 -21.75324,-81.12785 -40.16116,-109.41147 -10.84338,-16.66077 -10.48511,-13.36894 0.66072,6.07071 11.51862,20.08984 23.61311,49.5539 29.80682,72.61415 9.77503,36.39405 11.15634,51.60672 10.97302,120.84743 -0.2066,78.01809 -0.74315,83.43923 -21.33,215.49488 -15.46624,99.20919 -17.94852,123.51986 -16.27851,159.42664 1.20983,26.01201 3.15806,40.41854 5.19099,38.38562 0.41842,-0.41841 -0.26909,-10.46423 -1.52778,-22.32404 z m -417.0454,-47.60569 c -4.37777,-67.51938 -12.90915,-128.04592 -18.82894,-133.58345 -1.65018,-1.54363 -1.97332,-1.44918 -1.00016,0.29232 1.57842,2.82462 9.87855,52.25452 11.82122,70.39912 0.67141,6.27101 1.67105,13.96726 2.22142,17.10277 0.55036,3.1355 1.72281,18.52799 2.60543,34.20553 0.88262,15.67754 1.81038,31.07003 2.06168,34.20554 0.25131,3.1355 0.78327,14.42333 1.18215,25.08406 0.67079,17.92789 0.79234,18.35592 1.61903,5.70092 0.49159,-7.52522 -0.26523,-31.55828 -1.68183,-53.40681 z"
       id="path5318"
       inkscape:connector-curvature="0"
       transform="translate(96.653346,81.143457)" />
    <path
       style="fill:#ffffff;stroke:none;stroke-width:1;stroke-linejoin:round;stroke-miterlimit:4;stroke-dasharray:none;stroke-opacity:1"
       d="m 534.23978,375.5252 c -14.89481,-5.0433 -45.54598,-24.52801 -40.1253,-25.50735 2.40934,-0.43529 5.22954,-1.59205 6.26709,-2.57058 4.05476,-3.82407 18.14285,2.19233 29.5699,12.62799 6.52886,5.96242 13.25183,12.09578 14.93994,13.6297 4.99315,4.53705 -0.0716,5.40257 -10.65163,1.82024 z"
       id="path5320"
       inkscape:connector-curvature="0"
       transform="translate(96.653346,81.143457)" />
    <path
       style="fill:#ffffff;stroke:none;stroke-width:1;stroke-linejoin:round;stroke-miterlimit:4;stroke-dasharray:none;stroke-opacity:1"
       d="M 363.95333,719.16836 C 319.11501,707.28602 269.13236,678.21843 239.46966,646.77439 219.77812,625.90033 204.99597,595.94271 180.07157,526.3977 c -8.7759,-24.48685 -33.89348,-104.6911 -33.89348,-108.22704 0,-2.69431 40.91546,-49.45252 57.58368,-65.80666 l 14.68456,-14.40787 21.9053,-1.60178 c 22.49959,-1.64524 57.61176,-0.10421 67.73266,2.9727 4.08309,1.24133 5.03478,1.02665 3.35356,-0.75647 -4.21669,-4.47228 -37.59883,-7.71861 -63.66445,-6.19121 l -24.96517,1.46291 15.99171,-16.60056 c 23.30485,-24.19213 38.14964,-47.71883 44.13517,-69.94739 1.47262,-5.4689 3.47607,-9.0433 4.4521,-7.94311 0.97604,1.10019 4.57095,9.18351 7.98869,17.96293 14.00219,35.96847 38.45751,66.1985 72.40684,89.50449 9.59159,6.58456 18.12054,11.97194 18.95319,11.97194 0.83265,0 -3.01775,-5.38738 -8.55647,-11.97194 -5.53872,-6.58457 -13.39191,-16.88737 -17.45154,-22.89512 -7.14293,-10.57064 -29.74066,-55.5686 -29.80716,-59.35382 -0.018,-1.02626 7.93225,6.15691 17.66729,15.96259 21.42384,21.57929 46.20889,40.48701 77.57136,59.17665 l 23.46559,13.98372 -8.0602,1.5121 c -4.43312,0.83166 -8.06021,2.49177 -8.06021,3.68915 0,2.70686 1.40418,2.57103 11.40185,-1.10287 7.30655,-2.68498 9.04159,-2.4033 20.52332,3.3319 19.77262,9.87658 41.24966,18.50335 43.8815,17.62606 1.32421,-0.4414 -2.62005,-4.03619 -8.76498,-7.98842 -21.22442,-13.65085 -26.97779,-18.57713 -23.33064,-19.97668 2.81181,-1.07899 13.67054,4.56056 49.69501,25.80945 2.24824,1.32611 -3.31283,3.19439 -17.10277,5.74579 -11.23882,2.0794 -24.3786,4.8896 -29.19946,6.24489 -14.43855,4.05911 -7.514,5.15662 8.04343,1.27485 7.92221,-1.97669 21.98444,-4.66113 31.24947,-5.96542 l 16.84545,-2.37145 21.12256,11.28607 c 11.61741,6.20734 21.64982,10.75881 22.29425,10.11437 0.64444,-0.64443 -10.97144,-11.82863 -25.81307,-24.85378 -14.84162,-13.02515 -27.73396,-24.89431 -28.64962,-26.37591 -1.22054,-1.97488 1.01285,-2.38915 8.36836,-1.55225 6.50419,0.74004 15.17064,4.46729 24.63909,10.59674 14.70403,9.51873 24.50396,13.03284 13.89876,4.9839 -16.27752,-12.35403 -15.51157,-11.33822 -8.60994,-11.41879 6.27526,-0.0733 22.39801,12.43377 50.87574,39.46619 l 12.39885,11.76959 -9.20398,31.92517 c -12.28645,42.61713 -29.72441,105.54636 -38.40619,138.59835 -3.88045,14.77314 -10.25935,33.2073 -14.17532,40.96475 -8.70859,17.25163 -29.19139,39.00371 -49.51534,52.58369 -16.63657,11.11619 -48.26079,27.63582 -48.26079,25.21014 0,-0.83723 -1.79579,0.0543 -3.99065,1.98094 -2.19486,1.92677 -14.76539,7.41261 -27.93452,12.19076 -13.16913,4.77815 -25.968,10.03084 -28.44193,11.67262 -6.2499,4.14767 -24.4622,3.51965 -43.3897,-1.4962 z m 42.63709,-56.81302 c 0.87473,-0.77873 -5.45731,-1.41988 -14.0712,-1.42478 -16.87268,-0.009 -18.22362,0.70352 -6.44802,3.40379 7.46091,1.71087 17.45737,0.74676 20.51922,-1.97901 z m 13.4002,-26.74394 c 11.82239,-2.01553 21.92283,-4.06786 22.44542,-4.56074 2.73234,-2.57709 -3.25436,-2.14813 -26.03422,1.86534 -18.0771,3.18492 -31.45402,4.12544 -47.88775,3.36696 -12.8712,-0.59405 -20.81719,-0.24124 -18.24295,0.80999 7.81483,3.19133 47.22177,2.35393 69.7195,-1.48155 z M 542.9623,516.52585 c 0,-1.03983 -5.13083,-4.29373 -11.40184,-7.23092 -6.27102,-2.93718 -11.40185,-5.72888 -11.40185,-6.20374 0,-0.47489 3.56101,-4.53007 7.91334,-9.01152 11.7971,-12.14709 17.73657,-26.25571 18.93867,-44.987 0.74071,-11.54184 0.0114,-18.67338 -2.52774,-24.7529 -4.05765,-9.71133 -2.57217,-10.36594 9.40203,-4.14321 18.09892,9.40561 27.15071,29.38702 24.60878,54.32275 -0.79908,7.83876 -0.96142,14.2523 -0.36077,14.2523 0.60065,0 4.73388,-6.51214 9.18498,-14.47145 10.8988,-19.48887 11.06971,-32.05702 0.67257,-49.45621 -6.20094,-10.377 -9.89142,-13.67564 -22.45762,-20.07307 -32.02824,-16.30555 -72.11865,-14.67823 -88.3456,3.58604 -9.11553,10.25998 -18.5986,28.14914 -18.5986,35.08493 0,4.73648 0.21732,4.7932 4.28012,1.11653 4.1629,-3.76737 4.24864,-3.32171 3.13138,16.27338 -0.98362,17.25117 -0.47758,21.46235 3.52073,29.29966 4.31413,8.45645 4.37951,9.33608 0.85924,11.56092 -2.98439,1.88619 1.13207,3.28542 18.99351,6.45607 20.93853,3.71687 51.65675,9.54186 53.01858,10.05371 0.31355,0.1179 0.57009,-0.63647 0.57009,-1.67627 z m -262.24244,-8.3711 c 15.67754,-1.8595 29.78732,-3.38984 31.35508,-3.40074 1.56775,-0.0109 2.85046,-1.04598 2.85046,-2.30018 0,-1.25421 -4.1111,-2.28037 -9.13578,-2.28037 l -9.13578,0 6.72835,-9.28822 c 12.95362,-17.88195 13.94012,-45.81368 2.31399,-65.51849 -4.47745,-7.58871 -4.47725,-7.60162 0.0908,-6.15177 7.21127,2.28877 5.31469,-1.59446 -4.93876,-10.11202 -11.52873,-9.57696 -26.88492,-13.82648 -49.96374,-13.82648 -15.39142,0 -19.32433,0.94289 -33.48738,8.02837 -19.28203,9.64641 -33.07094,22.81253 -38.33938,36.60775 -3.85551,10.09548 -3.8362,10.28766 2.54134,25.29343 10.33096,24.30782 22.78928,35.33366 17.20645,15.22803 -7.44389,-26.80796 1.57665,-49.5055 24.22178,-60.94696 10.95891,-5.537 12.11066,-4.59667 7.09222,5.79031 -3.68219,7.62124 -4.40729,12.8694 -3.70201,26.79434 0.99385,19.62216 5.73268,31.48356 16.77632,41.99153 l 7.2354,6.88445 -5.94809,5.24173 -5.94811,5.24172 6.84111,0.0522 c 3.76261,0.0287 19.66818,-1.46917 35.34572,-3.32867 l 0,2e-5 z M 307.47285,396.6326 c -13.58079,-10.3054 -73.73927,-22.0315 -77.96345,-15.19665 -1.24882,2.02064 0.41281,2.33565 6.39771,1.21288 10.16234,-1.90647 39.47045,3.89111 57.49302,11.37298 15.11633,6.27538 20.12708,7.20498 14.07272,2.61079 z"
       id="path5322"
       inkscape:connector-curvature="0"
       transform="translate(96.653346,81.143457)" />
    <path
       style="fill:#ffffff;stroke:none;stroke-width:1;stroke-linejoin:round;stroke-miterlimit:4;stroke-dasharray:none;stroke-opacity:1"
       d="m 553.77936,387.77102 c -5.04841,-3.04684 -7.71993,-6.08027 -6.73983,-7.65288 1.09924,-1.76376 4.15558,-0.48825 9.46223,3.94889 9.86303,8.24696 8.30879,10.36159 -2.7224,3.70399 z"
       id="path5324"
       inkscape:connector-curvature="0"
       transform="translate(96.653346,81.143457)" />
    <path
       style="fill:#ffffff;stroke:none;stroke-width:1;stroke-linejoin:round;stroke-miterlimit:4;stroke-dasharray:none;stroke-opacity:1"
       d=""
       id="path5326"
       inkscape:connector-curvature="0"
       transform="translate(96.653346,81.143457)" />
    <path
       style="fill:#ffffff;stroke:none;stroke-width:1;stroke-linejoin:round;stroke-miterlimit:4;stroke-dasharray:none;stroke-opacity:1"
       d="M 363.95333,719.20268 C 321.32659,707.99806 276.33349,682.4497 245.28254,651.818 227.29647,634.07479 223.05376,628.333 213.96195,609.43107 194.67425,569.33174 166.75183,492.43222 150.84439,435.6027 l -4.98897,-17.82319 9.8529,-12.77314 c 5.4191,-7.02522 21.65381,-24.9991 36.07715,-39.94194 l 26.22424,-27.16882 22.12361,-1.57152 c 22.75471,-1.61636 57.85965,-0.065 67.95097,3.00296 4.08309,1.24133 5.03478,1.02665 3.35356,-0.75647 -4.20817,-4.46325 -37.59669,-7.71873 -63.5617,-6.19746 l -24.86243,1.45668 16.48056,-17.34974 c 19.13716,-20.14646 31.64737,-38.61143 38.82438,-57.30448 9.40596,-24.49854 8.48707,-23.32806 11.60637,-14.78411 11.68067,31.99406 33.88008,66.0786 54.96616,84.39397 11.59708,10.07323 39.39779,30.00514 41.85067,30.00514 0.92733,0 -1.87905,-3.94614 -6.2364,-8.7692 -11.99563,-13.27773 -25.06696,-33.4292 -36.46818,-56.22132 -16.65167,-33.28827 -16.07808,-34.29157 6.73619,-11.78264 22.28004,21.98185 47.74417,41.16761 78.77199,59.3502 19.54522,11.45368 19.83606,11.74976 13.22438,13.46302 -3.71818,0.96348 -7.38452,2.7617 -8.14739,3.99605 -1.75504,2.83972 0.30979,2.63082 10.28399,-1.04044 7.04488,-2.59305 9.04191,-2.40424 17.0214,1.60934 17.17624,8.63946 45.28261,20.05368 47.53302,19.30355 1.24193,-0.41398 -2.76965,-3.98633 -8.91458,-7.93856 -21.00551,-13.51005 -26.96074,-18.58368 -23.41148,-19.94566 1.81175,-0.69523 14.46203,5.16065 28.11175,13.01308 28.16299,16.20165 29.02506,14.042 -8.51353,21.3278 -11.00278,2.13551 -20.62331,4.88314 -21.37898,6.10583 -0.7992,1.29314 0.41486,1.66851 2.90227,0.89733 6.28903,-1.9498 34.57457,-7.55723 46.85399,-9.2885 9.62012,-1.35635 12.68216,-0.4826 31.59282,9.0149 11.51715,5.78425 21.38043,10.07664 21.91843,9.53863 0.53801,-0.538 -9.06102,-9.73649 -21.33116,-20.44108 -12.27017,-10.70459 -24.87479,-22.26606 -28.0103,-25.69216 l -5.70092,-6.22927 10.3599,1.1107 c 6.92354,0.74227 15.4687,4.33719 25.76181,10.83787 16.43601,10.38027 23.7992,11.69854 8.39184,1.50243 -10.68473,-7.07082 -11.19743,-8.28264 -3.50422,-8.28264 3.85057,0 13.1581,6.48864 29.07471,20.26909 12.8761,11.148 25.69294,22.72975 28.4819,25.73723 l 5.07079,5.46813 -9.18403,31.84209 c -5.0512,17.51315 -17.37935,62.0423 -27.3959,98.95365 -12.7048,46.81769 -20.63031,71.71385 -26.20962,82.33129 -9.00641,17.13923 -27.35362,36.50903 -47.68829,50.34617 -15.14484,10.30561 -49.02793,28.02505 -49.02793,25.63954 0,-0.83548 -1.79579,0.0657 -3.99065,2.00246 -2.19486,1.93683 -14.25231,7.33647 -26.79434,11.99919 -12.54203,4.66271 -25.57468,9.90715 -28.96146,11.6543 -8.2961,4.27975 -24.69672,3.80637 -44.01035,-1.2703 z m 42.18045,-56.55293 c -0.005,-0.94065 -6.06321,-1.71027 -13.46604,-1.71027 -7.40281,0 -12.98328,0.76962 -12.40106,1.71027 0.58223,0.94066 6.64194,1.71028 13.46604,1.71028 6.82409,0 12.40457,-0.76962 12.40106,-1.71028 z m 12.69317,-27.08043 c 13.08952,-2.03867 23.79912,-4.42314 23.79912,-5.29887 0,-0.87571 -11.54437,0.33196 -25.65416,2.68372 -16.45477,2.7426 -33.19987,3.99245 -46.69673,3.48541 -11.57344,-0.43478 -19.78277,0.009 -18.24296,0.98802 4.80182,3.05047 41.90512,2.01821 66.79473,-1.85828 z M 532.70064,510.05088 c -6.27101,-3.23003 -11.84825,-6.27959 -12.39385,-6.77678 -0.54562,-0.49719 2.68062,-4.73327 7.16941,-9.41352 12.37664,-12.9045 18.33002,-26.62324 19.53118,-45.00684 0.74074,-11.33673 0.007,-18.45317 -2.5245,-24.51397 -4.06296,-9.72401 -2.60792,-10.35074 9.58692,-4.12939 17.91704,9.14059 26.9751,29.2821 24.42389,54.30893 -0.79908,7.83876 -0.96142,14.2523 -0.36077,14.2523 0.60065,0 4.73388,-6.51214 9.18498,-14.47145 9.37204,-16.75877 10.45319,-29.21492 3.79114,-43.67796 -5.96914,-12.9587 -14.43111,-21.12265 -28.2097,-27.2162 -25.28977,-11.18433 -51.50968,-12.79575 -72.37303,-4.4479 -12.89765,5.16061 -31.93766,32.36141 -31.93766,45.6265 0,3.58851 0.29029,3.58452 4.31667,-0.0593 4.21022,-3.81021 4.28728,-3.43586 3.12566,15.18374 -1.00225,16.06476 -0.4418,20.78396 3.53639,29.77732 2.60008,5.8779 3.75894,10.68709 2.57527,10.68709 -1.18367,0 -2.15215,0.91103 -2.15215,2.02451 0,2.27547 53.77891,13.30235 66.13071,13.55953 l 7.98129,0.16624 -11.40185,-5.87282 0,-4e-5 z m -251.98078,-1.89613 c 15.67754,-1.8595 29.84789,-3.38984 31.48966,-3.40074 1.64177,-0.0109 2.35083,-1.04598 1.57569,-2.30018 -0.77514,-1.25421 -4.99258,-2.28037 -9.3721,-2.28037 l -7.96277,0 5.45252,-7.4112 c 13.27746,-18.04705 15.53608,-43.36556 5.65052,-63.34066 -5.12349,-10.35268 -5.25941,-11.31526 -1.42601,-10.09859 5.96339,1.89271 5.27039,-0.53075 -2.03373,-7.11199 -12.74784,-11.48624 -22.86426,-15.05655 -46.32556,-16.34934 -21.27574,-1.17236 -22.83957,-0.92899 -37.19415,5.78833 -18.92052,8.85398 -36.47076,25.05129 -41.54756,38.3447 -3.79757,9.94379 -3.76565,10.29754 2.19316,24.30296 6.47296,15.21384 16.03381,28.84974 18.50905,26.39805 0.83095,-0.82303 0.41558,-5.44078 -0.92306,-10.26166 -7.44389,-26.80796 1.57665,-49.5055 24.22178,-60.94696 11.03363,-5.57475 12.26812,-4.58156 7.46303,6.00427 -9.72172,21.41741 -3.5663,52.84644 13.48813,68.86924 l 7.16245,6.72921 -6.30394,5.16073 -6.30394,5.16073 6.84111,0.0623 c 3.76261,0.0342 19.66818,-1.45923 35.34572,-3.31873 l 0,-5e-5 z m 28.06948,-110.80499 c -1.3681,-1.36811 -11.36069,-5.46921 -22.20576,-9.11357 -22.59332,-7.59222 -48.55657,-10.86174 -55.13358,-6.9429 -3.48959,2.07922 -2.48942,2.30422 5.20919,1.17184 11.30061,-1.66218 38.22697,3.86229 57.16164,11.72784 14.50094,6.02376 18.72667,6.91494 14.96851,3.15679 z"
       id="path5328"
       inkscape:connector-curvature="0"
       transform="translate(96.653346,81.143457)" />
    <path
       style="fill:#ffffff;stroke:none;stroke-width:1;stroke-linejoin:round;stroke-miterlimit:4;stroke-dasharray:none;stroke-opacity:1"
       d=""
       id="path5330"
       inkscape:connector-curvature="0"
       transform="translate(96.653346,81.143457)" />
    <path
       style="fill:#ffffff;stroke:none;stroke-width:1;stroke-linejoin:round;stroke-miterlimit:4;stroke-dasharray:none;stroke-opacity:1"
       d="m 474.13797,362.14095 c -12.888,-6.71116 -16.93787,-11.60674 -7.67939,-9.28301 6.88481,1.72797 19.4945,10.26785 19.4945,13.20259 0,2.35947 0.66975,2.58166 -11.81511,-3.91958 z"
       id="path5332"
       inkscape:connector-curvature="0"
       transform="translate(96.653346,81.143457)" />
    <path
       style="fill:#ffffff;stroke:none;stroke-width:1;stroke-linejoin:round;stroke-miterlimit:4;stroke-dasharray:none;stroke-opacity:1"
       d="m 163.42523,903.22869 c -0.8717,-7.83877 -3.56966,-23.2204 -5.99547,-34.18139 -7.35277,-33.22342 -5.87889,-32.80835 10.03605,2.82632 3.0808,6.89811 8.78688,19.61058 12.68018,28.24993 3.89331,8.63934 7.07874,16.07905 7.07874,16.53267 0,0.45363 -4.99828,0.82478 -11.1073,0.82478 l -11.1073,0 -1.5849,-14.25231 z"
       id="path5334"
       inkscape:connector-curvature="0"
       transform="translate(96.653346,81.143457)" />
  </g>
</svg>
