<?xml version="1.0" encoding="utf-8"?>
<!-- Generator: Adobe Illustrator 19.2.1, SVG Export Plug-In . SVG Version: 6.00 Build 0)  -->
<svg version="1.1" id="Layer_1" xmlns="http://www.w3.org/2000/svg" xmlns:xlink="http://www.w3.org/1999/xlink" x="0px" y="0px"
	 viewBox="0 0 45 30" style="enable-background:new 0 0 45 30;" xml:space="preserve">
<style type="text/css">
	.st0{fill:#262626;}
	.st1{fill:#00F3FF;}
	.st2{fill:#BC2E2E;}
	.st3{fill:#D4C700;}
	.st4{fill:#34A520;}
	.st5{fill:#930D0D;}
	.st6{fill:#BA0C99;}
	.st7{fill:#1061E2;}
</style>
<!--fond-->
<rect y="0.3" class="st0" width="45" height="30.1"/>
<!---->

<rect y="1.4" class="st1" width="45" height="3"/>
<ellipse class="st2" cx="23" cy="23.2" rx="5.6" ry="5.4"/>
<ellipse class="st3" cx="23" cy="11.9" rx="9.9" ry="4.7"/>
<rect x="39.3" y="5.2" class="st4" width="4.7" height="4.7"/>
<polygon class="st5" points="5.9,16.5 4.4,15.8 2.9,16.6 3.1,15 1.9,13.8 3.5,13.5 4.2,12 5,13.5 6.7,13.7 5.5,14.9 "/>
<polygon class="st6" points="42.9,16.5 41.4,15.8 39.9,16.6 40.1,15 38.9,13.8 40.5,13.5 41.2,12 42,13.5 43.7,13.7 42.5,14.9 "/>
<rect x="1.4" y="5.2" class="st7" width="4.7" height="4.7"/>
</svg>
