<?xml version="1.0" encoding="utf-8"?>
<!-- Generator: Adobe Illustrator 19.2.1, SVG Export Plug-In . SVG Version: 6.00 Build 0)  -->
<svg version="1.1" id="Layer_1" xmlns="http://www.w3.org/2000/svg" xmlns:xlink="http://www.w3.org/1999/xlink" x="0px" y="0px"
	 viewBox="0 0 60 40" style="enable-background:new 0 0 60 40;" xml:space="preserve">
<style type="text/css">
	.st0{fill:#9198FF;}
	.st1{fill:#DAE8FF;}
</style>
<rect class="st0" width="60" height="40"/>
<rect x="18.9" y="15.5" class="st1" width="18.2" height="5.3"/>
<ellipse class="st1" cx="8.1" cy="17.5" rx="5" ry="5.2"/>
<polygon class="st1" points="48,21.9 45.4,23.5 42.9,22 42.9,19 45.5,17.4 48.1,18.8 "/>
<path class="st1" d="M55.9,28.7V29c0,1.3-1.1,2.4-2.4,2.4H39.9c-1.3,0-2.4-1.1-2.4-2.4v-0.3c0-1.3,1.1-2.4,2.4-2.4h13.6
	C54.8,26.3,55.9,27.4,55.9,28.7z"/>
<ellipse class="st1" cx="29.2" cy="7.6" rx="5.3" ry="3.1"/>
<rect x="12.4" y="27.4" class="st1" width="9.1" height="7.9"/>
<polygon class="st1" points="50.7,13.3 47.9,11.9 45.2,13.4 45.7,10.3 43.5,8.2 46.5,7.7 47.8,4.9 49.3,7.7 52.3,8.1 50.1,10.3 "/>
</svg>
