<?xml version="1.0" encoding="utf-8"?>
<!-- Generator: Adobe Illustrator 19.2.1, SVG Export Plug-In . SVG Version: 6.00 Build 0)  -->
<svg version="1.1" id="Layer_1" xmlns="http://www.w3.org/2000/svg" xmlns:xlink="http://www.w3.org/1999/xlink" x="0px" y="0px"
	 viewBox="0 0 1000 500" style="enable-background:new 0 0 1000 500;" xml:space="preserve">
<style type="text/css">
	.st0{font-family:'GungsuhChe';}
	.st1{font-size:132.3186px;}
	.st2{fill:#FE580F;}
	.st3{fill:#FFFFFF;}
	.st4{fill:#FE8B0A;}
	.st5{font-size:126.7094px;}
	.st6{font-family:'CourierNewPSMT';}
	.st7{font-size:40.0809px;}
	.st8{opacity:0.1091;enable-background:new    ;}
</style>
<text transform="matrix(0.9934 0 0 1 234 398.4004)" class="st0 st1">SIMPL</text>
<ellipse class="st2" cx="625.9" cy="354.7" rx="61.8" ry="49.2"/>
<ellipse class="st3" cx="624.4" cy="355" rx="60.4" ry="45"/>
<rect x="606.7" y="327.7" class="st4" width="35.5" height="21.3"/>
<rect x="607.4" y="365.3" class="st4" width="36.9" height="22.2"/>
<text transform="matrix(1.5434 0 0 1 680.2139 398.4004)" class="st0 st5">N</text>
<ellipse class="st2" cx="490.9" cy="142.4" rx="227.7" ry="142.4"/>
<ellipse class="st3" cx="485.8" cy="143.4" rx="222.6" ry="130.3"/>
<rect x="441.3" y="173" class="st4" width="89.1" height="64.2"/>
<rect x="441.3" y="62" class="st4" width="89.1" height="64.2"/>
<ellipse cx="630.1" cy="427.3" rx="5.6" ry="4.2"/>
<text transform="matrix(1.9286 0 0 1 635.6787 431.5098)" class="st6 st7">SVG</text>
<g>
	<g>
		<g>
			<path class="st8" d="M939.2,473.2c-0.4,0.8-0.5,1.5-0.2,2.4c0.5,1.4,2,2.5,3.8,3c2.2,0.6,4.5,0.4,6.6-0.4c2.8-1.1,4.3-3,5.6-5.1
				c-0.2,0-0.4,0-0.5,0c1.2,4.4,2,8.8,2.5,13.3c0.9,2.5,1,5.1,0.4,7.6c-1.2,2.2-2.9,3.1-5.1,2.5c-2.4-0.4-4.9-0.6-7.4-0.7
				c-2.4-0.3-4.7-0.6-7.1-0.8c-4.6-0.5-9.6-0.9-14.2-0.3c-1.4,0.2-3.3,0.5-3.8,1.7c-0.4,0.9,0.2,1.9,0.9,2.6
				c0.8,0.6,1.4,0.7,2.4,0.6c0.1,0-0.1-0.2-0.1-0.2c-1.1,0-1.9-0.4-2.4-1.1c-0.2-0.3-0.4-0.9-0.4-1.2c0.2-0.3,0.4-0.7,0.7-1
				c0.8-0.3,1.5-0.6,2.3-0.9c1.4-0.3,3-0.3,4.5-0.4c2.4-0.1,4.7,0,7.1,0.2c4.7,0.3,9.4,0.9,14.1,1.4c1.6,0.2,3.2,0.3,4.8,0.5
				c0.7,0.1,0.4,0.1,1,0c0.8,0,1.3-0.3,1.8-0.7c0.5-0.5,0.8-1,1-1.5c0.7-1.7,0.3-2.5,0.2-4.7c-0.1-2.3-0.3-4.5-0.7-6.8
				c-0.4-3.4-0.9-6.7-1.7-10.1c0-0.1-0.5-0.1-0.5,0c-1.1,1.8-2.3,3.5-4.6,4.6c-1.6,0.7-3.4,1-5.3,0.8c-1.6-0.2-3-0.7-4-1.6
				c-1.2-1.2-1.4-2.4-0.7-3.7C939.8,473,939.2,473.1,939.2,473.2z"/>
			<path class="st8" d="M939,473.5c-0.3,0.8-0.5,1.6-0.1,2.4c0.8,1.6,2.6,2.9,4.8,3.2c2.7,0.4,5.3-0.2,7.4-1.5c2-1.2,3-2.7,4-4.4
				c-0.1,0-0.1,0-0.2-0.1c0.4,2.3,0.8,4.6,1.2,6.8c0.3,2.3,0.6,4.5,0.9,6.7c-0.4,3.3-0.8,6.5-1.2,9.8c-0.3,0.1-0.6,0.3-0.9,0.4
				c-0.6,0.1-1.4,0-2-0.1c-0.3-0.1-0.7-0.2-1-0.2c-1.2-0.1-2.4-0.2-3.6-0.3c-4.7-0.5-9.5-1.2-14.2-1.6c-0.5,0-3.1-0.2-3.6-0.2
				c-2.5-0.1-5.2-0.1-7.6,0.3c-1.8,0.3-3.8,1.1-3.5,2.7c0.2,0.7,0.7,1.4,1.4,1.8c0.4,0.3,0.2,0.2,0.8,0.3c0.7,0.2,0.3,0.1,1.3,0
				c0.1,0,0.1-0.1,0-0.1c-2.6,0.4-4.3-2.3-2.8-3.7c0.8-0.7,2.1-0.9,3.2-1.1c2.4-0.2,4.7-0.3,7.1-0.2c3.6,0.2,7.1,0.5,10.7,0.9
				c2.4,0.3,4.7,0.6,7.1,0.8c1.4,0,2.7,0.1,4.1,0.4c1.2,0.3,2.4,0.5,3.5-0.2c0.6-0.4,0.9-0.9,1.2-1.4c0.2-0.5,0.5-1.2,0.6-1.7
				c0.2-2.3,0-4.5-0.5-6.8c-0.5-4.5-1.2-9-2-13.6c0,0-0.2-0.1-0.2-0.1c-1.1,1.8-2.5,3.6-4.7,4.8c-1.6,0.9-3.6,1.2-5.6,1
				c-1.5-0.1-2.7-0.5-3.8-1.3c-0.4-0.3-0.8-0.7-1.2-1.1c-0.8-1.1-0.9-2.1-0.4-3.2C939.3,473.4,939,473.5,939,473.5z"/>
			<path class="st8" d="M939.4,473c-0.3,0.5-0.4,1-0.4,1.5c0.1,0.6,0.3,1.1,0.7,1.6c0.8,1.2,2.3,1.9,4,2.3c2.1,0.4,4.4,0,6.2-0.9
				c2.3-1.1,3.6-2.8,4.7-4.6c-0.5,0-1.1,0-1.7,0c1.2,4.1,2.1,8.3,3,12.4c1.5,3.5,1.5,7.1,0.2,10.6c0.3-0.3,0.5-0.6,0.8-0.9
				c-0.5,0.4-1,0.9-1.6,1.3c0.3-0.2,0.7-0.5,1-0.7c-0.7,0.3-1.3,0.6-2,0.9c0.4-0.2,0.8-0.3,1.2-0.5c-0.7,0.1-1.4,0.3-2.1,0.4
				c0.4,0,0.9-0.1,1.3-0.2c-6.9,0.2-13.6-1.2-20.3-1.6c-3-0.2-5.9-0.3-8.9-0.1c-1.1,0.1-2.5,0.1-3.5,0.5c-0.5,0.2-1.1,0.4-1.5,0.7
				c-0.6,0.5-0.6,0.9-0.4,1.5c0.2,0.5,0.5,1,1,1.4c0.2,0.1,0.4,0.2,0.6,0.4c0.5,0.2,1,0.2,1.5,0.1c0.1,0,0.1-0.6,0.1-0.7
				s0-0.5-0.1-0.4c-0.3,0.4-0.5,0.7-0.8,1.1c0.3-0.3,0.5-0.6,0.8-0.9c-0.5,0-0.8,0-1.2-0.3c-0.3-0.2-0.5-0.6-0.3-0.9
				c0.3-0.8,1.9-1.2,2.9-1.3c2-0.3,4.1-0.3,6.2-0.3c3,0,6,0.2,9,0.4c3,0.2,6,0.5,9,0.7c1.3,0.1,2.5,0.2,3.8,0.1c0.7,0,1.4,0,2,0
				c0.8-0.1,1-0.2,1.5-0.5c0.3-0.2,0.7-0.5,0.9-0.8c0.2-0.2,0.4-0.6,0.5-0.9c0.2-0.5,0.2-1.1,0.2-1.6c-0.2-2.2-0.4-4.4-0.7-6.7
				c-0.5-4.4-1.3-8.9-2.3-13.3c0,0-1.6-0.1-1.7,0c-1,1.5-2.1,2.9-4.1,3.7c-1.4,0.6-3.2,0.9-4.8,0.6c-1.4-0.3-2.3-0.9-2.9-1.9
				c-0.5-0.9-0.4-1.7,0.1-2.6l-0.9,0.1C940.2,472.9,939.5,472.9,939.4,473z"/>
			<path class="st8" d="M939.2,473.2c-0.3,0.5-0.4,1-0.4,1.5c0.1,0.6,0.3,1.1,0.7,1.6c0.9,1.2,2.4,2,4.1,2.3c2.1,0.4,4.5,0,6.3-0.9
				c2.3-1.1,3.6-2.8,4.7-4.7c-0.4,0-0.8,0-1.2,0c3,7.6,3.8,15.3,2.5,23.2c0.2-0.2,0.4-0.5,0.7-0.7c-0.5,0.4-1,0.7-1.5,1.1
				c0.3-0.2,0.6-0.4,0.9-0.5c-3.1,0.4-6.2,0.5-9.2,0c-1.8-0.2-3.6-0.4-5.4-0.6c-2.4-0.2-4.7-0.5-7.1-0.7c-2.4-0.2-4.8-0.3-7.2-0.2
				c-1.6,0-3.4,0.1-4.9,0.5c-1.5,0.3-2.8,1.1-2.5,2.3c0.1,0.5,0.4,1.1,0.9,1.5c0.2,0.1,0.4,0.3,0.7,0.4c0.5,0.2,1,0.3,1.5,0
				c0.2,0-0.2-0.8-0.2-0.8c-0.1,0.1-0.2,0.2-0.3,0.3c0.1-0.1,0.1-0.1,0.2-0.2c-1-0.2-1.7-0.7-1.6-1.5c0-0.8,1.1-1.3,2.1-1.5
				c0.5-0.1,1.1-0.2,1.6-0.2c2.4-0.1,4.7-0.2,7-0.2c1.8,0,3.6,0.2,5.3,0.3c5.3,0.4,10.7,0.9,16,1.3c1,0.1,2.1,0.1,2.9-0.5
				c0.3-0.2,0.6-0.6,0.8-0.9c0.3-0.4,0.4-0.8,0.5-1.2c0.4-1.6,0.1-2.6-0.1-4.4c-0.2-2.2-0.4-4.5-0.8-6.7c-0.4-3.3-1-6.7-1.8-9.9
				c0-0.1-1.1-0.1-1.2,0c-1,1.6-2.3,3.1-4.3,4c-1.5,0.7-3.6,0.9-5.3,0.6c-1.5-0.3-2.5-1-3.1-2.1c-0.5-1-0.5-1.8,0.1-2.7l-0.8,0.2
				C939.8,473,939.3,473.1,939.2,473.2z"/>
			<path class="st8" d="M939.1,473.1c-0.3,0.9-0.5,1.6-0.1,2.4c0.5,1.4,2.1,2.5,4,3c2.3,0.6,4.6,0.4,6.7-0.5c2.8-1.1,4.3-3,5.5-5.1
				c-0.1,0-0.3,0-0.4,0c1.1,4.5,1.9,9,2.3,13.5c2.3,4.2,1.3,7.6-2.9,10.3c-0.7,0-1.4-0.2-2-0.3c-1.2-0.2-2.5-0.4-3.7-0.3
				c-4.7-0.5-9.4-1.2-14.1-1.6c-3.6-0.3-7.5-0.4-11.1,0.1c-0.8,0.1-1.5,0.3-2.2,0.6c-1.2,0.6-1.6,1.4-1.2,2.5c0.2,0.5,0.5,0.9,1,1.3
				c0.4,0.4,0.9,0.6,1.5,0.7c0.3,0,0.6,0,0.9-0.1c0.1,0,0.1-0.1,0-0.1c-1.6,0.1-2.6-0.5-3-1.8c-0.2-0.4-0.2-0.9,0-1.3
				c0.9-1.7,5.6-1.8,7.4-1.8c4.7-0.2,9.4,0.3,14.1,0.9c4,0.5,8,0.7,11.9,1.4c1.4,0.2,2.4-0.1,3.2-1c0.4-0.5,0.7-1.1,0.8-1.6
				c0.8-2.5,0.8-5-0.2-7.6c-0.4-4.5-1.2-9-2.1-13.5c0-0.1-0.4,0-0.4,0c-1,1.8-2.2,3.5-4.5,4.7c-1.6,0.8-3.6,1.2-5.6,1
				c-1.7-0.1-3.1-0.6-4.2-1.6c-1.3-1.2-1.5-2.5-0.9-3.9C939.6,473,939.1,473,939.1,473.1z"/>
			<path class="st8" d="M939.3,473c-0.3,0.5-0.4,1-0.3,1.5c0.1,0.6,0.3,1.1,0.7,1.6c0.8,1.2,2.3,2,4,2.3c2.1,0.4,4.4,0,6.2-0.9
				c2.3-1.1,3.6-2.8,4.7-4.6c-0.4,0-0.9,0.1-1.4,0.1c0.9,3.1,1.6,6.2,2.2,9.4c1.3,4.6,1.2,9.3-0.2,14c0.3-0.2,0.6-0.3,0.9-0.5
				c-0.6,0.2-1.3,0.5-1.9,0.7c0.3-0.1,0.7-0.2,1-0.3c-1.6,0.2-3.2,0.2-4.8,0c-1.8-0.1-3.6-0.3-5.4-0.5c-2.4-0.3-4.8-0.6-7.2-0.8
				c-3.5-0.4-7.2-0.7-10.7-0.5c-1.6,0.1-3.4,0.1-4.9,0.5c-0.7,0.2-1.5,0.4-2,0.9c-0.5,0.5-0.7,0.9-0.4,1.5c0.2,0.5,0.5,1,1,1.4
				c0.2,0.1,0.4,0.2,0.7,0.4c0.5,0.2,1,0.2,1.5,0c0.2,0,0-0.8-0.1-0.8c-0.2,0.2-0.4,0.5-0.6,0.7c0.2-0.2,0.3-0.4,0.5-0.5
				c-0.6,0-0.9-0.1-1.3-0.5c-0.3-0.3-0.5-0.7-0.4-1c0.3-0.8,1.9-1.2,2.9-1.4c4.3-0.6,8.9-0.4,13.3,0c3,0.2,5.9,0.5,8.9,0.7
				c1.2,0.1,2.4,0.2,3.6,0.2c1.3,0,2.6,0,3.9,0c1.4,0,2.3-0.5,3-1.4c0.3-0.5,0.4-0.7,0.5-1.3c0.1-0.4,0.1-0.7,0.2-1.1
				c-0.2-3.4-0.6-6.7-1.1-10c-0.4-3.3-1-6.6-1.8-9.9c0,0-1.3,0-1.4,0.1c-1,1.6-2.1,3-4.2,3.9c-1.5,0.7-3.4,0.9-5.1,0.6
				c-1.4-0.3-2.5-1-3.1-2c-0.5-1-0.5-1.7,0.1-2.7c0,0-0.8,0.1-0.8,0C940.1,472.8,939.4,472.9,939.3,473z"/>
			<path class="st8" d="M939.3,473.3c-0.3,0.5-0.4,1-0.4,1.5c0.1,0.6,0.3,1.1,0.7,1.6c0.9,1.2,2.4,2,4.1,2.3c2.2,0.4,4.5,0,6.4-0.9
				c2.4-1.1,3.6-2.9,4.7-4.7c-0.4,0-0.8-0.1-1.2-0.2c1.3,4.2,2.4,8.5,3,12.7c1.4,3.5,1.3,7-0.3,10.4c0.2-0.2,0.3-0.4,0.5-0.6
				c-0.4,0.3-0.9,0.7-1.3,1c0.2-0.2,0.4-0.3,0.7-0.5c-2.3,0.6-4.5,0.7-6.8,0.2c-2.6-0.1-5.1-0.4-7.6-0.7c-3-0.3-5.9-0.7-8.9-0.8
				c-3-0.2-6-0.2-8.9,0.1c-0.3,0-0.6,0.1-0.9,0.1c-1.4,0.2-3,0.9-3,2.1c-0.1,0.6,0.4,1.4,1,1.8c0.2,0.1,0.4,0.3,0.7,0.4
				c0.5,0.3,1,0.3,1.6,0.1c0.2,0-0.3-0.9-0.2-0.9c-0.3,0.5-1.2-0.2-1.4-0.4c-0.3-0.3-0.5-0.8-0.4-1.2c0.3-1.1,2.6-1.4,3.7-1.6
				c5.3-0.6,10.8-0.1,16.1,0.4c2.8,0.2,5.7,0.5,8.5,0.7c1.4,0.1,2.7,0.2,4.1,0.4c0.3,0,0.7,0,1,0.1c1.5-0.1,2.4-0.7,2.8-1.8
				c0.3-0.6,0.4-1.3,0.5-1.9c0.1-0.5-0.5-6.3-0.6-6.7c-0.6-5.5-1.2-7.8-2.3-13.3c0-0.1-1.2-0.2-1.2-0.2c-1,1.6-2.3,3.1-4.3,4.1
				c-1.5,0.7-3.6,0.9-5.3,0.6c-1.5-0.3-2.6-1-3.2-2.1c-0.5-1-0.5-1.8,0.1-2.8l-0.7,0.2C939.8,473.1,939.3,473.2,939.3,473.3z"/>
			<path class="st8" d="M939.1,472.9c-0.4,0.8-0.5,1.5-0.2,2.4c0.3,0.7,0.9,1.4,1.6,2c1.3,1,3,1.4,4.8,1.5c1.3,0,2.3-0.2,3.4-0.5
				c3.2-1,4.9-3.1,6.2-5.4c-0.1,0-0.2,0-0.4,0c1.2,4.4,1.9,8.9,2.4,13.4c1.4,7.5-0.2,10.8-4.9,9.9c-0.6-0.1-1.3-0.1-1.9-0.2
				c-1.8-0.1-3.6-0.3-5.4-0.5c-4.1-0.5-8.2-1-12.4-1.2c-3-0.2-6-0.2-9,0.1c-2.1,0.2-4.6,1.1-3.7,3c0.2,0.5,0.5,0.9,0.9,1.3
				c0.8,0.6,1.3,0.7,2.3,0.5c0.1,0,0.1,0,0,0c-0.8-0.4-1.5-0.8-2.4-1.2c-0.2-0.3-0.3-0.6-0.3-1c0-0.5,0.1-0.9,0.6-1.3
				c1.8-1.2,4.6-1,6.8-1.1c1.8-0.2,3.5-0.2,5.3,0c1.8,0.1,3.5,0.2,5.3,0.4c2.4,0.2,4.7,0.5,7,0.7c2.5,0.2,5.1,0.4,7.6,0.7
				c0.3,0,0.7,0.1,1,0.1c1.2,0,1.9-0.4,2.5-1.1c0.4-0.5,0.6-1.1,0.8-1.6c0.1-0.2,0.2-0.6,0.2-0.9c-0.1-3.4-0.4-6.8-0.9-10.2
				c-0.4-3.4-0.9-6.8-1.6-10.1c0,0-0.3,0-0.4,0c-0.9,1.6-1.9,3-3.7,4.2c-1.3,1-3,1.2-5.2,0.5c-2.4,0.8-4.2,0.6-5.3-0.7
				c-0.4-0.5-0.8-1-1-1.6c-0.3-0.8-0.1-1.5,0.3-2.3C939.7,472.9,939.1,472.8,939.1,472.9z"/>
			<path class="st8" d="M939.4,473.2c-0.3,0.5-0.4,1-0.4,1.5c0.1,0.6,0.3,1.1,0.7,1.6c0.8,1.2,2.3,2,4,2.3c2.1,0.4,4.5,0,6.3-0.9
				c2.3-1.1,3.5-2.8,4.6-4.6c-0.6,0-1.2-0.1-1.8-0.1c0.9,3.1,1.8,6.2,2.4,9.2c1.3,4.6,1.5,9.2,0.8,13.9c0.3-0.3,0.5-0.6,0.8-0.9
				c-0.5,0.5-1,0.9-1.6,1.4c0.3-0.2,0.7-0.5,1-0.8c-0.6,0.3-1.2,0.5-1.8,0.8c0.3-0.1,0.7-0.3,1-0.4c-0.6,0.2-1.3,0.3-1.9,0.5
				c0.3-0.1,0.7-0.2,1-0.2c-4.8,0.4-10.1-0.5-14.9-1c-1.8-0.2-3.6-0.4-5.4-0.5c-3-0.2-5.9-0.3-8.9-0.1c-1.1,0.1-2.5,0.1-3.5,0.4
				c-0.5,0.2-1.1,0.4-1.5,0.7c-0.5,0.4-0.7,0.9-0.5,1.4c0.1,0.5,0.4,1,0.9,1.4c0.2,0.1,0.4,0.2,0.6,0.4c0.5,0.2,1,0.3,1.5,0.1
				c0.1,0,0.1-0.7,0.1-0.7c0,0-0.1-0.5-0.1-0.4c-0.2,0.3-0.4,0.7-0.6,1c0.2-0.3,0.4-0.5,0.5-0.8c-0.5,0-0.8,0-1.2-0.3
				c-0.3-0.2-0.4-0.6-0.3-0.9c0.3-0.7,2-1.2,2.9-1.3c4.4-0.5,8.9-0.4,13.3,0c3,0.2,6,0.5,9,0.7c2.4,0.2,4.8,0.2,7.1,0.3
				c0.8,0,1.6,0,2.3-0.5c0.3-0.2,0.5-0.7,0.8-0.9c0.2-0.3,0.3-0.7,0.4-1c0.1-0.4,0.2-0.8,0.2-1.2c-0.2-3.4-0.5-6.7-1.1-10
				c-0.4-3.3-1-6.7-1.8-9.9c0-0.1-1.6-0.2-1.8-0.1c-1,1.5-2.1,2.9-4.1,3.8c-1.4,0.6-3.2,0.9-4.8,0.6c-1.4-0.3-2.4-0.9-2.9-1.9
				c-0.5-0.9-0.4-1.7,0.1-2.6l-0.9,0.2C940.2,472.9,939.5,473,939.4,473.2z"/>
			<path class="st8" d="M939.1,473c-0.3,0.5-0.4,1-0.4,1.5c0.1,0.6,0.3,1.1,0.7,1.6c0.9,1.2,2.4,2,4.1,2.3c2.2,0.4,4.5,0,6.4-0.9
				c2.4-1.1,3.6-2.9,4.8-4.7c-0.3,0-0.5,0-0.8,0.1c0.9,3.2,1.6,6.4,2.1,9.7c1.2,4.6,0.8,9.2-1,13.8c0.2-0.1,0.4-0.2,0.7-0.3
				c-2.4,0.3-4.8,0.2-7.2-0.2c-2.4-0.2-4.8-0.5-7.1-0.7c-3-0.3-5.9-0.7-8.9-0.8c-1.8-0.1-3.6-0.1-5.4-0.1c-1.2,0-3.9,0.1-5.3,0.6
				c-0.7,0.2-1.3,0.5-1.8,1c-0.4,0.5-0.4,1-0.2,1.6c0.2,0.5,0.8,1.4,1.5,1.6c0.7,0.2,0.8,0.2,1.5,0.1c0.1,0-0.1-0.4-0.2-0.4
				c-0.7,0.2-1.5-0.5-1.8-0.9c-0.2-0.4-0.3-0.7-0.2-1.1c0.2-1.1,2.2-1.5,3.4-1.6c1.3-0.2,2.6-0.3,4-0.3c2.4,0,4.7,0.1,7,0.2
				c3,0.2,5.9,0.5,8.9,0.8c1.8,0.2,3.5,0.3,5.3,0.5c1.3,0,2.5,0.1,3.8,0.2c0.3,0,0.7,0.1,1,0.1c0.9,0,1.7-0.3,2.3-0.8
				s0.8-1.2,0.9-1.8c0.1-0.4,0.2-0.7,0.2-1.1c-0.2-2.2-0.4-4.4-0.5-6.7c-0.5-4.5-1.2-8.9-2.2-13.4c0,0-0.7,0-0.8,0.1
				c-1,1.7-2.3,3.3-4.5,4.4c-1.7,0.7-3.8,1-5.8,0.6c-1.6-0.4-2.7-1.1-3.4-2.2c-0.6-1-0.5-1.8,0-2.8C940.2,473,939.2,472.9,939.1,473
				z"/>
			<path class="st8" d="M939.1,472.9c-0.3,0.8-0.5,1.6-0.1,2.4c0.3,0.7,0.9,1.4,1.6,1.9c0.9,0.7,1.9,1.1,3.2,1.3
				c1.7,0.3,3.5,0.1,5.1-0.4c3.2-0.9,5-3.2,6.3-5.5c-0.1,0-0.2,0-0.3,0c1,4.5,1.8,9,2.3,13.5c0.1,2.5,0.2,5.1,0.3,7.6
				c-1.7,0.8-3.4,1.6-5.1,2.3c-0.1,0-0.1,0-0.1,0c-1.2-0.2-2.4-0.3-3.6-0.3c-8.1-0.8-16.7-2.5-24.9-1.5c-1.6,0.2-4.1,0.8-4,2.4
				c0.1,0.5,0.2,1,0.5,1.4c0.3,0.4,0.7,0.8,1.2,1c0.5,0.3,1.1,0.3,1.6,0.1c0,0,0.1,0,0.1,0c-1.2,0.2-1.9-0.2-2.1-1
				c-0.5-0.3-0.7-0.7-0.7-1.2c-0.1-0.6,0.1-1,0.7-1.4c0.5-0.4,1.3-0.6,1.9-0.7c0.8-0.2,1.7-0.3,2.6-0.3c1.9-0.2,3.8-0.3,5.7-0.2
				c4.7,0.2,9.4,0.7,14.1,1.2c2.6,0.3,5.2,0.5,7.7,0.8c0.3,0,0.7,0.1,1,0.2c1.2,0,2-0.4,2.6-1.1c0.4-0.5,0.7-1.1,0.8-1.6
				c0.1-0.2,0.2-0.6,0.3-0.9c-0.1-3.4-0.4-6.8-0.9-10.2c-0.4-3.4-0.9-6.8-1.6-10.2c0,0-0.3,0-0.3,0c-0.5,0.9-1.2,1.7-1.7,2.6
				c-0.5,0.7-1.3,1.2-2,1.6c-0.4,0.3-0.9,0.6-1.5,0.8c-2.7,1.2-5.8,0.9-9.1-0.9c-0.5-0.5-0.8-1-1-1.6c-0.3-0.9-0.1-1.6,0.2-2.4
				C939.5,472.9,939.1,472.8,939.1,472.9z"/>
			<path class="st8" d="M939.3,473.2c-0.3,0.5-0.4,1-0.4,1.5c0.1,0.6,0.3,1.1,0.7,1.6c0.8,1.2,2.4,2,4.1,2.3c2.1,0.4,4.5,0,6.3-0.9
				c2.3-1.1,3.5-2.8,4.6-4.7c-0.5,0-0.9-0.1-1.4-0.2c1.3,4.2,2.3,8.4,3.1,12.6c1.5,3.6,1.4,7.2-0.2,10.6c0.2-0.3,0.5-0.6,0.7-0.9
				c-0.5,0.4-1,0.9-1.6,1.3c0.3-0.2,0.7-0.5,1-0.7c-4.9-0.1-9.8-0.2-14.7-0.3c-1.2-0.1-2.4-0.2-3.6-0.4c-3-0.3-5.9-0.5-9-0.5
				c-1.9,0-3.9,0-5.8,0.3c-0.7,0.1-1.5,0.2-2.1,0.5c-0.4,0.2-1,0.6-1.2,1c-0.2,0.4-0.1,0.9,0.1,1.2c0.2,0.5,0.6,1,1.2,1.3
				c0.7,0.4,1,0.4,1.9,0.3c0.1,0,0-0.7,0-0.7c0,0-0.1-0.5-0.1-0.4c-0.1,0.1-0.1,0.2-0.2,0.2c0.1,0,0.1-0.1,0.1-0.1
				c-0.5,0-0.9-0.1-1.2-0.4c-0.3-0.3-0.5-0.7-0.3-1c0.3-0.8,1.9-1.2,2.9-1.4c2.6-0.4,5.3-0.3,7.9-0.2c1.8,0,3.6,0,5.3,0.2
				c1.8,0.1,3.6,0.3,5.4,0.5c2.9,0.2,5.8,0.5,8.7,0.7c0.7,0,1.9,0.2,2.6,0.2c1.5,0,2.3-0.8,2.7-1.8c0.2-0.4,0.3-0.7,0.4-1.2
				c0.1-0.3,0.1-0.6,0.1-0.9c-0.2-2.2-0.4-4.4-0.6-6.7c-0.5-4.4-1.3-8.9-2.3-13.3c0-0.1-1.4-0.2-1.4-0.2c-1,1.6-2.1,3-4.2,3.9
				c-1.5,0.7-3.4,1-5.1,0.6c-1.4-0.3-2.5-1-3-2c-0.5-1-0.5-1.7,0.1-2.7l-0.9,0.2C940,473,939.3,473.1,939.3,473.2z"/>
		</g>
	</g>
</g>
<g>
	<g>
		<g>
			<path class="st8" d="M969.6,476.2c-1.9,0.5-3.6,1-5.2,1.9c-0.9,0.5-2.1,1.4-2.8,2.1c-0.6,0.6-1.4,1.3-1.4,2.1
				c-0.1,1.4,2.4,1.5,3.7,1.3c1.4-0.2,2.4-0.8,3.5-1.5c1.3-0.8,2.3-1.7,3.3-2.7c-0.2,0-0.3,0-0.5,0c0.4,1.4,0.8,2.8,1.1,4.3
				c-0.1,0.2-0.1,0.5,0,0.8c0,0.1,0,0.2,0.1,0.4c0.2,0.5,0.5,0.7,1.1,0.7c0.5,0,0.9-0.2,1.3-0.4c1.5-0.8,3-2,4.1-3.2
				c1.1-1.1,2-2.3,2.7-3.5c0.2-0.4,0.8-2.5,2-2.6c-0.2,0-0.3,0-0.5,0c5.2,1,6.3,2.5,3.2,4.5c-0.3,1.2-1,1.8-2.2,1.8
				c-0.2,0-0.4,0-0.6,0.1c-1.7,0-3.4-0.1-5.1-0.1c0.4-0.8,1.4-1.4,2.3-1.8c3-1.6,6-3.1,9.1-4.6c0.3,0.1,0.5,0.2,0.8,0.3
				c0.8,0.3,1.6,0.5,2.4,0.8c2,0.4,3.7,1.3,5,2.6c2.6,0.6,3.4,1.4,2.3,2.4c-0.5,0.3-0.9,0.7-1.4,1c-4,2.1-14.5,2.3-15.4,2.2
				c-0.2,0,0.2,0.2,0.3,0.2c3.1,0.3,6.1,0.3,9.1-0.3c1.9-0.4,3.7-0.9,5.4-1.6c0.7-0.3,1.4-0.6,2-1.1c0.8-0.7,1.2-1.5,0.4-2.3
				c-0.3-0.4-0.8-0.7-1.3-0.9c-2.2-1.2-6.9-2.2-9.2-3.2c-0.5-0.2-0.7-0.3-1.2-0.4c-0.4,0-0.8,0-1.2,0.1c-2.9,0.8-8.5,5.4-7.9,5.1
				c-0.8,0.5-2.4,1.3-1.8,2.1c0.3,0.5,0.9,0.5,1.5,0.5c0.8,0,3-0.5,2.5-0.4c1.2-0.2,2.3-0.4,3.5-0.5c0.7-0.1,1.4-0.3,2-0.7
				c0.7-0.5,1-1.2,0.9-1.9c-0.1-0.7-0.4-1.2-1.1-1.8c-0.9-0.7-2.1-1.2-3.2-1.8c-0.5-0.3-0.9-0.3-1.4-0.1c-0.3,0.1-0.4,0.2-0.6,0.5
				c-0.3,0.7-0.7,1.4-1.1,2.1c-0.7,1.2-1.6,2.3-2.7,3.4c-0.8,0.8-1.8,1.6-2.8,2.2c-0.4,0.4-0.9,0.7-1.5,0.9
				c-0.7,0.4-1.3,0.2-1.6-0.7c0.5-1.6,0.3-3.3-0.8-4.9c0-0.1-0.4,0-0.5,0c-1.2,1.2-2.5,2.3-4.1,3.1c-0.5,0.4-1.1,0.7-1.8,0.8
				c-0.7,0.2-2,0.2-2.7,0c-0.2-0.1-0.4-0.2-0.6-0.3c-0.3-1.1,0.1-1.9,1.2-2.6c1.5-0.9,2.9-1.9,4.4-2.8c1.1-0.5,2.3-0.8,3.5-1
				C970.2,476.4,969.8,476.1,969.6,476.2z"/>
			<path class="st8" d="M969.4,476.4c-1.6,0.4-2,0.5-3.5,1.1c-1.7,0.7-3.2,1.8-4.4,3c-0.8,0.8-2.2,2.1-0.9,3.1c0.7,0.5,2,0.6,3,0.5
				c0.7-0.1,1.4-0.2,2-0.4c0.7-0.4,1.3-0.8,2-1.2c1.2-0.9,2.3-1.8,3.3-2.8c-0.1,0-0.1,0-0.2,0c1.2,6.3,0.8,2.9,0.7,5.1
				c0,0.1,0,0.4,0.1,0.5c0.1,0.5,0.5,0.7,1.2,0.7c0.7,0,1.2-0.3,1.7-0.7c1.8-1,3.4-2.5,4.6-3.9c1.3-1.4,2.3-2.9,3-4.6
				c0-0.4,0.2-0.5,0.8-0.5c0.4-0.2,0.7-0.2,0.9,0.2c0.6,0.5,2.1,1.8,2,1.6c3.2,1.6,2.5,3-2,4.2c-0.4,0-0.8,0-1.2,0
				c-1.5-0.3-3.1-0.6-4.6-0.9c0.5-0.5,1.2-0.8,1.9-1.1c2.9-1.2,4.2-3.9,7.3-4.8c1.2-0.1,2.1,0.1,3,0.5l0.1,0c1.5,0.5,3,0.9,4.6,1.4
				c5.2,1.8,6.7,3.3,4.5,4.6c-0.8,0.5-1.9,0.9-2.9,1.3c-1.5,0.4-3,0.8-4.4,1.2c-3,0.6-6.1,0.6-9.2,0.2c-0.1,0-0.1,0.1,0,0.1
				c1.6,0.2,3,0.3,4.6,0.3c2,0,3.8-0.3,5.7-0.7c1.3-0.3,2.5-0.7,3.7-1.1c0.6-0.2,1.2-0.4,1.7-0.6c1.1-0.5,2.4-1.3,2.1-2.4
				c-0.1-0.4-0.5-0.8-0.9-1.1c-1.3-1-3.2-1.4-4.9-2c-1.8-0.3-3.5-0.8-4.9-1.6c-0.2-0.1-0.4-0.2-0.5-0.3c-0.5-0.2-0.9-0.2-1.4-0.1
				c-0.4,0.1-0.9,0.2-1.3,0.4c-2.1,1.5-4.2,2.9-6.2,4.4c-0.9,0.4-0.8,0.3-1.6,0.8c-0.5,0.4-1.9,1.3-1.2,2c0.3,0.2,0.7,0.2,1,0.2
				c1.6,0.1,3.1-0.7,4.7-0.7c1.1,0,2.9,0,3.7-0.7c0.9-0.7,1.2-1.7,0.9-2.6c-0.3-0.7-0.7-1.1-1.4-1.6c-0.4-0.2-0.8-0.5-1.3-0.7
				c-0.6-0.2-1.1-0.6-1.6-0.9c-0.1-0.1-0.1-0.1-0.2-0.2c-0.4-0.2-0.6-0.2-0.9,0.1c-0.2,0.2-0.3,0.5-0.4,0.7
				c-0.9,1.9-2.1,3.7-3.7,5.3c-1.1,1.1-2.4,2.1-3.8,3c-0.3,0.2-0.6,0.3-0.9,0.5c-0.8,0.4-1.4,0-1.5-1.4c0.3-1.5,0.1-3-0.8-4.6
				c0,0-0.1-0.1-0.2,0c-1,1-2,2-3.2,2.8c-0.9,0.5-1.9,0.9-2.9,1.4c-1.3-0.7-2.6-1.4-4-2c0.2-0.2,0.4-0.4,0.5-0.6
				c0.7-0.9,1.6-1.6,2.6-2.3c0.7-0.5,1.5-0.9,2.4-1.2c1-0.6,2.2-1,3.5-1.2C969.6,476.4,969.5,476.3,969.4,476.4z"/>
			<path class="st8" d="M969.7,476.2c-1.2,0.3-2.4,0.6-3.5,1.1c-1.1,0.5-2.2,1.1-3.1,1.8c-0.9,0.7-1.9,1.5-2.4,2.4
				c-0.3,0.5-0.4,0.9-0.1,1.3c0.7,0.8,2.1,0.7,3.2,0.5c0.9-0.2,1.4-0.4,2.2-0.9c1.6-0.9,2.9-1.9,4.1-3.1c-0.5,0-1.1,0-1.6,0
				c0.1,1.5,0.6,2.9,1.5,4.2c0.4,0.5,0.8,1,1.2,1.5c0.6,0.4,1.2,0.2,1.8,0c0.9-0.5,1.8-1,2.5-1.6c1.3-0.9,2.4-2,3.3-3.2
				c0.9-1.2,1.6-2.3,2.3-3.6c0.1-0.4,0.3-0.7,0.8-0.9c-0.5,0.2-1,0.3-1.5,0.5c0.6-0.1,1.2-0.2,1.8-0.4c-0.5,0.1-1,0.2-1.5,0.2
				c0.5,0,1,0,1.6,0c-0.4,0-0.8,0-1.2,0c0.4,0,0.8,0.1,1.2,0.1c-0.3,0-0.5-0.1-0.8-0.1c1.8,0.8,3.7,1.7,5.5,2.5
				c-0.3-0.3-0.5-0.6-0.8-0.9c0.3,0.5,0.7,1,1,1.5c-0.2-0.3-0.3-0.6-0.5-0.9c0.2,0.5,0.3,0.9,0.5,1.4c-0.1-0.2-0.2-0.5-0.2-0.8
				c-0.1,0.7-0.2,1.4-0.4,2.1c0.1-0.3,0.2-0.7,0.3-1c-0.8,0.6-1.7,1.2-2.5,1.7c0.2-0.1,0.4-0.2,0.6-0.2c-2.3,0.5-4.5,1-6.7,1.5
				c0.5,0,1,0.1,1.5,0.1c-0.7-0.1-1.3-0.2-2-0.3c0.5,0.1,1,0.2,1.5,0.3c-0.6-0.2-1.2-0.4-1.8-0.6c0.4,0.2,0.8,0.3,1.2,0.5
				c-0.3-0.5-0.2-0.9,0.3-1.2c3-1.4,5.2-3.4,6.8-6c-0.4,0.2-0.7,0.5-1.1,0.7c0.9-0.4,1.9-0.8,2.8-1.2c-0.5,0.1-1,0.2-1.4,0.3
				c0.7-0.1,1.4-0.2,2.1-0.2c-0.5,0-0.9,0.1-1.4,0.1c0.7,0,1.4,0.1,2,0.1c-0.5,0-0.9-0.1-1.4-0.1c4.1,1.5,8.3,3,12.4,4.5
				c-0.3-0.3-0.5-0.6-0.8-0.9c0.3,0.5,0.6,1,0.9,1.5c-0.2-0.3-0.3-0.6-0.4-0.9c-1,1.2-2.1,2.4-3.1,3.6c0.4-0.2,0.8-0.4,1.3-0.5
				c-3.2,1.5-6.5,2.3-10.2,2.5c-1.5,0-3.1,0-4.6-0.2c-0.2,0,0.4,0.2,0.4,0.2c0.3,0.1,0.8,0.4,1.2,0.4c3.1,0.1,6.4,0,9.3-1
				c1.8-0.6,3.6-1.4,5.1-2.3c0.6-0.4,1.3-0.9,1.3-1.6c0.1-0.5-0.4-1.1-0.8-1.5c-0.3-0.3-0.8-0.6-1.3-0.8c-2.9-1.3-6-1.9-9.2-2.7
				c0.3,0.1,0.5,0.1,0.8,0.2c-0.6-0.2-1.3-0.6-2-0.5c-0.6,0-1.3,0.2-1.8,0.5c-2.4,1.4-3.9,3.5-6.4,4.7c-0.5,0.3-1.1,0.6-1.5,1
				c-0.1,0.2-0.3,0.3-0.4,0.5c-0.2,0.3-0.2,0.6,0.1,0.8c0.1,0.2,1.5,0.4,1.7,0.3c1.5-0.4,3-0.8,4.6-1.2c-0.4,0.1-0.7,0.2-1.1,0.2
				c1.3-0.2,2.9-0.2,3.8-1c0.7-0.5,0.9-1.2,0.7-1.9c-0.2-0.8-0.7-1.3-1.4-1.8c-0.5-0.3-0.7-0.4-1.4-0.7c-0.5-0.2-1.1-0.6-1.7-0.7
				c-0.7-0.2-0.8-0.3-1.4-0.1c-0.4,0.1-1,0.2-1.4,0.5c-0.4,0.3-0.7,0.9-0.9,1.3c-0.9,1.4-1.9,2.6-3.1,3.8c-0.7,0.7-1.6,1.3-2.5,1.8
				c-0.4,0.3-0.8,0.5-1.2,0.7c-0.5,0.2-1.3-0.1-1.7-0.3c0.2,0.3,0.4,0.6,0.7,0.9c-0.1-0.2-0.1-0.5,0-0.7c0.3-1.5,0.1-3-0.9-4.6
				c0-0.1-1.5-0.1-1.6,0c-0.9,0.6-1.6,1.3-2.6,1.8c-0.4,0.2-0.9,0.5-1.4,0.7c-0.2,0.1-0.3,0.3-0.4,0.4c-0.4,0.3-1.9,0.9-2,0.1
				c-0.1-0.2,0.1-0.4,0.2-0.6c0.5-0.6,1.2-1.2,1.9-1.7c0.9-0.7,1.8-1.2,2.9-1.7c1.3-0.6,2.6-0.9,4.2-1.3l-0.8-0.5
				C970.5,476.5,969.9,476.1,969.7,476.2z"/>
			<path class="st8" d="M969.6,476.3c-1.2,0.3-2.4,0.6-3.5,1.1c-1.1,0.5-2.2,1.1-3.1,1.8c-0.9,0.7-1.9,1.5-2.4,2.4
				c-0.3,0.5-0.5,0.9-0.1,1.4c0.7,0.8,2.2,0.8,3.4,0.6c1-0.2,1.4-0.4,2.3-0.9c1.6-0.9,2.9-2,4.2-3.2c-0.4,0-0.7,0-1.1-0.1
				c0.5,1.4,0.9,2.9,1.5,4.3c0.1,0.3,0.3,0.7,0.4,0.9c0.2,0.5,0.4,0.8,1.2,0.7c0.4,0,0.8-0.2,1.2-0.4c1.5-0.8,2.9-2,4.1-3
				c1.1-1.1,2-2.2,2.7-3.4c0.2-0.3,0.8-2.3,1.8-2.7c-0.3,0.1-0.7,0.2-1,0.3c0.4-0.1,0.9-0.2,1.4-0.2c-0.4,0-0.7,0.1-1.1,0.1
				c0.4,0,0.8,0,1.3,0c-0.3,0-0.6,0-0.9-0.1c1.9,1.3,3.7,2.6,5.6,3.9c-0.1-0.2-0.1-0.5-0.1-0.7c-0.2,0.6-0.3,1.2-0.5,1.8
				c0.1-0.2,0.2-0.5,0.3-0.7c-3,0.8-6.1,1.6-9.1,2.5c0.3,0,0.6,0.1,0.9,0.1c-0.7-0.7-0.6-1.3,0.1-1.7c2.6-1.6,4.9-3.4,7-5.4
				c-0.2,0.1-0.4,0.2-0.6,0.3c2.3-0.6,4.5-0.5,6.5,0.5c2.8,0.7,5.4,1.8,7.8,3.1c-0.2-0.2-0.4-0.5-0.7-0.7c0.3,0.6,0.7,1.2,1,1.7
				c-0.1-0.2-0.2-0.5-0.3-0.8c-4.6,4.4-10.3,6.1-17,5.1c-0.2,0,0.4,0.2,0.3,0.1c0.3,0.1,0.6,0.2,0.9,0.2c2.4,0.1,4.6,0.1,6.9-0.2
				c2.6-0.5,5.4-1.3,7.6-2.5c0.9-0.5,1.9-1.2,1.8-2.1c-0.1-0.4-0.3-0.7-0.5-1.1c-0.4-0.5-1.1-0.8-1.8-1.1c-3-1.2-6.3-2.1-9.5-2.8
				c-0.4-0.1-0.4-0.1-0.7-0.1c-0.7,0-1.3,0.2-1.9,0.5c-0.2,0.1-0.4,0.2-0.5,0.4c-1.8,1.4-3.6,2.8-5.4,4.2c-0.4,0.2-0.7,0.3-1,0.5
				c-0.6,0.4-1.6,1.1-1.3,1.8c0.2,0.4,0.7,0.4,1.2,0.4c0.5,0,0.9,0,1.4-0.1c1.3-0.2,2.5-0.5,3.7-0.8c0.5,0,1-0.1,1.5-0.3
				c0.5-0.2,0.8-0.2,1.3-0.6c1-0.7,0.9-1.8,0.5-2.7c-0.8-1.6-3-2.1-4.9-2.8c-0.2-0.1-1,0.2-1.2,0.3c-0.4,0.2-0.5,0.4-0.8,0.7
				c-1.1,1.6-2,3.3-3.6,4.8c-1,0.9-2.5,2.3-4,2.8c-0.5,0.2-1.2-0.1-1.5-0.4c0.1,0.2,0.2,0.5,0.3,0.7c-0.1-0.3-0.1-0.6,0.1-0.9
				c-0.1-1.5-0.4-2.9-0.9-4.3c0-0.1-1-0.2-1.1-0.1c-0.9,0.7-1.8,1.5-2.8,2.2c-0.7,0.4-1.4,0.9-2.2,1.2c-0.7,0.3-2.3,0.5-2.5-0.3
				c-0.1-0.3,0-0.4,0.2-0.7c0.5-0.7,1.2-1.3,1.9-1.8c0.9-0.7,1.8-1.3,2.9-1.8c1.3-0.6,2.6-1,4.2-1.3l-0.6-0.3
				C970.1,476.5,969.8,476.2,969.6,476.3z"/>
			<path class="st8" d="M969.6,476c-1.9,0.5-3.6,0.9-5.2,1.9c-1,0.7-2,1.3-2.8,2.1c-0.9,0.9-2.4,2.4-0.5,3.3c1,0.5,2.4,0.5,3.6,0.2
				c0.3-0.1,0.7-0.2,1-0.3c1.4-0.7,2.6-1.6,3.7-2.5c0.5-0.5,1-0.9,1.5-1.4c-0.1,0-0.2,0-0.3,0c0.8,1.6,1.2,3.2,0.9,4.8
				c-0.1,0.2-0.1,0.5,0,0.8c0.1,0.2-0.1,0.2,0.2,0.5c0.4,0.3,0.7,0.3,1.3,0.2c0.5-0.1,0.9-0.4,1.4-0.6c2-1.2,4-3,5.3-4.7
				c0.4-0.6,0.9-1.2,1.3-1.8c0.3-0.6,0.7-1.2,0.9-1.8c0.1-0.4,0.3-0.7,0.7-0.9c-0.2,0-0.3,0.1-0.5,0.1c1.3,0.2,2.4,0.8,3.2,1.7
				c1.4,0.4,2.1,1,2.1,2c-0.3,0.7-0.5,1.3-0.8,1.9c-0.4,0.3-0.8,0.5-1.4,0.5c-0.9,0.2-1.9,0.3-2.7,0.2c-0.7,0-1.3-0.2-1.8-0.8
				c-2-0.4-2.3-0.8-1-1.2c3.4-1.6,6.3-6,9.6-4.4c0.1,0.1,0.2,0.1,0.3,0.2c2.9,2.1,5.9,4.2,8.8,6.4c-0.7,0.5-1.7,0.8-2.5,1
				c-3,0.6-6,1.2-9,1.7c-1.5,0-3.1-0.1-4.6-0.3c-0.2,0,0.2,0.2,0.2,0.2c3.1,0.3,6,0.3,9.1-0.3c2-0.4,4.1-1,5.9-1.8
				c0.5-0.2,1.2-0.5,1.6-0.9c0.6-0.5,1.1-1,0.9-1.7c-0.1-0.4-0.5-0.7-0.9-1c-0.2-0.2-0.4-0.3-0.7-0.4c-1.7-1-7.5-2.5-9.3-3.3
				c-0.7-0.3-1.2-0.5-2-0.4c-0.4,0.1-0.9,0.2-1.3,0.4l-0.1,0c-2.4,1.9-4.9,3.6-7.8,5.1c-0.4,0.2-0.9,0.7-1.2,1
				c-0.6,1,0.5,1.2,1.5,1.2c1.8-0.4,3.5-0.7,5.3-0.8c0.5,0,1.1-0.1,1.6-0.2c0.7-0.2,1.1-0.5,1.5-0.9c0.6-0.8,0.4-1.9-0.1-2.7
				c-0.2-0.3-0.7-0.6-1-0.9c-0.8-0.6-1.9-1-2.7-1.5c-0.4-0.2-0.7-0.4-1.2-0.2c-0.2,0-0.3,0.1-0.4,0.2c-0.1,0.1-0.2,0.2-0.2,0.3
				c-0.4,1.1-1,2.1-1.9,3c-0.8,1.6-2,3-3.5,4.2c-0.7,0.6-1.4,1.1-2.3,1.6c-0.7,0.5-1.4,0.3-2.2-0.5c0.5-1.7,0.3-3.4-0.7-5.1
				c0,0-0.2-0.1-0.3,0c-2,3.1-5.3,4.1-10,2.8c0.2-0.4,0.5-0.8,0.9-1.2c1.2-1.5,2.9-2.6,5-3.5c1.1-0.5,2.3-0.8,3.5-1
				C970,476.2,969.6,476,969.6,476z"/>
			<path class="st8" d="M969.6,476c-1.2,0.3-2.4,0.6-3.5,1.1s-2.2,1.1-3.1,1.8c-0.9,0.7-1.9,1.5-2.4,2.4c-0.3,0.5-0.4,0.9-0.1,1.4
				c0.7,0.8,2.2,0.7,3.3,0.5c0.9-0.2,1.4-0.4,2.2-0.9c1.6-0.9,2.9-2,4.1-3.1c-0.4,0-0.9,0-1.3,0.1c0.5,1.8,0.8,3.5,2,5.1
				c0.3,0.5,0.7,0.8,1.5,0.7c0.4-0.1,0.8-0.3,1.2-0.5c0.7-0.5,1.3-0.9,2-1.4c0.6-0.5,1.2-1,1.8-1.5c1.4-1.3,2.4-2.8,3.3-4.3
				c0.3-0.5,0.5-1.1,0.9-1.6c-0.1,0-0.1,0-0.1,0.1c0.3,0,0.5-0.1,0.8-0.1c-0.4,0.1-0.8,0.2-1.3,0.2c2,1,4,2,6,3
				c-0.1-0.2-0.2-0.4-0.3-0.6c0.1,0.4,0.3,0.8,0.4,1.2c-0.1-0.2-0.1-0.4-0.2-0.6c-0.2,0.6-0.3,1.3-0.4,1.9c0.1-0.2,0.2-0.5,0.3-0.8
				c-2.5,1.6-5.4,2.5-8.7,2.7c0.4,0,0.8,0.1,1.3,0.2c-0.6-0.1-1.2-0.2-1.8-0.3c0.4,0.1,0.9,0.2,1.3,0.3c-0.4-0.2-0.9-0.4-1.4-0.6
				c0.3,0.1,0.5,0.3,0.8,0.4c-0.1-0.7,0.2-1.2,0.8-1.6c3-1.8,5.8-3.9,8.4-6c-0.4,0.1-0.8,0.2-1.2,0.3c0.5,0,1-0.1,1.6-0.2
				c-0.3,0-0.7,0-0.9,0.1c0.4,0,0.8,0,1.3,0.1c-0.2,0-0.4,0-0.6,0c3.6,1.1,7.1,2.2,10.7,3.3c-0.2-0.1-0.3-0.2-0.5-0.2
				c0.7,0.5,1.3,0.9,1.9,1.4c-0.2-0.2-0.4-0.5-0.6-0.7c0.2,0.4,0.4,0.8,0.6,1.2c-0.1-0.2-0.2-0.4-0.3-0.6c-2.6,1.6-5.1,3.2-7.7,4.7
				c-1.2,0.2-2.3,0.4-3.5,0.5c-2,0.2-3.8,0-5.8-0.2c-0.2,0,0.4,0.2,0.3,0.2c0.3,0.1,0.7,0.4,1,0.4c2.4,0.1,4.6,0.1,7-0.4
				c2.2-0.4,4.6-1.2,6.4-2.2c1-0.5,2.1-1.1,2.5-2c0.4-1.2-1.2-2.1-2.4-2.6c-3.6-1.4-5.1-1.5-8.6-2.7c-0.5-0.2-1-0.3-1.6-0.3
				c-0.5,0.1-1.1,0.2-1.5,0.5c-0.2,0.1-0.3,0.2-0.5,0.3c-2.1,1.5-3.6,2.8-6.3,4.5c-0.5,0.4-1.3,0.8-1.5,1.3
				c-0.2,0.4-0.1,0.5,0.1,0.9c0.1,0.2,1.3,0.4,1.4,0.4c2.5-0.2,1,0,5-1.1c-0.4,0-0.8,0.1-1.2,0.2c1.8-0.2,3.8-0.4,4.4-1.9
				c0.3-0.7,0.1-1.6-0.5-2.2c-0.3-0.3-0.7-0.6-1.1-0.8c-0.4-0.2-0.8-0.4-1.2-0.6c-0.3-0.1-0.5-0.2-0.8-0.4c-0.4-0.2-0.8-0.4-1.1-0.6
				c-0.3-0.1-0.5,0-0.8,0c-0.5,0.2-1.2,0.4-1.6,0.8c-0.3,0.3-0.5,0.8-0.7,1.1c-0.9,1.4-1.9,2.7-3.2,3.9c-0.8,0.7-1.6,1.4-2.6,1.9
				c-0.4,0.3-0.8,0.5-1.3,0.7c-0.5,0.2-1.3-0.1-1.7-0.4c0.2,0.2,0.3,0.4,0.4,0.7c0.2-1.8-0.2-3.5-0.9-5.3c0-0.1-1.2,0-1.3,0.1
				c-1.5,1.1-3,2.2-4.7,3.1c-0.7,0.4-2.4,0.7-2.4-0.2c0-0.2,0.1-0.4,0.4-0.6c0.7-0.8,1.4-1.5,2.4-2.1c1.9-1.3,4-2,6.4-2.5l-0.7-0.5
				C970.4,476.4,969.8,476,969.6,476z"/>
			<path class="st8" d="M969.6,476.4c-1.2,0.3-2.4,0.6-3.5,1.1c-1.1,0.5-2.2,1.1-3.1,1.8c-0.9,0.7-1.9,1.5-2.4,2.4
				c-0.3,0.5-0.5,0.9-0.1,1.4c0.7,0.8,2.2,0.8,3.4,0.6c1-0.2,1.5-0.4,2.3-0.9c1.6-0.9,2.9-2.1,4.2-3.2c-0.4,0-0.8-0.1-1.2-0.2
				c0.5,1.4,1,2.9,1.5,4.4c0.1,0.3,0.3,0.7,0.4,1c0.2,0.5,0.4,0.8,1.2,0.8c0.4,0,0.8-0.2,1.2-0.4c1.5-0.8,2.9-2,4.1-3.1
				c1.1-1.1,2-2.3,2.7-3.5c0.2-0.3,0.8-2.3,1.7-2.7c-0.4,0.1-0.8,0.2-1.1,0.2c0.5-0.1,0.9-0.1,1.4-0.2c-0.4,0-0.8,0-1.2,0
				c0.5,0,1,0.1,1.5,0.1c-0.4,0-0.8-0.1-1.2-0.1c1.4,0.5,2.7,1,4.1,1.6c-0.3-0.2-0.5-0.3-0.8-0.5c0.6,0.4,1.2,0.9,1.8,1.3
				c-0.3-0.2-0.5-0.5-0.8-0.8c0.4,0.8,0.8,1.6,1.3,2.5c-0.1-0.2-0.1-0.5-0.1-0.8c-0.2,0.7-0.3,1.3-0.5,1.9c0.1-0.2,0.2-0.5,0.3-0.8
				c-0.5,0.5-1,0.9-1.9,1.2c-2,0.7-5.2,1.3-6.8,1.5c0.3,0,0.7,0,1,0c-0.3-0.5-0.5-1-0.8-1.4c0.2-0.2,0.4-0.3,0.6-0.5
				c1.4-0.8,2.6-1.8,3.8-2.8c1-1.4,2.4-2.3,4.2-2.9c-0.3,0-0.5,0.1-0.8,0.1c2,0,3.8,0.4,5.5,1.1c2.8,0.7,5.4,1.8,7.8,3.1
				c-0.2-0.2-0.4-0.5-0.6-0.7c0.3,0.6,0.6,1.1,0.9,1.7c-0.1-0.3-0.2-0.6-0.3-0.9c0.1,5.1-16.7,5.2-16.9,5.1c-0.2,0-0.2,0,0,0
				c0.3,0.1,0.6,0.1,0.9,0.2c3,0.2,6,0.1,9-0.6c1.5-0.4,3-0.9,4.5-1.4c1-0.4,2.3-1,2.7-1.8c0.5-0.9-0.1-1.9-0.9-2.5
				c-1.2-0.9-5.4-2.1-5.7-2.1c-1.6-0.4-3.2-0.8-4.8-1.2c-0.1,0-0.2,0-0.3,0c-0.7-0.1-1.2-0.1-1.9,0.1c-0.3,0.1-0.5,0.2-0.7,0.3
				c-1.2,0.7-2.3,1.5-3.2,2.4c-0.9,1-2,1.8-3.4,2.5c-0.7,0.4-2.3,1.5-1.4,2.2c0.4,0.3,1,0.2,1.4,0.2c1.6-0.1,3.2-0.6,4.7-0.8
				c0.7-0.1,1.4-0.2,2-0.4c0.8-0.3,1.3-0.7,1.5-1.3c0.2-0.5,0.1-0.8-0.1-1.3c-0.2-0.8-0.4-1.2-1.1-1.8c-0.9-0.8-2.5-1.1-3.8-1.4
				c0.3,0.1,0.6,0.2,0.9,0.3c-0.1-0.1-0.2-0.2-0.3-0.2c-0.2-0.1-1.1-0.2-1.3-0.2c-0.8,0.2-1,0.2-1.4,0.6c-0.1,0.1-0.1,0.2-0.2,0.3
				c-0.6,1.1-1.3,2.2-2.1,3.2c-1.3,1.6-3.1,3.1-5.2,4.2c-0.7,0.4-1.2,0.2-1.8-0.2c0.1,0.2,0.2,0.5,0.3,0.7c-0.1-0.3-0.1-0.6,0.1-0.9
				c0-1.5-0.3-2.9-1-4.4c0-0.1-1.1-0.2-1.2-0.2c-0.9,0.7-1.8,1.5-2.7,2.2c-0.7,0.5-1.4,0.9-2.2,1.2c-0.8,0.3-2.4,0.5-2.6-0.3
				c-0.1-0.3,0-0.5,0.2-0.7c0.5-0.7,1.2-1.3,1.9-1.8c0.9-0.7,1.8-1.3,2.9-1.8c1.3-0.6,2.7-1,4.2-1.3l-0.5-0.2
				C970.1,476.5,969.8,476.4,969.6,476.4z"/>
			<path class="st8" d="M969.4,475.9c-1.6,0.4-2.9,0.8-4.3,1.5c-1.4,0.7-2.6,1.6-3.6,2.5c-0.6,0.6-1.4,1.3-1.4,2.1
				c-0.1,0.6,0.5,1.1,1.3,1.3c1,0.3,2.1,0.2,3.1,0.1c0.3,0,0.6-0.1,0.9-0.2c0.7-0.4,1.3-0.8,2-1.2c1.3-0.8,2.4-1.8,3.3-2.8
				c-0.1,0-0.2,0-0.3,0c0.9,1.6,1.2,3.2,0.9,4.7c-0.1,0.2-0.1,0.5,0,0.8c0.1,0.2,0.1,0.3,0.2,0.5c0.3,0.3,0.8,0.3,1.3,0.2
				c1.3-0.3,2.5-1.4,3.4-2c1.8-1.4,3.5-3.2,4.5-5.1c0.3-0.6,0.7-1.2,0.9-1.8c0.1-0.4,0.3-0.7,0.7-0.9c-0.2,0.1-0.3,0.1-0.5,0.2
				c0.4,0.1,0.9,0.2,1.3,0.3c2.4,0.5,3.8,1.6,4.1,3c0.1,0.5,0.2,1.2-0.2,1.7c-0.1,0.1-4.4,1.3-4.5,1.3c-0.1,0-0.1,0-0.1,0
				c-1.6,0.2-3.2,0.5-4.9,0.5c0.2,0,0.3,0.1,0.4,0.2c0-0.4-0.1-0.9-0.1-1.3c0.2-0.2,0.3-0.3,0.5-0.5c1.3-1.2,5.6-3,6-3.2
				c5.3-2.6,3.1-3,5.4-2.1c2.1,0.9,11.3,2.6,10.3,4.8c-0.4,0.9-1.3,1.5-2.3,1.9c-0.5,0.2-1.2,0.4-1.7,0.6c-1,0.4-2.1,0.7-3.3,1
				c-3.5,0.8-6.4,0.9-10.3,0.5c0,0,0.4,0.3,0.5,0.3c2.3,0.2,4.5,0.2,6.8,0c2.9-0.4,5.8-1.2,8.3-2.3c0.8-0.4,1.9-0.9,2.1-1.7
				c0.2-0.6-0.3-1.2-0.9-1.6c-0.2-0.2-0.4-0.3-0.7-0.5c-1.4-0.6-2.9-1.2-4.3-1.6c-1.6-0.6-3.3-1.1-4.9-1.7c-0.7-0.3-1.2-0.6-2-0.4
				c-0.4,0.1-0.9,0.3-1.3,0.5c-1.2,0.5-5.3,3.6-7.8,5.2c-0.5,0.3-1.8,1.4-1,1.9c0.2,0.2,0.6,0.2,0.9,0.3c0.2,0,0.5,0,0.7,0
				c1.5-0.5,3-0.7,4.6-0.8c0.4,0,0.7,0,1.1-0.1c0.9-0.1,1.6-0.4,2.2-0.9c0.8-0.8,0.9-2.1,0.2-3c-0.4-0.6-1.5-1.1-2.2-1.5
				c-0.3-0.1-0.5-0.3-0.8-0.5c-0.4-0.2-0.8-0.4-1.2-0.7c-0.3-0.1-0.5,0-0.8,0.1c-0.2,0.1-0.3,0.2-0.4,0.3c-0.1,0.2-0.2,0.3-0.3,0.5
				c-0.3,0.7-0.6,1.3-1,1.9c-0.4,0.6-0.8,1.2-1.2,1.8c-0.9,1.2-1.9,2.2-3.2,3.2c-1.5,0.2-2.9,0.3-4.4,0.5c0.3-1.5,0-3-0.8-4.5
				c0,0-0.3,0-0.3,0c-0.7,0.8-1.4,1.4-2.3,2.1c-1.6,1.5-4,2-7,1.5c-0.4-0.6-0.3-0.9,0.1-1.4c1.1-1.2,2.3-2.4,4-3.2
				c1.6-0.8,3.2-1.3,5.1-1.7C970.1,476.4,969.6,475.8,969.4,475.9z"/>
			<path class="st8" d="M969.8,476.3c-1.2,0.3-2.4,0.6-3.5,1.1c-1.1,0.5-2.2,1.1-3.1,1.8c-0.9,0.7-1.9,1.5-2.4,2.4
				c-0.3,0.5-0.5,0.9-0.1,1.3c0.7,0.8,2.1,0.7,3.2,0.5c0.9-0.2,1.4-0.4,2.2-0.9c1.6-0.9,2.9-2,4.2-3.1c-0.5,0-1.1-0.1-1.6-0.2
				c0.2,0.4,1.2,3.4,1.4,3.8c0.3,0.5,0.7,1.1,1,1.6c0.4,0.6,0.9,0.9,1.9,0.5c0.8-0.2,1.3-0.7,1.9-1.1c1.3-0.9,2.5-1.9,3.5-3
				c1-1.1,1.8-2.3,2.5-3.5c0.3-0.5,0.5-1.4,1.3-1.8c-0.5,0.1-1,0.2-1.5,0.4c0.6-0.1,1.2-0.2,1.8-0.3c-0.5,0-1,0.1-1.6,0.2
				c0.8,0.1,1.5,0.2,2.3,0.2c-0.5-0.1-1-0.2-1.6-0.3c1.4,0.5,2.9,0.9,4.2,1.4c-0.4-0.2-0.8-0.5-1.3-0.7c0.8,0.5,1.5,0.9,2.3,1.4
				c-0.4-0.3-0.7-0.6-1.1-0.9c0.5,0.7,1,1.4,1.6,2c-0.2-0.3-0.4-0.7-0.5-1c0.2,0.6,0.4,1.2,0.5,1.7c-0.1-0.4-0.2-0.7-0.3-1.1
				c-0.1,0.7-0.3,1.5-0.4,2.3c0.1-0.4,0.2-0.7,0.3-1.2c-2.6,1-5.3,2-8,3c0.5,0,0.9-0.1,1.4-0.2c-0.8,0-1.7,0-2.5,0
				c0.5,0,1,0.1,1.4,0.2c-0.5-0.2-1-0.3-1.5-0.5c0.3,0.1,0.7,0.2,0.9,0.3c-0.3-0.4-0.2-0.7,0.3-1c0.1-0.1,0.2-0.2,0.4-0.2
				c3-1.2,5.2-3.1,6.4-5.8c-0.3,0.2-0.6,0.3-0.9,0.5c0.7-0.3,1.4-0.7,2.1-0.9c-0.4,0.1-0.9,0.2-1.4,0.4c0.8-0.1,1.7-0.2,2.5-0.4
				c-0.5,0-1,0-1.5,0c4.7,0.7,9,2.1,12.9,4.2c-0.3-0.3-0.7-0.7-0.9-0.9c0.4,0.5,0.8,0.9,1.2,1.4c-0.3-0.4-0.5-0.7-0.8-1.1
				c0.3,0.5,0.6,1.1,0.9,1.6c-0.2-0.4-0.3-0.7-0.5-1.1c0.2,1.5-1.2,2.3-2.3,3.4c0.3-0.2,0.7-0.5,1-0.8c-5.1,0.9-10.3,1.9-15.4,2.9
				c-0.2,0,0.5,0.2,0.4,0.2c0.3,0.1,0.8,0.3,1.2,0.3c2.4,0,4.7,0,7-0.5c1.5-0.3,2.9-0.7,4.2-1.3c1.2-0.5,2.5-0.9,3.5-1.7
				c0.7-0.5,1.3-1.2,0.9-1.9c-0.3-0.6-0.8-1.1-1.4-1.5c-2.3-1.4-5.3-2-8.1-2.6c-0.2,0-2.1-0.6-2.9-0.6c-0.9,0-1.9,0.4-2.5,0.8
				c-0.2,0.1-0.3,0.2-0.5,0.4c-1.4,1.8-3.2,3.2-5.4,4.3c-0.5,0.3-1.3,0.7-1.5,1.3c-0.4,0.7,0.3,1,1.2,1c1.9,0,3.2-0.6,5.1-0.9
				c1-0.2,2-0.3,2.8-0.9c0.7-0.5,0.8-1.2,0.6-1.8c-0.1-0.4-0.2-0.9-0.4-1.3c-0.1-0.2-0.4-0.3-0.5-0.5c-1.1-0.9-3.1-1.6-4.8-1.6
				c-1.6,0-1.9,0.8-2.4,1.6c-1,1.6-2.3,3.1-3.9,4.5c-0.8,0.7-1.6,1.3-2.6,1.8c-0.1,0.1-0.3,0.2-0.4,0.2c-0.5,0.1-1.1-0.1-1.5-0.4
				c0.2,0.3,0.4,0.7,0.6,1c0.2-1.8-0.2-3.5-0.9-5.3c0-0.1-1.5-0.3-1.6-0.2c-0.8,0.6-1.6,1.4-2.6,1.9c-0.5,0.2-1,0.5-1.5,0.8
				c-0.2,0.1-0.3,0.2-0.4,0.4c-0.4,0.3-1.8,0.8-1.9,0.1c-0.1-0.2,0.1-0.4,0.3-0.6c0.5-0.6,1.2-1.2,1.9-1.7c0.9-0.7,1.8-1.2,2.9-1.7
				c1.3-0.6,2.6-0.9,4.2-1.3l-0.8-0.4C970.5,476.6,970,476.3,969.8,476.3z"/>
			<path class="st8" d="M969.5,476c-1.2,0.3-2.4,0.6-3.5,1.1c-1.1,0.5-2.2,1.1-3.1,1.8c-0.9,0.7-1.9,1.5-2.4,2.4
				c-0.3,0.5-0.5,0.9-0.1,1.4c0.7,0.8,2.3,0.9,3.4,0.7c1-0.1,1.5-0.4,2.3-0.9c1.6-0.9,2.9-2,4.2-3.2c-0.2,0-0.4,0-0.7,0
				c0.4,1.5,1,3,1.3,4.5c0.1,0.2,0.1,0.5,0.2,0.7c0.2,0.4,0.5,0.7,1.2,0.7c0.4,0,0.8-0.2,1.2-0.4c1.2-0.6,2.3-1.5,3.2-2.3
				c1.2-1,2.2-2.1,3-3.3c0.4-0.6,0.8-1.2,1.1-1.8c0.2-0.7,0.7-1.2,1.4-1.7c-0.2,0-0.4,0.1-0.7,0.1c1.6,1.7,3.2,3.5,4.8,5.2
				c0.1-0.1,0.2-0.2,0.3-0.4c-1.2,0.9-7.6,2.3-9.2,2.1c0.2,0,0.5,0.1,0.7,0.2c-0.1-0.4-0.3-0.8-0.4-1.2c0.2-0.2,0.3-0.5,0.5-0.7
				c0.2-0.2,0.5-0.4,0.8-0.5c3.4-1.6,6.8-3.2,10.2-4.8c1.5,0.5,3.1,0.9,4.7,1.4c1.4,1.7,2.7,3.4,4.1,5.1c-0.7,0.3-1.4,0.6-2.1,0.8
				c-4,1.9-8.5,2.4-13.6,1.7c0.1,0,0.7,0.3,0.9,0.4c3.1,0.2,6.1,0.1,9.1-0.6c0.8-0.2,1.5-0.4,2.3-0.7c1.4-0.5,4.3-1.4,5-2.6
				c0.7-1.2-0.4-2.1-1.7-2.8c-2.2-0.9-4.4-1.6-6.7-2.3c-1-0.2-2-0.6-2.9-0.9c-0.5-0.1-0.9-0.2-1.4,0c-0.4,0.1-1,0.3-1.4,0.5
				c-2.6,1.4-4.7,3.3-7.2,4.9c-0.5,0.3-1.6,1-1.4,1.6c0.1,0.5,0.5,0.6,1,0.7c0.5,0.1,0.9,0,1.4,0c1.7-0.5,3.4-0.8,5.2-1
				c0.3-0.1,0.7-0.2,1-0.2c0.5-0.2,1.2-0.6,1.4-1c0.8-1.4,0-2.6-1.4-3.5c-0.1-0.1-0.3-0.2-0.4-0.2c-0.8-0.4-1.8-1-2.7-1.3
				c-0.4-0.1-0.7,0-1,0.2c-0.3,0.1-0.4,0.2-0.7,0.4c-0.1,0.1-0.2,0.3-0.3,0.5c-0.6,1.2-1.3,2.3-2.1,3.4c-0.7,0.9-1.4,1.6-2.4,2.3
				c-0.9,0.8-1.9,1.5-3,2.1c-0.7,0.4-1.4,0.4-1.9-0.3c0.1,0.1,0.1,0.2,0.1,0.3c0.2-1.8-0.1-3.5-0.8-5.3c0-0.1-0.7,0-0.7,0
				c-1.4,1.2-3.7,3.5-6.3,3.7c-0.8,0.1-2.2-0.1-2.2-0.9c0-0.2,0.2-0.5,0.4-0.7c0.7-0.8,1.5-1.6,2.4-2.2c1.9-1.4,4-2.1,6.4-2.6
				c0,0-0.5-0.3-0.5-0.3C970,476.2,969.6,476,969.5,476z"/>
			<path class="st8" d="M969.5,475.8c-1.9,0.5-3.6,0.9-5.2,1.9c-1,0.6-2,1.4-2.8,2.1c-0.7,0.7-2.3,2.2-1,3c1.2,0.8,3.1,0.7,4.5,0.3
				c0.2-0.1,0.3-0.1,0.5-0.1c0.7-0.4,1.3-0.8,2-1.2c1.3-0.9,2.4-1.8,3.4-2.8c-0.1,0-0.2,0-0.2,0c1,5.5,0.9,3,0.8,5.1
				c0,0.1,0,0.4,0.1,0.5c0.2,0.6,0.7,0.8,1.5,0.6c1.8-0.5,3.1-1.8,4.3-2.8c1.5-1.3,2.7-2.7,3.6-4.3c0.3-0.6,0.7-1.2,0.9-1.9
				c0.1-0.4,0.3-0.7,0.7-0.9c-0.2,0-0.3,0.1-0.5,0.2c0.4,0.1,0.9,0.2,1.4,0.4c1.9,0.4,3.1,1.2,3.7,2.4c0.3,0.5,0.4,1.1,0.3,1.6
				c-0.1,0.2-0.2,0.5-0.3,0.7c-1.5,0.5-3.1,0.9-4.6,1.3h-0.1c-1.6,0.2-3.3,0.4-4.9,0.5c0.1,0,0.2,0.1,0.3,0.1
				c-0.8-0.9,0.4-1.7,1.3-2.2c2.8-1.4,5.3-3.1,7.6-5.1c5.4,0.2,9.6,2.3,12.7,6.3c-0.5,0.3-1,0.6-1.5,0.9c-1.3,0.5-2.6,0.9-3.9,1.3
				c-3.7,1-7.4,1.1-11.4,0.7c0,0,0.3,0.2,0.4,0.2c2.1,0.2,2.4,0.3,4.5,0.2c2.2-0.1,4.6-0.5,6.7-1.1c1.1-0.3,2.2-0.7,3.2-1.1
				c0.9-0.3,1.7-0.7,2.4-1.3c0.7-0.6,0.9-1.2,0.3-1.9c-0.3-0.3-0.7-0.6-1.1-0.9c-0.3-0.2-3.9-1.5-4.3-1.6c-2-0.7-3.5-0.9-5-1.7
				c-0.6-0.3-1.3-0.6-2-0.4c-0.4,0.1-0.9,0.2-1.3,0.4c-2.3,1.3-4.4,2.8-6.3,4.4c-0.2,0.1-0.5,0.2-0.7,0.3c-0.7,0.3-2.1,1.2-2,1.9
				c0.1,0.4,0.4,0.6,0.9,0.7c1.6,0.4,5.4-0.7,5.6-0.7c1.3-0.1,2.6-0.2,3.4-1c0.6-0.6,0.8-1.2,0.6-2c-0.2-0.8-0.6-1.3-1.4-1.8
				c-0.7-0.5-1.8-0.8-2.5-1.3c-0.3-0.2-0.7-0.6-1.2-0.6c-0.2,0-0.3,0.1-0.5,0.2c-0.3,0.2-0.4,0.3-0.5,0.5c-0.7,1.4-1.2,2.6-2.3,3.9
				c-0.5,0.5-0.9,1.1-1.4,1.6c-1.1,1.1-2.4,2.1-3.7,3c-0.8-0.3-1.6-0.7-2.4-0.9c0.3-1.5,0-3-0.8-4.6c0,0-0.2-0.1-0.2,0
				c-0.9,1-2,2-3.2,2.8c-1,1-2.3,1.5-3.8,1.6c-1.3,0-3.4-0.4-2.9-1.6c0.2-0.4,0.5-0.8,0.9-1.1c0.5-0.6,1.2-1.2,1.9-1.7
				c1.9-1.4,4.1-2.1,6.6-2.7C970.1,476.2,969.7,475.8,969.5,475.8z"/>
			<path class="st8" d="M969.7,476.4c-1.2,0.3-2.4,0.6-3.5,1.1c-1.1,0.5-2.2,1.1-3.1,1.8c-0.9,0.7-1.9,1.5-2.4,2.4
				c-0.3,0.5-0.5,0.9-0.1,1.4c0.7,0.8,2.2,0.7,3.3,0.5c0.9-0.2,1.4-0.4,2.3-0.9c1.6-0.9,2.9-2,4.2-3.2c-0.4-0.1-0.9-0.2-1.4-0.2
				c0.7,1.8,1.1,3.8,2.3,5.5c0.3,0.5,0.7,0.8,1.5,0.6c0.4-0.1,0.8-0.3,1.2-0.5c1.4-0.8,2.7-1.9,3.7-2.9c1.4-1.3,2.4-2.8,3.2-4.3
				c0.3-0.5,0.5-1.4,1.2-1.7c-0.4,0.1-0.9,0.2-1.3,0.3c0.5-0.1,1-0.2,1.6-0.2c-0.4,0-0.9,0-1.3,0.1c0.5,0,1.2,0,1.7,0.1
				c-0.4,0-0.9-0.1-1.3-0.1c1.4,0.5,2.9,1,4.3,1.5c-0.3-0.2-0.5-0.4-0.8-0.5c0.6,0.5,1.3,0.9,1.9,1.3c-0.3-0.3-0.6-0.6-0.9-0.9
				c0.5,0.9,0.9,1.8,1.4,2.7c-0.1-0.3-0.1-0.7-0.2-1c0,0.4,0,0.8-0.1,1.2c0-0.2,0.1-0.4,0.1-0.6c-0.2,0.5-0.3,0.9-0.4,1.4
				c0.1-0.3,0.2-0.6,0.3-0.9c-0.5,0.7-1.3,1.2-2.2,1.4c-2,0.7-4.2,1.2-6.4,1.5c0.4,0,0.9,0,1.3,0c-0.5,0-1.1-0.1-1.6-0.1
				c0.3,0,0.7,0.1,1,0.1c-1.2-0.4-0.5-1.1,0.1-1.4c0.2-0.1,0.3-0.1,0.4-0.2c2.4-1.6,4.5-3.5,6.3-5.5c-0.2,0.1-0.3,0.2-0.5,0.2
				c0.5-0.2,1.2-0.5,1.7-0.7c-0.4,0.1-0.8,0.2-1.1,0.2c2.9-0.1,5.7,0.5,8.2,1.6c2.2,0.4,4,1.2,5.5,2.4c-0.2-0.2-0.4-0.5-0.7-0.7
				c0.3,0.6,0.7,1.2,1,1.7c-0.1-0.3-0.2-0.7-0.3-1c0.1,1.5-1.3,2.3-2.5,3.3c0.3-0.2,0.7-0.5,0.9-0.7c-5.1,0.9-10.3,1.8-15.4,2.7
				c-0.2,0,0.4,0.2,0.3,0.1c0.3,0.1,0.7,0.2,1,0.2c3.1,0.1,6.2,0,9.2-0.9c1.5-0.5,3.2-1,4.6-1.7c0.7-0.3,1.6-0.9,2-1.4
				c0.5-0.8,0.1-1.3-0.3-1.9c-0.3-0.5-0.7-0.8-1.3-1c-0.2-0.1-0.4-0.2-0.7-0.3c-2.9-1.2-6-2-9.2-2.6c-0.6-0.1-1.2-0.1-1.8,0
				c-0.7,0.2-1.2,0.5-1.7,0.9c-1.9,1.5-3.8,3-5.7,4.4c-0.4,0.2-0.8,0.5-1.2,0.8c-0.7,0.7-0.8,1.4,0.5,1.5c0.3,0,0.7,0,1,0
				c0.1,0,0.1,0,0.1,0c1.7-0.5,3.4-0.8,5.2-1c0.9-0.2,1.9-0.5,2.3-1.2c0.7-1.1-0.1-2.6-1.1-3.4c-0.7-0.6-1.9-0.9-2.8-1.2
				c-0.4-0.1-1-0.3-1.5-0.3c-0.4,0-1.1,0.2-1.4,0.3c-0.2,0.1-0.4,0.3-0.5,0.5c-0.3,0.5-0.7,1-0.9,1.6c-0.7,1.1-1.6,2.1-2.6,3.1
				c-0.9,0.9-2.5,2.2-3.8,2.7c-0.5,0.2-1.2-0.1-1.6-0.4c0.1,0.3,0.3,0.6,0.4,0.9c0.2-1.8-0.2-3.6-0.9-5.3c0-0.1-1.3-0.3-1.4-0.2
				c-1.5,1.2-3,2.3-4.7,3.3c-0.6,0.3-2,0.7-2.3-0.1c-0.1-0.3,0.1-0.4,0.2-0.7c0.5-0.6,1.2-1.2,1.9-1.8c0.9-0.7,1.8-1.3,2.9-1.8
				c1.3-0.6,2.7-0.9,4.2-1.3l-0.7-0.3C970.3,476.5,969.9,476.3,969.7,476.4z"/>
		</g>
	</g>
</g>
</svg>
