<?xml version="1.0" encoding="utf-8"?>
<!-- Generator: Adobe Illustrator 19.2.1, SVG Export Plug-In . SVG Version: 6.00 Build 0)  -->
<svg version="1.1" id="Layer_1" xmlns="http://www.w3.org/2000/svg" xmlns:xlink="http://www.w3.org/1999/xlink" x="0px" y="0px"
	 viewBox="0 0 100 100" style="enable-background:new 0 0 100 100;" xml:space="preserve">
<style type="text/css">
	.st0{fill:none;}
	.st1{fill:#C6DD7F;}
	.st2{fill:#E9DDB7;}
	.st3{fill:#A6D0E4;}
	.st4{enable-background:new    ;}
	.st5{clip-path:url(#SVGID_2_);enable-background:new    ;}
	.st6{clip-path:url(#SVGID_4_);enable-background:new    ;}
	.st7{clip-path:url(#SVGID_6_);enable-background:new    ;}
	.st8{clip-path:url(#SVGID_8_);enable-background:new    ;}
	.st9{clip-path:url(#SVGID_10_);enable-background:new    ;}
	.st10{clip-path:url(#SVGID_12_);enable-background:new    ;}
	.st11{clip-path:url(#SVGID_14_);enable-background:new    ;}
	.st12{clip-path:url(#SVGID_16_);enable-background:new    ;}
	.st13{clip-path:url(#SVGID_18_);enable-background:new    ;}
	.st14{clip-path:url(#SVGID_20_);enable-background:new    ;}
	.st15{fill:#797979;}
	.st16{clip-path:url(#SVGID_22_);enable-background:new    ;}
	.st17{clip-path:url(#SVGID_24_);enable-background:new    ;}
	.st18{fill:#7D2F13;}
	.st19{clip-path:url(#SVGID_26_);enable-background:new    ;}
	.st20{fill:#792D12;}
	.st21{clip-path:url(#SVGID_28_);enable-background:new    ;}
	.st22{clip-path:url(#SVGID_30_);enable-background:new    ;}
	.st23{fill:#803013;}
	.st24{fill:#FE8B0A;}
	.st25{fill:#7B2E12;}
	.st26{clip-path:url(#SVGID_32_);enable-background:new    ;}
	.st27{clip-path:url(#SVGID_34_);enable-background:new    ;}
	.st28{clip-path:url(#SVGID_36_);enable-background:new    ;}
	.st29{clip-path:url(#SVGID_38_);enable-background:new    ;}
	.st30{fill:#000303;}
	.st31{opacity:0.1091;fill:#000303;}
	.st32{clip-path:url(#SVGID_40_);}
	.st33{stroke:url(#SVGID_41_);stroke-miterlimit:10;}
	.st34{clip-path:url(#SVGID_44_);}
	.st35{stroke:url(#SVGID_45_);stroke-miterlimit:10;}
	.st36{clip-path:url(#SVGID_48_);}
	.st37{stroke:url(#SVGID_49_);stroke-miterlimit:10;}
	.st38{clip-path:url(#SVGID_52_);}
	.st39{stroke:url(#SVGID_53_);stroke-miterlimit:10;}
	.st40{clip-path:url(#SVGID_56_);}
	.st41{stroke:url(#SVGID_57_);stroke-miterlimit:10;}
	.st42{clip-path:url(#SVGID_60_);}
	.st43{stroke:url(#SVGID_61_);stroke-miterlimit:10;}
	.st44{clip-path:url(#SVGID_64_);}
	.st45{stroke:url(#SVGID_65_);stroke-miterlimit:10;}
	.st46{clip-path:url(#SVGID_68_);}
	.st47{stroke:url(#SVGID_69_);stroke-miterlimit:10;}
	.st48{clip-path:url(#SVGID_72_);}
	.st49{fill:#FB7700;stroke:url(#SVGID_73_);stroke-miterlimit:10;}
	.st50{clip-path:url(#SVGID_76_);}
	.st51{fill:#FB7700;stroke:url(#SVGID_77_);stroke-miterlimit:10;}
	.st52{clip-path:url(#SVGID_80_);}
	.st53{fill:#FB7700;stroke:url(#SVGID_81_);stroke-miterlimit:10;}
	.st54{clip-path:url(#SVGID_84_);}
	.st55{fill:#FB7700;stroke:url(#SVGID_85_);stroke-miterlimit:10;}
	.st56{clip-path:url(#SVGID_88_);}
	.st57{fill:#FB7700;stroke:url(#SVGID_89_);stroke-miterlimit:10;}
	.st58{clip-path:url(#SVGID_92_);}
	.st59{fill:#FB7700;stroke:url(#SVGID_93_);stroke-miterlimit:10;}
	.st60{opacity:0.78;fill:url(#Alyssa);stroke:url(#SVGID_95_);stroke-miterlimit:10;}
</style>
<pattern  width="144.1" height="138.4" patternUnits="userSpaceOnUse" id="Alyssa" viewBox="100 -216.8 144.1 138.4" style="overflow:visible;">
	<g>
		<rect x="100" y="-216.8" class="st0" width="144.1" height="138.4"/>
		<g>
			<path class="st1" d="M311-58.3c-11.8-1.4-19.4,0.3-22.7,3.1c-3,2.5-5,5.4-2.2,11.9c2.9,7.1,1.5,14.7-5.5,15.9
				c-6.2,1-10.9-4.8-11.2-12.3c-0.2-5.2-1.9-8.3-5.5-7.6c-3.6,0.7-4.6,5.9-3.6,11.8c1.4,8.1,5.5,11.8,6.2,20.2
				c0.5,6.1-2.9,13.7-12.5,15c-9.3,1.4-15.9-4.3-16.6-10.5c-0.7-6.6,3.6-10.9,3.1-17.6c-0.5-6.7-4-10.2-5.9-17.3
				c-2.8-10.5,1.2-19,7.8-22.7c14.7-8.1,22.8,3.6,36,1.6c10.9-1.7,23.3-18.2,33-19.5c8.2-1.2,13.8,4.7,15,14
				C327.6-63,321.7-57.1,311-58.3z M268.8-57.8c0-2.3-1.9-4.2-4.2-4.2c-2.3,0-4.2,1.9-4.2,4.2s1.9,4.2,4.2,4.2
				C267-53.6,268.8-55.5,268.8-57.8z M318.3-73.2c0-1-0.8-1.7-1.7-1.7c-1,0-1.7,0.8-1.7,1.7s0.8,1.7,1.7,1.7
				C317.5-71.4,318.3-72.2,318.3-73.2z"/>
		</g>
		<g>
			<path class="st2" d="M148.8-77.5c0,7.2,4.6,13.8-1,16.3c-8.5,3.8-28-14.3-28-36.2c0-12,8.7-19,17.8-19c12.3,0,18,8.2,18,17.5
				C155.6-89.5,148.8-85.7,148.8-77.5z M143.4-82.9c0-1.1-0.9-2.1-2.1-2.1c-1.1,0-2.1,0.9-2.1,2.1c0,1.1,0.9,2.1,2.1,2.1
				C142.5-80.8,143.4-81.7,143.4-82.9z"/>
			<path class="st3" d="M223.5-54c-7.9,2.7-19.4-15.3-17.7-27c1.2-8.2,7.1-13.2,13.1-14.2c7.5-1.3,12.9,2.6,13.3,7.2
				c0.5,6.3-3.6,7.5-4.2,15C227.4-65.9,231.7-56.8,223.5-54z M219.7-81.5c0-1.4-1.2-2.6-2.6-2.6c-1.4,0-2.6,1.2-2.6,2.6
				c0,1.4,1.2,2.6,2.6,2.6C218.5-78.9,219.7-80.1,219.7-81.5z"/>
			<circle class="st2" cx="116.8" cy="-76.5" r="2.6"/>
			<path class="st3" d="M184.6-84.2c0.7,8.1,12.7,7,17.9,14.2c10.5,14.5-1.2,46.4-21.6,46.4c-11.7,0-24.2-9.7-24.2-29.2
				c0-15.8,10.2-21.5,8.3-42.2c-1-10.8-12.5-20.3-12.5-34.8c0-5.9,3.6-13.4,11.6-13.4c7.1,0,10.8,6,10.8,12.9c0,6.8-5.4,15.7,1.4,19
				c5.2,2.6,13.2-4.8,19.5-6.8c5.2-1.6,12.4,0.2,14.8,8.5c2.5,8.9-3.3,14.7-11.6,16.7C192.5-91.3,184-90.6,184.6-84.2z M168.6-114.7
				c0-1.8-1.5-3.3-3.3-3.3c-1.8,0-3.3,1.5-3.3,3.3c0,1.8,1.5,3.3,3.3,3.3C167.1-111.5,168.6-112.9,168.6-114.7z M194.6-105.1
				c1.3,0,2.3-1,2.3-2.3c0-1.3-1-2.3-2.3-2.3c-1.3,0-2.3,1-2.3,2.3C192.2-106.1,193.3-105.1,194.6-105.1z M174.6-45.4
				c0-1.8-1.5-3.3-3.3-3.3c-1.8,0-3.3,1.5-3.3,3.3c0,1.8,1.5,3.3,3.3,3.3C173.1-42.1,174.6-43.6,174.6-45.4z"/>
			<path class="st1" d="M166.9-58.3c-11.8-1.4-19.4,0.3-22.7,3.1c-3,2.5-5,5.4-2.2,11.9c2.9,7.1,1.5,14.7-5.5,15.9
				c-6.2,1-10.9-4.8-11.2-12.3c-0.2-5.2-1.9-8.3-5.5-7.6c-3.6,0.7-4.6,5.9-3.6,11.8c1.4,8.1,5.5,11.8,6.2,20.2
				c0.5,6.1-2.9,13.7-12.5,15c-9.3,1.4-15.9-4.3-16.6-10.5c-0.7-6.6,3.6-10.9,3.1-17.6c-0.5-6.7-4-10.2-5.9-17.3
				c-2.8-10.5,1.2-19,7.8-22.7c14.7-8.1,22.8,3.6,36,1.6c10.9-1.7,23.3-18.2,33-19.5c8.2-1.2,13.8,4.7,15,14
				C183.5-63,177.6-57.1,166.9-58.3z M124.7-57.8c0-2.3-1.9-4.2-4.2-4.2c-2.3,0-4.2,1.9-4.2,4.2s1.9,4.2,4.2,4.2
				C122.9-53.6,124.7-55.5,124.7-57.8z M174.2-73.2c0-1-0.8-1.7-1.7-1.7c-1,0-1.7,0.8-1.7,1.7s0.8,1.7,1.7,1.7
				C173.4-71.4,174.2-72.2,174.2-73.2z"/>
		</g>
		<g>
			<path class="st3" d="M290.3-104.8c0,6.2-4.2,10.7-8.6,11.6c-4.5,0.9-8.3-1.3-13,1.2c-4.8,2.6-7.1,11.1-16.8,11.1
				c-8,0-15.2-8-15.2-18.8c0-20.2,13.1-29.2,25.6-29.2C278.9-129.1,290.3-116.4,290.3-104.8z M270.6-119.2c0-2.1-1.7-3.8-3.8-3.8
				c-2.1,0-3.8,1.7-3.8,3.8c0,2.1,1.7,3.8,3.8,3.8C268.9-115.4,270.6-117.1,270.6-119.2z"/>
			<path class="st1" d="M311-196.7c-11.8-1.4-19.4,0.3-22.7,3.1c-3,2.5-5,5.4-2.2,11.9c2.9,7.1,1.5,14.7-5.5,15.9
				c-6.2,1-10.9-4.8-11.2-12.3c-0.2-5.2-1.9-8.3-5.5-7.6c-3.6,0.7-4.6,5.9-3.6,11.8c1.4,8.1,5.5,11.8,6.2,20.2
				c0.5,6.1-2.9,13.7-12.5,15c-9.3,1.4-15.9-4.3-16.6-10.5c-0.7-6.6,3.6-10.9,3.1-17.6c-0.5-6.7-4-10.2-5.9-17.3
				c-2.8-10.5,1.2-19,7.8-22.7c14.7-8.1,22.8,3.6,36,1.6c10.9-1.7,23.3-18.2,33-19.5c8.2-1.2,13.8,4.7,15,14
				C327.6-201.3,321.7-195.4,311-196.7z M268.8-196.2c0-2.3-1.9-4.2-4.2-4.2c-2.3,0-4.2,1.9-4.2,4.2c0,2.3,1.9,4.2,4.2,4.2
				C267-192,268.8-193.9,268.8-196.2z M318.3-211.5c0-1-0.8-1.7-1.7-1.7c-1,0-1.7,0.8-1.7,1.7c0,1,0.8,1.7,1.7,1.7
				C317.5-209.8,318.3-210.6,318.3-211.5z"/>
		</g>
		<g>
			<path class="st3" d="M131.8-133.2c-14,2-21.2-13.3-17.7-20.3c3.7-7.3,12.1-4.2,19.5-4.2c9.7,0,16.4-7.6,20.4-2.3
				C158.3-154.4,149-135.6,131.8-133.2z M132.3-150.7c0-1.2-1-2.2-2.2-2.2c-1.2,0-2.2,1-2.2,2.2c0,1.2,1,2.2,2.2,2.2
				C131.3-148.4,132.3-149.4,132.3-150.7z"/>
			<path class="st2" d="M148.8-215.9c0,7.2,4.6,13.8-1,16.3c-8.5,3.8-28-14.3-28-36.2c0-12,8.7-19,17.8-19c12.3,0,18,8.2,18,17.5
				C155.6-227.9,148.8-224.1,148.8-215.9z M143.4-221.2c0-1.1-0.9-2.1-2.1-2.1c-1.1,0-2.1,0.9-2.1,2.1c0,1.1,0.9,2.1,2.1,2.1
				C142.5-219.2,143.4-220.1,143.4-221.2z"/>
			<path class="st3" d="M146.2-104.8c0,6.2-4.2,10.7-8.6,11.6c-4.5,0.9-8.3-1.3-13,1.2c-4.8,2.6-7.1,11.1-16.8,11.1
				c-8,0-15.2-8-15.2-18.8c0-20.2,13.1-29.2,25.6-29.2C134.7-129.1,146.2-116.4,146.2-104.8z M126.4-119.2c0-2.1-1.7-3.8-3.8-3.8
				c-2.1,0-3.8,1.7-3.8,3.8c0,2.1,1.7,3.8,3.8,3.8C124.7-115.4,126.4-117.1,126.4-119.2z"/>
			<circle class="st1" cx="143" cy="-128.5" r="2.4"/>
			<path class="st3" d="M229.2-147c-3.2,4.7,1,10.7-1.4,15.2c-2.4,4.5-6.7,5-9.9,2.6c-3.6-2.8-3.4-6.6-8.3-8.8
				c-5.5-2.5-18,2.2-19.7-7.3c-0.9-4.8,2.4-8.6,7.3-9.7c6.1-1.4,9.4-0.2,15.4-3.1c6.1-2.9,11.2-9,22.1-12.1
				c10.4-3,16.1,1.6,16.6,5.9C252.3-155.9,234.2-154.4,229.2-147z M226.9-154.5c0-1.2-1-2.2-2.2-2.2c-1.2,0-2.2,1-2.2,2.2
				c0,1.2,1,2.2,2.2,2.2C225.9-152.2,226.9-153.2,226.9-154.5z"/>
			<path class="st2" d="M256.1-107.9c0,17.2-14.5,25.5-27,22.8c-10.3-2.2-12.8-17.3-16.7-26.2c-3.7-8.6-8.8-22.5-20.2-22.5
				c-11.2,0-12.8,14.5-23.7,14.5c-11,0-24.5-15.7-24.5-39.7c0-14.7,9.8-31.5,20.8-30.7c11.7,0.8,4.5,19.7,15.3,19.7
				c9.5,0,7.9-16.3,9.2-23.3c1.7-9,6.8-14.2,18.5-13.2c14.4,1.2,22.3,13.5,18.9,23.3c-4,11.5-23.9,17.3-21.5,30.5
				c1.3,7.6,13,12,26,16.2C245.8-131.7,256.1-125,256.1-107.9z M211.2-183.7c0,1.8,1.5,3.3,3.3,3.3c1.8,0,3.3-1.5,3.3-3.3
				s-1.5-3.3-3.3-3.3C212.6-187,211.2-185.5,211.2-183.7z M164.5-158.8c0-1-0.8-1.7-1.7-1.7c-1,0-1.7,0.8-1.7,1.7
				c0,1,0.8,1.7,1.7,1.7C163.7-157.1,164.5-157.8,164.5-158.8z M182-148.1c0-2.1-1.7-3.8-3.8-3.8c-2.1,0-3.8,1.7-3.8,3.8
				c0,2.1,1.7,3.8,3.8,3.8C180.2-144.3,182-146,182-148.1z M201.8-163.6c0-0.9-0.7-1.6-1.6-1.6c-0.9,0-1.6,0.7-1.6,1.6
				c0,0.9,0.7,1.6,1.6,1.6C201.1-162.1,201.8-162.8,201.8-163.6z M231.5-108.9c0-1.8-1.4-3.2-3.2-3.2c-1.8,0-3.2,1.4-3.2,3.2
				c0,1.8,1.4,3.2,3.2,3.2C230.1-105.8,231.5-107.2,231.5-108.9z"/>
			<path class="st3" d="M223.5-192.4c-7.9,2.7-19.4-15.3-17.7-27c1.2-8.2,7.1-13.2,13.1-14.2c7.5-1.3,12.9,2.6,13.3,7.2
				c0.5,6.3-3.6,7.5-4.2,15C227.4-204.3,231.7-195.2,223.5-192.4z M219.7-219.9c0-1.4-1.2-2.6-2.6-2.6c-1.4,0-2.6,1.2-2.6,2.6
				c0,1.4,1.2,2.6,2.6,2.6C218.5-217.3,219.7-218.4,219.7-219.9z"/>
			<circle class="st2" cx="116.8" cy="-214.8" r="2.6"/>
			<path class="st2" d="M253.3-128.1c0-8.4-5.1-15.2-11.3-15.2s-11.3,6.8-11.3,15.2c0,8.4,5.1,12.4,11.3,12.4
				S253.3-119.7,253.3-128.1z"/>
			<path class="st3" d="M184.6-222.6c0.7,8.1,12.7,7,17.9,14.2c10.5,14.5-1.2,46.4-21.6,46.4c-11.7,0-24.2-9.7-24.2-29.2
				c0-15.8,10.2-21.5,8.3-42.2c-1-10.8-12.5-20.3-12.5-34.8c0-5.9,3.6-13.4,11.6-13.4c7.1,0,10.8,6,10.8,12.9c0,6.8-5.4,15.7,1.4,19
				c5.2,2.6,13.2-4.8,19.5-6.8c5.2-1.6,12.4,0.2,14.8,8.5c2.5,8.9-3.3,14.7-11.6,16.7C192.5-229.7,184-229,184.6-222.6z
				 M168.6-253.1c0-1.8-1.5-3.3-3.3-3.3c-1.8,0-3.3,1.5-3.3,3.3c0,1.8,1.5,3.3,3.3,3.3C167.1-249.8,168.6-251.3,168.6-253.1z
				 M194.6-243.4c1.3,0,2.3-1,2.3-2.3c0-1.3-1-2.3-2.3-2.3c-1.3,0-2.3,1-2.3,2.3C192.2-244.5,193.3-243.4,194.6-243.4z M174.6-183.7
				c0-1.8-1.5-3.3-3.3-3.3c-1.8,0-3.3,1.5-3.3,3.3c0,1.8,1.5,3.3,3.3,3.3C173.1-180.5,174.6-181.9,174.6-183.7z"/>
			<path class="st1" d="M166.9-196.7c-11.8-1.4-19.4,0.3-22.7,3.1c-3,2.5-5,5.4-2.2,11.9c2.9,7.1,1.5,14.7-5.5,15.9
				c-6.2,1-10.9-4.8-11.2-12.3c-0.2-5.2-1.9-8.3-5.5-7.6c-3.6,0.7-4.6,5.9-3.6,11.8c1.4,8.1,5.5,11.8,6.2,20.2
				c0.5,6.1-2.9,13.7-12.5,15c-9.3,1.4-15.9-4.3-16.6-10.5c-0.7-6.6,3.6-10.9,3.1-17.6c-0.5-6.7-4-10.2-5.9-17.3
				c-2.8-10.5,1.2-19,7.8-22.7c14.7-8.1,22.8,3.6,36,1.6c10.9-1.7,23.3-18.2,33-19.5c8.2-1.2,13.8,4.7,15,14
				C183.5-201.3,177.6-195.4,166.9-196.7z M124.7-196.2c0-2.3-1.9-4.2-4.2-4.2c-2.3,0-4.2,1.9-4.2,4.2c0,2.3,1.9,4.2,4.2,4.2
				C122.9-192,124.7-193.9,124.7-196.2z M174.2-211.5c0-1-0.8-1.7-1.7-1.7c-1,0-1.7,0.8-1.7,1.7c0,1,0.8,1.7,1.7,1.7
				C173.4-209.8,174.2-210.6,174.2-211.5z"/>
			<circle class="st1" cx="228.8" cy="-174.4" r="1.4"/>
			<circle class="st2" cx="233.5" cy="-212.8" r="2.2"/>
			<circle class="st3" cx="151" cy="-189.6" r="1.2"/>
			<circle class="st3" cx="147.2" cy="-121.1" r="1.4"/>
			<circle class="st2" cx="231.9" cy="-143.1" r="1.2"/>
			<circle class="st1" cx="192.4" cy="-125.1" r="3.4"/>
			<circle class="st2" cx="198.7" cy="-85.3" r="2.1"/>
			<circle class="st2" cx="160.5" cy="-91.6" r="1.6"/>
			<circle class="st1" cx="233.1" cy="-205.6" r="2.6"/>
			<circle class="st3" cx="223.1" cy="-170.8" r="2.4"/>
			<circle class="st2" cx="125.1" cy="-164.2" r="2.6"/>
			<circle class="st3" cx="121.4" cy="-171.3" r="1.3"/>
			<circle class="st2" cx="185.4" cy="-119.4" r="1.6"/>
		</g>
		<g>
			<path class="st3" d="M85-147c-3.2,4.7,1,10.7-1.4,15.2c-2.4,4.5-6.7,5-9.9,2.6c-3.6-2.8-3.4-6.6-8.3-8.8
				c-5.5-2.5-18,2.2-19.7-7.3c-0.9-4.8,2.4-8.6,7.3-9.7c6.1-1.4,9.4-0.2,15.4-3.1c6.1-2.9,11.2-9,22.1-12.1
				c10.4-3,16.1,1.6,16.6,5.9C108.2-155.9,90-154.4,85-147z M82.8-154.5c0-1.2-1-2.2-2.2-2.2c-1.2,0-2.2,1-2.2,2.2
				c0,1.2,1,2.2,2.2,2.2C81.8-152.2,82.8-153.2,82.8-154.5z"/>
			<path class="st2" d="M112-107.9c0,17.2-14.5,25.5-27,22.8c-10.3-2.2-12.8-17.3-16.7-26.2c-3.7-8.6-8.8-22.5-20.2-22.5
				c-11.2,0-12.8,14.5-23.7,14.5c-11,0-24.5-15.7-24.5-39.7c0-14.7,9.8-31.5,20.8-30.7c11.7,0.8,4.5,19.7,15.3,19.7
				c9.5,0,7.9-16.3,9.2-23.3c1.7-9,6.8-14.2,18.5-13.2c14.4,1.2,22.3,13.5,18.9,23.3c-4,11.5-23.9,17.3-21.5,30.5
				c1.3,7.6,13,12,26,16.2C101.7-131.7,112-125,112-107.9z M67-183.7c0,1.8,1.5,3.3,3.3,3.3c1.8,0,3.3-1.5,3.3-3.3s-1.5-3.3-3.3-3.3
				C68.5-187,67-185.5,67-183.7z M20.4-158.8c0-1-0.8-1.7-1.7-1.7c-1,0-1.7,0.8-1.7,1.7c0,1,0.8,1.7,1.7,1.7
				C19.6-157.1,20.4-157.8,20.4-158.8z M37.8-148.1c0-2.1-1.7-3.8-3.8-3.8c-2.1,0-3.8,1.7-3.8,3.8c0,2.1,1.7,3.8,3.8,3.8
				C36.1-144.3,37.8-146,37.8-148.1z M57.7-163.6c0-0.9-0.7-1.6-1.6-1.6c-0.9,0-1.6,0.7-1.6,1.6c0,0.9,0.7,1.6,1.6,1.6
				C57-162.1,57.7-162.8,57.7-163.6z M87.4-108.9c0-1.8-1.4-3.2-3.2-3.2c-1.8,0-3.2,1.4-3.2,3.2c0,1.8,1.4,3.2,3.2,3.2
				C85.9-105.8,87.4-107.2,87.4-108.9z"/>
			<path class="st2" d="M109.2-128.1c0-8.4-5.1-15.2-11.3-15.2c-6.3,0-11.3,6.8-11.3,15.2c0,8.4,5.1,12.4,11.3,12.4
				C104.1-115.6,109.2-119.7,109.2-128.1z"/>
		</g>
	</g>
</pattern>
<g>
</g>
<g>
	<g class="st4">
		<g class="st4">
			<defs>
				<path id="SVGID_1_" class="st4" d="M41.6,56.2l-10.3-5c0.6-0.7,0.8-1.4,0.8-2.2c0-0.5-0.2-1-0.5-1.5l10.3,5
					c0.4,0.5,0.5,1,0.5,1.5C42.4,54.8,42.1,55.5,41.6,56.2z"/>
			</defs>
			<use xlink:href="#SVGID_1_"  style="overflow:visible;"/>
			<clipPath id="SVGID_2_">
				<use xlink:href="#SVGID_1_"  style="overflow:visible;"/>
			</clipPath>
			<g class="st5">
				<path d="M41.6,56.2l-10.3-5c0,0,0,0,0,0L41.6,56.2C41.6,56.2,41.6,56.2,41.6,56.2"/>
				<path d="M41.6,56.2l-10.3-5c0.1-0.1,0.2-0.3,0.3-0.4l10.3,5C41.8,55.9,41.7,56.1,41.6,56.2"/>
				<path d="M41.9,55.8l-10.3-5c0.1-0.2,0.2-0.3,0.3-0.5l10.3,5C42.1,55.4,42,55.6,41.9,55.8"/>
				<path d="M42.1,55.3l-10.3-5c0.2-0.4,0.3-0.8,0.3-1.3c0-0.5-0.2-1-0.5-1.5l10.3,5c0.4,0.5,0.5,1,0.5,1.5
					C42.4,54.4,42.3,54.9,42.1,55.3"/>
			</g>
		</g>
		<g class="st4">
			<defs>
				<path id="SVGID_3_" class="st4" d="M30.9,47.1l10.3,5c0.3,0.1,0.5,0.3,0.6,0.5l-10.3-5C31.4,47.3,31.1,47.2,30.9,47.1z"/>
			</defs>
			<use xlink:href="#SVGID_3_"  style="overflow:visible;"/>
			<clipPath id="SVGID_4_">
				<use xlink:href="#SVGID_3_"  style="overflow:visible;"/>
			</clipPath>
			<g class="st6">
				<path d="M41.9,52.5l-10.3-5c-0.2-0.2-0.4-0.3-0.6-0.5l10.3,5C41.5,52.2,41.7,52.3,41.9,52.5"/>
			</g>
		</g>
		<g class="st4">
			<defs>
				<path id="SVGID_5_" class="st4" d="M32.5,45.1l10.3,5c-0.4-0.2-0.8-0.3-1.2-0.4l-10.3-5C31.7,44.8,32.1,44.9,32.5,45.1z"/>
			</defs>
			<use xlink:href="#SVGID_5_"  style="overflow:visible;"/>
			<clipPath id="SVGID_6_">
				<use xlink:href="#SVGID_5_"  style="overflow:visible;"/>
			</clipPath>
			<g class="st7">
				<path d="M41.6,49.6l-10.3-5c0,0,0,0,0,0L41.6,49.6C41.6,49.6,41.6,49.6,41.6,49.6"/>
				<path d="M41.6,49.7l-10.3-5c0.4,0.1,0.7,0.2,1,0.3l10.3,5C42.4,49.8,42,49.7,41.6,49.7"/>
				<path d="M42.7,50l-10.3-5c0.1,0,0.1,0.1,0.2,0.1l10.3,5C42.8,50,42.7,50,42.7,50"/>
			</g>
		</g>
		<g class="st4">
			<defs>
				<path id="SVGID_7_" class="st4" d="M35.3,57l-10.3-5c1.1,0.5,2.2,0.7,3.5,0.5c1.1-0.1,2-0.6,2.8-1.3l10.3,5
					c-0.7,0.7-1.6,1.1-2.8,1.3C37.5,57.7,36.3,57.5,35.3,57z"/>
			</defs>
			<use xlink:href="#SVGID_7_"  style="overflow:visible;"/>
			<clipPath id="SVGID_8_">
				<use xlink:href="#SVGID_7_"  style="overflow:visible;"/>
			</clipPath>
			<g class="st8">
				<path d="M35.3,57l-10.3-5c0.1,0,0.1,0.1,0.2,0.1l10.3,5C35.4,57,35.3,57,35.3,57"/>
				<path d="M35.5,57.1l-10.3-5c0.3,0.1,0.7,0.3,1,0.3l10.3,5C36.2,57.3,35.8,57.2,35.5,57.1"/>
				<path d="M36.5,57.4l-10.3-5c0.7,0.2,1.5,0.2,2.3,0.1c0.5-0.1,1-0.2,1.4-0.4l10.3,5c-0.4,0.2-0.9,0.3-1.4,0.4
					C38,57.6,37.2,57.6,36.5,57.4"/>
				<path d="M40.2,57.1l-10.3-5c0.2-0.1,0.4-0.2,0.6-0.3l10.3,5C40.6,56.9,40.4,57.1,40.2,57.1"/>
				<path d="M40.8,56.8l-10.3-5c0.2-0.1,0.3-0.2,0.4-0.3l10.3,5C41.1,56.6,40.9,56.7,40.8,56.8"/>
				<path d="M41.2,56.5l-10.3-5c0.1-0.1,0.2-0.2,0.3-0.3l10.3,5C41.5,56.3,41.3,56.4,41.2,56.5"/>
			</g>
		</g>
		<g class="st4">
			<defs>
				<path id="SVGID_9_" class="st4" d="M43.7,46.4l-10.3-5c-0.5-1.1-1.4-1.9-2.7-2.6l10.3,5C42.3,44.4,43.2,45.3,43.7,46.4z"/>
			</defs>
			<use xlink:href="#SVGID_9_"  style="overflow:visible;"/>
			<clipPath id="SVGID_10_">
				<use xlink:href="#SVGID_9_"  style="overflow:visible;"/>
			</clipPath>
			<g class="st9">
				<path d="M43.7,46.4l-10.3-5c-0.5-1.1-1.4-1.9-2.7-2.6l10.3,5C42.3,44.4,43.2,45.3,43.7,46.4"/>
			</g>
		</g>
		<g class="st4">
			<defs>
				<path id="SVGID_11_" class="st4" d="M30.6,38.8l10.3,5c0,0,0.1,0,0.1,0.1l-10.3-5C30.7,38.8,30.7,38.8,30.6,38.8z"/>
			</defs>
			<use xlink:href="#SVGID_11_"  style="overflow:visible;"/>
			<clipPath id="SVGID_12_">
				<use xlink:href="#SVGID_11_"  style="overflow:visible;"/>
			</clipPath>
			<g class="st10">
				<path d="M41.1,43.8l-10.3-5c0,0-0.1,0-0.1-0.1l10.3,5C41,43.8,41,43.8,41.1,43.8"/>
			</g>
		</g>
		<g class="st4">
			<defs>
				<path id="SVGID_13_" class="st4" d="M40.4,42.5l-10.3-5c0.3,0.1,0.6,0.2,0.8,0.1c0.4-0.1,1-0.4,1.7-1l10.3,5
					c-0.7,0.6-1.3,1-1.7,1C41,42.6,40.8,42.6,40.4,42.5z"/>
			</defs>
			<use xlink:href="#SVGID_13_"  style="overflow:visible;"/>
			<clipPath id="SVGID_14_">
				<use xlink:href="#SVGID_13_"  style="overflow:visible;"/>
			</clipPath>
			<g class="st11">
				<path d="M40.4,42.5l-10.3-5c0.1,0,0.2,0.1,0.3,0.1l10.3,5C40.6,42.5,40.5,42.5,40.4,42.5"/>
				<path d="M40.7,42.6l-10.3-5c0.2,0,0.4,0.1,0.5,0c0.1,0,0.3-0.1,0.4-0.1l10.3,5c-0.1,0.1-0.3,0.1-0.4,0.1
					C41.1,42.6,40.9,42.6,40.7,42.6"/>
				<path d="M41.6,42.5l-10.3-5c0.1-0.1,0.3-0.1,0.4-0.2l10.3,5C41.9,42.4,41.8,42.4,41.6,42.5"/>
				<path d="M42.1,42.3l-10.3-5c0.2-0.1,0.4-0.3,0.6-0.4l10.3,5C42.4,42,42.2,42.2,42.1,42.3"/>
				<path d="M42.6,41.9l-10.3-5c0.1-0.1,0.2-0.2,0.3-0.3l10.3,5C42.8,41.7,42.7,41.8,42.6,41.9"/>
			</g>
		</g>
		<g>
			<polygon points="36.2,48.4 25.8,43.4 31.3,44.7 41.6,49.6 			"/>
		</g>
		<g class="st4">
			<defs>
				<path id="SVGID_15_" class="st4" d="M35.3,48.1l-10.3-5c0.2,0.1,0.5,0.2,0.9,0.3l10.3,5C35.8,48.3,35.6,48.3,35.3,48.1z"/>
			</defs>
			<use xlink:href="#SVGID_15_"  style="overflow:visible;"/>
			<clipPath id="SVGID_16_">
				<use xlink:href="#SVGID_15_"  style="overflow:visible;"/>
			</clipPath>
			<g class="st12">
				<path d="M35.3,48.1l-10.3-5c0,0,0.1,0,0.1,0L35.3,48.1C35.4,48.2,35.4,48.2,35.3,48.1"/>
				<path d="M35.4,48.2l-10.3-5c0.2,0.1,0.4,0.2,0.7,0.2l10.3,5C35.8,48.3,35.6,48.3,35.4,48.2"/>
				<path d="M36.1,48.4l-10.3-5c0,0,0.1,0,0.1,0L36.1,48.4C36.1,48.4,36.1,48.4,36.1,48.4"/>
			</g>
		</g>
		<g>
			<polygon points="30.8,54 20.5,49 21.6,48.7 31.9,53.7 			"/>
		</g>
		<g>
			<polygon points="33,59.5 22.6,54.5 20.5,49 30.8,54 			"/>
		</g>
		<g class="st4">
			<defs>
				<path id="SVGID_17_" class="st4" d="M33.4,50.1l-10.3-5c-0.3-0.1-0.5-0.3-0.7-0.4l10.3,5C32.9,49.8,33.1,49.9,33.4,50.1z"/>
			</defs>
			<use xlink:href="#SVGID_17_"  style="overflow:visible;"/>
			<clipPath id="SVGID_18_">
				<use xlink:href="#SVGID_17_"  style="overflow:visible;"/>
			</clipPath>
			<g class="st13">
				<path d="M33.4,50.1l-10.3-5c-0.3-0.1-0.5-0.3-0.7-0.4l10.3,5C32.9,49.8,33.1,49.9,33.4,50.1"/>
			</g>
		</g>
		<g class="st4">
			<defs>
				<path id="SVGID_19_" class="st4" d="M33.4,44.1l-10.3-5c1.1-1,2.4-1.6,4-1.8c1-0.1,2.1-0.1,3.1,0.2l10.3,5c-1-0.3-2-0.3-3.1-0.2
					C35.8,42.5,34.5,43.1,33.4,44.1z"/>
			</defs>
			<use xlink:href="#SVGID_19_"  style="overflow:visible;"/>
			<clipPath id="SVGID_20_">
				<use xlink:href="#SVGID_19_"  style="overflow:visible;"/>
			</clipPath>
			<g class="st14">
				<path d="M33.4,44.1l-10.3-5c0.1-0.1,0.2-0.2,0.4-0.3l10.3,5C33.6,43.9,33.5,44,33.4,44.1"/>
				<path d="M33.8,43.8l-10.3-5c0.2-0.2,0.4-0.3,0.7-0.5l10.3,5C34.2,43.4,34,43.6,33.8,43.8"/>
				<path d="M34.4,43.3l-10.3-5c0.3-0.2,0.6-0.3,0.9-0.5l10.3,5C35,43,34.7,43.1,34.4,43.3"/>
				<path d="M35.3,42.8l-10.3-5c0.6-0.3,1.3-0.4,2-0.5c1-0.1,1.9-0.1,2.8,0.1l10.3,5c-0.9-0.2-1.9-0.3-2.8-0.1
					C36.6,42.4,36,42.6,35.3,42.8"/>
				<path d="M40.2,42.4l-10.3-5c0.1,0,0.2,0,0.2,0.1l10.3,5C40.3,42.5,40.3,42.4,40.2,42.4"/>
			</g>
		</g>
		<g>
			<path class="st15" d="M43,41.6l1.9,4.5l-1.1,0.3c-0.5-1.1-1.4-1.9-2.7-2.6c-1-0.5-2.2-0.7-3.7-0.5c-0.8,0.1-1.5,0.5-2.1,1.2
				c-0.6,0.7-0.9,1.4-0.9,2.1c0,0.9,0.6,1.5,1.9,1.8l5.4,1.2c1,0.2,1.7,0.6,2.3,1.2c0.6,0.7,0.9,1.5,0.9,2.5c0,1.4-0.5,2.6-1.6,3.6
				c-1.2,1-2.5,1.7-4.2,1.9c-1.3,0.2-2.4,0.1-3.3-0.2c-0.3-0.2-0.7-0.2-1-0.2c-0.7,0.1-1.3,0.4-1.9,1.1L30.8,54l1.1-0.4
				c1.8,2.9,4.1,4.2,6.9,3.8c1.1-0.1,2-0.6,2.8-1.3c0.6-0.7,0.8-1.4,0.8-2.2c0-0.5-0.2-1-0.5-1.5c-0.3-0.3-0.8-0.5-1.3-0.7l-5.2-1.1
				c-1.3-0.3-2.2-0.6-2.6-1c-0.6-0.7-0.8-1.5-0.8-2.5c0-0.9,0.5-2,1.5-3.1c1.1-1,2.4-1.6,4-1.8c1-0.1,2.1-0.1,3.1,0.2
				c0.3,0.1,0.6,0.2,0.8,0.1C41.7,42.6,42.2,42.2,43,41.6z"/>
		</g>
		<g class="st4">
			<defs>
				<path id="SVGID_21_" class="st4" d="M32.8,49.6l-10.3-5c-0.6-0.7-0.8-1.5-0.8-2.5c0-0.9,0.5-2,1.5-3.1l10.3,5
					c-1,1.1-1.5,2.2-1.5,3.1C31.9,48.1,32.2,48.9,32.8,49.6z"/>
			</defs>
			<use xlink:href="#SVGID_21_"  style="overflow:visible;"/>
			<clipPath id="SVGID_22_">
				<use xlink:href="#SVGID_21_"  style="overflow:visible;"/>
			</clipPath>
			<g class="st16">
				<path d="M32.8,49.6l-10.3-5c-0.6-0.7-0.8-1.5-0.8-2.5c0-0.4,0.1-0.8,0.3-1.3l10.3,5c-0.2,0.4-0.3,0.9-0.3,1.3
					C31.9,48.1,32.2,48.9,32.8,49.6"/>
				<path d="M32.2,45.9l-10.3-5c0.1-0.2,0.2-0.5,0.4-0.7l10.3,5C32.4,45.4,32.3,45.7,32.2,45.9"/>
				<path d="M32.6,45.2l-10.3-5c0.2-0.3,0.3-0.5,0.5-0.8l10.3,5C32.9,44.7,32.7,44.9,32.6,45.2"/>
				<path d="M33.1,44.4l-10.3-5c0.1-0.1,0.2-0.2,0.3-0.3l10.3,5C33.3,44.2,33.2,44.3,33.1,44.4"/>
			</g>
		</g>
	</g>
</g>
<g>
	<g class="st4">
		<g class="st4">
			<defs>
				<path id="SVGID_23_" class="st4" d="M59.8,44.4l3.2-4.3c0.3-0.4,1-0.6,2.1-0.5l-3.2,4.3C60.8,43.8,60.1,44,59.8,44.4z"/>
			</defs>
			<clipPath id="SVGID_24_">
				<use xlink:href="#SVGID_23_"  style="overflow:visible;"/>
			</clipPath>
			<g class="st17">
				<g>
					<path class="st18" d="M65.1,39.6l-3.2,4.3c-1-0.1-1.7,0.1-2.1,0.5l3.2-4.3C63.4,39.7,64,39.5,65.1,39.6"/>
				</g>
			</g>
		</g>
		<g class="st4">
			<defs>
				<path id="SVGID_25_" class="st4" d="M61.5,40.8l-3.2,4.3c0-0.2,0-0.3,0-0.5c-0.1-0.7-0.9-1.1-2.4-1.2l3.2-4.3
					c1.5,0.1,2.3,0.5,2.4,1.2C61.6,40.5,61.6,40.6,61.5,40.8z"/>
			</defs>
			<clipPath id="SVGID_26_">
				<use xlink:href="#SVGID_25_"  style="overflow:visible;"/>
			</clipPath>
			<g class="st19">
				<g>
					<path class="st18" d="M61.5,40.8l-3.2,4.3c0-0.2,0-0.3,0-0.5c-0.1-0.7-0.9-1.1-2.4-1.2l3.2-4.3c1.5,0.1,2.3,0.5,2.4,1.2
						C61.6,40.5,61.6,40.6,61.5,40.8"/>
				</g>
			</g>
		</g>
		<g>
			<g>
				<polygon class="st20" points="59.2,39.1 55.9,43.4 55.8,42.3 59.1,38 				"/>
			</g>
		</g>
		<g class="st4">
			<defs>
				<path id="SVGID_27_" class="st4" d="M49.9,43.5l3.2-4.3c0.3-0.4,0.8-0.5,1.6-0.4l-3.2,4.3C50.7,43,50.2,43.2,49.9,43.5z"/>
			</defs>
			<clipPath id="SVGID_28_">
				<use xlink:href="#SVGID_27_"  style="overflow:visible;"/>
			</clipPath>
			<g class="st21">
				<g>
					<path class="st18" d="M54.8,38.8l-3.2,4.3c-0.8-0.1-1.3,0.1-1.6,0.4l3.2-4.3C53.4,38.9,54,38.7,54.8,38.8"/>
				</g>
			</g>
		</g>
		<g class="st4">
			<defs>
				<path id="SVGID_29_" class="st4" d="M50,39.7L46.8,44c-0.3-0.9-1-1.3-2.2-1.4l3.2-4.3C49,38.3,49.7,38.8,50,39.7z"/>
			</defs>
			<clipPath id="SVGID_30_">
				<use xlink:href="#SVGID_29_"  style="overflow:visible;"/>
			</clipPath>
			<g class="st22">
				<g>
					<path class="st18" d="M50,39.7L46.8,44c-0.3-0.9-1-1.3-2.2-1.4l3.2-4.3C49,38.3,49.7,38.8,50,39.7"/>
				</g>
			</g>
		</g>
		<g>
			<g>
				<polygon class="st20" points="47.8,38.3 44.6,42.6 44.5,41.4 47.7,37.1 				"/>
			</g>
		</g>
		<g>
			<g>
				<polygon class="st20" points="58.5,52.6 55.3,56.9 58.3,45.1 61.5,40.8 				"/>
			</g>
		</g>
		<g>
			<g>
				<polygon class="st23" points="58.8,55.7 55.5,60 54.1,59.9 57.3,55.6 				"/>
			</g>
		</g>
		<g>
			<g>
				<path class="st24" d="M65,38.4l0.1,1.1c-1.3-0.1-2.1,0.2-2.3,0.9l-4,15.2l-1.5-0.1l-7.3-16c-0.3-0.9-1-1.3-2.2-1.4l-0.1-1.1
					l6.9,0.5l0.1,1.1c-1.3-0.1-1.9,0.3-1.8,1.3l5.5,12.6l3-11.8c0-0.2,0-0.3,0-0.5c-0.1-0.7-0.9-1.1-2.4-1.2L59.1,38L65,38.4z"/>
			</g>
		</g>
		<g>
			<g>
				<polygon class="st25" points="57.3,55.6 54.1,59.9 46.8,44 50,39.7 				"/>
			</g>
		</g>
	</g>
</g>
<g>
	<g class="st4">
		<g class="st4">
			<defs>
				<path id="SVGID_31_" class="st4" d="M70.6,40.7l3.5-2.5c-0.4,0.3-0.7,0.6-1.1,1c-1.4,1.6-2.3,3.7-2.6,6.5
					c-0.4,3.2-0.1,5.8,0.9,7.9c0.9,1.9,2.2,3,3.8,3.4c1.2,0.3,2.4,0.1,3.5-0.6c0.1-0.1,0.2-0.1,0.3-0.2l-3.5,2.5
					c-0.1,0.1-0.2,0.1-0.3,0.2c-1.1,0.7-2.3,0.9-3.5,0.6c-1.7-0.4-2.9-1.5-3.8-3.4c-1-2.1-1.3-4.7-0.9-7.9c0.3-2.8,1.2-5,2.6-6.5
					C69.9,41.3,70.2,41,70.6,40.7z"/>
			</defs>
			<use xlink:href="#SVGID_31_"  style="overflow:visible;fill:#797979;"/>
			<clipPath id="SVGID_32_">
				<use xlink:href="#SVGID_31_"  style="overflow:visible;"/>
			</clipPath>
			<g class="st26">
				<path class="st15" d="M70.6,40.7l3.5-2.5c-0.4,0.3-0.7,0.6-1.1,1c-0.2,0.2-0.4,0.4-0.6,0.7L69,42.4c0.2-0.2,0.4-0.5,0.6-0.7
					C69.9,41.3,70.2,41,70.6,40.7"/>
				<path class="st15" d="M69,42.4l3.5-2.5c-0.2,0.3-0.4,0.6-0.6,0.9l-3.5,2.5C68.6,43,68.8,42.7,69,42.4"/>
				<path class="st15" d="M68.4,43.3l3.5-2.5c-0.1,0.3-0.3,0.5-0.4,0.8L68,44.1C68.2,43.8,68.3,43.5,68.4,43.3"/>
				<path class="st15" d="M68,44.1l3.5-2.5c-0.1,0.3-0.2,0.5-0.3,0.8l-3.5,2.5C67.8,44.6,67.9,44.3,68,44.1"/>
				<path class="st15" d="M67.7,44.9l3.5-2.5c-0.1,0.3-0.2,0.5-0.3,0.8l-3.5,2.5C67.5,45.4,67.6,45.1,67.7,44.9"/>
				<path class="st15" d="M67.4,45.7l3.5-2.5c-0.1,0.3-0.2,0.6-0.2,0.9l-3.5,2.5C67.3,46.3,67.3,46,67.4,45.7"/>
				<path class="st15" d="M67.2,46.6l3.5-2.5c-0.1,0.3-0.1,0.7-0.2,1L67,47.6C67.1,47.2,67.1,46.9,67.2,46.6"/>
				<path class="st15" d="M67,47.6l3.5-2.5c0,0.2-0.1,0.4-0.1,0.7c0,0.2,0,0.4-0.1,0.5l-3.5,2.5c0-0.2,0-0.4,0.1-0.5
					C67,48,67,47.8,67,47.6"/>
				<path class="st15" d="M66.9,48.8l3.5-2.5c0,0.4-0.1,0.8-0.1,1.2L66.8,50C66.8,49.6,66.8,49.2,66.9,48.8"/>
				<path class="st15" d="M66.8,50l3.5-2.5c0,0.4,0,0.7,0,1.1l-3.5,2.5C66.8,50.7,66.8,50.4,66.8,50"/>
				<path class="st15" d="M66.8,51.1l3.5-2.5c0,0.3,0,0.6,0,0.9L66.8,52C66.8,51.7,66.8,51.4,66.8,51.1"/>
				<path class="st15" d="M66.8,52l3.5-2.5c0,0.3,0,0.6,0.1,0.8l-3.5,2.5C66.9,52.6,66.8,52.3,66.8,52"/>
				<path class="st15" d="M66.9,52.8l3.5-2.5c0,0.3,0.1,0.5,0.1,0.8L67,53.6C67,53.4,66.9,53.1,66.9,52.8"/>
				<path class="st15" d="M67,53.6l3.5-2.5c0.1,0.3,0.1,0.5,0.2,0.8l-3.5,2.5C67.1,54.1,67.1,53.9,67,53.6"/>
				<path class="st15" d="M67.2,54.4l3.5-2.5c0.1,0.3,0.1,0.5,0.2,0.8l-3.5,2.5C67.3,54.9,67.3,54.6,67.2,54.4"/>
				<path class="st15" d="M67.4,55.1l3.5-2.5c0.1,0.3,0.2,0.6,0.3,0.8l-3.5,2.5C67.6,55.7,67.5,55.4,67.4,55.1"/>
				<path class="st15" d="M67.7,55.9l3.5-2.5c0,0.1,0.1,0.2,0.1,0.2c0.2,0.3,0.3,0.6,0.5,0.9l-3.5,2.5c-0.2-0.3-0.3-0.6-0.5-0.9
					C67.8,56.1,67.8,56,67.7,55.9"/>
				<path class="st15" d="M68.3,57.1l3.5-2.5c0.3,0.4,0.5,0.8,0.8,1.1l-3.5,2.5C68.9,57.8,68.6,57.5,68.3,57.1"/>
				<path class="st15" d="M69.2,58.2l3.5-2.5c0.2,0.2,0.4,0.4,0.6,0.5l-3.5,2.5C69.6,58.5,69.4,58.3,69.2,58.2"/>
				<path class="st15" d="M69.8,58.7l3.5-2.5c0.1,0.1,0.2,0.2,0.4,0.3l-3.5,2.5C70,58.8,69.9,58.8,69.8,58.7"/>
				<path class="st15" d="M70.1,58.9l3.5-2.5c0.1,0.1,0.2,0.1,0.3,0.2l-3.5,2.5C70.3,59.1,70.2,59,70.1,58.9"/>
				<path class="st15" d="M70.4,59.1l3.5-2.5c0.1,0.1,0.2,0.1,0.3,0.1l-3.5,2.5C70.6,59.2,70.5,59.2,70.4,59.1"/>
				<path class="st15" d="M70.7,59.2l3.5-2.5c0.1,0,0.2,0.1,0.3,0.1L71,59.4C70.9,59.3,70.8,59.3,70.7,59.2"/>
				<path class="st15" d="M71,59.4l3.5-2.5c0.1,0,0.2,0.1,0.3,0.1l-3.5,2.5C71.2,59.4,71.1,59.4,71,59.4"/>
				<path class="st15" d="M71.3,59.5l3.5-2.5c0.1,0,0.2,0.1,0.3,0.1l-3.5,2.5C71.5,59.5,71.4,59.5,71.3,59.5"/>
				<path class="st15" d="M71.6,59.5l3.5-2.5c0,0,0.1,0,0.1,0c0.1,0,0.1,0,0.2,0l-3.5,2.5c-0.1,0-0.1,0-0.2,0
					C71.6,59.6,71.6,59.5,71.6,59.5"/>
				<path class="st15" d="M71.9,59.6l3.5-2.5c0.1,0,0.2,0,0.3,0l-3.5,2.5C72.1,59.6,72,59.6,71.9,59.6"/>
				<path class="st15" d="M72.1,59.6l3.5-2.5c0.1,0,0.2,0,0.3,0l-3.5,2.5C72.3,59.7,72.2,59.7,72.1,59.6"/>
				<path class="st15" d="M72.4,59.7l3.5-2.5c0.1,0,0.2,0,0.3,0l-3.5,2.5C72.6,59.7,72.5,59.7,72.4,59.7"/>
				<path class="st15" d="M72.7,59.7l3.5-2.5c0.1,0,0.2,0,0.3,0L73,59.7C72.9,59.7,72.8,59.7,72.7,59.7"/>
				<path class="st15" d="M73,59.7l3.5-2.5c0.1,0,0.2,0,0.3,0l-3.5,2.5C73.2,59.7,73.1,59.7,73,59.7"/>
				<path class="st15" d="M73.3,59.7l3.5-2.5c0.1,0,0.2,0,0.3-0.1l-3.5,2.5C73.5,59.6,73.4,59.6,73.3,59.7"/>
				<path class="st15" d="M73.6,59.6l3.5-2.5c0.1,0,0.3-0.1,0.4-0.1L74,59.5C73.9,59.5,73.8,59.6,73.6,59.6"/>
				<path class="st15" d="M74,59.5l3.5-2.5c0.2-0.1,0.3-0.1,0.5-0.2l-3.5,2.5C74.4,59.4,74.2,59.4,74,59.5"/>
				<path class="st15" d="M74.5,59.3l3.5-2.5c0.2-0.1,0.4-0.2,0.6-0.3c0.1-0.1,0.2-0.1,0.3-0.2l-3.5,2.5c-0.1,0.1-0.2,0.1-0.3,0.2
					C75,59.1,74.7,59.2,74.5,59.3"/>
			</g>
		</g>
		<g>
			<polygon class="st15" points="78.6,54.9 82.1,52.4 81.3,58.7 77.9,61.2 			"/>
		</g>
		<g class="st4">
			<defs>
				<path id="SVGID_33_" class="st4" d="M79.2,53.4l3.5-2.5c-0.3,0.2-0.5,0.7-0.6,1.4l-3.5,2.5C78.7,54.2,78.9,53.7,79.2,53.4z"/>
			</defs>
			<use xlink:href="#SVGID_33_"  style="overflow:visible;fill:#797979;"/>
			<clipPath id="SVGID_34_">
				<use xlink:href="#SVGID_33_"  style="overflow:visible;"/>
			</clipPath>
			<g class="st27">
				<path class="st15" d="M79.2,53.4l3.5-2.5c-0.1,0.1-0.2,0.1-0.2,0.2L79,53.7C79.1,53.6,79.2,53.5,79.2,53.4"/>
				<path class="st15" d="M79,53.7l3.5-2.5c0,0-0.1,0.1-0.1,0.1l-3.5,2.5C79,53.8,79,53.7,79,53.7"/>
				<path class="st15" d="M78.9,53.8l3.5-2.5c0,0,0,0.1-0.1,0.1l-3.5,2.5C78.9,53.9,78.9,53.8,78.9,53.8"/>
				<path class="st15" d="M78.9,53.9l3.5-2.5c0,0,0,0.1-0.1,0.1l-3.5,2.5C78.8,54,78.8,54,78.9,53.9"/>
				<path class="st15" d="M78.8,54.1l3.5-2.5c0,0.1,0,0.1-0.1,0.2l-3.5,2.5C78.8,54.2,78.8,54.1,78.8,54.1"/>
				<path class="st15" d="M78.7,54.3l3.5-2.5c0,0.1,0,0.1-0.1,0.2l-3.5,2.5C78.7,54.4,78.7,54.3,78.7,54.3"/>
				<path class="st15" d="M78.7,54.5l3.5-2.5c0,0.1,0,0.2,0,0.2l-3.5,2.5C78.7,54.6,78.7,54.5,78.7,54.5"/>
				<path class="st15" d="M78.7,54.7l3.5-2.5c0,0.1,0,0.1,0,0.2l-3.5,2.5C78.6,54.8,78.6,54.8,78.7,54.7"/>
			</g>
		</g>
		<g>
			<polygon class="st15" points="74.8,51.2 78.2,48.7 84.4,50.1 81,52.6 			"/>
		</g>
		<g>
			<polygon class="st15" points="81,52.6 84.4,50.1 84.3,50.9 80.9,53.3 			"/>
		</g>
		<g class="st4">
			<defs>
				<path id="SVGID_35_" class="st4" d="M69.2,40.2l3.5-2.5c1.5-1.1,3.2-1.4,5.1-1c0.7,0.1,1.3,0.4,1.9,0.6l-3.5,2.5
					c-0.6-0.3-1.3-0.5-1.9-0.6C72.4,38.8,70.7,39.1,69.2,40.2z"/>
			</defs>
			<use xlink:href="#SVGID_35_"  style="overflow:visible;fill:#797979;"/>
			<clipPath id="SVGID_36_">
				<use xlink:href="#SVGID_35_"  style="overflow:visible;"/>
			</clipPath>
			<g class="st28">
				<path class="st15" d="M69.2,40.2l3.5-2.5c0.4-0.3,0.8-0.5,1.2-0.7l-3.5,2.5C70,39.7,69.6,39.9,69.2,40.2"/>
				<path class="st15" d="M70.4,39.5l3.5-2.5c0.2-0.1,0.4-0.2,0.6-0.2L71,39.3C70.8,39.4,70.6,39.4,70.4,39.5"/>
				<path class="st15" d="M71,39.3l3.5-2.5c0.2,0,0.3-0.1,0.5-0.1l-3.5,2.5C71.3,39.2,71.1,39.3,71,39.3"/>
				<path class="st15" d="M71.5,39.2l3.5-2.5c0.1,0,0.3-0.1,0.4-0.1l-3.5,2.5C71.8,39.1,71.6,39.1,71.5,39.2"/>
				<path class="st15" d="M71.9,39.1l3.5-2.5c0.1,0,0.3,0,0.4,0l-3.5,2.5C72.2,39.1,72,39.1,71.9,39.1"/>
				<path class="st15" d="M72.3,39.1l3.5-2.5c0.1,0,0.3,0,0.4,0l-3.5,2.5C72.6,39.1,72.4,39.1,72.3,39.1"/>
				<path class="st15" d="M72.7,39.1l3.5-2.5c0.1,0,0.3,0,0.4,0l-3.5,2.5C73,39.1,72.9,39.1,72.7,39.1"/>
				<path class="st15" d="M73.1,39.1l3.5-2.5c0.1,0,0.3,0,0.4,0l-3.5,2.5C73.4,39.1,73.3,39.1,73.1,39.1"/>
				<path class="st15" d="M73.5,39.1l3.5-2.5c0.1,0,0.3,0,0.4,0.1L74,39.2C73.8,39.2,73.7,39.1,73.5,39.1"/>
				<path class="st15" d="M74,39.2l3.5-2.5c0.1,0,0.2,0,0.3,0.1c0.1,0,0.1,0,0.2,0l-3.5,2.5c-0.1,0-0.1,0-0.2,0
					C74.2,39.2,74.1,39.2,74,39.2"/>
				<path class="st15" d="M74.5,39.3l3.5-2.5c0.2,0,0.4,0.1,0.6,0.2L75,39.4C74.9,39.4,74.7,39.3,74.5,39.3"/>
				<path class="st15" d="M75,39.4l3.5-2.5c0.2,0.1,0.4,0.1,0.6,0.2l-3.5,2.5C75.4,39.6,75.2,39.5,75,39.4"/>
				<path class="st15" d="M75.6,39.7l3.5-2.5c0.2,0.1,0.4,0.1,0.5,0.2l-3.5,2.5C76,39.8,75.8,39.7,75.6,39.7"/>
			</g>
		</g>
		<g class="st4">
			<defs>
				<path id="SVGID_37_" class="st4" d="M76.2,39.9l3.5-2.5c0.5,0.2,0.9,0.4,1.3,0.7l-3.5,2.5C77.1,40.3,76.7,40.1,76.2,39.9z"/>
			</defs>
			<use xlink:href="#SVGID_37_"  style="overflow:visible;fill:#797979;"/>
			<clipPath id="SVGID_38_">
				<use xlink:href="#SVGID_37_"  style="overflow:visible;"/>
			</clipPath>
			<g class="st29">
				<path class="st15" d="M76.2,39.9l3.5-2.5c0.1,0,0.2,0.1,0.3,0.1L76.4,40C76.4,39.9,76.3,39.9,76.2,39.9"/>
				<path class="st15" d="M76.4,40l3.5-2.5c0.1,0.1,0.3,0.1,0.4,0.2l-3.5,2.5C76.7,40.1,76.6,40.1,76.4,40"/>
				<path class="st15" d="M76.9,40.2l3.5-2.5c0.1,0.1,0.2,0.1,0.3,0.2l-3.5,2.5C77.1,40.3,77,40.3,76.9,40.2"/>
				<path class="st15" d="M77.2,40.4l3.5-2.5c0.1,0.1,0.2,0.1,0.2,0.2l-3.5,2.5C77.3,40.5,77.3,40.4,77.2,40.4"/>
			</g>
		</g>
		<g>
			<polygon class="st15" points="79.5,40.4 82.9,37.9 84,43.3 80.5,45.8 			"/>
		</g>
		<g>
			<path class="st30" d="M79.5,40.4l1.1,5.4l-0.4,0.1c-0.7-1.5-1.4-2.7-2.1-3.6c-1.1-1.3-2.3-2.1-3.7-2.4c-1.8-0.4-3.3,0.2-4.8,1.7
				c-1.4,1.6-2.3,3.7-2.6,6.5c-0.4,3.2-0.1,5.8,0.9,7.9c0.9,1.9,2.2,3,3.8,3.4c1.2,0.3,2.4,0.1,3.5-0.6c1-0.6,1.6-1.4,1.7-2.3
				l0.3-2.1c0.1-0.7,0-1.3-0.3-1.6c-0.3-0.4-1-0.7-2.1-1l0.1-0.8l6.2,1.4l-0.1,0.8c-0.8-0.2-1.3-0.1-1.6,0.1
				c-0.3,0.2-0.5,0.7-0.6,1.4l-0.8,6.3L76.7,61l-0.2-1.5l-0.3,0.1c-0.8,0.4-1.4,0.6-1.9,0.7c-0.9,0.2-1.8,0.2-2.7,0
				c-2.4-0.5-4.1-1.8-5.2-3.9c-1.2-2.2-1.5-4.9-1.1-8.3c0.4-3.1,1.4-5.4,3.1-7.1c1.7-1.6,3.6-2.2,5.9-1.7c0.7,0.1,1.3,0.4,1.9,0.6
				c0.5,0.2,0.9,0.4,1.3,0.7L79.5,40.4z"/>
		</g>
		<g>
			<polygon class="st15" points="77.4,40.5 80.9,38.1 82.9,37.9 79.5,40.4 			"/>
		</g>
	</g>
</g>
<g>
	<g>
		<g>
			<path class="st31" d="M83.5,92.1c0.1,0.6-0.1,1.4,0.6,1.5c0,0,0,0,0-0.1C83.5,93.3,83.3,92.8,83.5,92.1
				C83.5,92,83.5,92.1,83.5,92.1z"/>
			<path class="st31" d="M83.5,92c0.1,0.6-0.1,1.4,0.6,1.5c1,0.1,1.4-1.1,1.6-1.8c0,0,0,0,0,0c-1.1,1.3-0.3,5.2-0.3,5.4c0,0,0,0,0,0
				c-0.9-1.6-1.5-3.3-1.7-5.1C83.6,91.8,83.5,92,83.5,92z"/>
			<path class="st31" d="M83.5,91.9c0.2,1,0.1,2,1.3,1.1c0.7-0.5,0.6-0.8,0.7-1.5c0,0-0.1-0.1-0.1-0.1c-0.6,1.4-0.1,6.4-0.1,5.4
				c0,0,0.1-0.1,0.1-0.2c0-1.6,0-3.2,0-4.8c-0.3,0.8-0.7,1.2-1.3,1c-0.3-0.2-0.3-1.7-0.3-1.4C83.9,91.7,83.5,91.8,83.5,91.9z"/>
			<path class="st31" d="M83.5,92c0.2,1,0.1,2,1.4,1.1c0.7-0.5,0.6-0.8,0.8-1.5c0,0-0.1-0.1-0.1-0.1c-0.9,1.5-0.2,5-0.2,5.4
				c0,0,0.1-0.1,0.1-0.2c0-1.6,0-3.2,0-4.8c-0.3,0.9-0.7,1.2-1.3,1.1c-0.4-0.2-0.3-1.5-0.3-1.4C83.8,91.8,83.5,91.9,83.5,92z"/>
			<path class="st31" d="M83.5,91.9c0.1,0.5-0.1,1.3,0.4,1.5c0.4,0.2,1-0.4,1.2-0.6c0.5-0.5,0.3-0.3,0.5-1.2c0,0,0,0,0,0
				c-1.1,1.3-0.3,5-0.3,5.3c0,0,0,0,0,0C84.8,95.3,84.2,93.6,83.5,91.9C83.6,91.9,83.5,91.9,83.5,91.9z"/>
			<path class="st31" d="M83.5,91.9c0.1,0.7-0.1,1.4,0.6,1.4c1,0.1,1.4-1,1.5-1.8c0,0-0.1-0.1-0.1-0.1c-0.8,1.5-0.2,5.3-0.2,5.4
				c0,0,0.1-0.1,0.1-0.1c0.1-4.8,0.1-6.4,0-4.7c0,0.6-0.4,0.9-1.2,0.9c-0.5-0.1-0.3-1.2-0.4-1.4C83.8,91.7,83.5,91.8,83.5,91.9z"/>
			<path class="st31" d="M83.5,92.1c0.2,1.1,0,1.7,1,1.3c0.8-0.3,1-0.8,1.2-1.7c0,0-0.1-0.2-0.1-0.1c-0.8,1.4-0.4,5.9-0.4,5.5
				c0,0-0.1-0.1-0.1-0.2c0-1.5,0-3,0-4.5c0,0.7-0.6,1-1.1,0.8c-0.4-0.2-0.2-1.5-0.2-1.4C83.7,91.8,83.5,92,83.5,92.1z"/>
			<path class="st31" d="M83.5,91.9c0.1,0.6-0.1,1.4,0.6,1.5c0,0,0.8-0.3,0.8-0.3c0.7-0.5,0.6-0.8,0.7-1.5c0,0,0,0,0,0
				c-1.1,1.3-0.3,4.4-0.3,5.4c0,0,0,0,0,0c1.2-5,0.9-6-0.6-4.2c-0.7,1-1.1,0.7-1.1-0.9C83.6,91.8,83.5,91.9,83.5,91.9z"/>
			<path class="st31" d="M83.5,92c0.2,1,0.1,2,1.4,1.1c0.7-0.5,0.6-0.8,0.7-1.5c0,0-0.1-0.2-0.1-0.1c-0.6,1.5-0.1,5.9-0.1,5.5
				c0,0,0.1-0.2,0.1-0.2c0-1.6,0-3.2,0-4.8c-0.3,0.8-0.7,1.2-1.3,1c-0.3-0.2-0.3-1.8-0.3-1.4C83.9,91.7,83.5,91.9,83.5,92z"/>
			<path class="st31" d="M83.5,92c0.1,0.7-0.1,1.4,0.6,1.5c1.1,0.1,1.4-1.1,1.6-1.8c0,0,0-0.1-0.1,0c-1,1.4-0.3,4.8-0.3,5.4
				c0,0,0.1,0,0.1-0.1c0-1.6,0-3.2,0-4.8c-0.1,0.6-0.4,1-0.9,1c-0.9,0.2-0.5,0-0.7-1.3C83.7,91.8,83.4,91.9,83.5,92z"/>
			<path class="st31" d="M83.5,91.9c0.1,0.6-0.1,1.4,0.6,1.5c1,0.2,1.5-1.3,1.6-1.8c0,0,0,0,0,0c-1.1,1.3-0.3,4.8-0.3,5.4
				c0,0,0,0,0,0c0.1-5.2,0.1-6.8,0.1-4.8C85.5,93,84.9,92.9,83.5,91.9C83.6,91.8,83.5,91.9,83.5,91.9z"/>
			<path class="st31" d="M83.5,92c0.2,1.1-0.1,1.7,1,1.3c0.8-0.3,1-0.8,1.2-1.6c0,0-0.1-0.2-0.1-0.1c-0.7,1.3-0.2,6.6-0.2,5.5
				c0,0,0.1-0.1,0.1-0.2c0-1.5,0-3-0.1-4.5c-0.4,0.7-0.8,0.9-1.3,0.8c-0.4-0.2-0.3-1.7-0.3-1.4C83.8,91.8,83.5,91.9,83.5,92z"/>
		</g>
	</g>
</g>
<g>
	<g>
		<g>
			<path class="st31" d="M87.1,93.5c-0.6,0.4-1.7,1-1.2,1.9c0.2,0.3,0.3,0.4,0.6,0.4c0.5,0.1,1.4-0.3,1.6-0.9
				c0.2-0.6-0.1-0.9-0.4-1.3c0,0,0,0,0,0c-0.2,0.9-0.1,0.2,0.4,2.2c0,0,0,0,0,0c-0.4-0.3-0.8-0.6-1.3-0.8c-1.2-0.3-1.1-0.8,0.5-1.5
				C87.3,93.5,87.2,93.5,87.1,93.5z"/>
			<path class="st31" d="M87.1,93.5c-0.6,0.4-1.5,0.8-1.3,1.7c0.1,0.4,0.2,0.4,0.5,0.5c0.4,0.1,1-0.1,1.3-0.3c0.6-0.5,0.4-1,0-1.7
				c0,0-0.1,0.1-0.1,0.1c0.1,0.7,0.3,1.3,0.5,1.9c0,0.1,0,0,0,0c-0.1-0.5-0.2-0.9-0.3-1.4c0,0.2,0,0.4,0,0.6
				c-0.2,0.4-0.5,0.4-0.9,0.4c-0.7,0.1-0.6,0.1-0.6-0.4c0-0.7,0.8-1,1.2-1.2C87.5,93.7,87.2,93.4,87.1,93.5z"/>
			<path class="st31" d="M87.1,93.5c-0.5,0.3-1.9,1.2-1.2,2.1c0.4,0.4,0.6,0.2,1.1,0.1c1.2-0.3,1.3-1,0.6-2c0,0-0.1,0-0.1,0
				c-0.1,0.7,0.1,1.4,0.5,2.1c0,0,0,0,0-0.1c-0.3-1.2-1.6,0.5-1.9-0.4c-0.3-0.9,0.7-1.4,1.3-1.7C87.4,93.7,87.2,93.4,87.1,93.5z"/>
			<path class="st31" d="M87.1,93.4c-0.5,0.3-2,1.2-1.2,2.1c0.4,0.4,1.2,0.2,1.6-0.1c0.7-0.5,0.5-1.1,0.1-1.8c0,0,0,0,0,0
				c-0.2,0.9-0.1,0.3,0.4,2.2c0,0,0,0,0,0c-2.5-0.5-2.8-1.3-0.9-2.3C87.3,93.5,87.2,93.4,87.1,93.4z"/>
			<path class="st31" d="M87.1,93.4c-0.5,0.3-1.9,1.2-1.1,2.1c0.3,0.3,0.2,0.2,0.5,0.2c0.5,0.1,1.4-0.3,1.5-0.8
				c0.2-0.5-0.1-0.9-0.4-1.3c0,0-0.1,0.1-0.1,0.1c0,0.8,0,0.2,0.5,2c0,0,0,0,0,0c-0.4-1.3-1,0.5-1.7-0.3c-0.7-0.8,0.5-1.4,1.1-1.7
				C87.5,93.7,87.2,93.4,87.1,93.4z"/>
			<path class="st31" d="M87.1,93.5c-0.5,0.3-1.9,1.2-1.2,2.1c0.3,0.3,0.2,0.2,0.6,0.2c-0.2,0,1.2-0.2,1.4-0.5
				c0.4-0.6,0.2-1.1-0.2-1.7c0,0-0.1,0-0.1,0c-0.1,0.9,0,0.2,0.5,2.2c0,0,0,0,0-0.1c0-1.9-0.2-2.1-0.5-0.4c-0.8,0.5-1.3,0.5-1.4,0
				c-0.4-0.9,0.7-1.4,1.2-1.7C87.4,93.7,87.2,93.5,87.1,93.5z"/>
			<path class="st31" d="M87.1,93.4c-0.5,0.3-1.9,1.3-1.1,2.1c0.5,0.5,1.4,0.2,1.8-0.2c0.6-0.6,0.3-1.1-0.1-1.7c0,0,0,0,0,0
				c-0.2,0.9-0.1,0.2,0.5,2.2c0,0,0,0,0,0c-0.3-1.1-2,0.6-2.1-0.7c0-0.9,0.5-1.1,1.2-1.5C87.3,93.5,87.1,93.3,87.1,93.4z"/>
			<path class="st31" d="M87.2,93.5c-0.6,0.4-1.5,0.8-1.3,1.7c0.1,0.4,0.2,0.4,0.5,0.5c0.4,0.1,1-0.1,1.3-0.3c0.6-0.5,0.4-1,0-1.7
				c0,0-0.1,0.1-0.1,0.1c0.2,0.7,0.4,1.3,0.5,2c0,0,0-0.1,0-0.1c-0.1-0.5-0.2-0.9-0.3-1.4c0,0.2,0,0.4,0,0.6
				c-0.2,0.4-0.5,0.4-0.9,0.4c-0.7,0.1-0.6,0.1-0.6-0.4c0-0.7,0.8-1,1.2-1.2C87.5,93.7,87.3,93.4,87.2,93.5z"/>
			<path class="st31" d="M87.1,93.4c-0.6,0.4-1.9,1.2-1.2,2.1c0.2,0.2,0.3,0.2,0.6,0.2c1.6,0,1.9-1.1,1.2-2.2c0,0-0.1,0-0.1,0
				c-0.2,0.7,0,1.5,0.5,2.2c0,0,0,0,0,0c-0.4-2.2-0.6-2.6-0.5-1.2c0.2,1-0.3,1.2-1.5,0.6c-0.2-0.8,0.8-1.4,1.3-1.7
				C87.4,93.6,87.1,93.4,87.1,93.4z"/>
			<path class="st31" d="M87.1,93.4c-2.8,1.8-0.2,3.2,0.8,1.9c0.4-0.6,0.2-1.1-0.2-1.7c0,0,0,0,0,0c-0.3,0.9-0.1,0.2,0.4,2.2
				c0,0,0,0,0,0c-0.6-0.5-1.4-0.9-2.1-1.2c0.2-0.6,0.6-0.9,1.2-1.1C87.3,93.5,87.1,93.3,87.1,93.4z"/>
			<path class="st31" d="M87.1,93.5c-0.5,0.3-1.8,1.2-1.2,2c0.3,0.4,0.7,0.2,1.1,0.1c1.1-0.3,1.3-0.9,0.7-1.9c0,0-0.1,0-0.1,0.1
				c0,0.8,0,0.1,0.5,2.1c0,0,0-0.1,0-0.1c-0.2-0.7-1.9,0.5-1.9-0.8c0-0.7,0.7-1,1.2-1.3C87.5,93.7,87.2,93.5,87.1,93.5z"/>
		</g>
	</g>
</g>
<g>
	<g>
		<g>
			<path class="st31" d="M89.4,96.1c0,0.1,0,0.1-0.1,0.2c0,0,0,0,0,0C89.4,96.3,89.4,96.2,89.4,96.1C89.4,96.1,89.4,96.1,89.4,96.1z
				"/>
			<path class="st31" d="M89.7,92.8c-0.2,0.1-1.4,0.5-1.4,1c0.1,0.2,0.1,0.4,0.3,0.6c1.1,1.6,1.2,2.1,0.3,1.6c0,0,0,0-0.1,0
				c0,0,0,0.1,0,0.1c0,0,0,0,0,0c0.2,0.1,0.3,0.1,0.6,0.1c0,0,0.1,0,0.1-0.1c0.1-0.3,0.1-0.4-0.1-0.8c-0.1-0.2-0.2-0.4-0.3-0.6
				c-0.6-1.1-0.3-1.7,0.8-1.9C89.9,92.9,89.7,92.8,89.7,92.8z"/>
			<path class="st31" d="M89.7,92.8c-0.6,0.3-1.5,0.5-1.3,1.3c0,0.1,1.7,2.1,0.4,2c0.1,0,0.2,0,0.3,0.1c0,0,0,0,0,0
				c0,0-0.3-0.2-0.3-0.1c0,0.1,0,0.1,0,0.2c0,0,0,0,0,0c0.1,0,0.2,0,0.4,0c0,0,0.3-0.2,0.3-0.2c0.1-0.6-0.2-1-0.5-1.5
				c-0.5-0.9,0.2-1,1.1-1.4C90.1,93,89.8,92.7,89.7,92.8z"/>
			<path class="st31" d="M89.7,92.9c-0.2,0.1-1.4,0.5-1.4,1c0.1,0.4,0.3,0.7,0.7,1c0.4,0.4,0.4,0.8,0,1.2c0,0-0.2-0.1-0.2-0.1
				c0,0,0,0.1-0.1,0.1c0,0,0,0,0,0c0.2,0.1,0.3,0.1,0.5,0.1c0,0,0.2-0.2,0.2-0.2c0.1-0.5-0.1-0.9-0.3-1.3c-0.7-1.1-0.7-1,0.8-1.8
				C90,93,89.8,92.8,89.7,92.9z"/>
			<path class="st31" d="M89.7,92.8c-0.2,0.1-1.4,0.5-1.4,1c0,0.2,0.1,0.4,0.3,0.6c0.4,0.4,0.5,0.9,0.3,1.6c0,0,0,0,0,0
				c0,0,0,0.1,0,0.1c0,0,0,0,0,0c0.2,0.1,0.3,0.1,0.6,0.1c0,0,0,0,0,0c0.1-0.3,0.1-0.4,0-0.8c0-0.2-0.1-0.4-0.3-0.6
				c-0.6-1.1-0.3-1.7,0.8-1.9C89.9,92.8,89.7,92.8,89.7,92.8z"/>
			<path class="st31" d="M89.7,92.8c-0.7,0.3-1.5,0.5-1.3,1.3c0.1,0.3,0.3,0.5,0.6,0.7c0.4,0.4,0.4,0.9,0.1,1.3c0,0-0.2-0.2-0.2-0.1
				c0,0,0,0.1,0,0.1c0,0,0,0,0,0c0.2,0.1,0.3,0.1,0.5,0.1c0,0,0.2-0.1,0.2-0.2c0.1-0.6-0.2-1-0.5-1.5c-0.6-1,0.1-1,1.1-1.5
				C90,93,89.8,92.7,89.7,92.8z"/>
			<path class="st31" d="M89.7,92.9c-0.2,0.1-1.4,0.5-1.4,1c0.1,0.4,0.3,0.7,0.7,1c0.4,0.4,0.4,0.8,0,1.2c0,0-0.1-0.1-0.2,0
				c0,0,0,0.1,0,0.1c0,0,0,0,0,0c0.2,0.1,0.3,0.1,0.5,0.1c0.1,0,0.2-0.2,0.2-0.2c0.1-0.5-0.1-0.9-0.3-1.3c-0.3-0.2-0.5-0.5-0.6-0.8
				c0.3-0.5,0.8-0.8,1.4-1C90,93,89.8,92.9,89.7,92.9z"/>
			<path class="st31" d="M89.7,92.7C89,93,88.1,93.3,88.4,94c0.2,0.5,0.7,0.7,0.9,1.3c0,0.2,0.1,0.4,0.1,0.6c-0.1,0.3-0.3,0.2-0.5,0
				c0,0-0.1-0.1-0.1,0c0,0,0,0.1,0,0.1c0,0,0,0,0,0c0.2,0.2,0.2,0.1,0.6,0.1c0,0,0.1,0,0.1,0c0.1-0.4-0.1-1-0.3-1.4
				c-0.8-1.1-0.6-1.2,0.8-1.9C89.9,92.8,89.7,92.7,89.7,92.7z"/>
			<path class="st31" d="M89.7,92.9c-0.6,0.3-1.5,0.5-1.3,1.3c0,0.2,1.7,2,0.4,2c0.1,0,0.2,0,0.3,0c0,0,0,0,0,0c0,0-0.3-0.1-0.3-0.1
				c0,0,0,0.1-0.1,0.1c0,0,0.1,0,0.1,0c0.1,0,0.3,0,0.4,0c0.1,0,0.3-0.2,0.3-0.3c0.1-0.6-0.2-1-0.5-1.5c-0.5-0.9,0.2-1,1.1-1.4
				C90.1,93,89.8,92.8,89.7,92.9z"/>
			<path class="st31" d="M89.6,92.8c-0.8,0.4-1.4,0.5-1.3,1.3c0,0.1,0.1,0.2,0.1,0.3c0.9,0.5,1,1,0.4,1.6c0,0-0.1-0.1-0.1-0.1
				c0,0.1,0,0.1,0,0.2c0,0,0,0,0,0c0.2,0.1,0.3,0.1,0.6,0.1c0,0,0.2-0.1,0.2-0.1c0.1-0.5-0.1-0.9-0.3-1.3c-0.2-0.4-0.6-0.6-0.5-1
				c0-0.3,1.5-0.9,1.3-0.8C89.9,92.9,89.7,92.7,89.6,92.8z"/>
			<path class="st31" d="M89.7,92.7c-0.3,0.2-1.4,0.5-1.4,1c0,0,0.3,0.5,0.3,0.6c0.2,0.2,0.3,0.5,0.3,0.9c0.6,0.9,0.5,1.1,0,0.7
				c0,0,0-0.1,0,0c0,0,0,0.1,0,0.1c0,0,0,0,0,0c0.2,0.1,0.3,0.1,0.6,0.1c0,0,0,0,0,0c0.3-1.2-1.5-2.3,0.4-3.3
				C89.9,92.8,89.7,92.7,89.7,92.7z"/>
			<path class="st31" d="M89.7,92.9c-0.2,0.1-1.4,0.5-1.4,1c0.1,0.4,0.3,0.7,0.7,0.9c0.4,0.4,0.4,0.8,0.1,1.3c0,0-0.2-0.1-0.2-0.1
				c0,0,0,0.1-0.1,0.1c0,0,0,0,0,0c0.2,0.1,0.3,0,0.5,0.1c0.1,0,0.3-0.2,0.3-0.3c0.1-0.5-0.1-0.9-0.3-1.3c-0.7-1.1-0.6-0.9,0.9-1.7
				C90,93,89.8,92.8,89.7,92.9z"/>
		</g>
	</g>
</g>
<g>
	<g>
		<g>
			<path class="st31" d="M91,93.3c-0.6,0.3-1.1,0.3-1.1,1.1c0,0.2,1.5,2.9,0.4,2.5c0,0-0.1,0-0.1,0c0.3,0.2,0.6,0.3,0.9,0
				c1.3-1.3-3.1-2.2,0-3.5C91.2,93.3,91,93.2,91,93.3z"/>
			<path class="st31" d="M91,93.2c-0.6,0.2-1.3,0.5-1.1,1.3c0.2,0.2,0.3,0.4,0.5,0.6c0.9,0.5,0.9,1,0.2,1.7c-0.1,0-0.3,0-0.3,0
				c0.4,0.2,0.7,0.2,1-0.1c1.1-1.4-2.5-2.1,0.2-3.1C91.4,93.6,91.1,93.2,91,93.2z"/>
			<path class="st31" d="M91,93.3c-0.6,0.3-1.3,0.5-1.1,1.3c0.2,0.2,0.3,0.4,0.5,0.6c0.9,0.5,0.9,1,0.1,1.6c0,0-0.2,0-0.2,0
				c0.4,0.2,0.7,0.3,1-0.1c0.4-0.5,0-0.9-0.3-1.3c-0.3-0.3-0.7-0.6-0.7-1.1c0-0.6,0.6-0.7,1.1-0.9C91.2,93.5,91,93.2,91,93.3z"/>
			<path class="st31" d="M91,93.2c-0.5,0.2-1,0.2-1.1,0.8c-0.1,0.2-0.1,0.4,0,0.5c0.7,0.6,0.8,1.3,0.3,2.2c0,0,0,0,0,0
				c0.3,0.2,0.5,0.3,0.9,0C92.3,95.7,88,94.6,91,93.2C91.1,93.3,91,93.2,91,93.2z"/>
			<path class="st31" d="M91,93.2c-0.6,0.2-1.3,0.5-1.1,1.3c0.1,0.2,0.3,0.4,0.5,0.6c0.9,0.5,0.9,1.1,0.1,1.7c0,0-0.2,0-0.2,0
				c0.3,0.2,0.7,0.3,1-0.1c0.1-0.1,0.2-0.3,0.2-0.5c0.1-0.6-0.8-1-0.9-1.6c-0.2-0.8,0-0.8,0.9-1.1C91.3,93.5,91.1,93.2,91,93.2z"/>
			<path class="st31" d="M91,93.3c-0.6,0.3-1.1,0.3-1.1,1c-0.1,0.4,0.1,0.6,0.5,0.8c0.9,0.5,0.9,1,0.1,1.6c0,0-0.2,0.1-0.2,0.1
				c0.4,0.2,0.7,0.3,1-0.1c1.2-1.5-3-2,0.1-3.3C91.2,93.5,91.1,93.3,91,93.3z"/>
			<path class="st31" d="M90.9,93.1c-0.6,0.3-1.3,0.5-1.1,1.3c0,0,0,0,0,0c0.7,0.6,0.8,1.3,0.4,2.2c0,0-0.1,0-0.1,0
				c0.3,0.1,0.6,0.3,0.9,0c0.2-0.2,0.1-0.7,0-0.9c-0.2-0.5-0.7-0.7-0.9-1.3c-0.3-0.9,0-0.9,0.9-1.3C91.1,93.3,91,93.1,90.9,93.1z"/>
			<path class="st31" d="M91,93.3c-0.6,0.2-1.3,0.5-1.1,1.3c0.2,0.2,0.3,0.4,0.5,0.6c0.8,0.5,0.9,1,0.2,1.7c-0.1,0-0.3,0.1-0.3,0.1
				c0.4,0.2,0.7,0.2,1-0.2c1-1.4-2.5-2.1,0.1-3.1C91.4,93.6,91.1,93.3,91,93.3z"/>
			<path class="st31" d="M90.9,93.2c-0.6,0.3-1.3,0.5-1.1,1.3c-0.1-0.2,2.4,2.9,0.5,2.2c0,0-0.2,0-0.1,0c0.3,0.1,0.7,0.3,1,0
				c0.2-0.3,0.2-0.7,0.1-0.9c0,0-0.6-0.7-0.7-0.7c-0.8-1.2-0.3-1.3,0.7-1.7C91.2,93.4,91,93.2,90.9,93.2z"/>
			<path class="st31" d="M91,93.1c-0.6,0.3-1.1,0.4-1.1,1.1c0,0.1,1.5,3,0.4,2.5c0,0-0.1,0,0,0c0.4,0.2,0.7,0.3,1-0.2
				c0.1-0.3,0.1-0.4,0-0.7c-0.2-0.3-0.4-0.5-0.7-0.8c-0.6-1.1-0.3-1.7,0.7-1.8C91.1,93.3,91,93.1,91,93.1z"/>
			<path class="st31" d="M91,93.3c-0.6,0.2-1.3,0.5-1.1,1.3c0.2,0.2,0.3,0.4,0.5,0.6c0.9,0.5,0.9,1,0.2,1.6c-0.1,0-0.3,0.1-0.3,0.1
				c0.4,0.2,0.8,0.2,1-0.2c0.9-1.4-2.5-2.1,0.1-3.2C91.3,93.5,91.1,93.3,91,93.3z"/>
		</g>
	</g>
</g>
<g>
	<g>
		<g>
			<path class="st31" d="M82.4,96.8c3.3-1.1,6.3-2.1,9.3-3.9c0,0,0-0.1-0.1-0.1C88.7,94.6,85.6,95.7,82.4,96.8
				C82.3,96.7,82.4,96.8,82.4,96.8z"/>
			<path class="st31" d="M82.4,96.7c1.6-0.5,3.1-1,4.7-1.5c2.5-1.9,3.2-1.3,2.3,1.6c0,0,0.1,0.1,0.1,0.1c0.8-1.3,1.5-2.7,2.3-4
				c0,0-0.2-0.1-0.2-0.1c-3,1.8-6,2.8-9.3,3.8C82.2,96.6,82.4,96.7,82.4,96.7z"/>
			<path class="st31" d="M82.3,96.6c3.3-1.1,6.3-2.1,9.3-3.9c-0.1-0.1-0.3-0.1-0.4-0.2c-0.7,1.3-1.4,2.7-2.1,4c0,0,0.2,0.2,0.2,0.2
				c0.8-1.3,1.5-2.7,2.3-4c0,0-0.4-0.2-0.4-0.2c-3,1.7-6,2.8-9.3,3.8C82,96.4,82.2,96.6,82.3,96.6z"/>
			<path class="st31" d="M82.4,96.7c3.3-1.1,6.3-2.1,9.3-3.9c-0.1-0.1-0.2-0.1-0.3-0.2c-0.7,1.3-1.4,2.7-2.1,4c0,0,0.2,0.2,0.2,0.2
				c0.8-1.3,1.5-2.7,2.3-4c0,0-0.3-0.2-0.3-0.2c-3,1.7-6,2.8-9.3,3.8C82.1,96.5,82.3,96.7,82.4,96.7z"/>
			<path class="st31" d="M82.4,96.6c1.6-0.5,3.1-1,4.7-1.5c2.5-1.9,3.2-1.3,2.3,1.7c0,0,0,0.1,0.1,0c0.8-1.3,1.5-2.7,2.3-4
				c0,0-0.1-0.1-0.1-0.1c-3,1.8-6,2.8-9.3,3.9C82.3,96.6,82.4,96.6,82.4,96.6z"/>
			<path class="st31" d="M82.3,96.6c3.3-1.1,6.3-2.1,9.3-3.9c-0.1,0-0.2-0.1-0.4-0.1c-0.7,1.3-1.4,2.7-2.1,4c0,0,0.2,0.1,0.2,0.1
				c0.8-1.3,1.5-2.7,2.3-4c0,0-0.3-0.1-0.4-0.1c-2.9,1.7-6.1,2.8-9.3,3.8C82,96.4,82.3,96.6,82.3,96.6z"/>
			<path class="st31" d="M82.4,96.7c3.3-1.1,6.3-2.1,9.3-3.9c-0.1-0.1-0.2-0.1-0.4-0.2c-0.7,1.3-1.4,2.7-2.1,4c0,0,0.2,0.2,0.2,0.2
				c0.8-1.3,1.5-2.7,2.3-4c0,0-0.3-0.2-0.4-0.2c-3,1.7-6,2.8-9.3,3.8C82.1,96.5,82.3,96.8,82.4,96.7z"/>
			<path class="st31" d="M82.4,96.6c1.6-0.5,3.1-1,4.7-1.5c2.5-1.9,3.2-1.3,2.3,1.7c0,0,0,0,0.1,0c0.8-1.3,1.5-2.7,2.3-4
				c0,0-0.1-0.1-0.1,0c-3,1.8-6,2.8-9.3,3.8C82.2,96.5,82.3,96.6,82.4,96.6z"/>
			<path class="st31" d="M82.4,96.6c3.3-1.1,6.3-2.1,9.3-3.9c-0.2-0.1-0.3-0.1-0.5-0.2c-0.7,1.3-1.4,2.7-2.1,4c0,0,0.2,0.2,0.3,0.2
				c0.8-1.3,1.5-2.7,2.3-4c0,0-0.4-0.2-0.5-0.2c-3,1.7-6,2.8-9.3,3.8C82,96.4,82.2,96.7,82.4,96.6z"/>
			<path class="st31" d="M82.4,96.6c2-0.6,4-1.2,5.9-2c0.4-0.1,0.8-0.3,1.2-0.5c0.8-0.4,0.7,0.4-0.2,2.6c0,0,0.1,0.1,0.1,0.1
				c0.8-1.3,1.5-2.7,2.3-4c0,0-0.2-0.1-0.2-0.1c-3.1,1.8-6,2.8-9.3,3.8C82.1,96.5,82.3,96.6,82.4,96.6z"/>
			<path class="st31" d="M82.4,96.6c1.6-0.5,3.1-1,4.7-1.5c2.5-1.9,3.2-1.3,2.3,1.7c0,0,0,0.1,0,0c0.8-1.4,1.5-2.7,2.3-4.1
				c0,0-0.1,0-0.1,0c-3,1.8-6,2.8-9.3,3.9C82.2,96.5,82.3,96.6,82.4,96.6z"/>
			<path class="st31" d="M82.4,96.7c3.3-1.1,6.3-2.1,9.3-3.9c-0.1-0.1-0.3-0.1-0.4-0.2c-0.7,1.3-1.4,2.7-2.1,4c0,0,0.2,0.2,0.2,0.2
				c0.8-1.3,1.5-2.7,2.3-4c0,0-0.3-0.2-0.4-0.2c-3,1.7-6,2.8-9.3,3.8C82,96.4,82.2,96.7,82.4,96.7z"/>
		</g>
	</g>
</g>
<g>
	<g>
		<g>
			<path class="st31" d="M165.2,120.7c0,0-0.1-0.2-0.1-0.2C165,120.5,165.2,120.7,165.2,120.7z"/>
			<path class="st31" d="M165.2,120.8C165.2,120.8,165.2,120.7,165.2,120.8C165.1,120.7,165.2,120.8,165.2,120.8z"/>
			<path class="st31" d="M165.1,120.6c-0.1,0-0.2-0.3-0.3-0.3C164.9,120.3,165,120.6,165.1,120.6z"/>
			<path class="st31" d="M165.2,120.7c-0.1,0-0.2-0.3-0.3-0.3C164.9,120.4,165,120.7,165.2,120.7z"/>
			<path class="st31" d="M165.2,120.6c0,0-0.1-0.1-0.1-0.1C165.1,120.5,165.2,120.6,165.2,120.6z"/>
			<path class="st31" d="M165.1,120.6c0,0-0.2-0.2-0.3-0.2C164.9,120.4,165.1,120.6,165.1,120.6z"/>
			<path class="st31" d="M165.2,120.8c-0.1,0-0.2-0.3-0.3-0.3C165,120.4,165.1,120.8,165.2,120.8z"/>
			<path class="st31" d="M165.1,120.6C165.2,120.6,165.1,120.5,165.1,120.6C165,120.5,165.1,120.6,165.1,120.6z"/>
			<path class="st31" d="M165.2,120.7c-0.1,0-0.2-0.4-0.4-0.4C164.9,120.3,165,120.7,165.2,120.7z"/>
			<path class="st31" d="M165.1,120.6c0,0-0.1-0.2-0.2-0.2C165,120.5,165.1,120.6,165.1,120.6z"/>
			<path class="st31" d="M165.1,120.6C165.2,120.6,165.1,120.5,165.1,120.6C165,120.5,165.1,120.6,165.1,120.6z"/>
			<path class="st31" d="M165.1,120.7c-0.1,0-0.2-0.4-0.3-0.4C164.9,120.4,165,120.7,165.1,120.7z"/>
		</g>
	</g>
</g>
<g>
	<g class="st4">
		<g class="st4">
			<defs>
				<path id="SVGID_39_" class="st4" d="M30.3,21.3l39.6-5.5l23.5,28L77.4,77.2l-39.6,5.5l-23.5-28L30.3,21.3z M93.4,43.8L69.9,15.9
					l-39.6,5.5L14.3,54.8l23.5,27.9l39.6-5.5L93.4,43.8"/>
			</defs>
			<clipPath id="SVGID_40_">
				<use xlink:href="#SVGID_39_"  style="overflow:visible;"/>
			</clipPath>
			<g class="st32">
				<linearGradient id="SVGID_41_" gradientUnits="userSpaceOnUse" x1="13.4759" y1="49.2833" x2="94.1976" y2="49.2833">
					<stop  offset="0" style="stop-color:#FFFFFF"/>
					<stop  offset="1" style="stop-color:#000000"/>
				</linearGradient>
				<path class="st33" d="M37.7,82.9L14.1,54.8l0-0.1l16.1-33.5l0.1,0L70,15.7l0,0.1l23.6,28l0,0.1L77.5,77.4l-0.1,0L37.7,82.9z
					 M14.4,54.7l23.4,27.8l39.4-5.5l16-33.3L69.8,16l-39.4,5.5L14.4,54.7z"/>
			</g>
			<linearGradient id="SVGID_42_" gradientUnits="userSpaceOnUse" x1="13.6231" y1="49.2835" x2="94.0493" y2="49.2835">
				<stop  offset="0" style="stop-color:#FFFFFF"/>
				<stop  offset="1" style="stop-color:#000000"/>
			</linearGradient>
			<use xlink:href="#SVGID_39_"  style="overflow:visible;fill:none;stroke:url(#SVGID_42_);stroke-miterlimit:10;"/>
		</g>
		<g class="st4">
			<defs>
				<path id="SVGID_43_" class="st4" d="M29.4,16.9L69,11.4l23.5,28L76.5,72.8l-39.6,5.5l-23.5-28L29.4,16.9z M92.5,39.4L69,11.4
					l-39.6,5.5L13.4,50.3l23.5,27.9l39.6-5.5L92.5,39.4"/>
			</defs>
			<clipPath id="SVGID_44_">
				<use xlink:href="#SVGID_43_"  style="overflow:visible;"/>
			</clipPath>
			<g class="st34">
				<linearGradient id="SVGID_45_" gradientUnits="userSpaceOnUse" x1="12.5658" y1="44.85" x2="93.2865" y2="44.85">
					<stop  offset="0" style="stop-color:#FFFFFF"/>
					<stop  offset="1" style="stop-color:#000000"/>
				</linearGradient>
				<path class="st35" d="M36.8,78.4L13.2,50.4l0-0.1l16.1-33.5l0.1,0l39.7-5.5l0,0.1l23.6,28l0,0.1L76.6,72.9l-0.1,0L36.8,78.4z
					 M13.5,50.3l23.4,27.8l39.4-5.5l16-33.3L68.9,11.6L29.5,17L13.5,50.3z"/>
			</g>
			<linearGradient id="SVGID_46_" gradientUnits="userSpaceOnUse" x1="12.7122" y1="44.8502" x2="93.1384" y2="44.8502">
				<stop  offset="0" style="stop-color:#FFFFFF"/>
				<stop  offset="1" style="stop-color:#000000"/>
			</linearGradient>
			<use xlink:href="#SVGID_43_"  style="overflow:visible;fill:none;stroke:url(#SVGID_46_);stroke-miterlimit:10;"/>
		</g>
		<g class="st4">
			<defs>
				<polygon id="SVGID_47_" class="st4" points="29.4,16.9 69,11.4 69.9,15.8 30.3,21.3 				"/>
			</defs>
			<clipPath id="SVGID_48_">
				<use xlink:href="#SVGID_47_"  style="overflow:visible;"/>
			</clipPath>
			<g class="st36">
				<linearGradient id="SVGID_49_" gradientUnits="userSpaceOnUse" x1="28.6413" y1="16.3644" x2="70.6615" y2="16.3644">
					<stop  offset="0" style="stop-color:#FFFFFF"/>
					<stop  offset="1" style="stop-color:#000000"/>
				</linearGradient>
				<path class="st37" d="M30.2,21.5l0-0.1l-0.9-4.6l0.1,0l39.7-5.5l1,4.7l-0.1,0L30.2,21.5z M29.5,17l0.9,4.2l39.4-5.5l-0.9-4.2
					L29.5,17z"/>
			</g>
			<linearGradient id="SVGID_50_" gradientUnits="userSpaceOnUse" x1="28.7906" y1="16.3645" x2="70.5119" y2="16.3645">
				<stop  offset="0" style="stop-color:#FFFFFF"/>
				<stop  offset="1" style="stop-color:#000000"/>
			</linearGradient>
			<use xlink:href="#SVGID_47_"  style="overflow:visible;fill:none;stroke:url(#SVGID_50_);stroke-miterlimit:10;"/>
		</g>
		<g class="st4">
			<defs>
				<polygon id="SVGID_51_" class="st4" points="69,11.4 92.5,39.4 93.5,43.8 69.9,15.8 				"/>
			</defs>
			<clipPath id="SVGID_52_">
				<use xlink:href="#SVGID_51_"  style="overflow:visible;"/>
			</clipPath>
			<g class="st38">
				<linearGradient id="SVGID_53_" gradientUnits="userSpaceOnUse" x1="67.8961" y1="27.6003" x2="94.5667" y2="27.6003">
					<stop  offset="0" style="stop-color:#FFFFFF"/>
					<stop  offset="1" style="stop-color:#000000"/>
				</linearGradient>
				<path class="st39" d="M93.7,44.3l-0.3-0.4l-23.6-28l-1-4.9l0.3,0.4l23.6,28L93.7,44.3z M70,15.8l23.2,27.6l-0.8-3.9L69.2,11.9
					L70,15.8z"/>
			</g>
			<linearGradient id="SVGID_54_" gradientUnits="userSpaceOnUse" x1="68.1177" y1="27.6004" x2="94.3448" y2="27.6004">
				<stop  offset="0" style="stop-color:#FFFFFF"/>
				<stop  offset="1" style="stop-color:#000000"/>
			</linearGradient>
			<use xlink:href="#SVGID_51_"  style="overflow:visible;fill:none;stroke:url(#SVGID_54_);stroke-miterlimit:10;"/>
		</g>
		<g class="st4">
			<defs>
				<polygon id="SVGID_55_" class="st4" points="92.5,39.4 93.5,43.8 77.4,77.2 76.5,72.8 				"/>
			</defs>
			<clipPath id="SVGID_56_">
				<use xlink:href="#SVGID_55_"  style="overflow:visible;"/>
			</clipPath>
			<g class="st40">
				<linearGradient id="SVGID_57_" gradientUnits="userSpaceOnUse" x1="75.8201" y1="58.303" x2="94.1139" y2="58.303">
					<stop  offset="0" style="stop-color:#FFFFFF"/>
					<stop  offset="1" style="stop-color:#000000"/>
				</linearGradient>
				<path class="st41" d="M77.3,77.6l-1-4.8l0,0L92.6,39l1,4.8l0,0L77.3,77.6z M76.6,72.8l0.8,4l15.9-33.1l-0.8-4L76.6,72.8z"/>
			</g>
			<linearGradient id="SVGID_58_" gradientUnits="userSpaceOnUse" x1="75.9518" y1="58.3033" x2="93.9823" y2="58.3033">
				<stop  offset="0" style="stop-color:#FFFFFF"/>
				<stop  offset="1" style="stop-color:#000000"/>
			</linearGradient>
			<use xlink:href="#SVGID_55_"  style="overflow:visible;fill:none;stroke:url(#SVGID_58_);stroke-miterlimit:10;"/>
		</g>
		<g class="st4">
			<defs>
				<polygon id="SVGID_59_" class="st4" points="76.5,72.8 77.4,77.2 37.8,82.7 36.8,78.3 				"/>
			</defs>
			<clipPath id="SVGID_60_">
				<use xlink:href="#SVGID_59_"  style="overflow:visible;"/>
			</clipPath>
			<g class="st42">
				<linearGradient id="SVGID_61_" gradientUnits="userSpaceOnUse" x1="36.1003" y1="77.7694" x2="78.1331" y2="77.7694">
					<stop  offset="0" style="stop-color:#FFFFFF"/>
					<stop  offset="1" style="stop-color:#000000"/>
				</linearGradient>
				<path class="st43" d="M37.7,82.9l0-0.1l-0.9-4.6l0.1,0l39.7-5.5l1,4.7l-0.1,0L37.7,82.9z M37,78.4l0.9,4.2l39.4-5.5l-0.9-4.2
					L37,78.4z"/>
			</g>
			<linearGradient id="SVGID_62_" gradientUnits="userSpaceOnUse" x1="36.2497" y1="77.7698" x2="77.9836" y2="77.7698">
				<stop  offset="0" style="stop-color:#FFFFFF"/>
				<stop  offset="1" style="stop-color:#000000"/>
			</linearGradient>
			<use xlink:href="#SVGID_59_"  style="overflow:visible;fill:none;stroke:url(#SVGID_62_);stroke-miterlimit:10;"/>
		</g>
		<g class="st4">
			<defs>
				<polygon id="SVGID_63_" class="st4" points="36.8,78.3 37.8,82.7 14.2,54.8 13.3,50.3 				"/>
			</defs>
			<clipPath id="SVGID_64_">
				<use xlink:href="#SVGID_63_"  style="overflow:visible;"/>
			</clipPath>
			<g class="st44">
				<linearGradient id="SVGID_65_" gradientUnits="userSpaceOnUse" x1="12.196" y1="66.5353" x2="38.8661" y2="66.5353">
					<stop  offset="0" style="stop-color:#FFFFFF"/>
					<stop  offset="1" style="stop-color:#000000"/>
				</linearGradient>
				<path class="st45" d="M38,83.2L14.1,54.8l-1-4.9l0.3,0.4l23.6,28L38,83.2z M14.3,54.7l23.2,27.6l-0.8-3.9L13.5,50.8L14.3,54.7z"
					/>
			</g>
			<linearGradient id="SVGID_66_" gradientUnits="userSpaceOnUse" x1="12.4168" y1="66.5333" x2="38.6439" y2="66.5333">
				<stop  offset="0" style="stop-color:#FFFFFF"/>
				<stop  offset="1" style="stop-color:#000000"/>
			</linearGradient>
			<use xlink:href="#SVGID_63_"  style="overflow:visible;fill:none;stroke:url(#SVGID_66_);stroke-miterlimit:10;"/>
		</g>
		<g class="st4">
			<defs>
				<polygon id="SVGID_67_" class="st4" points="13.3,50.3 29.4,16.9 30.3,21.3 14.2,54.8 				"/>
			</defs>
			<clipPath id="SVGID_68_">
				<use xlink:href="#SVGID_67_"  style="overflow:visible;"/>
			</clipPath>
			<g class="st46">
				<linearGradient id="SVGID_69_" gradientUnits="userSpaceOnUse" x1="12.6489" y1="35.8309" x2="30.9531" y2="35.8309">
					<stop  offset="0" style="stop-color:#FFFFFF"/>
					<stop  offset="1" style="stop-color:#000000"/>
				</linearGradient>
				<path class="st47" d="M14.2,55.2l-1-4.8l0,0l16.2-33.8l1,4.8l0,0L14.2,55.2z M13.4,50.4l0.8,4l15.9-33.1l-0.8-4L13.4,50.4z"/>
			</g>
			<linearGradient id="SVGID_70_" gradientUnits="userSpaceOnUse" x1="12.7793" y1="35.831" x2="30.8224" y2="35.831">
				<stop  offset="0" style="stop-color:#FFFFFF"/>
				<stop  offset="1" style="stop-color:#000000"/>
			</linearGradient>
			<use xlink:href="#SVGID_67_"  style="overflow:visible;fill:none;stroke:url(#SVGID_70_);stroke-miterlimit:10;"/>
		</g>
		<g class="st4">
			<defs>
				<polygon id="SVGID_71_" class="st4" points="92.5,39.4 93.4,43.8 69.9,15.9 69,11.4 				"/>
			</defs>
			<use xlink:href="#SVGID_71_"  style="overflow:visible;fill:#FB7700;"/>
			<clipPath id="SVGID_72_">
				<use xlink:href="#SVGID_71_"  style="overflow:visible;"/>
			</clipPath>
			<g class="st48">
				<linearGradient id="SVGID_73_" gradientUnits="userSpaceOnUse" x1="67.8757" y1="27.6255" x2="94.5136" y2="27.6255">
					<stop  offset="0" style="stop-color:#FFFFFF"/>
					<stop  offset="1" style="stop-color:#000000"/>
				</linearGradient>
				<path class="st49" d="M93.6,44.3l-0.3-0.4l-23.5-28l-1-4.9l0.3,0.4l23.5,27.9l0,0L93.6,44.3z M70,15.8l23.2,27.5l-0.8-3.9
					L69.2,11.9L70,15.8z"/>
			</g>
			<linearGradient id="SVGID_74_" gradientUnits="userSpaceOnUse" x1="68.0977" y1="27.6258" x2="94.2928" y2="27.6258">
				<stop  offset="0" style="stop-color:#FFFFFF"/>
				<stop  offset="1" style="stop-color:#000000"/>
			</linearGradient>
			<use xlink:href="#SVGID_71_"  style="overflow:visible;fill:none;stroke:url(#SVGID_74_);stroke-miterlimit:10;"/>
		</g>
		<g class="st4">
			<defs>
				<polygon id="SVGID_75_" class="st4" points="69,11.4 69.9,15.9 30.3,21.4 29.4,16.9 				"/>
			</defs>
			<use xlink:href="#SVGID_75_"  style="overflow:visible;fill:#FB7700;"/>
			<clipPath id="SVGID_76_">
				<use xlink:href="#SVGID_75_"  style="overflow:visible;"/>
			</clipPath>
			<g class="st50">
				<linearGradient id="SVGID_77_" gradientUnits="userSpaceOnUse" x1="28.6736" y1="16.4052" x2="70.6409" y2="16.4052">
					<stop  offset="0" style="stop-color:#FFFFFF"/>
					<stop  offset="1" style="stop-color:#000000"/>
				</linearGradient>
				<path class="st51" d="M30.2,21.5l0-0.1l-0.9-4.6l0.1,0l39.7-5.5l1,4.7l-0.1,0L30.2,21.5z M29.6,17l0.9,4.2l39.3-5.4l-0.9-4.2
					L29.6,17z"/>
			</g>
			<linearGradient id="SVGID_78_" gradientUnits="userSpaceOnUse" x1="28.8226" y1="16.4054" x2="70.4919" y2="16.4054">
				<stop  offset="0" style="stop-color:#FFFFFF"/>
				<stop  offset="1" style="stop-color:#000000"/>
			</linearGradient>
			<use xlink:href="#SVGID_75_"  style="overflow:visible;fill:none;stroke:url(#SVGID_78_);stroke-miterlimit:10;"/>
		</g>
		<g class="st4">
			<defs>
				<polygon id="SVGID_79_" class="st4" points="29.4,16.9 30.3,21.4 14.3,54.8 13.4,50.3 				"/>
			</defs>
			<use xlink:href="#SVGID_79_"  style="overflow:visible;fill:#FB7700;"/>
			<clipPath id="SVGID_80_">
				<use xlink:href="#SVGID_79_"  style="overflow:visible;"/>
			</clipPath>
			<g class="st52">
				<linearGradient id="SVGID_81_" gradientUnits="userSpaceOnUse" x1="12.708" y1="35.8438" x2="30.9848" y2="35.8438">
					<stop  offset="0" style="stop-color:#FFFFFF"/>
					<stop  offset="1" style="stop-color:#000000"/>
				</linearGradient>
				<path class="st53" d="M14.2,55.1l-1-4.8l0,0l16.2-33.7l1,4.8l0,0L14.2,55.1z M13.5,50.3l0.8,4l15.9-33l-0.8-4L13.5,50.3z"/>
			</g>
			<linearGradient id="SVGID_82_" gradientUnits="userSpaceOnUse" x1="12.8385" y1="35.8439" x2="30.8543" y2="35.8439">
				<stop  offset="0" style="stop-color:#FFFFFF"/>
				<stop  offset="1" style="stop-color:#000000"/>
			</linearGradient>
			<use xlink:href="#SVGID_79_"  style="overflow:visible;fill:none;stroke:url(#SVGID_82_);stroke-miterlimit:10;"/>
		</g>
		<g class="st4">
			<defs>
				<polygon id="SVGID_83_" class="st4" points="13.4,50.3 36.9,78.2 37.8,82.7 14.3,54.8 				"/>
			</defs>
			<use xlink:href="#SVGID_83_"  style="overflow:visible;fill:#FB7700;"/>
			<clipPath id="SVGID_84_">
				<use xlink:href="#SVGID_83_"  style="overflow:visible;"/>
			</clipPath>
			<g class="st54">
				<linearGradient id="SVGID_85_" gradientUnits="userSpaceOnUse" x1="12.2551" y1="66.5051" x2="38.8934" y2="66.5051">
					<stop  offset="0" style="stop-color:#FFFFFF"/>
					<stop  offset="1" style="stop-color:#000000"/>
				</linearGradient>
				<path class="st55" d="M38,83.1L14.2,54.8l-1-4.9l0.3,0.4l23.5,28L38,83.1z M14.4,54.7l23.2,27.5l-0.8-3.9L13.6,50.8L14.4,54.7z"
					/>
			</g>
			<linearGradient id="SVGID_86_" gradientUnits="userSpaceOnUse" x1="12.4761" y1="66.5028" x2="38.6712" y2="66.5028">
				<stop  offset="0" style="stop-color:#FFFFFF"/>
				<stop  offset="1" style="stop-color:#000000"/>
			</linearGradient>
			<use xlink:href="#SVGID_83_"  style="overflow:visible;fill:none;stroke:url(#SVGID_86_);stroke-miterlimit:10;"/>
		</g>
		<g class="st4">
			<defs>
				<polygon id="SVGID_87_" class="st4" points="36.9,78.2 76.4,72.8 77.3,77.2 37.8,82.7 				"/>
			</defs>
			<use xlink:href="#SVGID_87_"  style="overflow:visible;fill:#FB7700;"/>
			<clipPath id="SVGID_88_">
				<use xlink:href="#SVGID_87_"  style="overflow:visible;"/>
			</clipPath>
			<g class="st56">
				<linearGradient id="SVGID_89_" gradientUnits="userSpaceOnUse" x1="36.1276" y1="77.7235" x2="78.095" y2="77.7235">
					<stop  offset="0" style="stop-color:#FFFFFF"/>
					<stop  offset="1" style="stop-color:#000000"/>
				</linearGradient>
				<path class="st57" d="M37.7,82.8l0-0.1l-0.9-4.6l0.1,0l39.7-5.5l1,4.7l-0.1,0L37.7,82.8z M37,78.4l0.9,4.2l39.3-5.4l-0.9-4.2
					L37,78.4z"/>
			</g>
			<linearGradient id="SVGID_90_" gradientUnits="userSpaceOnUse" x1="36.277" y1="77.7232" x2="77.9463" y2="77.7232">
				<stop  offset="0" style="stop-color:#FFFFFF"/>
				<stop  offset="1" style="stop-color:#000000"/>
			</linearGradient>
			<use xlink:href="#SVGID_87_"  style="overflow:visible;fill:none;stroke:url(#SVGID_90_);stroke-miterlimit:10;"/>
		</g>
		<g class="st4">
			<defs>
				<polygon id="SVGID_91_" class="st4" points="76.4,72.8 92.5,39.4 93.4,43.8 77.3,77.2 				"/>
			</defs>
			<use xlink:href="#SVGID_91_"  style="overflow:visible;fill:#FB7700;"/>
			<clipPath id="SVGID_92_">
				<use xlink:href="#SVGID_91_"  style="overflow:visible;"/>
			</clipPath>
			<g class="st58">
				<linearGradient id="SVGID_93_" gradientUnits="userSpaceOnUse" x1="75.783" y1="58.2844" x2="94.0611" y2="58.2844">
					<stop  offset="0" style="stop-color:#FFFFFF"/>
					<stop  offset="1" style="stop-color:#000000"/>
				</linearGradient>
				<path class="st59" d="M77.3,77.6l-1-4.8l0,0L92.5,39l1,4.8l0,0L77.3,77.6z M76.6,72.8l0.8,4l15.9-33l-0.8-4L76.6,72.8z"/>
			</g>
			<linearGradient id="SVGID_94_" gradientUnits="userSpaceOnUse" x1="75.9145" y1="58.2847" x2="93.9303" y2="58.2847">
				<stop  offset="0" style="stop-color:#FFFFFF"/>
				<stop  offset="1" style="stop-color:#000000"/>
			</linearGradient>
			<use xlink:href="#SVGID_91_"  style="overflow:visible;fill:none;stroke:url(#SVGID_94_);stroke-miterlimit:10;"/>
		</g>
	</g>
</g>
<linearGradient id="SVGID_95_" gradientUnits="userSpaceOnUse" x1="15.3374" y1="47.3249" x2="91.7099" y2="47.3249">
	<stop  offset="0" style="stop-color:#FFFFFF"/>
	<stop  offset="1" style="stop-color:#000000"/>
</linearGradient>
<polyline class="st60" points="30.9,22.3 69.9,16.9 91.1,41.3 76.6,72.8 37.8,77.7 15.7,52.9 "/>
</svg>
