<?xml version="1.0" encoding="utf-8"?>
<!-- Generator: Adobe Illustrator 19.2.1, SVG Export Plug-In . SVG Version: 6.00 Build 0)  -->
<svg version="1.1" id="Layer_1" xmlns="http://www.w3.org/2000/svg" xmlns:xlink="http://www.w3.org/1999/xlink" x="0px" y="0px"
	 viewBox="0 0 150 150" style="enable-background:new 0 0 150 150;" xml:space="preserve">
<style type="text/css">
	.st0{fill:none;stroke:#0F098C;stroke-miterlimit:10;}
</style>
<path class="st0" d="M44.9,47.7C49,69.6,53,92.2,61.1,113c1.7,4.4,6.2,17.9,13.1,16c6.1-1.6,8.7-12.5,10.2-17.4
	c3.5-11.5,5.6-23.4,7.4-35.2c1.9-12.4,3.4-24.8,4.7-37.3c0.1-1.3,0.3-2.7,0.4-4"/>
<path class="st0" d="M61.3,99.6c8.7,28.9,11.9-21.7,19.4,14.7"/>
<path class="st0" d="M65.9,83.4C72.3,96.9,77.4,83,77.4,83"/>
<path class="st0" d="M53.5,53.1c1.7,17.6,6.7,1.7,6.7,1.7"/>
<path class="st0" d="M80.5,53.1c1.7,17.6,6.7,1.7,6.7,1.7"/>
</svg>
