<?xml version="1.0" encoding="utf-8"?>
<!-- Generator: Adobe Illustrator 19.2.1, SVG Export Plug-In . SVG Version: 6.00 Build 0)  -->
<svg version="1.1" id="Layer_1" xmlns="http://www.w3.org/2000/svg" xmlns:xlink="http://www.w3.org/1999/xlink" x="0px" y="0px"
	 viewBox="0 0 1000 500" style="enable-background:new 0 0 1000 500;" xml:space="preserve">
<style type="text/css">
	.st0{fill:none;}
	.st1{fill:#00427E;}
	.st2{opacity:0.4;fill:#9DDCF9;enable-background:new    ;}
	.st3{fill:url(#SVGID_1_);stroke:#000000;stroke-miterlimit:10;}
	.st4{fill:#FFFFFF;stroke:#000000;stroke-miterlimit:10;}
	.st5{fill:url(#SVGID_3_);stroke:#000000;stroke-miterlimit:10;}
	.st6{fill:url(#SVGID_4_);stroke:#000000;stroke-miterlimit:10;}
	.st7{fill:url(#SVGID_5_);stroke:#000000;stroke-miterlimit:10;}
	.st8{fill:url(#SVGID_6_);stroke:#000000;stroke-miterlimit:10;}
	.st9{fill:url(#SVGID_7_);stroke:#000000;stroke-miterlimit:10;}
	.st10{fill:#C7B299;stroke:#000000;stroke-miterlimit:10;}
	.st11{fill:#C69C6D;stroke:#000000;stroke-miterlimit:10;}
	.st12{fill:#29ABE2;stroke:#000000;stroke-miterlimit:10;}
	.st13{fill:#8C6239;stroke:#000000;stroke-miterlimit:10;}
	.st14{fill:#A67C52;stroke:#000000;stroke-miterlimit:10;}
	.st15{fill:#006837;stroke:#000000;stroke-miterlimit:10;}
	.st16{fill:#603813;stroke:#000000;stroke-miterlimit:10;}
	.st17{font-family:'MyriadPro-Regular';}
	.st18{font-size:21.5501px;}
</style>
<pattern  y="500" width="108.3" height="109.6" patternUnits="userSpaceOnUse" id="SVGID_2_" viewBox="47.6 -131.8 108.3 109.6" style="overflow:visible;">
	<g>
		<rect x="47.6" y="-131.8" class="st0" width="108.3" height="109.6"/>
		<g>
			<rect x="47.6" y="-131.8" class="st0" width="108.3" height="109.6"/>
			<g>
				<path class="st1" d="M135-166.6c0,0.1,0.1,0.2,0.2,0.2c12.9,0.1,24.8,3.3,34,11.5c-8-5.6-22.9-7.5-31.5-3.6
					c-0.1,0-0.2,0.2-0.1,0.3c0,0.1,0.1,0.2,0.3,0.2c10.7-0.3,19.3,3,26,9c-6.9,0.4-12.6,4.7-12.6,9.8c0,0.1,0.1,0.2,0.2,0.2
					c0.1,0,0.2,0,0.3-0.1c1.1-2.5,4.7-3.8,8.6-2.9c4.2,1,7,4.2,6.3,7.2c-0.5,2-2.4,3.4-5,3.8c-0.1,0-0.2,0.1-0.2,0.3
					c0,0.1,0.1,0.2,0.2,0.2c1.1,0.1,2.2,0.1,3.3,0c6.5-0.6,11.5-4.6,11.9-9.2c4.7,0.5,8.9,3.2,10.4,6.8c0,0.1,0.2,0.2,0.3,0.2
					s0.2-0.1,0.2-0.2c0.4-4.8-1.3-7.8-5-10.9c5.4,2.1,11.4,2.2,17.3-0.5c0.1,0,0.2-0.2,0.1-0.3c0-0.1-0.1-0.2-0.2-0.2
					c-4.9-0.2-8.4-1.8-11.7-5.1c18.3,5.1,33.1-6.2,28-23.1c0-0.1-0.1-0.2-0.3-0.2c-0.1,0-0.2,0.1-0.2,0.2
					c-0.9,9.7-7.7,16.1-17.9,17.1c5.4-2.1,11-7,11.6-15.5c0-0.1-0.1-0.2-0.2-0.3c-0.1,0-0.2,0-0.3,0.1c-2.8,6.2-8.3,9.3-14.2,9.8
					c6.3-2.6,10.4-8.6,11.6-16.4c0-0.1-0.1-0.2-0.2-0.3c-0.1,0-0.2,0-0.3,0.1c-3.9,7.6-12.2,12.8-22.4,8.8
					c-10.6-4.1-15.3-16.4-16.3-25c0-0.1-0.1-0.2-0.2-0.2c-0.1,0-0.2,0.1-0.3,0.2c-3.7,15.7,3.6,31.9,16.6,38.8
					c-7.1-2-13.4-6.3-17-13.4c-8.3-1-14-3.9-16.9-9.2c-0.1-0.1-0.2-0.2-0.3-0.1c-0.1,0-0.2,0.1-0.2,0.3c0.2,2.1,0.9,6.3,4.1,8.3
					c-7,0-12.5,0.9-17.8,3C135.1-166.8,135-166.7,135-166.6z M164.5-220c-0.1,0.1-0.2,0.1-0.3,0c-0.1-0.1-0.1-0.2,0-0.3
					c1.6-2.8,0.1-6.8-3.1-6.8c-5.7,0-8.5,10.8-7.6,20.6c2.2-5.8,4-8.1,7.3-10.8c0.1-0.1,0.2-0.1,0.3,0s0.1,0.2,0.1,0.3
					c-4.9,9.1-5.9,16.1-5.9,24.1c1.5-6,3.2-9.3,8.1-14.4c0.1-0.1,0.2-0.1,0.3,0c0.1,0.1,0.1,0.2,0.1,0.3
					c-5.3,11.6-4.9,24.4-0.9,34.3c0,0.1,0,0.2-0.1,0.3s-0.2,0.1-0.3,0c-5.2-2.6-8.3-4.2-12.8-10.4c1.4-7.4,0.2-11-3.2-17.2
					c3.9,9.9,1.8,23.9-8.2,29.6c-0.1,0.1-0.2,0-0.3-0.1c-0.1-0.1-0.1-0.2,0-0.3c3.8-4,6.5-10.6,4.2-17.9
					c1.5,10.4-7.6,19.1-17.8,19.1c-9.6,0-16.2-7.5-15.6-14.9c0.5-7.4,5.4-11,9.7-12.5c0.1,0,0.2,0,0.3,0.1c0.1,0.1,0,0.2,0,0.3
					c-5.6,5.7-6.4,16.5,3.6,19.8c-5.9-5.1-3.7-16.8,5.7-17.7c0.1,0,0.2,0.1,0.3,0.2c0,0.1,0,0.2-0.1,0.3c-2,1.3-3.7,3.8-3.7,6.6
					c0,4.7,3.4,6.5,5.7,6.5c3.4,0,6.3-3.3,6.3-8.2c0-5.8-5.3-10.7-12-11.4c-6.6-0.7-12.8,2.2-15.8,6.5c-0.1,0.1-0.2,0.1-0.3,0.1
					s-0.2-0.2-0.1-0.3c3-11.7,16.8-16.9,26.9-9.5c-6.6-7.5-17-7.6-25.7,0.1c-0.1,0.1-0.2,0.1-0.3,0c-0.1-0.1-0.1-0.2-0.1-0.3
					c2.7-5.4,9.3-11.8,18.6-10.9c8.6,0.9,13.5,9,14.5,15.7c0.6-8.5-1.4-14.5-8.8-20.1c-0.1-0.1-0.1-0.2-0.1-0.3
					c0.1-0.1,0.2-0.2,0.3-0.1c6.8,2,12.2,5.4,15,12.5c0-6.2-2.1-12.4-7.5-16.5c-0.1-0.1-0.1-0.2-0.1-0.3c0-0.1,0.2-0.2,0.3-0.1
					c3.5,1,6.2,2.5,8.1,5.2c1.3-11.1,6.5-17.7,12.5-17.7c4.1,0,7.2,3,7.2,7.9C169.3-226.2,167.8-222.2,164.5-220z M263.7-128.4
					c-3.2,3.9-9.5,5.4-16.4,4c0.5,4.3-0.3,8.8-1.6,11.5c-0.1,0.1-0.2,0.2-0.3,0.1c-0.1,0-0.2-0.1-0.2-0.3
					c0.4-8.8-4.6-15.8-13.4-18.9c6.9,4.8,8.9,14.2,5.6,19.1c-0.1,0.1-0.2,0.1-0.3,0.1s-0.2-0.2-0.2-0.3c0.4-2.1-0.6-4.7-2.7-6.7
					c-2.9-2.8-6.8-3.5-8.8-1.4c-2,2-1.2,5.9,1.7,8.8c1.1,1,2.3,1.8,3.4,2.2c0.1,0,0.2,0.2,0.2,0.3s-0.1,0.2-0.2,0.2
					c-6.4,0.6-10.8-3.3-13.5-7.9c-2.8-4.7-7.6-8.4-13.2-7.7c-0.1,0-0.2-0.1-0.3-0.2c0-0.1,0-0.2,0.1-0.3c2.8-1.7,5.9-2.4,9.9-1.1
					c-5.8-4.9-14-7.7-21.8-5.2c-0.1,0-0.2,0-0.3-0.1c-0.1-0.1-0.1-0.2,0-0.3c5.9-6.6,17.7-6.7,25.1-1.4c-3-4.3-7.1-7.5-14.3-8.5
					c-0.1,0-0.2-0.1-0.2-0.2c0-0.1,0.1-0.2,0.2-0.3c8.3-3.1,16.6,0,23.4,8.2c-3-6.4-7.9-11.5-14.8-14c-0.1,0-0.2-0.2-0.2-0.3
					s0.1-0.2,0.2-0.2c3.9-0.1,7.5,0.9,12.3,3.6c-3.5-5.7-2.7-15.6,2.4-22.3c0.1-0.1,0.2-0.1,0.3-0.1s0.2,0.2,0.1,0.3
					c-1.2,7.2,1.3,15.3,5.6,19.6c-2.2-7.6,0-14.6,5.9-19.6c0.1-0.1,0.2-0.1,0.3,0c0.1,0,0.1,0.1,0.2,0.2c1.2,9.4,11.8,19,20.6,19.8
					c0.1,0,0.2,0.1,0.2,0.2c0,0.1-0.1,0.2-0.2,0.3c-4.3,1-8.7,0.5-12.4-1c2.7,2.9,5.9,5.1,9.6,6.2c0.1,0,0.2,0.2,0.2,0.3
					c0,0.1-0.1,0.2-0.2,0.2c-4.5,0.3-8.9-1-12.7-3.5c4.4,6.6,11,11.5,19.4,13.5c0.1,0,0.2,0.1,0.2,0.3c0,0.1-0.1,0.2-0.2,0.2
					c-11.9,1.3-21.7-3.3-28.2-11.9c1.6,4.9,6.4,9.8,12.9,12.6c5.8,2.5,11.8,2.9,16.4,1.5c0.1,0,0.2,0,0.3,0.1
					C263.8-128.6,263.8-128.5,263.7-128.4z M210.8-204c4.8,10.5,4.5,18.7,0.6,29.1c0,0.1-0.2,0.2-0.3,0.2s-0.2-0.1-0.2-0.3
					c0.6-12.6-2.8-21.7-10.3-27.8c8.3,9.9,4.4,29.6-8.8,29.6c-9.6,0-17.5-8-19.5-17.5c0-0.1,0-0.2,0.2-0.3c0.1,0,0.2,0,0.3,0.1
					c2.8,4.8,7.4,7.9,12.5,7.9c8.1,0,10.5-6.5,10.5-11c0-6.2-4.9-11.3-8.7-11.3c-3.4,0-5,2.8-5,4.9c0,3.9,3,7.2,6.4,8.2
					c0.1,0,0.2,0.2,0.2,0.3c0,0.1-0.1,0.2-0.3,0.2c-4.1,0-7.6-1.9-9.6-5.6c-0.3,2.9-0.3,4.7,0.6,7.7c0,0.1,0,0.2-0.1,0.3
					c-0.1,0.1-0.2,0-0.3-0.1c-7.4-9.4-3.8-25.6,2-32.4c-5.5,4-10.4,12.6-10.3,24.4c0,0.1-0.1,0.2-0.2,0.3c-0.1,0-0.2,0-0.3-0.2
					c-4.1-10.3-1.9-29.2,9.3-39.9c-2.9-0.4-5.9-0.3-9.1,0.7c-0.1,0-0.2,0-0.3-0.1c-0.1-0.1,0-0.2,0.1-0.3c4.1-3.5,9.8-4.5,15.3-4.5
					c-4.7,5.5-3.1,16.6,4.4,16.6c5.3,0,7.8-8.3,3.6-12.8c-0.1-0.1-0.1-0.2,0-0.3s0.2-0.1,0.3-0.1c4.8,1.7,9.9,5.8,9.9,11
					c0,5-4.8,9.4-11.8,9.1c8.8,2.5,18.1-0.3,22.9-6.3c0.1-0.1,0.2-0.1,0.3-0.1c0.1,0.1,0.2,0.2,0.1,0.3c-2.8,10.7-12,15.2-23.4,13.7
					c9.3,3.8,23.3,0.5,29.4-7.3c0.1-0.1,0.2-0.1,0.3-0.1c0.1,0.1,0.2,0.2,0.1,0.3C220.1-210.9,216.6-205.9,210.8-204z"/>
				<path class="st2" d="M237.2-184.7c0-0.1-0.1-0.2-0.2-0.2c-12.9-0.1-24.8-3.3-34-11.5c8,5.6,22.9,7.5,31.5,3.6
					c0.1-0.1,0.2-0.2,0.1-0.3c0-0.1-0.1-0.2-0.3-0.2c-10.7,0.3-19.3-3-26-9c6.9-0.4,12.6-4.7,12.6-9.8c0-0.1-0.1-0.2-0.2-0.2
					c-0.1,0-0.2,0-0.3,0.1c-1.1,2.5-4.7,3.8-8.6,2.9c-4.2-1-7-4.2-6.3-7.2c0.5-2,2.4-3.4,5-3.8c0.1,0,0.2-0.1,0.2-0.3
					c0-0.1-0.1-0.2-0.2-0.2c-1.1-0.1-2.2-0.1-3.3,0c-6.5,0.6-11.5,4.6-11.9,9.2c-4.7-0.5-8.9-3.2-10.4-6.8c0-0.1-0.2-0.2-0.3-0.2
					s-0.2,0.1-0.2,0.2c-0.4,4.8,1.3,7.8,5,10.9c-5.4-2.1-11.4-2.2-17.3,0.5c-0.1,0.1-0.2,0.2-0.1,0.3c0,0.1,0.1,0.2,0.2,0.2
					c4.9,0.2,8.4,1.8,11.7,5.1c-18.3-5.1-33.1,6.2-28,23.1c0,0.1,0.1,0.2,0.3,0.2c0.1,0,0.2-0.1,0.2-0.2c0.9-9.7,7.7-16.1,17.9-17.1
					c-5.4,2.1-11,7-11.6,15.5c0,0.1,0.1,0.2,0.2,0.3c0.1,0,0.2,0,0.3-0.1c2.8-6.2,8.3-9.3,14.2-9.8c-6.3,2.6-10.4,8.6-11.6,16.4
					c0,0.1,0.1,0.2,0.2,0.3c0.1,0,0.2,0,0.3-0.1c3.9-7.6,12.2-12.8,22.4-8.8c10.6,4.1,15.3,16.4,16.3,25c0,0.1,0.1,0.2,0.2,0.2
					c0.1,0,0.2-0.1,0.3-0.2c3.7-15.7-3.6-31.9-16.6-38.8c7.1,2,13.4,6.3,17,13.4c8.3,1,14,3.9,16.9,9.2c0.1,0.1,0.2,0.2,0.3,0.1
					c0.1,0,0.2-0.1,0.2-0.3c-0.2-2.1-0.9-6.3-4.1-8.3c7,0,12.5-0.9,17.8-3C237.2-184.5,237.2-184.6,237.2-184.7z M207.7-131.2
					c0.1-0.1,0.2-0.1,0.3,0c0.1,0.1,0.1,0.2,0,0.3c-1.6,2.8-0.1,6.8,3.1,6.8c5.7,0,8.5-10.8,7.6-20.6c-2.2,5.8-4,8.1-7.3,10.8
					c-0.1,0.1-0.2,0.1-0.3,0c-0.1-0.1-0.1-0.2-0.1-0.3c4.9-9.1,5.9-16.1,5.9-24.1c-1.5,6-3.2,9.3-8.1,14.4c-0.1,0.1-0.2,0.1-0.3,0
					c-0.1-0.1-0.1-0.2-0.1-0.3c5.3-11.6,4.9-24.4,0.9-34.3c0-0.1,0-0.2,0.1-0.3c0.1-0.1,0.2-0.1,0.3,0c5.2,2.6,8.3,4.2,12.8,10.4
					c-1.4,7.4-0.2,11,3.2,17.2c-3.9-9.9-1.8-23.9,8.2-29.6c0.1-0.1,0.2,0,0.3,0.1c0.1,0.1,0.1,0.2,0,0.3c-3.8,4-6.5,10.6-4.2,17.9
					c-1.5-10.4,7.6-19.1,17.8-19.1c9.6,0,16.2,7.5,15.6,14.9c-0.5,7.4-5.4,11-9.7,12.5c-0.1,0-0.2,0-0.3-0.1c-0.1-0.1-0.1-0.2,0-0.3
					c5.6-5.7,6.4-16.5-3.6-19.8c5.9,5.1,3.7,16.8-5.7,17.7c-0.1,0-0.2-0.1-0.3-0.2c0-0.1,0-0.2,0.1-0.3c2-1.3,3.7-3.8,3.7-6.6
					c0-4.7-3.4-6.5-5.7-6.5c-3.4,0-6.3,3.3-6.3,8.2c0,5.8,5.3,10.7,12,11.4c6.6,0.7,12.8-2.2,15.7-6.5c0.1-0.1,0.2-0.1,0.3-0.1
					c0.1,0.1,0.2,0.2,0.1,0.3c-3,11.7-16.8,16.9-26.9,9.5c6.6,7.5,17,7.6,25.7-0.1c0.1-0.1,0.2-0.1,0.3,0c0.1,0.1,0.1,0.2,0.1,0.3
					c-2.7,5.4-9.3,11.8-18.6,10.9c-8.6-0.9-13.5-9-14.5-15.7c-0.6,8.5,1.4,14.5,8.8,20.1c0.1,0.1,0.1,0.2,0.1,0.3
					c-0.1,0.1-0.2,0.2-0.3,0.1c-6.8-2-12.2-5.4-15-12.5c0,6.2,2.1,12.4,7.5,16.5c0.1,0.1,0.1,0.2,0.1,0.3c-0.1,0.1-0.2,0.2-0.3,0.1
					c-3.5-1-6.2-2.5-8.1-5.2c-1.3,11.1-6.5,17.7-12.5,17.7c-4.1,0-7.2-3-7.2-7.9C202.9-125,204.4-129,207.7-131.2z M108.5-222.8
					c3.2-3.9,9.5-5.4,16.4-4c-0.5-4.3,0.3-8.8,1.6-11.5c0.1-0.1,0.2-0.2,0.3-0.1c0.1,0,0.2,0.1,0.2,0.3c-0.4,8.8,4.6,15.8,13.4,18.9
					c-6.9-4.8-8.9-14.2-5.6-19.1c0.1-0.1,0.2-0.1,0.3-0.1s0.2,0.2,0.2,0.3c-0.4,2.1,0.6,4.7,2.7,6.7c2.9,2.8,6.8,3.5,8.8,1.4
					c2-2,1.2-5.9-1.7-8.8c-1.1-1-2.3-1.8-3.4-2.2c-0.1,0-0.2-0.2-0.2-0.3c0-0.1,0.1-0.2,0.2-0.2c6.4-0.6,10.8,3.3,13.5,7.9
					c2.8,4.7,7.6,8.4,13.2,7.7c0.1,0,0.2,0.1,0.3,0.2c0,0.1,0,0.2-0.1,0.3c-2.8,1.7-5.9,2.4-9.9,1.1c5.8,4.9,14,7.7,21.8,5.2
					c0.1,0,0.2,0,0.3,0.1c0.1,0.1,0.1,0.2,0,0.3c-5.9,6.6-17.7,6.7-25.1,1.4c3,4.3,7.1,7.5,14.3,8.5c0.1,0,0.2,0.1,0.2,0.2
					c0,0.1-0.1,0.2-0.2,0.3c-8.3,3.1-16.6,0-23.4-8.2c3,6.4,7.9,11.5,14.8,14c0.1,0,0.2,0.2,0.2,0.3c0,0.1-0.1,0.2-0.2,0.2
					c-3.9,0.1-7.5-0.9-12.3-3.6c3.5,5.7,2.7,15.6-2.4,22.3c-0.1,0.1-0.2,0.1-0.3,0.1s-0.2-0.2-0.1-0.3c1.2-7.2-1.3-15.3-5.6-19.6
					c2.2,7.6,0,14.6-5.9,19.6c-0.1,0.1-0.2,0.1-0.3,0c-0.1,0-0.1-0.1-0.2-0.2c-1.2-9.4-11.8-19-20.6-19.8c-0.1,0-0.2-0.1-0.2-0.2
					s0.1-0.2,0.2-0.3c4.3-1,8.7-0.5,12.4,1c-2.7-2.9-5.9-5.1-9.6-6.2c-0.1,0-0.2-0.2-0.2-0.3c0-0.1,0.1-0.2,0.2-0.2
					c4.5-0.3,8.9,1,12.7,3.5c-4.4-6.6-11-11.5-19.4-13.5c-0.1,0-0.2-0.1-0.2-0.3c0-0.1,0.1-0.2,0.2-0.2c11.9-1.3,21.7,3.3,28.2,11.9
					c-1.6-4.9-6.4-9.8-12.9-12.6c-5.8-2.5-11.8-2.9-16.4-1.5c-0.1,0-0.2,0-0.3-0.1C108.4-222.6,108.4-222.8,108.5-222.8z
					 M161.4-147.3c-4.8-10.5-4.5-18.7-0.6-29.1c0-0.1,0.2-0.2,0.3-0.2s0.2,0.1,0.2,0.3c-0.6,12.6,2.8,21.7,10.3,27.8
					c-8.3-9.9-4.4-29.6,8.8-29.6c9.6,0,17.5,8,19.5,17.5c0,0.1,0,0.2-0.2,0.3c-0.1,0-0.2,0-0.3-0.1c-2.8-4.8-7.4-7.9-12.5-7.9
					c-8.1,0-10.5,6.5-10.5,11c0,6.2,4.9,11.3,8.7,11.3c3.4,0,5-2.8,5-4.9c0-3.9-3-7.2-6.4-8.2c-0.1,0-0.2-0.2-0.2-0.3
					s0.1-0.2,0.3-0.2c4.1,0,7.6,1.9,9.6,5.6c0.3-2.9,0.3-4.7-0.6-7.7c0-0.1,0-0.2,0.1-0.3c0.1-0.1,0.2,0,0.3,0.1
					c7.4,9.4,3.8,25.6-2,32.4c5.5-4,10.4-12.6,10.3-24.4c0-0.1,0.1-0.2,0.2-0.3c0.1,0,0.2,0,0.3,0.2c4.1,10.3,1.9,29.2-9.3,39.9
					c2.9,0.4,5.9,0.3,9.1-0.7c0.1,0,0.2,0,0.3,0.1s0,0.2-0.1,0.3c-4.1,3.5-9.8,4.5-15.3,4.5c4.7-5.5,3.1-16.6-4.4-16.6
					c-5.3,0-7.8,8.3-3.6,12.8c0.1,0.1,0.1,0.2,0,0.3c-0.1,0.1-0.2,0.1-0.3,0.1c-4.8-1.7-9.9-5.8-9.9-11c0-5,4.8-9.4,11.8-9.1
					c-8.8-2.5-18.1,0.3-22.9,6.3c-0.1,0.1-0.2,0.1-0.3,0.1c-0.1-0.1-0.2-0.2-0.1-0.3c2.8-10.7,12-15.2,23.4-13.7
					c-9.3-3.8-23.3-0.5-29.4,7.3c-0.1,0.1-0.2,0.1-0.3,0.1s-0.2-0.2-0.1-0.3C152.2-140.4,155.7-145.3,161.4-147.3z"/>
			</g>
			<g>
				<path class="st1" d="M26.7-166.6c0,0.1,0.1,0.2,0.2,0.2c12.9,0.1,24.8,3.3,34,11.5c-8-5.6-22.9-7.5-31.5-3.6
					c-0.1,0-0.2,0.2-0.1,0.3c0,0.1,0.1,0.2,0.3,0.2c10.7-0.3,19.3,3,26,9c-6.9,0.4-12.6,4.7-12.6,9.8c0,0.1,0.1,0.2,0.2,0.2
					c0.1,0,0.2,0,0.3-0.1c1.1-2.5,4.7-3.8,8.6-2.9c4.2,1,7,4.2,6.3,7.2c-0.5,2-2.4,3.4-5,3.8c-0.1,0-0.2,0.1-0.2,0.3
					c0,0.1,0.1,0.2,0.2,0.2c1.1,0.1,2.2,0.1,3.3,0c6.5-0.6,11.5-4.6,11.9-9.2c4.7,0.5,8.9,3.2,10.4,6.8c0,0.1,0.2,0.2,0.3,0.2
					c0.1,0,0.2-0.1,0.2-0.2c0.4-4.8-1.3-7.8-5-10.9c5.4,2.1,11.4,2.2,17.3-0.5c0.1,0,0.2-0.2,0.1-0.3c0-0.1-0.1-0.2-0.2-0.2
					c-4.9-0.2-8.4-1.8-11.7-5.1c18.3,5.1,33.1-6.2,28-23.1c0-0.1-0.1-0.2-0.3-0.2c-0.1,0-0.2,0.1-0.2,0.2
					c-0.9,9.7-7.7,16.1-17.9,17.1c5.4-2.1,11-7,11.6-15.5c0-0.1-0.1-0.2-0.2-0.3c-0.1,0-0.2,0-0.3,0.1c-2.8,6.2-8.3,9.3-14.2,9.8
					c6.3-2.6,10.4-8.6,11.6-16.4c0-0.1-0.1-0.2-0.2-0.3c-0.1,0-0.2,0-0.3,0.1c-3.9,7.6-12.2,12.8-22.4,8.8
					c-10.7-3.9-15.4-16.2-16.4-24.9c0-0.1-0.1-0.2-0.2-0.2c-0.1,0-0.2,0.1-0.3,0.2c-3.7,15.7,3.6,31.9,16.6,38.8
					c-7.1-2-13.4-6.3-17-13.4c-8.3-1-14-3.9-16.9-9.2c-0.1-0.1-0.2-0.2-0.3-0.1c-0.1,0-0.2,0.1-0.2,0.3c0.2,2.1,0.9,6.3,4.1,8.3
					c-7,0-12.5,0.9-17.8,3C26.7-166.8,26.7-166.7,26.7-166.6z M56.2-220c-0.1,0.1-0.2,0.1-0.3,0c-0.1-0.1-0.1-0.2,0-0.3
					c1.6-2.8,0.1-6.8-3.1-6.8c-5.7,0-8.5,10.8-7.6,20.6c2.2-5.8,4-8.1,7.3-10.8c0.1-0.1,0.2-0.1,0.3,0s0.1,0.2,0.1,0.3
					c-4.8,9-5.9,16-5.9,24c1.5-6,3.2-9.3,8.1-14.4c0.1-0.1,0.2-0.1,0.3,0c0.1,0.1,0.1,0.2,0.1,0.3c-5.3,11.6-4.9,24.4-0.9,34.3
					c0,0.1,0,0.2-0.1,0.3c-0.1,0.1-0.2,0.1-0.3,0c-5.2-2.5-8.2-4.2-12.7-10.4c1.4-7.4,0.2-11-3.2-17.2c3.9,9.9,1.8,23.9-8.2,29.6
					c-0.1,0.1-0.2,0-0.3-0.1c-0.1-0.1-0.1-0.2,0-0.3c3.8-4,6.5-10.6,4.2-17.9c1.5,10.4-7.6,19.1-17.8,19.1
					c-9.6,0-16.2-7.5-15.6-14.9c0.5-7.4,5.4-11,9.7-12.5c0.1,0,0.2,0,0.3,0.1c0.1,0.1,0,0.2,0,0.3c-5.6,5.7-6.4,16.5,3.6,19.8
					c-5.9-5.1-3.7-16.8,5.7-17.7c0.1,0,0.2,0.1,0.3,0.2c0,0.1,0,0.2-0.1,0.3c-2,1.3-3.7,3.8-3.7,6.6c0,4.7,3.4,6.5,5.7,6.5
					c3.4,0,6.3-3.3,6.3-8.2c0-5.8-5.3-10.7-12-11.4c-6.8-0.9-13,2-15.9,6.3c-0.1,0.1-0.2,0.1-0.3,0.1c-0.2,0-0.2-0.2-0.2-0.3
					c3-11.7,16.8-16.9,26.9-9.5c-6.6-7.5-17-7.6-25.7,0.1c-0.1,0.1-0.2,0.1-0.3,0c-0.1-0.1-0.1-0.2-0.1-0.3
					c2.7-5.4,9.3-11.8,18.6-10.9c8.6,0.9,13.5,9,14.5,15.7c0.6-8.5-1.4-14.5-8.8-20.1c-0.1-0.1-0.1-0.2-0.1-0.3
					c0.1-0.1,0.2-0.2,0.3-0.1c6.8,2,12.2,5.4,15,12.5c0-6.2-2.1-12.4-7.5-16.5c-0.1-0.1-0.1-0.2-0.1-0.3c0.1-0.1,0.2-0.2,0.3-0.1
					c3.5,1,6.2,2.5,8.1,5.2c1.3-11.1,6.5-17.7,12.5-17.7c4.1,0,7.2,3,7.2,7.9C61-226.2,59.5-222.2,56.2-220z M155.4-128.4
					c-3.2,3.9-9.5,5.4-16.4,4c0.5,4.3-0.3,8.8-1.6,11.5c-0.1,0.1-0.2,0.2-0.3,0.1c-0.1,0-0.2-0.1-0.2-0.3
					c0.4-8.8-4.6-15.8-13.4-18.9c6.9,4.8,8.9,14.2,5.6,19.1c-0.1,0.1-0.2,0.1-0.3,0.1s-0.2-0.2-0.2-0.3c0.4-2.1-0.6-4.7-2.7-6.7
					c-2.9-2.8-6.8-3.5-8.8-1.4c-2,2-1.2,5.9,1.7,8.8c1.1,1,2.3,1.8,3.4,2.2c0.1,0,0.2,0.2,0.2,0.3s-0.1,0.2-0.2,0.2
					c-6.4,0.6-10.8-3.3-13.5-7.9c-2.8-4.7-7.6-8.4-13.2-7.7c-0.1,0-0.2-0.1-0.3-0.2c0-0.1,0-0.2,0.1-0.3c2.8-1.7,5.9-2.4,9.9-1.1
					c-5.8-4.9-14-7.7-21.8-5.2c-0.1,0-0.2,0-0.3-0.1c-0.1-0.1-0.1-0.2,0-0.3c5.9-6.6,17.7-6.7,25.1-1.4c-3-4.3-7.1-7.5-14.3-8.5
					c-0.1,0-0.2-0.1-0.2-0.2c0-0.1,0.1-0.2,0.2-0.3c8.3-3.1,16.6,0,23.4,8.2c-3-6.4-7.9-11.5-14.8-14c-0.1,0-0.2-0.2-0.2-0.3
					s0.1-0.2,0.2-0.2c3.9-0.1,7.5,0.9,12.3,3.6c-3.5-5.7-2.7-15.6,2.4-22.3c0.1-0.1,0.2-0.1,0.3-0.1c0.1,0,0.2,0.2,0.1,0.3
					c-1.2,7.2,1.3,15.3,5.6,19.6c-2.2-7.6,0-14.6,5.9-19.6c0.1-0.1,0.2-0.1,0.3,0c0.1,0,0.1,0.1,0.2,0.2c1.2,9.4,11.8,19,20.6,19.8
					c0.1,0,0.2,0.1,0.2,0.2c0,0.1-0.1,0.2-0.2,0.3c-4.3,1-8.7,0.5-12.4-1c2.7,2.9,5.9,5.1,9.6,6.2c0.1,0,0.2,0.2,0.2,0.3
					c0,0.1-0.1,0.2-0.2,0.2c-4.5,0.3-8.9-1-12.7-3.5c4.4,6.6,11,11.5,19.4,13.5c0.1,0,0.2,0.1,0.2,0.3c0,0.1-0.1,0.2-0.2,0.2
					c-11.9,1.3-21.7-3.3-28.2-11.9c1.6,4.9,6.4,9.8,12.9,12.6c5.8,2.5,11.8,2.9,16.4,1.5c0.1,0,0.2,0,0.3,0.1
					C155.5-128.6,155.5-128.5,155.4-128.4z M102.5-204c4.8,10.5,4.5,18.7,0.6,29.1c0,0.1-0.2,0.2-0.3,0.2c-0.1,0-0.2-0.1-0.2-0.3
					c0.6-12.6-2.8-21.7-10.3-27.8c8.2,9.9,4.4,29.6-8.8,29.6c-9.6,0-17.5-8-19.5-17.5c0-0.1,0-0.2,0.2-0.3c0.1,0,0.2,0,0.3,0.1
					c2.8,4.8,7.4,7.9,12.5,7.9c8.1,0,10.5-6.5,10.5-11c0-6.2-4.9-11.3-8.7-11.3c-3.4,0-5,2.8-5,4.9c0,3.9,3,7.2,6.4,8.2
					c0.1,0,0.2,0.2,0.2,0.3c0,0.1-0.1,0.2-0.3,0.2c-4.1,0-7.6-1.9-9.6-5.6c-0.3,2.9-0.3,4.7,0.6,7.7c0,0.1,0,0.2-0.1,0.3
					c-0.1,0.1-0.2,0-0.3-0.1c-7.4-9.4-3.8-25.6,2-32.4c-5.5,4-10.4,12.6-10.3,24.4c0,0.1-0.1,0.2-0.2,0.3c-0.1,0-0.2,0-0.3-0.2
					c-4.1-10.3-1.9-29.2,9.3-39.9c-2.9-0.4-5.9-0.3-9.1,0.7c-0.1,0-0.2,0-0.3-0.1c-0.1-0.1,0-0.2,0.1-0.3c3.9-3.5,9.6-4.6,15.1-4.6
					c-4.7,5.5-3.1,16.6,4.4,16.6c5.3,0,7.8-8.3,3.6-12.8c-0.1-0.1-0.1-0.2,0-0.3c0.1-0.1,0.2-0.1,0.3-0.1c4.8,1.7,9.9,5.8,9.9,11
					c0,5-4.8,9.4-11.8,9.1c8.8,2.5,18.1-0.3,22.9-6.3c0.1-0.1,0.2-0.1,0.3-0.1c0.1,0.1,0.2,0.2,0.1,0.3c-2.8,10.7-12,15.2-23.4,13.7
					c9.3,3.8,23.3,0.5,29.4-7.3c0.1-0.1,0.2-0.1,0.3-0.1c0.1,0.1,0.2,0.2,0.1,0.3C111.8-210.9,108.3-205.9,102.5-204z"/>
				<path class="st2" d="M128.9-184.7c0-0.1-0.1-0.2-0.2-0.2c-12.9-0.1-24.8-3.3-34-11.5c8,5.6,22.9,7.5,31.5,3.6
					c0.1-0.1,0.2-0.2,0.1-0.3c0-0.1-0.1-0.2-0.3-0.2c-10.7,0.3-19.3-3-26-9c6.9-0.4,12.6-4.7,12.6-9.8c0-0.1-0.1-0.2-0.2-0.2
					s-0.2,0-0.3,0.1c-1.1,2.5-4.7,3.8-8.6,2.9c-4.2-1-7-4.2-6.3-7.2c0.5-2,2.4-3.4,5-3.8c0.1,0,0.2-0.1,0.2-0.3
					c0-0.1-0.1-0.2-0.2-0.2c-1.1-0.1-2.2-0.1-3.3,0c-6.5,0.6-11.5,4.6-11.9,9.2c-4.7-0.5-8.9-3.2-10.4-6.8c0-0.1-0.2-0.2-0.3-0.2
					c-0.1,0-0.2,0.1-0.2,0.2c-0.4,4.8,1.3,7.8,5,10.9c-5.4-2.1-11.4-2.2-17.3,0.5c-0.1,0.1-0.2,0.2-0.1,0.3c0,0.1,0.1,0.2,0.2,0.2
					c4.9,0.2,8.4,1.8,11.7,5.1c-18.3-5.1-33.1,6.2-28,23.1c0,0.1,0.1,0.2,0.3,0.2c0.1,0,0.2-0.1,0.2-0.2c1-9.8,7.8-16.2,17.9-17.1
					c-5.4,2.1-11,7-11.6,15.5c0,0.1,0.1,0.2,0.2,0.3c0.1,0,0.2,0,0.3-0.1c2.8-6.2,8.3-9.3,14.2-9.8c-6.3,2.6-10.4,8.6-11.6,16.4
					c0,0.1,0.1,0.2,0.2,0.3c0.1,0,0.2,0,0.3-0.1c3.9-7.6,12.2-12.8,22.4-8.8c10.6,4.1,15.3,16.4,16.3,25c0,0.1,0.1,0.2,0.2,0.2
					s0.2-0.1,0.3-0.2c3.7-15.7-3.6-31.9-16.6-38.8c7.1,2,13.4,6.3,17,13.4c8.3,1,14,3.9,16.9,9.2c0.1,0.1,0.2,0.2,0.3,0.1
					c0.1,0,0.2-0.1,0.2-0.3c-0.2-2.1-0.9-6.3-4.1-8.3c7,0,12.5-0.9,17.8-3C128.8-184.5,128.9-184.6,128.9-184.7z M99.4-131.2
					c0.1-0.1,0.2-0.1,0.3,0c0.1,0.1,0.1,0.2,0,0.3c-1.6,2.8-0.1,6.8,3.1,6.8c5.7,0,8.5-10.8,7.6-20.6c-2.2,5.8-4,8.1-7.3,10.8
					c-0.1,0.1-0.2,0.1-0.3,0c-0.1-0.1-0.1-0.2-0.1-0.3c4.9-9.1,5.9-16.1,5.9-24.1c-1.5,6-3.2,9.3-8.1,14.4c-0.1,0.1-0.2,0.1-0.3,0
					c-0.1-0.1-0.1-0.2-0.1-0.3c5.3-11.6,4.9-24.4,0.9-34.3c0-0.1,0-0.2,0.1-0.3c0.1-0.1,0.2-0.1,0.3,0c5.2,2.6,8.3,4.2,12.8,10.4
					c-1.4,7.4-0.2,11,3.2,17.2c-3.9-9.9-1.8-23.9,8.2-29.6c0.1-0.1,0.2,0,0.3,0.1c0.1,0.1,0.1,0.2,0,0.3c-3.8,4-6.5,10.6-4.2,17.9
					c-1.5-10.4,7.6-19.1,17.8-19.1c9.6,0,16.2,7.5,15.6,14.9c-0.5,7.4-5.4,11-9.7,12.5c-0.1,0-0.2,0-0.3-0.1c-0.1-0.1-0.1-0.2,0-0.3
					c5.6-5.7,6.4-16.5-3.6-19.8c5.9,5.1,3.7,16.8-5.7,17.7c-0.1,0-0.2-0.1-0.3-0.2c0-0.1,0-0.2,0.1-0.3c2-1.3,3.7-3.8,3.7-6.6
					c0-4.7-3.4-6.5-5.7-6.5c-3.4,0-6.3,3.3-6.3,8.2c0,5.8,5.3,10.7,12,11.4c6.6,0.7,12.8-2.2,15.8-6.5c0.1-0.1,0.2-0.1,0.3-0.1
					c0.1,0.1,0.2,0.2,0.1,0.3c-3,11.7-16.8,16.9-26.9,9.5c6.6,7.5,17,7.6,25.7-0.1c0.1-0.1,0.2-0.1,0.3,0c0.1,0.1,0.1,0.2,0.1,0.3
					c-2.7,5.4-9.3,11.8-18.6,10.9c-8.6-0.9-13.5-9-14.5-15.7c-0.6,8.5,1.4,14.5,8.8,20.1c0.1,0.1,0.1,0.2,0.1,0.3
					c-0.1,0.1-0.2,0.2-0.3,0.1c-6.8-2-12.2-5.4-15-12.5c0,6.2,2.1,12.4,7.5,16.5c0.1,0.1,0.1,0.2,0.1,0.3c-0.1,0.1-0.2,0.2-0.3,0.1
					c-3.5-1-6.2-2.5-8.1-5.2c-1.3,11.1-6.5,17.7-12.5,17.7c-4.1,0-7.2-3-7.2-7.9C94.6-125,96.1-129,99.4-131.2z M0.2-222.8
					c3.2-3.9,9.5-5.4,16.4-4c-0.5-4.3,0.3-8.8,1.6-11.5c0.1-0.1,0.2-0.2,0.3-0.2s0.2,0.1,0.2,0.3c-0.4,8.8,4.6,15.8,13.4,18.9
					c-6.9-4.7-8.9-14.2-5.6-19c0.1-0.1,0.2-0.1,0.3-0.1c0.1,0,0.2,0.2,0.2,0.3c-0.4,2.1,0.6,4.7,2.7,6.7c2.9,2.8,6.8,3.5,8.8,1.4
					c2-2,1.2-5.9-1.7-8.8c-1.1-1-2.3-1.8-3.4-2.2c-0.1,0-0.2-0.2-0.2-0.3c0-0.1,0.1-0.2,0.2-0.2c6.4-0.6,10.8,3.3,13.5,7.9
					c2.8,4.7,7.6,8.4,13.2,7.7c0.1,0,0.2,0.1,0.3,0.2c0,0.1,0,0.2-0.1,0.3c-2.8,1.7-5.9,2.4-9.9,1.1c5.8,4.9,14,7.7,21.8,5.2
					c0.1,0,0.2,0,0.3,0.1c0.1,0.1,0.1,0.2,0,0.3c-5.9,6.6-17.7,6.7-25.1,1.4c3,4.3,7.1,7.5,14.3,8.5c0.1,0,0.2,0.1,0.2,0.2
					c0,0.1-0.1,0.2-0.2,0.3c-8.3,3.1-16.6,0-23.4-8.2c3,6.4,7.9,11.5,14.8,14c0.1,0,0.2,0.2,0.2,0.3c0,0.1-0.1,0.2-0.2,0.2
					c-3.9,0.1-7.5-0.9-12.3-3.6c3.5,5.7,2.7,15.6-2.4,22.3c-0.1,0.1-0.2,0.1-0.3,0.1s-0.2-0.2-0.1-0.3c1.2-7.2-1.3-15.3-5.6-19.6
					c2.2,7.6,0,14.6-5.9,19.6c-0.1,0.1-0.2,0.1-0.3,0c-0.1,0-0.1-0.1-0.2-0.2c-1.2-9.4-11.8-19-20.6-19.8c-0.1,0-0.2-0.1-0.2-0.2
					s0.1-0.2,0.2-0.3c4.3-1,8.7-0.5,12.4,1c-2.7-2.9-5.9-5.1-9.6-6.2c-0.1-0.1-0.2-0.2-0.2-0.3c0-0.1,0.1-0.2,0.2-0.2
					c4.5-0.3,8.9,1,12.7,3.5c-4.4-6.6-11-11.5-19.4-13.5c-0.1,0-0.2-0.1-0.2-0.3c0-0.1,0.1-0.2,0.2-0.2c11.9-1.3,21.7,3.3,28.2,11.9
					c-1.6-4.9-6.4-9.8-12.9-12.6c-5.8-2.6-11.8-3-16.4-1.5c-0.1,0-0.2,0-0.3-0.1C0.1-222.6,0.1-222.8,0.2-222.8z M53.1-147.3
					c-4.8-10.5-4.5-18.7-0.6-29.1c0-0.1,0.2-0.2,0.3-0.2s0.2,0.1,0.2,0.3c-0.6,12.6,2.8,21.7,10.3,27.8c-8.3-9.9-4.4-29.6,8.8-29.6
					c9.6,0,17.5,8,19.5,17.5c0,0.1,0,0.2-0.2,0.3c-0.1,0-0.2,0-0.3-0.1c-2.8-4.8-7.4-7.9-12.5-7.9c-8.1,0-10.5,6.5-10.5,11
					c0,6.2,4.9,11.3,8.7,11.3c3.4,0,5-2.8,5-4.9c0-3.9-3-7.2-6.4-8.2c-0.1,0-0.2-0.2-0.2-0.3s0.1-0.2,0.3-0.2c4.1,0,7.6,1.9,9.6,5.6
					c0.3-2.9,0.3-4.7-0.6-7.7c0-0.1,0-0.2,0.1-0.3c0.1-0.1,0.2,0,0.3,0.1c7.4,9.4,3.8,25.6-2,32.4c5.5-4,10.4-12.6,10.3-24.4
					c0-0.1,0.1-0.2,0.2-0.3c0.1,0,0.2,0,0.3,0.2c4.1,10.3,1.9,29.2-9.3,39.9c2.9,0.4,5.9,0.3,9.1-0.7c0.1,0,0.2,0,0.3,0.1
					c0.1,0.1,0,0.2-0.1,0.3c-4.1,3.5-9.8,4.5-15.3,4.5c4.7-5.5,3.1-16.6-4.4-16.6c-5.3,0-7.8,8.3-3.6,12.8c0.1,0.1,0.1,0.2,0,0.3
					c-0.1,0.1-0.2,0.1-0.3,0.1c-4.8-1.7-9.9-5.8-9.9-11c0-5,4.8-9.4,11.8-9.1c-8.8-2.5-18.1,0.3-22.9,6.3c-0.1,0.1-0.2,0.1-0.3,0.1
					c-0.1-0.1-0.2-0.2-0.1-0.3c2.8-10.7,12-15.2,23.4-13.7c-9.3-3.8-23.3-0.5-29.4,7.3c-0.1,0.1-0.2,0.1-0.3,0.1s-0.2-0.2-0.1-0.3
					C43.8-140.4,47.3-145.3,53.1-147.3z"/>
			</g>
			<g>
				<path class="st1" d="M135-56.9c0,0.1,0.1,0.2,0.2,0.2c12.9,0.1,24.8,3.3,34,11.5c-8-5.6-22.9-7.5-31.5-3.6
					c-0.1,0-0.2,0.2-0.1,0.3c0,0.1,0.1,0.2,0.3,0.2c10.7-0.3,19.3,3,26,9c-6.9,0.4-12.6,4.7-12.6,9.8c0,0.1,0.1,0.2,0.2,0.2
					c0.1,0,0.2,0,0.3-0.1c1.1-2.5,4.7-3.8,8.6-2.9c4.2,1,7,4.2,6.3,7.2c-0.5,2-2.4,3.4-5,3.8c-0.1,0-0.2,0.1-0.2,0.3
					c0,0.1,0.1,0.2,0.2,0.2c1.1,0.1,2.2,0.1,3.3,0c6.5-0.6,11.5-4.6,11.9-9.2c4.7,0.5,8.9,3.2,10.4,6.8c0,0.1,0.2,0.2,0.3,0.2
					s0.2-0.1,0.2-0.2c0.4-4.8-1.3-7.8-5-10.9c5.4,2.1,11.4,2.2,17.3-0.5c0.1,0,0.2-0.2,0.1-0.3c0-0.1-0.1-0.2-0.2-0.2
					c-4.9-0.2-8.4-1.8-11.7-5.1c18.3,5.1,33.1-6.2,28-23.1c0-0.1-0.1-0.2-0.3-0.2c-0.1,0-0.2,0.1-0.2,0.2
					c-0.9,9.7-7.7,16.1-17.9,17.1c5.4-2.1,11-7,11.6-15.5c0-0.1-0.1-0.2-0.2-0.3c-0.1,0-0.2,0-0.3,0.1c-2.8,6.2-8.3,9.3-14.2,9.8
					c6.3-2.6,10.4-8.6,11.6-16.4c0-0.1-0.1-0.2-0.2-0.3c-0.1,0-0.2,0-0.3,0.1c-3.9,7.6-12.2,12.8-22.4,8.8
					c-10.6-4.1-15.3-16.4-16.3-25c0-0.1-0.1-0.2-0.2-0.2c-0.1,0-0.2,0.1-0.3,0.2c-3.7,15.7,3.6,31.9,16.6,38.8
					c-7.1-2-13.4-6.3-17-13.4c-8.3-1-14-3.9-16.9-9.2c-0.1-0.1-0.2-0.2-0.3-0.1c-0.1,0-0.2,0.1-0.2,0.3c0.2,2.1,0.9,6.3,4.1,8.3
					c-7,0-12.5,0.9-17.8,3C135.1-57.2,135-57,135-56.9z M164.5-110.4c-0.1,0.1-0.2,0.1-0.3,0s-0.1-0.2,0-0.3
					c1.6-2.8,0.1-6.8-3.1-6.8c-5.7,0-8.5,10.8-7.6,20.6c2.2-5.8,4-8.1,7.3-10.8c0.1-0.1,0.2-0.1,0.3,0s0.1,0.2,0.1,0.3
					c-4.9,9.1-5.9,16.1-5.9,24.1c1.5-6,3.2-9.3,8.1-14.4c0.1-0.1,0.2-0.1,0.3,0s0.1,0.2,0.1,0.3c-5.3,11.6-4.9,24.4-0.9,34.3
					c0,0.1,0,0.2-0.1,0.3s-0.2,0.1-0.3,0c-5.2-2.6-8.3-4.2-12.8-10.4c1.4-7.4,0.2-11-3.2-17.2c3.9,9.9,1.8,23.9-8.2,29.6
					c-0.1,0.1-0.2,0-0.3-0.1s-0.1-0.2,0-0.3c3.8-4,6.5-10.6,4.2-17.9c1.5,10.4-7.6,19.1-17.8,19.1c-9.6,0-16.2-7.5-15.6-14.9
					c0.5-7.4,5.4-11,9.7-12.5c0.1,0,0.2,0,0.3,0.1c0.1,0.1,0,0.2,0,0.3c-5.6,5.7-6.4,16.5,3.6,19.8c-5.9-5.1-3.7-16.8,5.7-17.7
					c0.1,0,0.2,0.1,0.3,0.2c0,0.1,0,0.2-0.1,0.3c-2,1.3-3.7,3.8-3.7,6.6c0,4.7,3.4,6.5,5.7,6.5c3.4,0,6.3-3.3,6.3-8.2
					c0-5.8-5.3-10.7-12-11.4c-6.6-0.7-12.8,2.2-15.8,6.5c-0.1,0.1-0.2,0.1-0.3,0.1c-0.1-0.1-0.2-0.2-0.1-0.3
					c3-11.7,16.8-16.9,26.9-9.5c-6.6-7.5-17-7.6-25.7,0.1c-0.1,0.1-0.2,0.1-0.3,0c-0.1-0.1-0.1-0.2-0.1-0.3
					c2.7-5.4,9.3-11.8,18.6-10.9c8.6,0.9,13.5,9,14.5,15.7c0.6-8.5-1.4-14.5-8.8-20.1c-0.1-0.1-0.1-0.2-0.1-0.3
					c0.1-0.1,0.2-0.2,0.3-0.1c6.8,2,12.2,5.4,15,12.5c0-6.2-2.1-12.4-7.5-16.5c-0.1-0.1-0.1-0.2-0.1-0.3s0.2-0.2,0.3-0.1
					c3.5,1,6.2,2.5,8.1,5.2c1.3-11.1,6.5-17.7,12.5-17.7c4.1,0,7.2,3,7.2,7.9C169.3-116.6,167.8-112.6,164.5-110.4z M263.7-18.8
					c-3.2,3.9-9.5,5.4-16.4,4c0.5,4.3-0.3,8.8-1.6,11.5c-0.1,0.1-0.2,0.2-0.3,0.1c-0.1,0-0.2-0.1-0.2-0.3
					c0.4-8.8-4.6-15.8-13.4-18.9c6.9,4.8,8.9,14.2,5.6,19.1c-0.1,0.1-0.2,0.1-0.3,0.1s-0.2-0.2-0.2-0.3c0.4-2.1-0.6-4.7-2.7-6.7
					c-2.9-2.8-6.8-3.5-8.8-1.4c-2,2-1.2,5.9,1.7,8.8c1.1,1,2.3,1.8,3.4,2.2c0.1,0,0.2,0.2,0.2,0.3s-0.1,0.2-0.2,0.2
					C224.1,0.5,219.7-3.4,217-8c-2.8-4.7-7.6-8.4-13.2-7.7c-0.1,0-0.2-0.1-0.3-0.2c0-0.1,0-0.2,0.1-0.3c2.8-1.7,5.9-2.4,9.9-1.1
					c-5.8-4.9-14-7.7-21.8-5.2c-0.1,0-0.2,0-0.3-0.1s-0.1-0.2,0-0.3c5.9-6.6,17.7-6.7,25.1-1.4c-3-4.3-7.1-7.5-14.3-8.5
					c-0.1,0-0.2-0.1-0.2-0.2c0-0.1,0.1-0.2,0.2-0.3c8.3-3.1,16.6,0,23.4,8.2c-3-6.4-7.9-11.5-14.8-14c-0.1,0-0.2-0.2-0.2-0.3
					s0.1-0.2,0.2-0.2c3.9-0.1,7.5,0.9,12.3,3.6c-3.5-5.7-2.7-15.6,2.4-22.3c0.1-0.1,0.2-0.1,0.3-0.1s0.2,0.2,0.1,0.3
					c-1.2,7.2,1.3,15.3,5.6,19.6c-2.2-7.6,0-14.6,5.9-19.6c0.1-0.1,0.2-0.1,0.3,0c0.1,0,0.1,0.1,0.2,0.2c1.2,9.4,11.8,19,20.6,19.8
					c0.1,0,0.2,0.1,0.2,0.2c0,0.1-0.1,0.2-0.2,0.3c-4.3,1-8.7,0.5-12.4-1c2.7,2.9,5.9,5.1,9.6,6.2c0.1,0,0.2,0.2,0.2,0.3
					c0,0.1-0.1,0.2-0.2,0.2c-4.5,0.3-8.9-1-12.7-3.5c4.4,6.6,11,11.5,19.4,13.5c0.1,0,0.2,0.1,0.2,0.3c0,0.1-0.1,0.2-0.2,0.2
					c-11.9,1.3-21.7-3.3-28.2-11.9c1.6,4.9,6.4,9.8,12.9,12.6c5.8,2.5,11.8,2.9,16.4,1.5c0.1,0,0.2,0,0.3,0.1
					C263.8-19,263.8-18.9,263.7-18.8z M210.8-94.3c4.8,10.5,4.5,18.7,0.6,29.1c0,0.1-0.2,0.2-0.3,0.2s-0.2-0.1-0.2-0.3
					c0.6-12.6-2.8-21.7-10.3-27.8c8.3,9.9,4.4,29.6-8.8,29.6c-9.6,0-17.5-8-19.5-17.5c0-0.1,0-0.2,0.2-0.3c0.1,0,0.2,0,0.3,0.1
					c2.8,4.8,7.4,7.9,12.5,7.9c8.1,0,10.5-6.5,10.5-11c0-6.2-4.9-11.3-8.7-11.3c-3.4,0-5,2.8-5,4.9c0,3.9,3,7.2,6.4,8.2
					c0.1,0,0.2,0.2,0.2,0.3s-0.1,0.2-0.3,0.2c-4.1,0-7.6-1.9-9.6-5.6c-0.3,2.9-0.3,4.7,0.6,7.7c0,0.1,0,0.2-0.1,0.3s-0.2,0-0.3-0.1
					c-7.4-9.4-3.8-25.6,2-32.4c-5.5,4-10.4,12.6-10.3,24.4c0,0.1-0.1,0.2-0.2,0.3c-0.1,0-0.2,0-0.3-0.2c-4.1-10.3-1.9-29.2,9.3-39.9
					c-2.9-0.4-5.9-0.3-9.1,0.7c-0.1,0-0.2,0-0.3-0.1s0-0.2,0.1-0.3c4.1-3.5,9.8-4.5,15.3-4.5c-4.7,5.5-3.1,16.6,4.4,16.6
					c5.3,0,7.8-8.3,3.6-12.8c-0.1-0.1-0.1-0.2,0-0.3c0.1-0.1,0.2-0.1,0.3-0.1c4.8,1.7,9.9,5.8,9.9,11c0,5-4.8,9.4-11.8,9.1
					c8.8,2.5,18.1-0.3,22.9-6.3c0.1-0.1,0.2-0.1,0.3-0.1c0.1,0.1,0.2,0.2,0.1,0.3c-2.8,10.7-12,15.2-23.4,13.7
					c9.3,3.8,23.3,0.5,29.4-7.3c0.1-0.1,0.2-0.1,0.3-0.1c0.1,0.1,0.2,0.2,0.1,0.3C220.1-101.2,216.6-96.3,210.8-94.3z"/>
				<path class="st2" d="M237.2-75c0-0.1-0.1-0.2-0.2-0.2c-12.9-0.1-24.8-3.3-34-11.5c8,5.6,22.9,7.5,31.5,3.6
					c0.1-0.1,0.2-0.2,0.1-0.3c0-0.1-0.1-0.2-0.3-0.2c-10.7,0.3-19.3-3-26-9c6.9-0.4,12.6-4.7,12.6-9.8c0-0.1-0.1-0.2-0.2-0.2
					c-0.1,0-0.2,0-0.3,0.1c-1.1,2.5-4.7,3.8-8.6,2.9c-4.2-1-7-4.2-6.3-7.2c0.5-2,2.4-3.4,5-3.8c0.1,0,0.2-0.1,0.2-0.3
					c0-0.1-0.1-0.2-0.2-0.2c-1.1-0.1-2.2-0.1-3.3,0c-6.5,0.6-11.5,4.6-11.9,9.2c-4.7-0.5-8.9-3.2-10.4-6.8c0-0.1-0.2-0.2-0.3-0.2
					s-0.2,0.1-0.2,0.2c-0.4,4.8,1.3,7.8,5,10.9c-5.4-2.1-11.4-2.2-17.3,0.5c-0.1,0.1-0.2,0.2-0.1,0.3c0,0.1,0.1,0.2,0.2,0.2
					c4.9,0.2,8.4,1.8,11.7,5.1c-18.3-5.1-33.1,6.2-28,23.1c0,0.1,0.1,0.2,0.3,0.2c0.1,0,0.2-0.1,0.2-0.2c0.9-9.7,7.7-16.1,17.9-17.1
					c-5.4,2.1-11,7-11.6,15.5c0,0.1,0.1,0.2,0.2,0.3c0.1,0,0.2,0,0.3-0.1c2.8-6.2,8.3-9.3,14.2-9.8c-6.3,2.6-10.4,8.6-11.6,16.4
					c0,0.1,0.1,0.2,0.2,0.3c0.1,0,0.2,0,0.3-0.1c3.9-7.6,12.2-12.8,22.4-8.8c10.6,4.1,15.3,16.4,16.3,25c0,0.1,0.1,0.2,0.2,0.2
					c0.1,0,0.2-0.1,0.3-0.2c3.7-15.7-3.6-31.9-16.6-38.8c7.1,2,13.4,6.3,17,13.4c8.3,1,14,3.9,16.9,9.2c0.1,0.1,0.2,0.2,0.3,0.1
					c0.1,0,0.2-0.1,0.2-0.3c-0.2-2.1-0.9-6.3-4.1-8.3c7,0,12.5-0.9,17.8-3C237.2-74.8,237.2-74.9,237.2-75z M207.7-21.6
					c0.1-0.1,0.2-0.1,0.3,0s0.1,0.2,0,0.3c-1.6,2.8-0.1,6.8,3.1,6.8c5.7,0,8.5-10.8,7.6-20.6c-2.2,5.8-4,8.1-7.3,10.8
					c-0.1,0.1-0.2,0.1-0.3,0s-0.1-0.2-0.1-0.3c4.9-9.1,5.9-16.1,5.9-24.1c-1.5,6-3.2,9.3-8.1,14.4c-0.1,0.1-0.2,0.1-0.3,0
					s-0.1-0.2-0.1-0.3c5.3-11.6,4.9-24.4,0.9-34.3c0-0.1,0-0.2,0.1-0.3s0.2-0.1,0.3,0c5.2,2.6,8.3,4.2,12.8,10.4
					c-1.4,7.4-0.2,11,3.2,17.2c-3.9-9.9-1.8-23.9,8.2-29.6c0.1-0.1,0.2,0,0.3,0.1s0.1,0.2,0,0.3c-3.8,4-6.5,10.6-4.2,17.9
					c-1.5-10.4,7.6-19.1,17.8-19.1c9.6,0,16.2,7.5,15.6,14.9c-0.5,7.4-5.4,11-9.7,12.5c-0.1,0-0.2,0-0.3-0.1s-0.1-0.2,0-0.3
					c5.6-5.7,6.4-16.5-3.6-19.8c5.9,5.1,3.7,16.8-5.7,17.7c-0.1,0-0.2-0.1-0.3-0.2c0-0.1,0-0.2,0.1-0.3c2-1.3,3.7-3.8,3.7-6.6
					c0-4.7-3.4-6.5-5.7-6.5c-3.4,0-6.3,3.3-6.3,8.2c0,5.8,5.3,10.7,12,11.4c6.6,0.7,12.8-2.2,15.7-6.5c0.1-0.1,0.2-0.1,0.3-0.1
					c0.1,0.1,0.2,0.2,0.1,0.3c-3,11.7-16.8,16.9-26.9,9.5c6.6,7.5,17,7.6,25.7-0.1c0.1-0.1,0.2-0.1,0.3,0c0.1,0.1,0.1,0.2,0.1,0.3
					c-2.7,5.4-9.3,11.8-18.6,10.9c-8.6-0.9-13.5-9-14.5-15.7c-0.6,8.5,1.4,14.5,8.8,20.1c0.1,0.1,0.1,0.2,0.1,0.3s-0.2,0.2-0.3,0.1
					c-6.8-2-12.2-5.4-15-12.5c0,6.2,2.1,12.4,7.5,16.5c0.1,0.1,0.1,0.2,0.1,0.3c-0.1,0.1-0.2,0.2-0.3,0.1c-3.5-1-6.2-2.5-8.1-5.2
					c-1.3,11.1-6.5,17.7-12.5,17.7c-4.1,0-7.2-3-7.2-7.9C202.9-15.4,204.4-19.4,207.7-21.6z M108.5-113.2c3.2-3.9,9.5-5.4,16.4-4
					c-0.5-4.3,0.3-8.8,1.6-11.5c0.1-0.1,0.2-0.2,0.3-0.1c0.1,0,0.2,0.1,0.2,0.3c-0.4,8.8,4.6,15.8,13.4,18.9
					c-6.9-4.8-8.9-14.2-5.6-19.1c0.1-0.1,0.2-0.1,0.3-0.1s0.2,0.2,0.2,0.3c-0.4,2.1,0.6,4.7,2.7,6.7c2.9,2.8,6.8,3.5,8.8,1.4
					c2-2,1.2-5.9-1.7-8.8c-1.1-1-2.3-1.8-3.4-2.2c-0.1,0-0.2-0.2-0.2-0.3c0-0.1,0.1-0.2,0.2-0.2c6.4-0.6,10.8,3.3,13.5,7.9
					c2.8,4.7,7.6,8.4,13.2,7.7c0.1,0,0.2,0.1,0.3,0.2c0,0.1,0,0.2-0.1,0.3c-2.8,1.7-5.9,2.4-9.9,1.1c5.8,4.9,14,7.7,21.8,5.2
					c0.1,0,0.2,0,0.3,0.1s0.1,0.2,0,0.3c-5.9,6.6-17.7,6.7-25.1,1.4c3,4.3,7.1,7.5,14.3,8.5c0.1,0,0.2,0.1,0.2,0.2
					c0,0.1-0.1,0.2-0.2,0.3c-8.3,3.1-16.6,0-23.4-8.2c3,6.4,7.9,11.5,14.8,14c0.1,0,0.2,0.2,0.2,0.3s-0.1,0.2-0.2,0.2
					c-3.9,0.1-7.5-0.9-12.3-3.6c3.5,5.7,2.7,15.6-2.4,22.3c-0.1,0.1-0.2,0.1-0.3,0.1s-0.2-0.2-0.1-0.3c1.2-7.2-1.3-15.3-5.6-19.6
					c2.2,7.6,0,14.6-5.9,19.6c-0.1,0.1-0.2,0.1-0.3,0c-0.1,0-0.1-0.1-0.2-0.2c-1.2-9.4-11.8-19-20.6-19.8c-0.1,0-0.2-0.1-0.2-0.2
					c0-0.1,0.1-0.2,0.2-0.3c4.3-1,8.7-0.5,12.4,1c-2.7-2.9-5.9-5.1-9.6-6.2c-0.1,0-0.2-0.2-0.2-0.3s0.1-0.2,0.2-0.2
					c4.5-0.3,8.9,1,12.7,3.5c-4.4-6.6-11-11.5-19.4-13.5c-0.1,0-0.2-0.1-0.2-0.3c0-0.1,0.1-0.2,0.2-0.2c11.9-1.3,21.7,3.3,28.2,11.9
					c-1.6-4.9-6.4-9.8-12.9-12.6c-5.8-2.5-11.8-2.9-16.4-1.5c-0.1,0-0.2,0-0.3-0.1C108.4-113,108.4-113.1,108.5-113.2z M161.4-37.6
					c-4.8-10.5-4.5-18.7-0.6-29.1c0-0.1,0.2-0.2,0.3-0.2s0.2,0.1,0.2,0.3c-0.6,12.6,2.8,21.7,10.3,27.8c-8.3-9.9-4.4-29.6,8.8-29.6
					c9.6,0,17.5,8,19.5,17.5c0,0.1,0,0.2-0.2,0.3c-0.1,0-0.2,0-0.3-0.1c-2.8-4.8-7.4-7.9-12.5-7.9c-8.1,0-10.5,6.5-10.5,11
					c0,6.2,4.9,11.3,8.7,11.3c3.4,0,5-2.8,5-4.9c0-3.9-3-7.2-6.4-8.2c-0.1,0-0.2-0.2-0.2-0.3s0.1-0.2,0.3-0.2c4.1,0,7.6,1.9,9.6,5.6
					c0.3-2.9,0.3-4.7-0.6-7.7c0-0.1,0-0.2,0.1-0.3s0.2,0,0.3,0.1c7.4,9.4,3.8,25.6-2,32.4c5.5-4,10.4-12.6,10.3-24.4
					c0-0.1,0.1-0.2,0.2-0.3c0.1,0,0.2,0,0.3,0.2c4.1,10.3,1.9,29.2-9.3,39.9c2.9,0.4,5.9,0.3,9.1-0.7c0.1,0,0.2,0,0.3,0.1
					s0,0.2-0.1,0.3c-4.1,3.5-9.8,4.5-15.3,4.5c4.7-5.5,3.1-16.6-4.4-16.6c-5.3,0-7.8,8.3-3.6,12.8c0.1,0.1,0.1,0.2,0,0.3
					s-0.2,0.1-0.3,0.1c-4.8-1.7-9.9-5.8-9.9-11c0-5,4.8-9.4,11.8-9.1c-8.8-2.5-18.1,0.3-22.9,6.3c-0.1,0.1-0.2,0.1-0.3,0.1
					c-0.1-0.1-0.2-0.2-0.1-0.3c2.8-10.7,12-15.2,23.4-13.7c-9.3-3.8-23.3-0.5-29.4,7.3c-0.1,0.1-0.2,0.1-0.3,0.1s-0.2-0.2-0.1-0.3
					C152.2-30.7,155.7-35.7,161.4-37.6z"/>
			</g>
			<g>
				<path class="st1" d="M26.7-56.9c0,0.1,0.1,0.2,0.2,0.2c12.9,0.1,24.8,3.3,34,11.5c-8-5.6-22.9-7.5-31.5-3.6
					c-0.1,0-0.2,0.2-0.1,0.3c0,0.1,0.1,0.2,0.3,0.2c10.7-0.3,19.3,3,26,9C48.7-38.9,43-34.6,43-29.5c0,0.1,0.1,0.2,0.2,0.2
					c0.1,0,0.2,0,0.3-0.1c1.1-2.5,4.7-3.8,8.6-2.9c4.2,1,7,4.2,6.3,7.2c-0.5,2-2.4,3.4-5,3.8c-0.1,0-0.2,0.1-0.2,0.3
					c0,0.1,0.1,0.2,0.2,0.2c1.1,0.1,2.2,0.1,3.3,0c6.5-0.6,11.5-4.6,11.9-9.2c4.7,0.5,8.9,3.2,10.4,6.8c0,0.1,0.2,0.2,0.3,0.2
					c0.1,0,0.2-0.1,0.2-0.2c0.4-4.8-1.3-7.8-5-10.9c5.4,2.1,11.4,2.2,17.3-0.5c0.1,0,0.2-0.2,0.1-0.3c0-0.1-0.1-0.2-0.2-0.2
					c-4.9-0.2-8.4-1.8-11.7-5.1c18.3,5.1,33.1-6.2,28-23.1c0-0.1-0.1-0.2-0.3-0.2c-0.1,0-0.2,0.1-0.2,0.2
					c-0.9,9.7-7.7,16.1-17.9,17.1c5.4-2.1,11-7,11.6-15.5c0-0.1-0.1-0.2-0.2-0.3c-0.1,0-0.2,0-0.3,0.1c-2.8,6.2-8.3,9.3-14.2,9.8
					c6.3-2.6,10.4-8.6,11.6-16.4c0-0.1-0.1-0.2-0.2-0.3c-0.1,0-0.2,0-0.3,0.1c-3.9,7.6-12.2,12.8-22.4,8.8
					c-10.6-4.1-15.3-16.4-16.3-25c0-0.1-0.1-0.2-0.2-0.2c-0.1,0-0.2,0.1-0.3,0.2C54.7-69.2,62-53,75-46.1c-7.1-2-13.4-6.3-17-13.4
					c-8.3-1-14-3.9-16.9-9.2c-0.1-0.1-0.2-0.2-0.3-0.1c-0.1,0-0.2,0.1-0.2,0.3c0.2,2.1,0.9,6.3,4.1,8.3c-7,0-12.5,0.9-17.8,3
					C26.7-57.2,26.7-57,26.7-56.9z M56.2-110.4c-0.1,0.1-0.2,0.1-0.3,0s-0.1-0.2,0-0.3c1.6-2.8,0.1-6.8-3.1-6.8
					c-5.7,0-8.5,10.8-7.6,20.6c2.2-5.8,4-8.1,7.3-10.8c0.1-0.1,0.2-0.1,0.3,0s0.1,0.2,0.1,0.3C48-98.3,47-91.3,47-83.3
					c1.5-6,3.2-9.3,8.1-14.4c0.1-0.1,0.2-0.1,0.3,0s0.1,0.2,0.1,0.3c-5.3,11.6-4.9,24.4-0.9,34.3c0,0.1,0,0.2-0.1,0.3
					s-0.2,0.1-0.3,0C49-65.4,45.9-67,41.4-73.2c1.4-7.4,0.2-11-3.2-17.2c3.9,9.9,1.8,23.9-8.2,29.6c-0.1,0.1-0.2,0-0.3-0.1
					c-0.1-0.1-0.1-0.2,0-0.3c3.8-4,6.5-10.6,4.2-17.9C35.4-68.7,26.3-60,16.1-60C6.5-60-0.1-67.5,0.5-74.9c0.5-7.4,5.4-11,9.7-12.5
					c0.1,0,0.2,0,0.3,0.1s0,0.2,0,0.3c-5.6,5.7-6.4,16.5,3.6,19.8c-5.9-5.1-3.7-16.8,5.7-17.7c0.1,0,0.2,0.1,0.3,0.2
					c0,0.1,0,0.2-0.1,0.3c-2,1.3-3.7,3.8-3.7,6.6c0,4.7,3.4,6.5,5.7,6.5c3.4,0,6.3-3.3,6.3-8.2c0-5.8-5.3-10.7-12-11.4
					c-6.6-0.7-12.8,2.2-15.7,6.5c-0.1,0.1-0.2,0.1-0.3,0.1C0-84.6,0-84.7,0-84.8c3-11.7,16.8-16.9,26.9-9.5
					c-6.6-7.5-17-7.6-25.7,0.1c-0.1,0.1-0.2,0.1-0.3,0s-0.1-0.2-0.1-0.3c2.7-5.4,9.3-11.8,18.6-10.9c8.6,0.9,13.5,9,14.5,15.7
					c0.6-8.5-1.4-14.5-8.8-20.1c-0.1-0.1-0.1-0.2-0.1-0.3c0.1-0.1,0.2-0.2,0.3-0.1c6.8,2,12.2,5.4,15,12.5c0-6.2-2.1-12.4-7.5-16.5
					c-0.1-0.1-0.1-0.2-0.1-0.3c0.1-0.1,0.2-0.2,0.3-0.1c3.5,1,6.2,2.5,8.1,5.2c1.3-11.1,6.5-17.7,12.5-17.7c4.1,0,7.2,3,7.2,7.9
					C61-116.6,59.5-112.6,56.2-110.4z M155.4-18.8c-3.2,3.9-9.5,5.4-16.4,4c0.5,4.3-0.3,8.8-1.6,11.5c-0.1,0.1-0.2,0.2-0.3,0.1
					c-0.1,0-0.2-0.1-0.2-0.3c0.4-8.8-4.6-15.8-13.4-18.9c6.9,4.8,8.9,14.2,5.6,19.1c-0.1,0.1-0.2,0.1-0.3,0.1s-0.2-0.2-0.2-0.3
					c0.4-2.1-0.6-4.7-2.7-6.7c-2.9-2.8-6.8-3.5-8.8-1.4c-2,2-1.2,5.9,1.7,8.8c1.1,1,2.3,1.8,3.4,2.2c0.1,0,0.2,0.2,0.2,0.3
					s-0.1,0.2-0.2,0.2c-6.4,0.6-10.8-3.3-13.5-7.9c-2.8-4.7-7.6-8.4-13.2-7.7c-0.1,0-0.2-0.1-0.3-0.2c0-0.1,0-0.2,0.1-0.3
					c2.8-1.7,5.9-2.4,9.9-1.1c-5.8-4.9-14-7.7-21.8-5.2c-0.1,0-0.2,0-0.3-0.1c-0.1-0.1-0.1-0.2,0-0.3c5.9-6.6,17.7-6.7,25.1-1.4
					c-3-4.3-7.1-7.5-14.3-8.5c-0.1,0-0.2-0.1-0.2-0.2c0-0.1,0.1-0.2,0.2-0.3c8.3-3.1,16.6,0,23.4,8.2c-3-6.4-7.9-11.5-14.8-14
					c-0.1,0-0.2-0.2-0.2-0.3s0.1-0.2,0.2-0.2c3.9-0.1,7.5,0.9,12.3,3.6c-3.5-5.7-2.7-15.6,2.4-22.3c0.1-0.1,0.2-0.1,0.3-0.1
					c0.1,0,0.2,0.2,0.1,0.3c-1.2,7.2,1.3,15.3,5.6,19.6c-2.2-7.6,0-14.6,5.9-19.6c0.1-0.1,0.2-0.1,0.3,0c0.1,0,0.1,0.1,0.2,0.2
					c1.2,9.4,11.8,19,20.6,19.8c0.1,0,0.2,0.1,0.2,0.2c0,0.1-0.1,0.2-0.2,0.3c-4.3,1-8.7,0.5-12.4-1c2.7,2.9,5.9,5.1,9.6,6.2
					c0.1,0,0.2,0.2,0.2,0.3c0,0.1-0.1,0.2-0.2,0.2c-4.5,0.3-8.9-1-12.7-3.5c4.4,6.6,11,11.5,19.4,13.5c0.1,0,0.2,0.1,0.2,0.3
					c0,0.1-0.1,0.2-0.2,0.2c-11.9,1.3-21.7-3.3-28.2-11.9c1.6,4.9,6.4,9.8,12.9,12.6c5.8,2.5,11.8,2.9,16.4,1.5c0.1,0,0.2,0,0.3,0.1
					C155.5-19,155.5-18.9,155.4-18.8z M102.5-94.3c4.8,10.5,4.5,18.7,0.6,29.1c0,0.1-0.2,0.2-0.3,0.2c-0.1,0-0.2-0.1-0.2-0.3
					c0.6-12.6-2.8-21.7-10.3-27.8c8.2,9.9,4.4,29.6-8.8,29.6c-9.6,0-17.5-8-19.5-17.5c0-0.1,0-0.2,0.2-0.3c0.1,0,0.2,0,0.3,0.1
					c2.8,4.8,7.4,7.9,12.5,7.9c8.1,0,10.5-6.5,10.5-11c0-6.2-4.9-11.3-8.7-11.3c-3.4,0-5,2.8-5,4.9c0,3.9,3,7.2,6.4,8.2
					c0.1,0,0.2,0.2,0.2,0.3S80.3-82,80.1-82c-4.1,0-7.6-1.9-9.6-5.6c-0.3,2.9-0.3,4.7,0.6,7.7c0,0.1,0,0.2-0.1,0.3s-0.2,0-0.3-0.1
					c-7.4-9.4-3.8-25.6,2-32.4c-5.5,4-10.4,12.6-10.3,24.4c0,0.1-0.1,0.2-0.2,0.3c-0.1,0-0.2,0-0.3-0.2c-4.1-10.3-1.9-29.2,9.3-39.9
					c-2.9-0.4-5.9-0.3-9.1,0.7c-0.1,0-0.2,0-0.3-0.1s0-0.2,0.1-0.3c4.1-3.5,9.8-4.5,15.3-4.5c-4.7,5.5-3.1,16.6,4.4,16.6
					c5.3,0,7.8-8.3,3.6-12.8c-0.1-0.1-0.1-0.2,0-0.3c0.1-0.1,0.2-0.1,0.3-0.1c4.8,1.7,9.9,5.8,9.9,11c0,5-4.8,9.4-11.8,9.1
					c8.8,2.5,18.1-0.3,22.9-6.3c0.1-0.1,0.2-0.1,0.3-0.1c0.1,0.1,0.2,0.2,0.1,0.3c-2.8,10.7-12,15.2-23.4,13.7
					c9.3,3.8,23.3,0.5,29.4-7.3c0.1-0.1,0.2-0.1,0.3-0.1c0.1,0.1,0.2,0.2,0.1,0.3C111.8-101.2,108.3-96.3,102.5-94.3z"/>
				<path class="st2" d="M128.9-75c0-0.1-0.1-0.2-0.2-0.2c-12.9-0.1-24.8-3.3-34-11.5c8,5.6,22.9,7.5,31.5,3.6
					c0.1-0.1,0.2-0.2,0.1-0.3c0-0.1-0.1-0.2-0.3-0.2c-10.7,0.3-19.3-3-26-9c6.9-0.4,12.6-4.7,12.6-9.8c0-0.1-0.1-0.2-0.2-0.2
					s-0.2,0-0.3,0.1c-1.1,2.5-4.7,3.8-8.6,2.9c-4.2-1-7-4.2-6.3-7.2c0.5-2,2.4-3.4,5-3.8c0.1,0,0.2-0.1,0.2-0.3
					c0-0.1-0.1-0.2-0.2-0.2c-1.1-0.1-2.2-0.1-3.3,0c-6.5,0.6-11.5,4.6-11.9,9.2c-4.7-0.5-8.9-3.2-10.4-6.8c0-0.1-0.2-0.2-0.3-0.2
					c-0.1,0-0.2,0.1-0.2,0.2c-0.4,4.8,1.3,7.8,5,10.9c-5.4-2.1-11.4-2.2-17.3,0.5c-0.1,0.1-0.2,0.2-0.1,0.3c0,0.1,0.1,0.2,0.2,0.2
					c4.9,0.2,8.4,1.8,11.7,5.1c-18.3-5.1-33.1,6.2-28,23.1c0,0.1,0.1,0.2,0.3,0.2c0.1,0,0.2-0.1,0.2-0.2C49-78.3,55.8-84.7,66-85.7
					c-5.4,2.1-11,7-11.6,15.5c0,0.1,0.1,0.2,0.2,0.3c0.1,0,0.2,0,0.3-0.1c2.8-6.2,8.3-9.3,14.2-9.8c-6.3,2.6-10.4,8.6-11.6,16.4
					c0,0.1,0.1,0.2,0.2,0.3c0.1,0,0.2,0,0.3-0.1C61.9-70.8,70.2-76,80.4-72C91-67.9,95.7-55.6,96.7-47c0,0.1,0.1,0.2,0.2,0.2
					s0.2-0.1,0.3-0.2c3.7-15.7-3.6-31.9-16.6-38.8c7.1,2,13.4,6.3,17,13.4c8.3,1,14,3.9,16.9,9.2c0.1,0.1,0.2,0.2,0.3,0.1
					c0.1,0,0.2-0.1,0.2-0.3c-0.2-2.1-0.9-6.3-4.1-8.3c7,0,12.5-0.9,17.8-3C128.8-74.8,128.9-74.9,128.9-75z M99.4-21.6
					c0.1-0.1,0.2-0.1,0.3,0c0.1,0.1,0.1,0.2,0,0.3c-1.6,2.8-0.1,6.8,3.1,6.8c5.7,0,8.5-10.8,7.6-20.6c-2.2,5.8-4,8.1-7.3,10.8
					c-0.1,0.1-0.2,0.1-0.3,0c-0.1-0.1-0.1-0.2-0.1-0.3c4.9-9.1,5.9-16.1,5.9-24.1c-1.5,6-3.2,9.3-8.1,14.4c-0.1,0.1-0.2,0.1-0.3,0
					c-0.1-0.1-0.1-0.2-0.1-0.3c5.3-11.6,4.9-24.4,0.9-34.3c0-0.1,0-0.2,0.1-0.3s0.2-0.1,0.3,0c5.2,2.6,8.3,4.2,12.8,10.4
					c-1.4,7.4-0.2,11,3.2,17.2c-3.9-9.9-1.8-23.9,8.2-29.6c0.1-0.1,0.2,0,0.3,0.1c0.1,0.1,0.1,0.2,0,0.3c-3.8,4-6.5,10.6-4.2,17.9
					c-1.5-10.4,7.6-19.1,17.8-19.1c9.6,0,16.2,7.5,15.6,14.9c-0.5,7.4-5.4,11-9.7,12.5c-0.1,0-0.2,0-0.3-0.1s-0.1-0.2,0-0.3
					c5.6-5.7,6.4-16.5-3.6-19.8c5.9,5.1,3.7,16.8-5.7,17.7c-0.1,0-0.2-0.1-0.3-0.2c0-0.1,0-0.2,0.1-0.3c2-1.3,3.7-3.8,3.7-6.6
					c0-4.7-3.4-6.5-5.7-6.5c-3.4,0-6.3,3.3-6.3,8.2c0,5.8,5.3,10.7,12,11.4c6.6,0.7,12.8-2.2,15.8-6.5c0.1-0.1,0.2-0.1,0.3-0.1
					c0.1,0.1,0.2,0.2,0.1,0.3c-3,11.7-16.8,16.9-26.9,9.5c6.6,7.5,17,7.6,25.7-0.1c0.1-0.1,0.2-0.1,0.3,0s0.1,0.2,0.1,0.3
					c-2.7,5.4-9.3,11.8-18.6,10.9c-8.6-0.9-13.5-9-14.5-15.7C121-34,123-28,130.4-22.4c0.1,0.1,0.1,0.2,0.1,0.3s-0.2,0.2-0.3,0.1
					c-6.8-2-12.2-5.4-15-12.5c0,6.2,2.1,12.4,7.5,16.5c0.1,0.1,0.1,0.2,0.1,0.3c-0.1,0.1-0.2,0.2-0.3,0.1c-3.5-1-6.2-2.5-8.1-5.2
					c-1.3,11.1-6.5,17.7-12.5,17.7c-4.1,0-7.2-3-7.2-7.9C94.6-15.4,96.1-19.4,99.4-21.6z M0.2-113.2c3.2-3.9,9.5-5.4,16.4-4
					c-0.5-4.3,0.3-8.8,1.6-11.5c0.1-0.1,0.2-0.2,0.3-0.1c0.1,0,0.2,0.1,0.2,0.3c-0.4,8.8,4.6,15.8,13.4,18.9
					c-6.9-4.8-8.9-14.2-5.6-19.1c0.1-0.1,0.2-0.1,0.3-0.1c0.1,0,0.2,0.2,0.2,0.3c-0.4,2.1,0.6,4.7,2.7,6.7c2.9,2.8,6.8,3.5,8.8,1.4
					c2-2,1.2-5.9-1.7-8.8c-1.1-1-2.3-1.8-3.4-2.2c-0.1,0-0.2-0.2-0.2-0.3c0-0.1,0.1-0.2,0.2-0.2c6.4-0.6,10.8,3.3,13.5,7.9
					c2.8,4.7,7.6,8.4,13.2,7.7c0.1,0,0.2,0.1,0.3,0.2c0,0.1,0,0.2-0.1,0.3c-2.8,1.7-5.9,2.4-9.9,1.1c5.8,4.9,14,7.7,21.8,5.2
					c0.1,0,0.2,0,0.3,0.1c0.1,0.1,0.1,0.2,0,0.3c-5.9,6.6-17.7,6.7-25.1,1.4c3,4.3,7.1,7.5,14.3,8.5c0.1,0,0.2,0.1,0.2,0.2
					c0,0.1-0.1,0.2-0.2,0.3c-8.3,3.1-16.6,0-23.4-8.2c3,6.4,7.9,11.5,14.8,14c0.1,0,0.2,0.2,0.2,0.3s-0.1,0.2-0.2,0.2
					c-3.9,0.1-7.5-0.9-12.3-3.6c3.5,5.7,2.7,15.6-2.4,22.3c-0.1,0.1-0.2,0.1-0.3,0.1s-0.2-0.2-0.1-0.3c1.2-7.2-1.3-15.3-5.6-19.6
					c2.2,7.6,0,14.6-5.9,19.6c-0.1,0.1-0.2,0.1-0.3,0c-0.1,0-0.1-0.1-0.2-0.2c-1.2-9.4-11.8-19-20.6-19.8c-0.1,0-0.2-0.1-0.2-0.2
					c0-0.1,0.1-0.2,0.2-0.3c4.3-1,8.7-0.5,12.4,1c-2.7-2.9-5.9-5.1-9.6-6.2c-0.1,0-0.2-0.2-0.2-0.3s0.1-0.2,0.2-0.2
					c4.5-0.3,8.9,1,12.7,3.5c-4.4-6.6-11-11.5-19.4-13.5c-0.1,0-0.2-0.1-0.2-0.3c0-0.1,0.1-0.2,0.2-0.2c11.9-1.3,21.7,3.3,28.2,11.9
					c-1.6-4.9-6.4-9.8-12.9-12.6c-5.8-2.5-11.8-2.9-16.4-1.5c-0.1,0-0.2,0-0.3-0.1C0.1-113,0.1-113.1,0.2-113.2z M53.1-37.6
					c-4.8-10.5-4.5-18.7-0.6-29.1c0-0.1,0.2-0.2,0.3-0.2s0.2,0.1,0.2,0.3C52.4-54,55.8-44.9,63.3-38.8c-8.3-9.9-4.4-29.6,8.8-29.6
					c9.6,0,17.5,8,19.5,17.5c0,0.1,0,0.2-0.2,0.3c-0.1,0-0.2,0-0.3-0.1c-2.8-4.8-7.4-7.9-12.5-7.9c-8.1,0-10.5,6.5-10.5,11
					c0,6.2,4.9,11.3,8.7,11.3c3.4,0,5-2.8,5-4.9c0-3.9-3-7.2-6.4-8.2c-0.1,0-0.2-0.2-0.2-0.3s0.1-0.2,0.3-0.2c4.1,0,7.6,1.9,9.6,5.6
					c0.3-2.9,0.3-4.7-0.6-7.7c0-0.1,0-0.2,0.1-0.3s0.2,0,0.3,0.1c7.4,9.4,3.8,25.6-2,32.4c5.5-4,10.4-12.6,10.3-24.4
					c0-0.1,0.1-0.2,0.2-0.3c0.1,0,0.2,0,0.3,0.2c4.1,10.3,1.9,29.2-9.3,39.9c2.9,0.4,5.9,0.3,9.1-0.7c0.1,0,0.2,0,0.3,0.1
					c0.1,0.1,0,0.2-0.1,0.3c-4.1,3.5-9.8,4.5-15.3,4.5c4.7-5.5,3.1-16.6-4.4-16.6c-5.3,0-7.8,8.3-3.6,12.8c0.1,0.1,0.1,0.2,0,0.3
					s-0.2,0.1-0.3,0.1c-4.8-1.7-9.9-5.8-9.9-11c0-5,4.8-9.4,11.8-9.1c-8.8-2.5-18.1,0.3-22.9,6.3c-0.1,0.1-0.2,0.1-0.3,0.1
					c-0.1-0.1-0.2-0.2-0.1-0.3c2.8-10.7,12-15.2,23.4-13.7c-9.3-3.8-23.3-0.5-29.4,7.3c-0.1,0.1-0.2,0.1-0.3,0.1s-0.2-0.2-0.1-0.3
					C43.8-30.7,47.3-35.7,53.1-37.6z"/>
			</g>
		</g>
	</g>
</pattern>
<radialGradient id="SVGID_1_" cx="545.9501" cy="334.2024" r="84.0108" gradientTransform="matrix(1.0008 0 0 -0.7317 -45.6869 361.3359)" gradientUnits="userSpaceOnUse">
	<stop  offset="0" style="stop-color:#FFFFFF"/>
	<stop  offset="8.510865e-002" style="stop-color:#FFEDD8"/>
	<stop  offset="0.2082" style="stop-color:#FFD5A7"/>
	<stop  offset="0.3345" style="stop-color:#FFC17D"/>
	<stop  offset="0.462" style="stop-color:#FFB05B"/>
	<stop  offset="0.591" style="stop-color:#FFA340"/>
	<stop  offset="0.7222" style="stop-color:#FF9A2D"/>
	<stop  offset="0.8568" style="stop-color:#FF9522"/>
	<stop  offset="1" style="stop-color:#FF931E"/>
</radialGradient>
<ellipse class="st3" cx="500.7" cy="116.8" rx="90.6" ry="56.3"/>
<ellipse class="st4" cx="462.4" cy="98.8" rx="18.5" ry="11.3"/>
<ellipse class="st4" cx="548.4" cy="98.8" rx="18.5" ry="11.3"/>
<pattern  id="SVGID_3_" xlink:href="#SVGID_2_" patternTransform="matrix(1 0 0 -1 -47.6 -16778.8223)">
</pattern>
<ellipse class="st5" cx="500.7" cy="246.9" rx="79.7" ry="73.7"/>
<radialGradient id="SVGID_4_" cx="455.4575" cy="145.6689" r="44.2375" gradientTransform="matrix(1.0008 0 0 -0.7317 -45.6869 361.3359)" gradientUnits="userSpaceOnUse">
	<stop  offset="0" style="stop-color:#FFFFFF"/>
	<stop  offset="8.510865e-002" style="stop-color:#FFEDD8"/>
	<stop  offset="0.2082" style="stop-color:#FFD5A7"/>
	<stop  offset="0.3345" style="stop-color:#FFC17D"/>
	<stop  offset="0.462" style="stop-color:#FFB05B"/>
	<stop  offset="0.591" style="stop-color:#FFA340"/>
	<stop  offset="0.7222" style="stop-color:#FF9A2D"/>
	<stop  offset="0.8568" style="stop-color:#FF9522"/>
	<stop  offset="1" style="stop-color:#FF931E"/>
</radialGradient>
<path class="st6" d="M400.6,218v73.5c0,4.7,3.8,8.5,8.5,8.5h2c4.7,0,8.5-3.8,8.5-8.5V218c0-4.7-3.8-8.5-8.5-8.5h-2
	C404.4,209.5,400.6,213.4,400.6,218z"/>
<radialGradient id="SVGID_5_" cx="635.1242" cy="145.6689" r="44.2364" gradientTransform="matrix(1.0008 0 0 -0.7317 -45.6869 361.3359)" gradientUnits="userSpaceOnUse">
	<stop  offset="0" style="stop-color:#FFFFFF"/>
	<stop  offset="8.510865e-002" style="stop-color:#FFEDD8"/>
	<stop  offset="0.2082" style="stop-color:#FFD5A7"/>
	<stop  offset="0.3345" style="stop-color:#FFC17D"/>
	<stop  offset="0.462" style="stop-color:#FFB05B"/>
	<stop  offset="0.591" style="stop-color:#FFA340"/>
	<stop  offset="0.7222" style="stop-color:#FF9A2D"/>
	<stop  offset="0.8568" style="stop-color:#FF9522"/>
	<stop  offset="1" style="stop-color:#FF931E"/>
</radialGradient>
<path class="st7" d="M580.4,218v73.5c0,4.7,3.8,8.5,8.5,8.5h2c4.7,0,8.5-3.8,8.5-8.5V218c0-4.7-3.8-8.5-8.5-8.5h-2
	C584.2,209.5,580.4,213.4,580.4,218z"/>
<radialGradient id="SVGID_6_" cx="604.6032" cy="1.5524" r="51.7485" gradientTransform="matrix(1.0008 0 0 -0.7317 -45.6869 361.3359)" gradientUnits="userSpaceOnUse">
	<stop  offset="0" style="stop-color:#FFFFFF"/>
	<stop  offset="8.510865e-002" style="stop-color:#FFEDD8"/>
	<stop  offset="0.2082" style="stop-color:#FFD5A7"/>
	<stop  offset="0.3345" style="stop-color:#FFC17D"/>
	<stop  offset="0.462" style="stop-color:#FFB05B"/>
	<stop  offset="0.591" style="stop-color:#FFA340"/>
	<stop  offset="0.7222" style="stop-color:#FF9A2D"/>
	<stop  offset="0.8568" style="stop-color:#FF9522"/>
	<stop  offset="1" style="stop-color:#FF931E"/>
</radialGradient>
<path class="st8" d="M568.4,411.5h-18c-6.6,0-12-5.4-12-12v-78.6c0-6.6,5.4-12,12-12h18c6.6,0,12,5.4,12,12v78.6
	C580.4,406.1,575,411.5,568.4,411.5z"/>
<radialGradient id="SVGID_7_" cx="489.1514" cy="1.5524" r="51.7574" gradientTransform="matrix(1.0008 0 0 -0.7317 -45.6869 361.3359)" gradientUnits="userSpaceOnUse">
	<stop  offset="0" style="stop-color:#FFFFFF"/>
	<stop  offset="8.510865e-002" style="stop-color:#FFEDD8"/>
	<stop  offset="0.2082" style="stop-color:#FFD5A7"/>
	<stop  offset="0.3345" style="stop-color:#FFC17D"/>
	<stop  offset="0.462" style="stop-color:#FFB05B"/>
	<stop  offset="0.591" style="stop-color:#FFA340"/>
	<stop  offset="0.7222" style="stop-color:#FF9A2D"/>
	<stop  offset="0.8568" style="stop-color:#FF9522"/>
	<stop  offset="1" style="stop-color:#FF931E"/>
</radialGradient>
<path class="st9" d="M452.9,411.5h-18c-6.6,0-12-5.4-12-12v-78.6c0-6.6,5.4-12,12-12h18c6.6,0,12,5.4,12,12v78.6
	C464.9,406.1,459.5,411.5,452.9,411.5z"/>
<ellipse class="st10" cx="500.7" cy="154.7" rx="30.3" ry="7.9"/>
<ellipse class="st10" cx="500.4" cy="123.5" rx="7" ry="3.7"/>
<path class="st11" d="M988.8,500H12c-6.6,0-12-5.4-12-12v-64.5c0-6.6,5.4-12,12-12h976.8c6.6,0,12,5.4,12,12V488
	C1000.8,494.6,995.4,500,988.8,500z"/>
<rect class="st12" width="1000.8" height="46.5"/>
<ellipse class="st13" cx="549.2" cy="98.3" rx="5.3" ry="3.9"/>
<ellipse class="st14" cx="462.4" cy="98.8" rx="5.3" ry="3.9"/>
<ellipse class="st15" cx="935.7" cy="149.6" rx="64.2" ry="47"/>
<path class="st16" d="M95.1,411.5h-24c-6.6,0-12-5.4-12-12V208.6c0-6.6,5.4-12,12-12h24c6.6,0,12,5.4,12,12v190.9
	C107.1,406.1,101.7,411.5,95.1,411.5z"/>
<ellipse class="st15" cx="84" cy="149.6" rx="64.2" ry="47"/>
<path class="st16" d="M947.7,411.5h-24c-6.6,0-12-5.4-12-12V208.6c0-6.6,5.4-12,12-12h24c6.6,0,12,5.4,12,12v190.9
	C959.7,406.1,954.3,411.5,947.7,411.5z"/>
<text transform="matrix(1.8197 0 0 1 954.4805 495.3027)" class="st17 st18">EB</text>
</svg>
