<?xml version="1.0" encoding="utf-8"?>
<!-- Generator: Adobe Illustrator 19.2.1, SVG Export Plug-In . SVG Version: 6.00 Build 0)  -->
<svg version="1.1" id="Layer_1" xmlns="http://www.w3.org/2000/svg" xmlns:xlink="http://www.w3.org/1999/xlink" x="0px" y="0px"
	 viewBox="0 0 65 65" style="enable-background:new 0 0 65 65;" xml:space="preserve">
<style type="text/css">
	.st0{fill:none;}
	.st1{fill:#C6DD7F;}
	.st2{fill:#E9DDB7;}
	.st3{fill:#A6D0E4;}
	.st4{enable-background:new    ;}
	.st5{clip-path:url(#SVGID_16_);enable-background:new    ;}
	.st6{clip-path:url(#SVGID_20_);enable-background:new    ;}
	.st7{clip-path:url(#SVGID_23_);enable-background:new    ;}
	.st8{clip-path:url(#SVGID_25_);enable-background:new    ;}
	.st9{clip-path:url(#SVGID_27_);enable-background:new    ;}
	.st10{clip-path:url(#SVGID_29_);enable-background:new    ;}
	.st11{clip-path:url(#SVGID_32_);enable-background:new    ;}
	.st12{clip-path:url(#SVGID_36_);enable-background:new    ;}
	.st13{clip-path:url(#SVGID_40_);enable-background:new    ;}
	.st14{clip-path:url(#SVGID_42_);enable-background:new    ;}
	.st15{fill:#797979;}
	.st16{clip-path:url(#SVGID_45_);enable-background:new    ;}
	.st17{clip-path:url(#SVGID_48_);enable-background:new    ;}
	.st18{fill:#7D2F13;}
	.st19{clip-path:url(#SVGID_50_);enable-background:new    ;}
	.st20{fill:#792D12;}
	.st21{clip-path:url(#SVGID_53_);enable-background:new    ;}
	.st22{clip-path:url(#SVGID_56_);enable-background:new    ;}
	.st23{fill:#803013;}
	.st24{fill:#FE8B0A;}
	.st25{fill:#7B2E12;}
	.st26{clip-path:url(#SVGID_58_);enable-background:new    ;}
	.st27{clip-path:url(#SVGID_61_);enable-background:new    ;}
	.st28{clip-path:url(#SVGID_64_);enable-background:new    ;}
	.st29{clip-path:url(#SVGID_66_);enable-background:new    ;}
	.st30{fill:#000303;}
	.st31{clip-path:url(#SVGID_69_);}
	.st32{stroke:url(#SVGID_70_);stroke-miterlimit:10;}
	.st33{fill:none;stroke:url(#SVGID_72_);stroke-miterlimit:10;}
	.st34{clip-path:url(#SVGID_74_);}
	.st35{stroke:url(#SVGID_76_);stroke-miterlimit:10;}
	.st36{fill:none;stroke:url(#SVGID_77_);stroke-miterlimit:10;}
	.st37{clip-path:url(#SVGID_80_);}
	.st38{stroke:url(#SVGID_81_);stroke-miterlimit:10;}
	.st39{fill:none;stroke:url(#SVGID_82_);stroke-miterlimit:10;}
	.st40{clip-path:url(#SVGID_85_);}
	.st41{stroke:url(#SVGID_86_);stroke-miterlimit:10;}
	.st42{fill:none;stroke:url(#SVGID_88_);stroke-miterlimit:10;}
	.st43{clip-path:url(#SVGID_90_);}
	.st44{stroke:url(#SVGID_92_);stroke-miterlimit:10;}
	.st45{fill:none;stroke:url(#SVGID_93_);stroke-miterlimit:10;}
	.st46{clip-path:url(#SVGID_95_);}
	.st47{stroke:url(#SVGID_96_);stroke-miterlimit:10;}
	.st48{fill:none;stroke:url(#SVGID_97_);stroke-miterlimit:10;}
	.st49{clip-path:url(#SVGID_99_);}
	.st50{stroke:url(#SVGID_100_);stroke-miterlimit:10;}
	.st51{fill:none;stroke:url(#SVGID_101_);stroke-miterlimit:10;}
	.st52{clip-path:url(#SVGID_103_);}
	.st53{stroke:url(#SVGID_104_);stroke-miterlimit:10;}
	.st54{fill:none;stroke:url(#SVGID_105_);stroke-miterlimit:10;}
	.st55{fill:#FB7700;}
	.st56{clip-path:url(#SVGID_107_);}
	.st57{fill:#FB7700;stroke:url(#SVGID_108_);stroke-miterlimit:10;}
	.st58{fill:none;stroke:url(#SVGID_109_);stroke-miterlimit:10;}
	.st59{clip-path:url(#SVGID_111_);}
	.st60{fill:#FB7700;stroke:url(#SVGID_112_);stroke-miterlimit:10;}
	.st61{fill:none;stroke:url(#SVGID_113_);stroke-miterlimit:10;}
	.st62{clip-path:url(#SVGID_115_);}
	.st63{fill:#FB7700;stroke:url(#SVGID_116_);stroke-miterlimit:10;}
	.st64{fill:none;stroke:url(#SVGID_117_);stroke-miterlimit:10;}
	.st65{clip-path:url(#SVGID_119_);}
	.st66{fill:#FB7700;stroke:url(#SVGID_120_);stroke-miterlimit:10;}
	.st67{fill:none;stroke:url(#SVGID_121_);stroke-miterlimit:10;}
	.st68{clip-path:url(#SVGID_123_);}
	.st69{fill:#FB7700;stroke:url(#SVGID_124_);stroke-miterlimit:10;}
	.st70{fill:none;stroke:url(#SVGID_125_);stroke-miterlimit:10;}
	.st71{clip-path:url(#SVGID_127_);}
	.st72{fill:#FB7700;stroke:url(#SVGID_128_);stroke-miterlimit:10;}
	.st73{fill:none;stroke:url(#SVGID_129_);stroke-miterlimit:10;}
	.st74{opacity:0.78;fill:url(#SVGID_130_);stroke:url(#SVGID_131_);stroke-miterlimit:10;enable-background:new    ;}
</style>
<pattern  width="144.1" height="138.4" patternUnits="userSpaceOnUse" id="Alyssa_2" viewBox="100.1 -203.2 144.1 138.4" style="overflow:visible;">
	<g>
		<rect x="100.1" y="-203.2" class="st0" width="144.1" height="138.4"/>
		<g>
			<rect x="100.1" y="-203.2" class="st0" width="144.1" height="138.4"/>
			<g>
				<path class="st1" d="M311.1-223.3c-11.8,1.4-19.4-0.3-22.7-3.1c-3-2.5-5-5.4-2.2-11.9c2.9-7.1,1.5-14.7-5.5-15.9
					c-6.2-1-10.9,4.8-11.2,12.3c-0.2,5.2-1.9,8.3-5.5,7.6s-4.6-5.9-3.6-11.8c1.4-8.1,5.5-11.8,6.2-20.2c0.5-6.1-2.9-13.7-12.5-15
					c-9.3-1.4-15.9,4.3-16.6,10.5c-0.7,6.6,3.6,10.9,3.1,17.6s-4,10.2-5.9,17.3c-2.8,10.5,1.2,19,7.8,22.7c14.7,8.1,22.8-3.6,36-1.6
					c10.9,1.7,23.3,18.2,33,19.5c8.2,1.2,13.8-4.7,15-14C327.7-218.6,321.8-224.5,311.1-223.3z M268.9-223.8c0,2.3-1.9,4.2-4.2,4.2
					c-2.3,0-4.2-1.9-4.2-4.2s1.9-4.2,4.2-4.2C267.1-228,268.9-226.1,268.9-223.8z M318.4-208.4c0,1-0.8,1.7-1.7,1.7
					c-1,0-1.7-0.8-1.7-1.7s0.8-1.7,1.7-1.7C317.6-210.2,318.4-209.4,318.4-208.4z"/>
			</g>
			<g>
				<path class="st2" d="M148.9-204.1c0-7.2,4.6-13.8-1-16.3c-8.5-3.8-28,14.3-28,36.2c0,12,8.7,19,17.8,19c12.3,0,18-8.2,18-17.5
					C155.7-192.1,148.9-195.9,148.9-204.1z M143.5-198.7c0,1.1-0.9,2.1-2.1,2.1c-1.1,0-2.1-0.9-2.1-2.1c0-1.1,0.9-2.1,2.1-2.1
					S143.5-199.9,143.5-198.7z"/>
				<path class="st3" d="M223.6-227.6c-7.9-2.7-19.4,15.3-17.7,27c1.2,8.2,7.1,13.2,13.1,14.2c7.5,1.3,12.9-2.6,13.3-7.2
					c0.5-6.3-3.6-7.5-4.2-15C227.5-215.7,231.8-224.8,223.6-227.6z M219.8-200.1c0,1.4-1.2,2.6-2.6,2.6c-1.4,0-2.6-1.2-2.6-2.6
					s1.2-2.6,2.6-2.6C218.6-202.7,219.8-201.5,219.8-200.1z"/>
				<circle class="st2" cx="116.9" cy="-205.1" r="2.6"/>
				<path class="st3" d="M184.7-197.4c0.7-8.1,12.7-7,17.9-14.2c10.5-14.5-1.2-46.4-21.6-46.4c-11.7,0-24.2,9.7-24.2,29.2
					c0,15.8,10.2,21.5,8.3,42.2c-1,10.8-12.5,20.3-12.5,34.8c0,5.9,3.6,13.4,11.6,13.4c7.1,0,10.8-6,10.8-12.9
					c0-6.8-5.4-15.7,1.4-19c5.2-2.6,13.2,4.8,19.5,6.8c5.2,1.6,12.4-0.2,14.8-8.5c2.5-8.9-3.3-14.7-11.6-16.7
					C192.6-190.3,184.1-191,184.7-197.4z M168.7-166.9c0,1.8-1.5,3.3-3.3,3.3c-1.8,0-3.3-1.5-3.3-3.3s1.5-3.3,3.3-3.3
					C167.2-170.1,168.7-168.7,168.7-166.9z M194.7-176.5c1.3,0,2.3,1,2.3,2.3c0,1.3-1,2.3-2.3,2.3c-1.3,0-2.3-1-2.3-2.3
					C192.3-175.5,193.4-176.5,194.7-176.5z M174.7-236.2c0,1.8-1.5,3.3-3.3,3.3c-1.8,0-3.3-1.5-3.3-3.3c0-1.8,1.5-3.3,3.3-3.3
					C173.2-239.5,174.7-238,174.7-236.2z"/>
				<path class="st1" d="M167-223.3c-11.8,1.4-19.4-0.3-22.7-3.1c-3-2.5-5-5.4-2.2-11.9c2.9-7.1,1.5-14.7-5.5-15.9
					c-6.2-1-10.9,4.8-11.2,12.3c-0.2,5.2-1.9,8.3-5.5,7.6s-4.6-5.9-3.6-11.8c1.4-8.1,5.5-11.8,6.2-20.2c0.5-6.1-2.9-13.7-12.5-15
					c-9.3-1.4-15.9,4.3-16.6,10.5c-0.7,6.6,3.6,10.9,3.1,17.6s-4,10.2-5.9,17.3c-2.8,10.5,1.2,19,7.8,22.7c14.7,8.1,22.8-3.6,36-1.6
					c10.9,1.7,23.3,18.2,33,19.5c8.2,1.2,13.8-4.7,15-14C183.6-218.6,177.7-224.5,167-223.3z M124.8-223.8c0,2.3-1.9,4.2-4.2,4.2
					c-2.3,0-4.2-1.9-4.2-4.2s1.9-4.2,4.2-4.2C123-228,124.8-226.1,124.8-223.8z M174.3-208.4c0,1-0.8,1.7-1.7,1.7
					c-1,0-1.7-0.8-1.7-1.7s0.8-1.7,1.7-1.7C173.5-210.2,174.3-209.4,174.3-208.4z"/>
			</g>
			<g>
				<path class="st3" d="M290.4-176.8c0-6.2-4.2-10.7-8.6-11.6c-4.5-0.9-8.3,1.3-13-1.2c-4.8-2.6-7.1-11.1-16.8-11.1
					c-8,0-15.2,8-15.2,18.8c0,20.2,13.1,29.2,25.6,29.2C279-152.5,290.4-165.2,290.4-176.8z M270.7-162.4c0,2.1-1.7,3.8-3.8,3.8
					c-2.1,0-3.8-1.7-3.8-3.8c0-2.1,1.7-3.8,3.8-3.8S270.7-164.5,270.7-162.4z"/>
				<path class="st1" d="M311.1-84.9c-11.8,1.4-19.4-0.3-22.7-3.1c-3-2.5-5-5.4-2.2-11.9c2.9-7.1,1.5-14.7-5.5-15.9
					c-6.2-1-10.9,4.8-11.2,12.3c-0.2,5.2-1.9,8.3-5.5,7.6s-4.6-5.9-3.6-11.8c1.4-8.1,5.5-11.8,6.2-20.2c0.5-6.1-2.9-13.7-12.5-15
					c-9.3-1.4-15.9,4.3-16.6,10.5c-0.7,6.6,3.6,10.9,3.1,17.6c-0.5,6.7-4,10.2-5.9,17.3c-2.8,10.5,1.2,19,7.8,22.7
					c14.7,8.1,22.8-3.6,36-1.6c10.9,1.7,23.3,18.2,33,19.5c8.2,1.2,13.8-4.7,15-14C327.7-80.3,321.8-86.2,311.1-84.9z M268.9-85.4
					c0,2.3-1.9,4.2-4.2,4.2c-2.3,0-4.2-1.9-4.2-4.2s1.9-4.2,4.2-4.2C267.1-89.6,268.9-87.7,268.9-85.4z M318.4-70.1
					c0,1-0.8,1.7-1.7,1.7c-1,0-1.7-0.8-1.7-1.7c0-1,0.8-1.7,1.7-1.7S318.4-71,318.4-70.1z"/>
			</g>
			<g>
				<path class="st3" d="M131.9-148.4c-14-2-21.2,13.3-17.7,20.3c3.7,7.3,12.1,4.2,19.5,4.2c9.7,0,16.4,7.6,20.4,2.3
					C158.4-127.2,149.1-146,131.9-148.4z M132.4-130.9c0,1.2-1,2.2-2.2,2.2c-1.2,0-2.2-1-2.2-2.2s1-2.2,2.2-2.2
					C131.4-133.2,132.4-132.2,132.4-130.9z"/>
				<path class="st2" d="M148.9-65.7c0-7.2,4.6-13.8-1-16.3c-8.5-3.8-28,14.3-28,36.2c0,12,8.7,19,17.8,19c12.3,0,18-8.2,18-17.5
					C155.7-53.7,148.9-57.5,148.9-65.7z M143.5-60.4c0,1.1-0.9,2.1-2.1,2.1c-1.1,0-2.1-0.9-2.1-2.1c0-1.1,0.9-2.1,2.1-2.1
					C142.6-62.4,143.5-61.5,143.5-60.4z"/>
				<path class="st3" d="M146.3-176.8c0-6.2-4.2-10.7-8.6-11.6c-4.5-0.9-8.3,1.3-13-1.2c-4.8-2.6-7.1-11.1-16.8-11.1
					c-8,0-15.2,8-15.2,18.8c0,20.2,13.1,29.2,25.6,29.2C134.8-152.5,146.3-165.2,146.3-176.8z M126.5-162.4c0,2.1-1.7,3.8-3.8,3.8
					c-2.1,0-3.8-1.7-3.8-3.8c0-2.1,1.7-3.8,3.8-3.8C124.8-166.2,126.5-164.5,126.5-162.4z"/>
				<circle class="st1" cx="143.1" cy="-153.1" r="2.4"/>
				<path class="st3" d="M229.3-134.6c-3.2-4.7,1-10.7-1.4-15.2s-6.7-5-9.9-2.6c-3.6,2.8-3.4,6.6-8.3,8.8c-5.5,2.5-18-2.2-19.7,7.3
					c-0.9,4.8,2.4,8.6,7.3,9.7c6.1,1.4,9.4,0.2,15.4,3.1c6.1,2.9,11.2,9,22.1,12.1c10.4,3,16.1-1.6,16.6-5.9
					C252.4-125.7,234.3-127.2,229.3-134.6z M227-127.1c0,1.2-1,2.2-2.2,2.2c-1.2,0-2.2-1-2.2-2.2s1-2.2,2.2-2.2
					C226-129.4,227-128.4,227-127.1z"/>
				<path class="st2" d="M256.2-173.7c0-17.2-14.5-25.5-27-22.8c-10.3,2.2-12.8,17.3-16.7,26.2c-3.7,8.6-8.8,22.5-20.2,22.5
					c-11.2,0-12.8-14.5-23.7-14.5c-11,0-24.5,15.7-24.5,39.7c0,14.7,9.8,31.5,20.8,30.7c11.7-0.8,4.5-19.7,15.3-19.7
					c9.5,0,7.9,16.3,9.2,23.3c1.7,9,6.8,14.2,18.5,13.2c14.4-1.2,22.3-13.5,18.9-23.3c-4-11.5-23.9-17.3-21.5-30.5
					c1.3-7.6,13-12,26-16.2C245.9-149.9,256.2-156.6,256.2-173.7z M211.3-97.9c0-1.8,1.5-3.3,3.3-3.3c1.8,0,3.3,1.5,3.3,3.3
					s-1.5,3.3-3.3,3.3C212.7-94.6,211.3-96.1,211.3-97.9z M164.6-122.8c0,1-0.8,1.7-1.7,1.7c-1,0-1.7-0.8-1.7-1.7
					c0-1,0.8-1.7,1.7-1.7S164.6-123.8,164.6-122.8z M182.1-133.5c0,2.1-1.7,3.8-3.8,3.8s-3.8-1.7-3.8-3.8s1.7-3.8,3.8-3.8
					C180.3-137.3,182.1-135.6,182.1-133.5z M201.9-118c0,0.9-0.7,1.6-1.6,1.6c-0.9,0-1.6-0.7-1.6-1.6c0-0.9,0.7-1.6,1.6-1.6
					C201.2-119.5,201.9-118.8,201.9-118z M231.6-172.7c0,1.8-1.4,3.2-3.2,3.2c-1.8,0-3.2-1.4-3.2-3.2c0-1.8,1.4-3.2,3.2-3.2
					C230.2-175.8,231.6-174.4,231.6-172.7z"/>
				<path class="st3" d="M223.6-89.2c-7.9-2.7-19.4,15.3-17.7,27C207.1-54,213-49,219-48c7.5,1.3,12.9-2.6,13.3-7.2
					c0.5-6.3-3.6-7.5-4.2-15C227.5-77.3,231.8-86.4,223.6-89.2z M219.8-61.7c0,1.4-1.2,2.6-2.6,2.6c-1.4,0-2.6-1.2-2.6-2.6
					c0-1.4,1.2-2.6,2.6-2.6C218.6-64.3,219.8-63.2,219.8-61.7z"/>
				<circle class="st2" cx="116.9" cy="-66.8" r="2.6"/>
				<path class="st2" d="M253.4-153.5c0,8.4-5.1,15.2-11.3,15.2c-6.2,0-11.3-6.8-11.3-15.2s5.1-12.4,11.3-12.4
					C248.3-165.9,253.4-161.9,253.4-153.5z"/>
				<path class="st3" d="M184.7-59c0.7-8.1,12.7-7,17.9-14.2c10.5-14.5-1.2-46.4-21.6-46.4c-11.7,0-24.2,9.7-24.2,29.2
					c0,15.8,10.2,21.5,8.3,42.2c-1,10.8-12.5,20.3-12.5,34.8c0,5.9,3.6,13.4,11.6,13.4c7.1,0,10.8-6,10.8-12.9
					c0-6.8-5.4-15.7,1.4-19c5.2-2.6,13.2,4.8,19.5,6.8c5.2,1.6,12.4-0.2,14.8-8.5c2.5-8.9-3.3-14.7-11.6-16.7
					C192.6-51.9,184.1-52.6,184.7-59z M168.7-28.5c0,1.8-1.5,3.3-3.3,3.3c-1.8,0-3.3-1.5-3.3-3.3s1.5-3.3,3.3-3.3
					C167.2-31.8,168.7-30.3,168.7-28.5z M194.7-38.2c1.3,0,2.3,1,2.3,2.3s-1,2.3-2.3,2.3c-1.3,0-2.3-1-2.3-2.3
					C192.3-37.1,193.4-38.2,194.7-38.2z M174.7-97.9c0,1.8-1.5,3.3-3.3,3.3c-1.8,0-3.3-1.5-3.3-3.3s1.5-3.3,3.3-3.3
					C173.2-101.1,174.7-99.7,174.7-97.9z"/>
				<path class="st1" d="M167-84.9c-11.8,1.4-19.4-0.3-22.7-3.1c-3-2.5-5-5.4-2.2-11.9c2.9-7.1,1.5-14.7-5.5-15.9
					c-6.2-1-10.9,4.8-11.2,12.3c-0.2,5.2-1.9,8.3-5.5,7.6s-4.6-5.9-3.6-11.8c1.4-8.1,5.5-11.8,6.2-20.2c0.5-6.1-2.9-13.7-12.5-15
					c-9.3-1.4-15.9,4.3-16.6,10.5c-0.7,6.6,3.6,10.9,3.1,17.6c-0.5,6.7-4,10.2-5.9,17.3c-2.8,10.5,1.2,19,7.8,22.7
					c14.7,8.1,22.8-3.6,36-1.6c10.9,1.7,23.3,18.2,33,19.5c8.2,1.2,13.8-4.7,15-14C183.6-80.3,177.7-86.2,167-84.9z M124.8-85.4
					c0,2.3-1.9,4.2-4.2,4.2c-2.3,0-4.2-1.9-4.2-4.2s1.9-4.2,4.2-4.2C123-89.6,124.8-87.7,124.8-85.4z M174.3-70.1
					c0,1-0.8,1.7-1.7,1.7c-1,0-1.7-0.8-1.7-1.7c0-1,0.8-1.7,1.7-1.7S174.3-71,174.3-70.1z"/>
				<circle class="st1" cx="228.9" cy="-107.2" r="1.4"/>
				<circle class="st2" cx="233.6" cy="-68.8" r="2.2"/>
				<circle class="st3" cx="151.1" cy="-92" r="1.2"/>
				<circle class="st3" cx="147.3" cy="-160.5" r="1.4"/>
				<circle class="st2" cx="232" cy="-138.5" r="1.2"/>
				<circle class="st1" cx="192.5" cy="-156.5" r="3.4"/>
				<circle class="st2" cx="198.8" cy="-196.3" r="2.1"/>
				<circle class="st2" cx="160.6" cy="-190" r="1.6"/>
				<circle class="st1" cx="233.2" cy="-76" r="2.6"/>
				<circle class="st3" cx="223.2" cy="-110.8" r="2.4"/>
				<circle class="st2" cx="125.2" cy="-117.4" r="2.6"/>
				<circle class="st3" cx="121.5" cy="-110.3" r="1.3"/>
				<circle class="st2" cx="185.5" cy="-162.2" r="1.6"/>
			</g>
			<g>
				<path class="st3" d="M85.1-134.6c-3.2-4.7,1-10.7-1.4-15.2s-6.7-5-9.9-2.6c-3.6,2.8-3.4,6.6-8.3,8.8c-5.5,2.5-18-2.2-19.7,7.3
					c-0.9,4.8,2.4,8.6,7.3,9.7c6.1,1.4,9.4,0.2,15.4,3.1c6.1,2.9,11.2,9,22.1,12.1c10.4,3,16.1-1.6,16.6-5.9
					C108.3-125.7,90.1-127.2,85.1-134.6z M82.9-127.1c0,1.2-1,2.2-2.2,2.2s-2.2-1-2.2-2.2s1-2.2,2.2-2.2
					C81.9-129.4,82.9-128.4,82.9-127.1z"/>
				<path class="st2" d="M112.1-173.7c0-17.2-14.5-25.5-27-22.8c-10.3,2.2-12.8,17.3-16.7,26.2c-3.7,8.6-8.8,22.5-20.2,22.5
					c-11.2,0-12.8-14.5-23.7-14.5c-11,0-24.5,15.7-24.5,39.7c0,14.7,9.8,31.5,20.8,30.7c11.7-0.8,4.5-19.7,15.3-19.7
					c9.5,0,7.9,16.3,9.2,23.3c1.7,9,6.8,14.2,18.5,13.2c14.4-1.2,22.3-13.5,18.9-23.3c-4-11.5-23.9-17.3-21.5-30.5
					c1.3-7.6,13-12,26-16.2C101.8-149.9,112.1-156.6,112.1-173.7z M67.1-97.9c0-1.8,1.5-3.3,3.3-3.3s3.3,1.5,3.3,3.3
					s-1.5,3.3-3.3,3.3S67.1-96.1,67.1-97.9z M20.5-122.8c0,1-0.8,1.7-1.7,1.7c-1,0-1.7-0.8-1.7-1.7c0-1,0.8-1.7,1.7-1.7
					S20.5-123.8,20.5-122.8z M37.9-133.5c0,2.1-1.7,3.8-3.8,3.8s-3.8-1.7-3.8-3.8s1.7-3.8,3.8-3.8S37.9-135.6,37.9-133.5z M57.8-118
					c0,0.9-0.7,1.6-1.6,1.6c-0.9,0-1.6-0.7-1.6-1.6c0-0.9,0.7-1.6,1.6-1.6C57.1-119.5,57.8-118.8,57.8-118z M87.5-172.7
					c0,1.8-1.4,3.2-3.2,3.2c-1.8,0-3.2-1.4-3.2-3.2c0-1.8,1.4-3.2,3.2-3.2C86-175.8,87.5-174.4,87.5-172.7z"/>
				<path class="st2" d="M109.3-153.5c0,8.4-5.1,15.2-11.3,15.2c-6.3,0-11.3-6.8-11.3-15.2s5.1-12.4,11.3-12.4
					C104.2-166,109.3-161.9,109.3-153.5z"/>
			</g>
		</g>
	</g>
</pattern>
<g>
	<g class="st4">
		<g class="st4">
			<g>
				<path id="SVGID_1_" d="M23.2,38.7L15.2,35c0.5-0.5,0.6-1,0.6-1.6c0-0.4-0.2-0.7-0.4-1.1l8.1,3.7c0.3,0.4,0.4,0.7,0.4,1.1
					C23.9,37.7,23.6,38.2,23.2,38.7z"/>
			</g>
			<g>
				<defs>
					<path id="SVGID_14_" d="M23.2,38.7L15.2,35c0.5-0.5,0.6-1,0.6-1.6c0-0.4-0.2-0.7-0.4-1.1l8.1,3.7c0.3,0.4,0.4,0.7,0.4,1.1
						C23.9,37.7,23.6,38.2,23.2,38.7z"/>
				</defs>
				<clipPath id="SVGID_16_">
					<use xlink:href="#SVGID_14_"  style="overflow:visible;"/>
				</clipPath>
				<g class="st5">
					<path d="M23.2,38.7L15.2,35l0,0L23.2,38.7L23.2,38.7"/>
					<path d="M23.2,38.7L15.2,35c0.1-0.1,0.2-0.2,0.2-0.3l8.1,3.7C23.4,38.5,23.3,38.6,23.2,38.7"/>
					<path d="M23.5,38.4l-8.1-3.7c0.1-0.1,0.2-0.2,0.2-0.4l8.1,3.7C23.6,38.1,23.6,38.2,23.5,38.4"/>
					<path d="M23.6,38l-8.1-3.7c0.2-0.3,0.2-0.6,0.2-1c0-0.4-0.2-0.7-0.4-1.1l8.1,3.7c0.3,0.4,0.4,0.7,0.4,1.1
						C23.9,37.4,23.8,37.7,23.6,38"/>
				</g>
			</g>
		</g>
		<g class="st4">
			<g>
				<path id="SVGID_3_" d="M14.9,32l8.1,3.7c0.2,0.1,0.4,0.2,0.5,0.4l-8.1-3.7C15.2,32.2,15,32.1,14.9,32z"/>
			</g>
			<g>
				<defs>
					<path id="SVGID_18_" d="M14.9,32l8.1,3.7c0.2,0.1,0.4,0.2,0.5,0.4l-8.1-3.7C15.2,32.2,15,32.1,14.9,32z"/>
				</defs>
				<clipPath id="SVGID_20_">
					<use xlink:href="#SVGID_18_"  style="overflow:visible;"/>
				</clipPath>
				<g class="st6">
					<path d="M23.5,36l-8.1-3.7c-0.2-0.1-0.3-0.2-0.5-0.4l8.1,3.7C23.2,35.8,23.3,35.8,23.5,36"/>
				</g>
			</g>
		</g>
		<g class="st4">
			<g>
				<path id="SVGID_5_" d="M16.1,30.5l8.1,3.7c-0.3-0.1-0.6-0.2-0.9-0.3l-8.1-3.7C15.5,30.3,15.8,30.4,16.1,30.5z"/>
			</g>
			<g>
				<defs>
					<path id="SVGID_22_" d="M16.1,30.5l8.1,3.7c-0.3-0.1-0.6-0.2-0.9-0.3l-8.1-3.7C15.5,30.3,15.8,30.4,16.1,30.5z"/>
				</defs>
				<clipPath id="SVGID_23_">
					<use xlink:href="#SVGID_22_"  style="overflow:visible;"/>
				</clipPath>
				<g class="st7">
					<path d="M23.2,33.8l-8.1-3.7l0,0L23.2,33.8L23.2,33.8"/>
					<path d="M23.2,33.9l-8.1-3.7c0.3,0.1,0.5,0.1,0.8,0.2l8.1,3.7C23.9,34,23.6,33.9,23.2,33.9"/>
					<path d="M24.1,34.1L16,30.5c0.1,0,0.1,0.1,0.2,0.1l8.1,3.7C24.2,34.1,24.1,34.1,24.1,34.1"/>
				</g>
			</g>
		</g>
		<g class="st4">
			<g>
				<path id="SVGID_7_" d="M18.3,39.3l-8.1-3.7C11.1,36,12,36.1,13,36c0.9-0.1,1.6-0.4,2.2-1l8.1,3.7c-0.5,0.5-1.3,0.8-2.2,1
					C20,39.8,19.1,39.6,18.3,39.3z"/>
			</g>
			<g>
				<defs>
					<path id="SVGID_24_" d="M18.3,39.3l-8.1-3.7C11.1,36,12,36.1,13,36c0.9-0.1,1.6-0.4,2.2-1l8.1,3.7c-0.5,0.5-1.3,0.8-2.2,1
						C20,39.8,19.1,39.6,18.3,39.3z"/>
				</defs>
				<clipPath id="SVGID_25_">
					<use xlink:href="#SVGID_24_"  style="overflow:visible;"/>
				</clipPath>
				<g class="st8">
					<path d="M18.3,39.3l-8.1-3.7c0.1,0,0.1,0.1,0.2,0.1l8.1,3.7C18.4,39.3,18.3,39.3,18.3,39.3"/>
					<path d="M18.5,39.3l-8.1-3.7c0.2,0.1,0.5,0.2,0.8,0.2l8.1,3.7C19,39.5,18.7,39.4,18.5,39.3"/>
					<path d="M19.2,39.6l-8.1-3.7C11.7,36,12.3,36,13,36c0.4-0.1,0.8-0.1,1.1-0.3l8.1,3.7c-0.3,0.1-0.7,0.2-1.1,0.3
						C20.4,39.7,19.8,39.7,19.2,39.6"/>
					<path d="M22.1,39.3l-8.1-3.7c0.2-0.1,0.3-0.1,0.5-0.2l8.1,3.7C22.5,39.2,22.3,39.3,22.1,39.3"/>
					<path d="M22.6,39.1l-8.1-3.7c0.2-0.1,0.2-0.1,0.3-0.2l8.1,3.7C22.9,39,22.7,39.1,22.6,39.1"/>
					<path d="M22.9,38.9l-8.1-3.7c0.1-0.1,0.2-0.1,0.2-0.2l8.1,3.7C23.2,38.8,23,38.8,22.9,38.9"/>
				</g>
			</g>
		</g>
		<g class="st4">
			<g>
				<path id="SVGID_9_" d="M24.9,31.5l-8.1-3.7c-0.4-0.8-1.1-1.4-2.1-1.9l8.1,3.7C23.8,30,24.5,30.7,24.9,31.5z"/>
			</g>
			<g>
				<defs>
					<path id="SVGID_26_" d="M24.9,31.5l-8.1-3.7c-0.4-0.8-1.1-1.4-2.1-1.9l8.1,3.7C23.8,30,24.5,30.7,24.9,31.5z"/>
				</defs>
				<clipPath id="SVGID_27_">
					<use xlink:href="#SVGID_26_"  style="overflow:visible;"/>
				</clipPath>
				<g class="st9">
					<path d="M24.9,31.5l-8.1-3.7c-0.4-0.8-1.1-1.4-2.1-1.9l8.1,3.7C23.8,30,24.5,30.7,24.9,31.5"/>
				</g>
			</g>
		</g>
		<g class="st4">
			<g>
				<path id="SVGID_11_" d="M14.6,25.9l8.1,3.7c0,0,0.1,0,0.1,0.1L14.6,25.9C14.7,25.9,14.7,25.9,14.6,25.9z"/>
			</g>
			<g>
				<defs>
					<path id="SVGID_28_" d="M14.6,25.9l8.1,3.7c0,0,0.1,0,0.1,0.1L14.6,25.9C14.7,25.9,14.7,25.9,14.6,25.9z"/>
				</defs>
				<clipPath id="SVGID_29_">
					<use xlink:href="#SVGID_28_"  style="overflow:visible;"/>
				</clipPath>
				<g class="st10">
					<path d="M22.9,29.6l-8.1-3.7c0,0-0.1,0-0.1-0.1L22.9,29.6C22.8,29.6,22.8,29.6,22.9,29.6"/>
				</g>
			</g>
		</g>
		<g class="st4">
			<g>
				<path id="SVGID_13_" d="M22.3,28.6L14.2,25c0.2,0.1,0.5,0.1,0.6,0.1c0.3-0.1,0.8-0.3,1.3-0.7l8.1,3.7c-0.5,0.4-1,0.7-1.3,0.7
					C22.8,28.7,22.6,28.7,22.3,28.6z"/>
			</g>
			<g>
				<defs>
					<path id="SVGID_30_" d="M22.3,28.6L14.2,25c0.2,0.1,0.5,0.1,0.6,0.1c0.3-0.1,0.8-0.3,1.3-0.7l8.1,3.7c-0.5,0.4-1,0.7-1.3,0.7
						C22.8,28.7,22.6,28.7,22.3,28.6z"/>
				</defs>
				<clipPath id="SVGID_32_">
					<use xlink:href="#SVGID_30_"  style="overflow:visible;"/>
				</clipPath>
				<g class="st11">
					<path d="M22.3,28.6L14.2,25c0.1,0,0.2,0.1,0.2,0.1l8.1,3.7C22.5,28.6,22.4,28.6,22.3,28.6"/>
					<path d="M22.5,28.7L14.5,25c0.2,0,0.3,0.1,0.4,0c0.1,0,0.2-0.1,0.3-0.1l8.1,3.7c-0.1,0.1-0.2,0.1-0.3,0.1
						C22.9,28.7,22.7,28.7,22.5,28.7"/>
					<path d="M23.2,28.6L15.2,25c0.1-0.1,0.2-0.1,0.3-0.1l8.1,3.7C23.5,28.6,23.4,28.6,23.2,28.6"/>
					<path d="M23.6,28.5l-8.1-3.7c0.2-0.1,0.3-0.2,0.5-0.3l8.1,3.7C23.9,28.3,23.7,28.4,23.6,28.5"/>
					<path d="M24,28.2L16,24.5c0.1-0.1,0.2-0.1,0.2-0.2l8.1,3.7C24.2,28,24.1,28.1,24,28.2"/>
				</g>
			</g>
		</g>
		<g>
			<polygon points="19,33 10.9,29.3 15.2,30.2 23.2,33.8 			"/>
		</g>
		<g class="st4">
			<g>
				<path id="SVGID_15_" d="M18.3,32.7l-8.1-3.7c0.2,0.1,0.4,0.1,0.7,0.2L19,33C18.7,32.9,18.5,32.9,18.3,32.7z"/>
			</g>
			<g>
				<defs>
					<path id="SVGID_34_" d="M18.3,32.7l-8.1-3.7c0.2,0.1,0.4,0.1,0.7,0.2L19,33C18.7,32.9,18.5,32.9,18.3,32.7z"/>
				</defs>
				<clipPath id="SVGID_36_">
					<use xlink:href="#SVGID_34_"  style="overflow:visible;"/>
				</clipPath>
				<g class="st12">
					<path d="M18.3,32.7l-8.1-3.7h0.1L18.3,32.7C18.4,32.8,18.4,32.8,18.3,32.7"/>
					<path d="M18.4,32.8l-8.1-3.7c0.2,0.1,0.3,0.1,0.5,0.1l8.1,3.7C18.7,32.9,18.5,32.9,18.4,32.8"/>
					<path d="M18.9,33l-8.1-3.7h0.1L18.9,33L18.9,33"/>
				</g>
			</g>
		</g>
		<g>
			<polygon points="14.8,37.1 6.7,33.4 7.6,33.2 15.6,36.9 			"/>
		</g>
		<g>
			<polygon points="16.5,41.1 8.3,37.4 6.7,33.4 14.8,37.1 			"/>
		</g>
		<g class="st4">
			<g>
				<path id="SVGID_17_" d="M16.8,34.2l-8.1-3.7c-0.2-0.1-0.4-0.2-0.5-0.3l8.1,3.7C16.4,34,16.6,34.1,16.8,34.2z"/>
			</g>
			<g>
				<defs>
					<path id="SVGID_38_" d="M16.8,34.2l-8.1-3.7c-0.2-0.1-0.4-0.2-0.5-0.3l8.1,3.7C16.4,34,16.6,34.1,16.8,34.2z"/>
				</defs>
				<clipPath id="SVGID_40_">
					<use xlink:href="#SVGID_38_"  style="overflow:visible;"/>
				</clipPath>
				<g class="st13">
					<path d="M16.8,34.2l-8.1-3.7c-0.2-0.1-0.4-0.2-0.5-0.3l8.1,3.7C16.4,34,16.6,34.1,16.8,34.2"/>
				</g>
			</g>
		</g>
		<g class="st4">
			<g>
				<path id="SVGID_19_" d="M16.8,29.8l-8.1-3.7c0.9-0.7,1.9-1.2,3.1-1.3c0.8-0.1,1.6-0.1,2.4,0.1l8.1,3.7c-0.8-0.2-1.6-0.2-2.4-0.1
					C18.7,28.6,17.7,29.1,16.8,29.8z"/>
			</g>
			<g>
				<defs>
					<path id="SVGID_41_" d="M16.8,29.8l-8.1-3.7c0.9-0.7,1.9-1.2,3.1-1.3c0.8-0.1,1.6-0.1,2.4,0.1l8.1,3.7
						c-0.8-0.2-1.6-0.2-2.4-0.1C18.7,28.6,17.7,29.1,16.8,29.8z"/>
				</defs>
				<clipPath id="SVGID_42_">
					<use xlink:href="#SVGID_41_"  style="overflow:visible;"/>
				</clipPath>
				<g class="st14">
					<path d="M16.8,29.8l-8.1-3.7c0.1-0.1,0.2-0.1,0.3-0.2l8.1,3.7C17,29.7,16.9,29.7,16.8,29.8"/>
					<path d="M17.1,29.6l-8.1-3.7c0.2-0.1,0.3-0.2,0.5-0.4l8.1,3.7C17.4,29.3,17.3,29.4,17.1,29.6"/>
					<path d="M17.6,29.2l-8.1-3.7c0.2-0.1,0.5-0.2,0.7-0.4l8.1,3.7C18.1,29,17.8,29.1,17.6,29.2"/>
					<path d="M18.3,28.9l-8.1-3.7c0.5-0.2,1-0.3,1.6-0.4c0.8-0.1,1.5-0.1,2.2,0.1l8.1,3.7c-0.7-0.1-1.5-0.2-2.2-0.1
						C19.3,28.6,18.9,28.7,18.3,28.9"/>
					<path d="M22.1,28.6l-8.1-3.7c0.1,0,0.2,0,0.2,0.1l8.1,3.7C22.2,28.6,22.2,28.6,22.1,28.6"/>
				</g>
			</g>
		</g>
		<g>
			<path class="st15" d="M24.3,28l1.5,3.3L25,31.5c-0.4-0.8-1.1-1.4-2.1-1.9c-0.8-0.4-1.7-0.5-2.9-0.4c-0.6,0.1-1.2,0.4-1.6,0.9
				c-0.5,0.5-0.7,1-0.7,1.5c0,0.7,0.5,1.1,1.5,1.3l4.2,0.9c0.8,0.1,1.3,0.4,1.8,0.9c0.5,0.5,0.7,1.1,0.7,1.8c0,1-0.4,1.9-1.3,2.6
				c-0.9,0.7-2,1.2-3.3,1.4c-1,0.1-1.9,0.1-2.6-0.1c-0.2-0.1-0.5-0.1-0.8-0.1c-0.5,0.1-1,0.3-1.5,0.8l-1.6-4l0.9-0.3
				c1.4,2.1,3.2,3.1,5.4,2.8c0.9-0.1,1.6-0.4,2.2-1c0.5-0.5,0.6-1,0.6-1.6c0-0.4-0.2-0.7-0.4-1.1c-0.2-0.2-0.6-0.4-1-0.5l-4.1-0.8
				c-1-0.2-1.7-0.4-2-0.7c-0.5-0.5-0.6-1.1-0.6-1.8c0-0.7,0.4-1.5,1.2-2.3c0.9-0.7,1.9-1.2,3.1-1.3c0.8-0.1,1.6-0.1,2.4,0.1
				c0.2,0.1,0.5,0.1,0.6,0.1C23.3,28.7,23.7,28.4,24.3,28z"/>
		</g>
		<g class="st4">
			<g>
				<path id="SVGID_21_" d="M16.3,33.8l-8.1-3.7c-0.5-0.5-0.6-1.1-0.6-1.8c0-0.7,0.4-1.5,1.2-2.3l8.1,3.7c-0.8,0.8-1.2,1.6-1.2,2.3
					C15.6,32.7,15.9,33.3,16.3,33.8z"/>
			</g>
			<g>
				<defs>
					<path id="SVGID_44_" d="M16.3,33.8l-8.1-3.7c-0.5-0.5-0.6-1.1-0.6-1.8c0-0.7,0.4-1.5,1.2-2.3l8.1,3.7c-0.8,0.8-1.2,1.6-1.2,2.3
						C15.6,32.7,15.9,33.3,16.3,33.8z"/>
				</defs>
				<clipPath id="SVGID_45_">
					<use xlink:href="#SVGID_44_"  style="overflow:visible;"/>
				</clipPath>
				<g class="st16">
					<path d="M16.3,33.8l-8.1-3.7c-0.5-0.5-0.6-1.1-0.6-1.8c0-0.3,0.1-0.6,0.2-1l8.1,3.7c-0.2,0.3-0.2,0.7-0.2,1
						C15.6,32.7,15.9,33.3,16.3,33.8"/>
					<path d="M15.9,31.1l-8.1-3.7c0.1-0.1,0.2-0.4,0.3-0.5l8.1,3.7C16,30.8,16,31,15.9,31.1"/>
					<path d="M16.2,30.6l-8.1-3.7c0.2-0.2,0.2-0.4,0.4-0.6l8.1,3.7C16.4,30.2,16.3,30.4,16.2,30.6"/>
					<path d="M16.6,30l-8.1-3.7c0.1-0.1,0.2-0.1,0.2-0.2l8.1,3.7C16.7,29.9,16.7,30,16.6,30"/>
				</g>
			</g>
		</g>
	</g>
</g>
<g>
	<g class="st4">
		<g class="st4">
			<g>
				<defs>
					<path id="SVGID_46_" d="M37.5,30l2.5-3.2c0.2-0.3,0.8-0.4,1.6-0.4l-2.5,3.2C38.3,29.6,37.8,29.7,37.5,30z"/>
				</defs>
				<clipPath id="SVGID_48_">
					<use xlink:href="#SVGID_46_"  style="overflow:visible;"/>
				</clipPath>
				<g class="st17">
					<g>
						<path class="st18" d="M41.7,26.5l-2.5,3.2c-0.8-0.1-1.3,0.1-1.6,0.4l2.5-3.2C40.3,26.6,40.8,26.4,41.7,26.5"/>
					</g>
				</g>
			</g>
		</g>
		<g class="st4">
			<g>
				<defs>
					<path id="SVGID_49_" d="M38.9,27.4l-2.5,3.2c0-0.1,0-0.2,0-0.4c-0.1-0.5-0.7-0.8-1.9-0.9l2.5-3.2c1.2,0.1,1.8,0.4,1.9,0.9
						C38.9,27.2,38.9,27.2,38.9,27.4z"/>
				</defs>
				<clipPath id="SVGID_50_">
					<use xlink:href="#SVGID_49_"  style="overflow:visible;"/>
				</clipPath>
				<g class="st19">
					<g>
						<path class="st18" d="M38.9,27.4l-2.5,3.2c0-0.1,0-0.2,0-0.4c-0.1-0.5-0.7-0.8-1.9-0.9l2.5-3.2c1.2,0.1,1.8,0.4,1.9,0.9
							C38.9,27.2,38.9,27.2,38.9,27.4"/>
					</g>
				</g>
			</g>
		</g>
		<g>
			<g>
				<polygon class="st20" points="37,26.1 34.5,29.3 34.4,28.5 37,25.3 				"/>
			</g>
		</g>
		<g class="st4">
			<g>
				<defs>
					<path id="SVGID_52_" d="M29.8,29.4l2.5-3.2c0.2-0.3,0.6-0.4,1.3-0.3L31,29.1C30.4,29,30,29.1,29.8,29.4z"/>
				</defs>
				<clipPath id="SVGID_53_">
					<use xlink:href="#SVGID_52_"  style="overflow:visible;"/>
				</clipPath>
				<g class="st21">
					<g>
						<path class="st18" d="M33.6,25.9l-2.5,3.2c-0.6-0.1-1,0.1-1.3,0.3l2.5-3.2C32.5,26,33,25.8,33.6,25.9"/>
					</g>
				</g>
			</g>
		</g>
		<g class="st4">
			<g>
				<defs>
					<path id="SVGID_54_" d="M29.8,26.6l-2.5,3.2c-0.2-0.7-0.8-1-1.7-1l2.5-3.2C29,25.5,29.6,25.9,29.8,26.6z"/>
				</defs>
				<clipPath id="SVGID_56_">
					<use xlink:href="#SVGID_54_"  style="overflow:visible;"/>
				</clipPath>
				<g class="st22">
					<g>
						<path class="st18" d="M29.8,26.6l-2.5,3.2c-0.2-0.7-0.8-1-1.7-1l2.5-3.2C29,25.5,29.6,25.9,29.8,26.6"/>
					</g>
				</g>
			</g>
		</g>
		<g>
			<g>
				<polygon class="st20" points="28.1,25.5 25.6,28.7 25.5,27.8 28,24.7 				"/>
			</g>
		</g>
		<g>
			<g>
				<polygon class="st20" points="36.5,36 34,39.2 36.3,30.5 38.9,27.4 				"/>
			</g>
		</g>
		<g>
			<g>
				<polygon class="st23" points="36.7,38.3 34.1,41.5 33,41.4 35.6,38.2 				"/>
			</g>
		</g>
		<g>
			<g>
				<path class="st24" d="M41.6,25.6l0.1,0.8c-1-0.1-1.6,0.1-1.8,0.7l-3.1,11.2l-1.2-0.1l-5.7-11.7c-0.2-0.7-0.8-1-1.7-1L28,24.6
					l5.4,0.4l0.1,0.8c-1-0.1-1.5,0.2-1.4,1l4.3,9.2l2.4-8.7c0-0.1,0-0.2,0-0.4c-0.1-0.5-0.7-0.8-1.9-0.9l0.1-0.7L41.6,25.6z"/>
			</g>
		</g>
		<g>
			<g>
				<polygon class="st25" points="35.6,38.2 33,41.4 27.3,29.7 29.8,26.6 				"/>
			</g>
		</g>
	</g>
</g>
<g>
	<g class="st4">
		<g class="st4">
			<g>
				<path id="SVGID_31_" class="st15" d="M46,27.3l2.7-1.8c-0.3,0.2-0.5,0.4-0.9,0.7c-1.1,1.2-1.8,2.7-2,4.8
					c-0.3,2.3-0.1,4.3,0.7,5.8c0.7,1.4,1.7,2.2,3,2.5c0.9,0.2,1.9,0.1,2.7-0.4c0.1-0.1,0.2-0.1,0.2-0.1l-2.7,1.8
					c-0.1,0.1-0.2,0.1-0.2,0.1c-0.9,0.5-1.8,0.7-2.7,0.4c-1.3-0.3-2.3-1.1-3-2.5c-0.8-1.5-1-3.4-0.7-5.8c0.2-2.1,0.9-3.7,2-4.8
					C45.4,27.8,45.7,27.5,46,27.3z"/>
			</g>
			<g>
				<defs>
					<path id="SVGID_57_" d="M46,27.3l2.7-1.8c-0.3,0.2-0.5,0.4-0.9,0.7c-1.1,1.2-1.8,2.7-2,4.8c-0.3,2.3-0.1,4.3,0.7,5.8
						c0.7,1.4,1.7,2.2,3,2.5c0.9,0.2,1.9,0.1,2.7-0.4c0.1-0.1,0.2-0.1,0.2-0.1l-2.7,1.8c-0.1,0.1-0.2,0.1-0.2,0.1
						c-0.9,0.5-1.8,0.7-2.7,0.4c-1.3-0.3-2.3-1.1-3-2.5c-0.8-1.5-1-3.4-0.7-5.8c0.2-2.1,0.9-3.7,2-4.8C45.4,27.8,45.7,27.5,46,27.3z
						"/>
				</defs>
				<clipPath id="SVGID_58_">
					<use xlink:href="#SVGID_57_"  style="overflow:visible;"/>
				</clipPath>
				<g class="st26">
					<path class="st15" d="M46,27.3l2.7-1.8c-0.3,0.2-0.5,0.4-0.9,0.7c-0.2,0.1-0.3,0.3-0.5,0.5l-2.7,1.8c0.2-0.1,0.3-0.4,0.5-0.5
						C45.4,27.8,45.7,27.5,46,27.3"/>
					<path class="st15" d="M44.7,28.6l2.7-1.8c-0.2,0.2-0.3,0.4-0.5,0.7l-2.7,1.8C44.4,29,44.6,28.8,44.7,28.6"/>
					<path class="st15" d="M44.3,29.2l2.7-1.8c-0.1,0.2-0.2,0.4-0.3,0.6l-2.7,1.8C44.1,29.6,44.2,29.4,44.3,29.2"/>
					<path class="st15" d="M43.9,29.8l2.7-1.8c-0.1,0.2-0.2,0.4-0.2,0.6l-2.7,1.8C43.8,30.2,43.9,30,43.9,29.8"/>
					<path class="st15" d="M43.7,30.4l2.7-1.8c-0.1,0.2-0.2,0.4-0.2,0.6L43.5,31C43.6,30.8,43.6,30.5,43.7,30.4"/>
					<path class="st15" d="M43.5,31l2.7-1.8c-0.1,0.2-0.2,0.4-0.2,0.7l-2.7,1.8C43.4,31.4,43.4,31.2,43.5,31"/>
					<path class="st15" d="M43.3,31.6l2.7-1.8C46,30,46,30.3,45.9,30.5l-2.7,1.8C43.2,32.1,43.2,31.9,43.3,31.6"/>
					<path class="st15" d="M43.2,32.4l2.7-1.8c0,0.1-0.1,0.3-0.1,0.5c0,0.1,0,0.3-0.1,0.4L43,33.3c0-0.1,0-0.3,0.1-0.4
						C43.2,32.7,43.2,32.5,43.2,32.4"/>
					<path class="st15" d="M43.1,33.3l2.7-1.8c0,0.3-0.1,0.6-0.1,0.9L43,34.1C43,33.8,43,33.5,43.1,33.3"/>
					<path class="st15" d="M43,34.1l2.7-1.8c0,0.3,0,0.5,0,0.8L43,34.9C43,34.6,43,34.4,43,34.1"/>
					<path class="st15" d="M43,34.9l2.7-1.8c0,0.2,0,0.4,0,0.7L43,35.6C43,35.4,43,35.2,43,34.9"/>
					<path class="st15" d="M43,35.6l2.7-1.8c0,0.2,0,0.4,0.1,0.6l-2.7,1.8C43.1,36,43,35.8,43,35.6"/>
					<path class="st15" d="M43.1,36.2l2.7-1.8c0,0.2,0.1,0.4,0.1,0.6l-2.7,1.8C43.2,36.6,43.1,36.4,43.1,36.2"/>
					<path class="st15" d="M43.2,36.8l2.7-1.8c0.1,0.2,0.1,0.4,0.2,0.6l-2.7,1.8C43.2,37.1,43.2,37,43.2,36.8"/>
					<path class="st15" d="M43.3,37.4l2.7-1.8c0.1,0.2,0.1,0.4,0.2,0.6L43.5,38C43.4,37.7,43.4,37.5,43.3,37.4"/>
					<path class="st15" d="M43.5,37.9l2.7-1.8c0.1,0.2,0.2,0.4,0.2,0.6l-2.7,1.8C43.6,38.3,43.6,38.1,43.5,37.9"/>
					<path class="st15" d="M43.7,38.5l2.7-1.8c0,0.1,0.1,0.1,0.1,0.1c0.2,0.2,0.2,0.4,0.4,0.7l-2.7,1.8c-0.2-0.2-0.2-0.4-0.4-0.7
						C43.8,38.6,43.8,38.5,43.7,38.5"/>
					<path class="st15" d="M44.2,39.3l2.7-1.8c0.2,0.3,0.4,0.6,0.6,0.8l-2.7,1.8C44.7,39.9,44.4,39.6,44.2,39.3"/>
					<path class="st15" d="M44.9,40.2l2.7-1.8c0.2,0.1,0.3,0.3,0.5,0.4l-2.7,1.8C45.2,40.4,45,40.2,44.9,40.2"/>
					<path class="st15" d="M45.4,40.5l2.7-1.8c0.1,0.1,0.2,0.1,0.3,0.2l-2.7,1.8C45.5,40.6,45.4,40.6,45.4,40.5"/>
					<path class="st15" d="M45.6,40.7l2.7-1.8c0.1,0.1,0.2,0.1,0.2,0.1l-2.7,1.8C45.8,40.8,45.7,40.7,45.6,40.7"/>
					<path class="st15" d="M45.8,40.8l2.7-1.8c0.1,0.1,0.2,0.1,0.2,0.1l-2.7,1.8C46,40.9,45.9,40.9,45.8,40.8"/>
					<path class="st15" d="M46.1,40.9l2.7-1.8c0.1,0,0.2,0.1,0.2,0.1L46.3,41C46.2,41,46.1,41,46.1,40.9"/>
					<path class="st15" d="M46.3,41l2.7-1.8c0.1,0,0.2,0.1,0.2,0.1l-2.7,1.8C46.5,41,46.4,41,46.3,41"/>
					<path class="st15" d="M46.5,41.1l2.7-1.8c0.1,0,0.2,0.1,0.2,0.1l-2.7,1.8C46.7,41.1,46.6,41.1,46.5,41.1"/>
					<path class="st15" d="M46.8,41.1l2.7-1.8h0.1c0.1,0,0.1,0,0.2,0L47,41.1C46.9,41.1,46.9,41.1,46.8,41.1
						C46.8,41.2,46.8,41.1,46.8,41.1"/>
					<path class="st15" d="M47,41.2l2.7-1.8c0.1,0,0.2,0,0.2,0l-2.7,1.8C47.2,41.2,47.1,41.2,47,41.2"/>
					<path class="st15" d="M47.2,41.2l2.7-1.8c0.1,0,0.2,0,0.2,0l-2.7,1.8C47.3,41.3,47.2,41.3,47.2,41.2"/>
					<path class="st15" d="M47.4,41.3l2.7-1.8c0.1,0,0.2,0,0.2,0l-2.7,1.8C47.6,41.3,47.5,41.3,47.4,41.3"/>
					<path class="st15" d="M47.6,41.3l2.7-1.8c0.1,0,0.2,0,0.2,0l-2.7,1.8C47.8,41.3,47.7,41.3,47.6,41.3"/>
					<path class="st15" d="M47.9,41.3l2.7-1.8c0.1,0,0.2,0,0.2,0l-2.7,1.8C48,41.3,47.9,41.3,47.9,41.3"/>
					<path class="st15" d="M48.1,41.3l2.7-1.8c0.1,0,0.2,0,0.2-0.1l-2.7,1.8C48.3,41.2,48.2,41.2,48.1,41.3"/>
					<path class="st15" d="M48.3,41.2l2.7-1.8c0.1,0,0.2-0.1,0.3-0.1l-2.7,1.8C48.6,41.1,48.5,41.2,48.3,41.2"/>
					<path class="st15" d="M48.7,41.1l2.7-1.8c0.2-0.1,0.2-0.1,0.4-0.1L49,41C49,41,48.8,41,48.7,41.1"/>
					<path class="st15" d="M49,41l2.7-1.8c0.2-0.1,0.3-0.1,0.5-0.2c0.1-0.1,0.2-0.1,0.2-0.1l-2.7,1.8c-0.1,0.1-0.2,0.1-0.2,0.1
						C49.4,40.8,49.2,40.9,49,41"/>
				</g>
			</g>
		</g>
		<g>
			<polygon class="st15" points="52.3,37.7 55,35.9 54.4,40.5 51.7,42.4 			"/>
		</g>
		<g class="st4">
			<g>
				<path id="SVGID_33_" class="st15" d="M52.7,36.6l2.7-1.8c-0.2,0.1-0.4,0.5-0.5,1l-2.7,1.8C52.3,37.2,52.5,36.9,52.7,36.6z"/>
			</g>
			<g>
				<defs>
					<path id="SVGID_60_" d="M52.7,36.6l2.7-1.8c-0.2,0.1-0.4,0.5-0.5,1l-2.7,1.8C52.3,37.2,52.5,36.9,52.7,36.6z"/>
				</defs>
				<clipPath id="SVGID_61_">
					<use xlink:href="#SVGID_60_"  style="overflow:visible;"/>
				</clipPath>
				<g class="st27">
					<path class="st15" d="M52.7,36.6l2.7-1.8c-0.1,0.1-0.2,0.1-0.2,0.1l-2.7,1.9C52.7,36.8,52.7,36.7,52.7,36.6"/>
					<path class="st15" d="M52.6,36.9l2.7-1.8l-0.1,0.1L52.6,36.9C52.6,36.9,52.6,36.9,52.6,36.9"/>
					<path class="st15" d="M52.5,36.9l2.7-1.8c0,0,0,0.1-0.1,0.1L52.5,36.9C52.5,37,52.5,36.9,52.5,36.9"/>
					<path class="st15" d="M52.5,37l2.7-1.8c0,0,0,0.1-0.1,0.1L52.5,37C52.4,37.1,52.4,37.1,52.5,37"/>
					<path class="st15" d="M52.4,37.1l2.7-1.8c0,0.1,0,0.1-0.1,0.1l-2.7,1.8C52.4,37.2,52.4,37.1,52.4,37.1"/>
					<path class="st15" d="M52.3,37.3l2.7-1.8c0,0.1,0,0.1-0.1,0.1l-2.7,1.8C52.3,37.4,52.3,37.3,52.3,37.3"/>
					<path class="st15" d="M52.3,37.4l2.7-1.8c0,0.1,0,0.1,0,0.1l-2.7,1.8C52.3,37.5,52.3,37.4,52.3,37.4"/>
					<path class="st15" d="M52.3,37.6l2.7-1.8c0,0.1,0,0.1,0,0.1l-2.7,1.8C52.3,37.7,52.3,37.7,52.3,37.6"/>
				</g>
			</g>
		</g>
		<g>
			<polygon class="st15" points="49.3,35 51.9,33.2 56.8,34.2 54.1,36 			"/>
		</g>
		<g>
			<polygon class="st15" points="54.1,36 56.8,34.2 56.7,34.8 54.1,36.6 			"/>
		</g>
		<g class="st4">
			<g>
				<path id="SVGID_35_" class="st15" d="M44.9,26.9l2.7-1.8c1.2-0.8,2.5-1,4-0.7c0.5,0.1,1,0.3,1.5,0.4l-2.7,1.8
					c-0.5-0.2-1-0.4-1.5-0.4C47.4,25.9,46.1,26.1,44.9,26.9z"/>
			</g>
			<g>
				<defs>
					<path id="SVGID_62_" d="M44.9,26.9l2.7-1.8c1.2-0.8,2.5-1,4-0.7c0.5,0.1,1,0.3,1.5,0.4l-2.7,1.8c-0.5-0.2-1-0.4-1.5-0.4
						C47.4,25.9,46.1,26.1,44.9,26.9z"/>
				</defs>
				<clipPath id="SVGID_64_">
					<use xlink:href="#SVGID_62_"  style="overflow:visible;"/>
				</clipPath>
				<g class="st28">
					<path class="st15" d="M44.9,26.9l2.7-1.8c0.3-0.2,0.6-0.4,0.9-0.5l-2.7,1.8C45.5,26.6,45.2,26.7,44.9,26.9"/>
					<path class="st15" d="M45.8,26.4l2.7-1.8c0.2-0.1,0.3-0.1,0.5-0.1l-2.7,1.8C46.1,26.4,46,26.4,45.8,26.4"/>
					<path class="st15" d="M46.3,26.3l2.7-1.8c0.2,0,0.2-0.1,0.4-0.1l-2.7,1.8C46.5,26.2,46.4,26.3,46.3,26.3"/>
					<path class="st15" d="M46.7,26.2l2.7-1.8c0.1,0,0.2-0.1,0.3-0.1L47,26.1C46.9,26.1,46.8,26.1,46.7,26.2"/>
					<path class="st15" d="M47,26.1l2.7-1.8c0.1,0,0.2,0,0.3,0l-2.7,1.8C47.2,26.1,47.1,26.1,47,26.1"/>
					<path class="st15" d="M47.3,26.1l2.7-1.8c0.1,0,0.2,0,0.3,0l-2.7,1.8C47.6,26.1,47.4,26.1,47.3,26.1"/>
					<path class="st15" d="M47.6,26.1l2.7-1.8c0.1,0,0.2,0,0.3,0l-2.7,1.8C47.9,26.1,47.8,26.1,47.6,26.1"/>
					<path class="st15" d="M47.9,26.1l2.7-1.8c0.1,0,0.2,0,0.3,0l-2.7,1.8C48.2,26.1,48.1,26.1,47.9,26.1"/>
					<path class="st15" d="M48.3,26.1l2.7-1.8c0.1,0,0.2,0,0.3,0.1l-2.7,1.8C48.5,26.2,48.4,26.1,48.3,26.1"/>
					<path class="st15" d="M48.7,26.2l2.7-1.8c0.1,0,0.2,0,0.2,0.1c0.1,0,0.1,0,0.2,0L49,26.3c-0.1,0-0.1,0-0.2,0
						C48.8,26.2,48.7,26.2,48.7,26.2"/>
					<path class="st15" d="M49,26.3l2.7-1.8c0.2,0,0.3,0.1,0.5,0.1l-2.8,1.8C49.4,26.4,49.2,26.3,49,26.3"/>
					<path class="st15" d="M49.4,26.4l2.7-1.8c0.2,0.1,0.3,0.1,0.5,0.1l-2.7,1.8C49.8,26.5,49.6,26.4,49.4,26.4"/>
					<path class="st15" d="M49.9,26.6l2.7-1.8c0.2,0.1,0.3,0.1,0.4,0.1l-2.7,1.8C50.2,26.6,50.1,26.6,49.9,26.6"/>
				</g>
			</g>
		</g>
		<g class="st4">
			<g>
				<path id="SVGID_37_" class="st15" d="M50.4,26.7l2.7-1.8c0.4,0.1,0.7,0.3,1,0.5l-2.7,1.8C51.1,27,50.8,26.9,50.4,26.7z"/>
			</g>
			<g>
				<defs>
					<path id="SVGID_65_" d="M50.4,26.7l2.7-1.8c0.4,0.1,0.7,0.3,1,0.5l-2.7,1.8C51.1,27,50.8,26.9,50.4,26.7z"/>
				</defs>
				<clipPath id="SVGID_66_">
					<use xlink:href="#SVGID_65_"  style="overflow:visible;"/>
				</clipPath>
				<g class="st29">
					<path class="st15" d="M50.4,26.7l2.7-1.8c0.1,0,0.2,0.1,0.2,0.1l-2.8,1.8C50.5,26.7,50.5,26.7,50.4,26.7"/>
					<path class="st15" d="M50.5,26.8l2.7-1.8c0.1,0.1,0.2,0.1,0.3,0.1l-2.7,1.8C50.8,26.9,50.7,26.9,50.5,26.8"/>
					<path class="st15" d="M50.9,26.9l2.7-1.8c0.1,0.1,0.2,0.1,0.2,0.1l-2.7,1.8C51.1,27,51,27,50.9,26.9"/>
					<path class="st15" d="M51.2,27.1l2.7-1.8c0.1,0.1,0.2,0.1,0.2,0.1l-2.7,1.8C51.2,27.2,51.2,27.1,51.2,27.1"/>
				</g>
			</g>
		</g>
		<g>
			<polygon class="st15" points="53,27.1 55.6,25.3 56.5,29.2 53.8,31.1 			"/>
		</g>
		<g>
			<path class="st30" d="M53,27.1l0.9,4l-0.3,0.1c-0.5-1.1-1.1-2-1.6-2.6c-0.9-1-1.8-1.5-2.9-1.8c-1.4-0.3-2.6,0.1-3.8,1.2
				c-1.1,1.2-1.8,2.7-2,4.8c-0.3,2.3-0.1,4.3,0.7,5.8c0.7,1.4,1.7,2.2,3,2.5c0.9,0.2,1.9,0.1,2.7-0.4c0.8-0.4,1.3-1,1.3-1.7l0.2-1.5
				c0.1-0.5,0-1-0.2-1.2c-0.2-0.3-0.8-0.5-1.6-0.7l0.1-0.6l4.9,1l-0.1,0.6c-0.6-0.1-1-0.1-1.3,0.1c-0.2,0.1-0.4,0.5-0.5,1l-0.6,4.6
				l-1,0l-0.2-1.1l-0.2,0.1c-0.6,0.3-1.1,0.4-1.5,0.5c-0.7,0.1-1.4,0.1-2.1,0c-1.9-0.4-3.2-1.3-4.1-2.9c-0.9-1.6-1.2-3.6-0.9-6.1
				c0.3-2.3,1.1-4,2.4-5.2c1.3-1.2,2.8-1.6,4.6-1.2c0.5,0.1,1,0.3,1.5,0.4c0.4,0.1,0.7,0.3,1,0.5L53,27.1z"/>
		</g>
		<g>
			<polygon class="st15" points="51.3,27.2 54.1,25.4 55.6,25.3 53,27.1 			"/>
		</g>
	</g>
</g>
<g>
	<g class="st4">
		<g class="st4">
			<g>
				<defs>
					<path id="SVGID_68_" d="M14.4,13.1l31.1-4l18.4,20.6L51.3,54.1l-31.1,4L1.8,37.6L14.4,13.1z M63.9,29.6L45.4,9.1l-31.1,4
						L1.8,37.7l18.4,20.5l31.1-4L63.9,29.6"/>
				</defs>
				<clipPath id="SVGID_69_">
					<use xlink:href="#SVGID_68_"  style="overflow:visible;"/>
				</clipPath>
				<g class="st31">
					
						<linearGradient id="SVGID_70_" gradientUnits="userSpaceOnUse" x1="1.0842" y1="31.3977" x2="64.6008" y2="31.3977" gradientTransform="matrix(1 0 0 -1 0 65)">
						<stop  offset="0" style="stop-color:#FFFFFF"/>
						<stop  offset="1" style="stop-color:#000000"/>
					</linearGradient>
					<path class="st32" d="M20.2,58.3L1.7,37.7v-0.1L14.3,13h0.1l31.1-4V9L64,29.6v0.1L51.4,54.2h-0.1L20.2,58.3z M1.9,37.6L20.3,58
						l30.9-4l12.5-24.4L45.4,9.2l-30.9,4L1.9,37.6z"/>
				</g>
			</g>
			<g>
				
					<linearGradient id="SVGID_72_" gradientUnits="userSpaceOnUse" x1="1.1686" y1="31.4147" x2="64.5153" y2="31.4147" gradientTransform="matrix(1 0 0 -1 0 65)">
					<stop  offset="0" style="stop-color:#FFFFFF"/>
					<stop  offset="1" style="stop-color:#000000"/>
				</linearGradient>
				<path id="SVGID_39_" class="st33" d="M14.4,13.1l31.1-4l18.4,20.6L51.3,54.1l-31.1,4L1.8,37.6L14.4,13.1z M63.9,29.6L45.4,9.1
					l-31.1,4L1.8,37.7l18.4,20.5l31.1-4L63.9,29.6"/>
			</g>
		</g>
		<g class="st4">
			<g>
				<defs>
					<path id="SVGID_73_" d="M13.7,9.8l31.1-4l18.4,20.6L50.6,50.9l-31.1,4L1.1,34.4L13.7,9.8z M63.2,26.4L44.7,5.8l-31.1,4
						L1.1,34.4l18.4,20.5l31.1-4L63.2,26.4"/>
				</defs>
				<clipPath id="SVGID_74_">
					<use xlink:href="#SVGID_73_"  style="overflow:visible;"/>
				</clipPath>
				<g class="st34">
					
						<linearGradient id="SVGID_76_" gradientUnits="userSpaceOnUse" x1="0.3704" y1="34.6639" x2="63.8863" y2="34.6639" gradientTransform="matrix(1 0 0 -1 0 65)">
						<stop  offset="0" style="stop-color:#FFFFFF"/>
						<stop  offset="1" style="stop-color:#000000"/>
					</linearGradient>
					<path class="st35" d="M19.5,55L1,34.4v-0.1L13.6,9.8h0.1l31.1-4v0.1l18.5,20.6v0.1L50.7,50.9h-0.1L19.5,55z M1.2,34.4
						l18.3,20.4l30.9-4L63,26.3L44.7,6l-30.9,4L1.2,34.4z"/>
				</g>
			</g>
			<g>
				
					<linearGradient id="SVGID_77_" gradientUnits="userSpaceOnUse" x1="0.4543" y1="34.6442" x2="63.801" y2="34.6442" gradientTransform="matrix(1 0 0 -1 0 65)">
					<stop  offset="0" style="stop-color:#FFFFFF"/>
					<stop  offset="1" style="stop-color:#000000"/>
				</linearGradient>
				<path id="SVGID_43_" class="st36" d="M13.7,9.8l31.1-4l18.4,20.6L50.6,50.9l-31.1,4L1.1,34.4L13.7,9.8z M63.2,26.4L44.7,5.8
					l-31.1,4L1.1,34.4l18.4,20.5l31.1-4L63.2,26.4"/>
			</g>
		</g>
		<g class="st4">
			<g>
				<defs>
					<polygon id="SVGID_78_" points="13.7,9.8 44.7,5.8 45.4,9 14.4,13.1 					"/>
				</defs>
				<clipPath id="SVGID_80_">
					<use xlink:href="#SVGID_78_"  style="overflow:visible;"/>
				</clipPath>
				<g class="st37">
					
						<linearGradient id="SVGID_81_" gradientUnits="userSpaceOnUse" x1="12.9453" y1="55.5189" x2="46.1815" y2="55.5189" gradientTransform="matrix(1 0 0 -1 0 65)">
						<stop  offset="0" style="stop-color:#FFFFFF"/>
						<stop  offset="1" style="stop-color:#000000"/>
					</linearGradient>
					<path class="st38" d="M14.3,13.2L14.3,13.2l-0.7-3.4h0.1l31.1-4l0.8,3.4h-0.1L14.3,13.2z M13.8,9.9l0.7,3.1l30.9-4l-0.7-3.1
						L13.8,9.9z"/>
				</g>
			</g>
			<g>
				
					<linearGradient id="SVGID_82_" gradientUnits="userSpaceOnUse" x1="13.0749" y1="55.5629" x2="46.0437" y2="55.5629" gradientTransform="matrix(1 0 0 -1 0 65)">
					<stop  offset="0" style="stop-color:#FFFFFF"/>
					<stop  offset="1" style="stop-color:#000000"/>
				</linearGradient>
				<polygon id="SVGID_47_" class="st39" points="13.7,9.8 44.7,5.8 45.4,9 14.4,13.1 				"/>
			</g>
		</g>
		<g class="st4">
			<g>
				<defs>
					<polygon id="SVGID_84_" points="44.7,5.8 63.2,26.4 63.9,29.6 45.4,9 					"/>
				</defs>
				<clipPath id="SVGID_85_">
					<use xlink:href="#SVGID_84_"  style="overflow:visible;"/>
				</clipPath>
				<g class="st40">
					
						<linearGradient id="SVGID_86_" gradientUnits="userSpaceOnUse" x1="43.6584" y1="47.2688" x2="64.9905" y2="47.2688" gradientTransform="matrix(1 0 0 -1 0 65)">
						<stop  offset="0" style="stop-color:#FFFFFF"/>
						<stop  offset="1" style="stop-color:#000000"/>
					</linearGradient>
					<path class="st41" d="M64.1,30l-0.2-0.3L45.4,9.1l-0.8-3.6l0.2,0.3l18.5,20.6L64.1,30z M45.5,9l18.2,20.3l-0.6-2.9L44.9,6.2
						L45.5,9z"/>
				</g>
			</g>
			<g>
				
					<linearGradient id="SVGID_88_" gradientUnits="userSpaceOnUse" x1="43.84" y1="47.2753" x2="64.8172" y2="47.2753" gradientTransform="matrix(1 0 0 -1 0 65)">
					<stop  offset="0" style="stop-color:#FFFFFF"/>
					<stop  offset="1" style="stop-color:#000000"/>
				</linearGradient>
				<polygon id="SVGID_51_" class="st42" points="44.7,5.8 63.2,26.4 63.9,29.6 45.4,9 				"/>
			</g>
		</g>
		<g class="st4">
			<g>
				<defs>
					<polygon id="SVGID_89_" points="63.2,26.4 63.9,29.6 51.3,54.1 50.6,50.9 					"/>
				</defs>
				<clipPath id="SVGID_90_">
					<use xlink:href="#SVGID_89_"  style="overflow:visible;"/>
				</clipPath>
				<g class="st43">
					
						<linearGradient id="SVGID_92_" gradientUnits="userSpaceOnUse" x1="49.9655" y1="24.7721" x2="64.5432" y2="24.7721" gradientTransform="matrix(1 0 0 -1 0 65)">
						<stop  offset="0" style="stop-color:#FFFFFF"/>
						<stop  offset="1" style="stop-color:#000000"/>
					</linearGradient>
					<path class="st44" d="M51.2,54.4l-0.8-3.5l0,0l12.8-24.8l0.8,3.5l0,0L51.2,54.4z M50.7,50.9l0.6,2.9l12.5-24.3l-0.6-2.9
						L50.7,50.9z"/>
				</g>
			</g>
			<g>
				
					<linearGradient id="SVGID_93_" gradientUnits="userSpaceOnUse" x1="50.0681" y1="24.753" x2="64.4403" y2="24.753" gradientTransform="matrix(1 0 0 -1 0 65)">
					<stop  offset="0" style="stop-color:#FFFFFF"/>
					<stop  offset="1" style="stop-color:#000000"/>
				</linearGradient>
				<polygon id="SVGID_55_" class="st45" points="63.2,26.4 63.9,29.6 51.3,54.1 50.6,50.9 				"/>
			</g>
		</g>
		<g class="st4">
			<g>
				<defs>
					<polygon id="SVGID_94_" points="50.6,50.9 51.3,54.1 20.3,58.1 19.5,54.9 					"/>
				</defs>
				<clipPath id="SVGID_95_">
					<use xlink:href="#SVGID_94_"  style="overflow:visible;"/>
				</clipPath>
				<g class="st46">
					
						<linearGradient id="SVGID_96_" gradientUnits="userSpaceOnUse" x1="18.7942" y1="10.4521" x2="52.0305" y2="10.4521" gradientTransform="matrix(1 0 0 -1 0 65)">
						<stop  offset="0" style="stop-color:#FFFFFF"/>
						<stop  offset="1" style="stop-color:#000000"/>
					</linearGradient>
					<path class="st47" d="M20.2,58.3L20.2,58.3l-0.7-3.4h0.1l31.1-4l0.8,3.4h-0.1L20.2,58.3z M19.6,55l0.7,3.1l30.9-4l-0.7-3.1
						L19.6,55z"/>
				</g>
			</g>
			<g>
				
					<linearGradient id="SVGID_97_" gradientUnits="userSpaceOnUse" x1="18.911" y1="10.4966" x2="51.9147" y2="10.4966" gradientTransform="matrix(1 0 0 -1 0 65)">
					<stop  offset="0" style="stop-color:#FFFFFF"/>
					<stop  offset="1" style="stop-color:#000000"/>
				</linearGradient>
				<polygon id="SVGID_59_" class="st48" points="50.6,50.9 51.3,54.1 20.3,58.1 19.5,54.9 				"/>
			</g>
		</g>
		<g class="st4">
			<g>
				<defs>
					<polygon id="SVGID_98_" points="19.5,54.9 20.3,58.1 1.8,37.7 1.1,34.4 					"/>
				</defs>
				<clipPath id="SVGID_99_">
					<use xlink:href="#SVGID_98_"  style="overflow:visible;"/>
				</clipPath>
				<g class="st49">
					
						<linearGradient id="SVGID_100_" gradientUnits="userSpaceOnUse" x1="-2.039312e-002" y1="18.8353" x2="21.3011" y2="18.8353" gradientTransform="matrix(1 0 0 -1 0 65)">
						<stop  offset="0" style="stop-color:#FFFFFF"/>
						<stop  offset="1" style="stop-color:#000000"/>
					</linearGradient>
					<path class="st50" d="M20.4,58.5L1.7,37.7l-0.8-3.6l0.2,0.3l18.5,20.6L20.4,58.5z M1.8,37.6L20,57.8L19.4,55L1.2,34.7L1.8,37.6
						z"/>
				</g>
			</g>
			<g>
				
					<linearGradient id="SVGID_101_" gradientUnits="userSpaceOnUse" x1="0.1731" y1="18.7202" x2="21.1474" y2="18.7202" gradientTransform="matrix(1 0 0 -1 0 65)">
					<stop  offset="0" style="stop-color:#FFFFFF"/>
					<stop  offset="1" style="stop-color:#000000"/>
				</linearGradient>
				<polygon id="SVGID_63_" class="st51" points="19.5,54.9 20.3,58.1 1.8,37.7 1.1,34.4 				"/>
			</g>
		</g>
		<g class="st4">
			<g>
				<defs>
					<polygon id="SVGID_102_" points="1.1,34.4 13.7,9.8 14.4,13.1 1.8,37.7 					"/>
				</defs>
				<clipPath id="SVGID_103_">
					<use xlink:href="#SVGID_102_"  style="overflow:visible;"/>
				</clipPath>
				<g class="st52">
					
						<linearGradient id="SVGID_104_" gradientUnits="userSpaceOnUse" x1="0.4272" y1="41.2134" x2="15.0143" y2="41.2134" gradientTransform="matrix(1 0 0 -1 0 65)">
						<stop  offset="0" style="stop-color:#FFFFFF"/>
						<stop  offset="1" style="stop-color:#000000"/>
					</linearGradient>
					<path class="st53" d="M1.8,38L1,34.4l0,0L13.7,9.6l0.8,3.5l0,0L1.8,38z M1.1,34.4l0.6,2.9l12.5-24.3l-0.6-2.9L1.1,34.4z"/>
				</g>
			</g>
			<g>
				
					<linearGradient id="SVGID_105_" gradientUnits="userSpaceOnUse" x1="0.5282" y1="41.2443" x2="14.9123" y2="41.2443" gradientTransform="matrix(1 0 0 -1 0 65)">
					<stop  offset="0" style="stop-color:#FFFFFF"/>
					<stop  offset="1" style="stop-color:#000000"/>
				</linearGradient>
				<polygon id="SVGID_67_" class="st54" points="1.1,34.4 13.7,9.8 14.4,13.1 1.8,37.7 				"/>
			</g>
		</g>
		<g class="st4">
			<g>
				<polygon id="SVGID_71_" class="st55" points="63.2,26.4 63.9,29.6 45.4,9.1 44.7,5.8 				"/>
			</g>
			<g>
				<defs>
					<polygon id="SVGID_106_" points="63.2,26.4 63.9,29.6 45.4,9.1 44.7,5.8 					"/>
				</defs>
				<clipPath id="SVGID_107_">
					<use xlink:href="#SVGID_106_"  style="overflow:visible;"/>
				</clipPath>
				<g class="st56">
					
						<linearGradient id="SVGID_108_" gradientUnits="userSpaceOnUse" x1="43.6338" y1="47.2765" x2="64.9542" y2="47.2765" gradientTransform="matrix(1 0 0 -1 0 65)">
						<stop  offset="0" style="stop-color:#FFFFFF"/>
						<stop  offset="1" style="stop-color:#000000"/>
					</linearGradient>
					<path class="st57" d="M64,30l-0.2-0.3L45.4,9.1l-0.8-3.6l0.2,0.3l18.4,20.5l0,0L64,30z M45.5,9l18.2,20.2l-0.6-2.9L44.9,6.2
						L45.5,9z"/>
				</g>
			</g>
			<g>
				
					<linearGradient id="SVGID_109_" gradientUnits="userSpaceOnUse" x1="43.8289" y1="47.3023" x2="64.7661" y2="47.3023" gradientTransform="matrix(1 0 0 -1 0 65)">
					<stop  offset="0" style="stop-color:#FFFFFF"/>
					<stop  offset="1" style="stop-color:#000000"/>
				</linearGradient>
				<polygon id="SVGID_2_" class="st58" points="63.2,26.4 63.9,29.6 45.4,9.1 44.7,5.8 				"/>
			</g>
		</g>
		<g class="st4">
			<g>
				<polygon id="SVGID_75_" class="st55" points="44.7,5.8 45.4,9.1 14.4,13.1 13.7,9.8 				"/>
			</g>
			<g>
				<defs>
					<polygon id="SVGID_110_" points="44.7,5.8 45.4,9.1 14.4,13.1 13.7,9.8 					"/>
				</defs>
				<clipPath id="SVGID_111_">
					<use xlink:href="#SVGID_110_"  style="overflow:visible;"/>
				</clipPath>
				<g class="st59">
					
						<linearGradient id="SVGID_112_" gradientUnits="userSpaceOnUse" x1="12.986" y1="55.5189" x2="46.1767" y2="55.5189" gradientTransform="matrix(1 0 0 -1 0 65)">
						<stop  offset="0" style="stop-color:#FFFFFF"/>
						<stop  offset="1" style="stop-color:#000000"/>
					</linearGradient>
					<path class="st60" d="M14.3,13.2L14.3,13.2l-0.7-3.4h0.1l31.1-4l0.8,3.4h-0.1L14.3,13.2z M13.8,9.9l0.7,3.1l30.8-4L44.7,6
						L13.8,9.9z"/>
				</g>
			</g>
			<g>
				
					<linearGradient id="SVGID_113_" gradientUnits="userSpaceOnUse" x1="13.0774" y1="55.5262" x2="46.0412" y2="55.5262" gradientTransform="matrix(1 0 0 -1 0 65)">
					<stop  offset="0" style="stop-color:#FFFFFF"/>
					<stop  offset="1" style="stop-color:#000000"/>
				</linearGradient>
				<polygon id="SVGID_4_" class="st61" points="44.7,5.8 45.4,9.1 14.4,13.1 13.7,9.8 				"/>
			</g>
		</g>
		<g class="st4">
			<g>
				<polygon id="SVGID_79_" class="st55" points="13.7,9.8 14.4,13.1 1.8,37.7 1.1,34.4 				"/>
			</g>
			<g>
				<defs>
					<polygon id="SVGID_114_" points="13.7,9.8 14.4,13.1 1.8,37.7 1.1,34.4 					"/>
				</defs>
				<clipPath id="SVGID_115_">
					<use xlink:href="#SVGID_114_"  style="overflow:visible;"/>
				</clipPath>
				<g class="st62">
					
						<linearGradient id="SVGID_116_" gradientUnits="userSpaceOnUse" x1="0.4743" y1="41.2501" x2="15.0396" y2="41.2501" gradientTransform="matrix(1 0 0 -1 0 65)">
						<stop  offset="0" style="stop-color:#FFFFFF"/>
						<stop  offset="1" style="stop-color:#000000"/>
					</linearGradient>
					<path class="st63" d="M1.8,37.9L1,34.4l0,0L13.7,9.6l0.8,3.5l0,0L1.8,37.9z M1.2,34.4l0.6,2.9l12.5-24.2l-0.6-2.9L1.2,34.4z"/>
				</g>
			</g>
			<g>
				
					<linearGradient id="SVGID_117_" gradientUnits="userSpaceOnUse" x1="0.5761" y1="41.2501" x2="14.9366" y2="41.2501" gradientTransform="matrix(1 0 0 -1 0 65)">
					<stop  offset="0" style="stop-color:#FFFFFF"/>
					<stop  offset="1" style="stop-color:#000000"/>
				</linearGradient>
				<polygon id="SVGID_6_" class="st64" points="13.7,9.8 14.4,13.1 1.8,37.7 1.1,34.4 				"/>
			</g>
		</g>
		<g class="st4">
			<g>
				<polygon id="SVGID_83_" class="st55" points="1.1,34.4 19.6,54.8 20.3,58.1 1.8,37.7 				"/>
			</g>
			<g>
				<defs>
					<polygon id="SVGID_118_" points="1.1,34.4 19.6,54.8 20.3,58.1 1.8,37.7 					"/>
				</defs>
				<clipPath id="SVGID_119_">
					<use xlink:href="#SVGID_118_"  style="overflow:visible;"/>
				</clipPath>
				<g class="st65">
					
						<linearGradient id="SVGID_120_" gradientUnits="userSpaceOnUse" x1="3.346450e-002" y1="18.8652" x2="21.3259" y2="18.8652" gradientTransform="matrix(1 0 0 -1 0 65)">
						<stop  offset="0" style="stop-color:#FFFFFF"/>
						<stop  offset="1" style="stop-color:#000000"/>
					</linearGradient>
					<path class="st66" d="M20.4,58.4L1.8,37.7L1,34.1l0.2,0.3l18.4,20.6L20.4,58.4z M1.9,37.6l18.2,20.2l-0.6-2.9L1.3,34.7
						L1.9,37.6z"/>
				</g>
			</g>
			<g>
				
					<linearGradient id="SVGID_121_" gradientUnits="userSpaceOnUse" x1="0.2116" y1="18.7534" x2="21.1459" y2="18.7534" gradientTransform="matrix(1 0 0 -1 0 65)">
					<stop  offset="0" style="stop-color:#FFFFFF"/>
					<stop  offset="1" style="stop-color:#000000"/>
				</linearGradient>
				<polygon id="SVGID_8_" class="st67" points="1.1,34.4 19.6,54.8 20.3,58.1 1.8,37.7 				"/>
			</g>
		</g>
		<g class="st4">
			<g>
				<polygon id="SVGID_87_" class="st55" points="19.6,54.8 50.5,50.9 51.2,54.1 20.3,58.1 				"/>
			</g>
			<g>
				<defs>
					<polygon id="SVGID_122_" points="19.6,54.8 50.5,50.9 51.2,54.1 20.3,58.1 					"/>
				</defs>
				<clipPath id="SVGID_123_">
					<use xlink:href="#SVGID_122_"  style="overflow:visible;"/>
				</clipPath>
				<g class="st68">
					
						<linearGradient id="SVGID_124_" gradientUnits="userSpaceOnUse" x1="18.8158" y1="10.5255" x2="52.0066" y2="10.5255" gradientTransform="matrix(1 0 0 -1 0 65)">
						<stop  offset="0" style="stop-color:#FFFFFF"/>
						<stop  offset="1" style="stop-color:#000000"/>
					</linearGradient>
					<path class="st69" d="M20.2,58.2L20.2,58.2l-0.7-3.4h0.1l31.1-4l0.8,3.4h-0.1L20.2,58.2z M19.6,55l0.7,3.1l30.8-4L50.5,51
						L19.6,55z"/>
				</g>
			</g>
			<g>
				
					<linearGradient id="SVGID_125_" gradientUnits="userSpaceOnUse" x1="18.9585" y1="10.4954" x2="51.9084" y2="10.4954" gradientTransform="matrix(1 0 0 -1 0 65)">
					<stop  offset="0" style="stop-color:#FFFFFF"/>
					<stop  offset="1" style="stop-color:#000000"/>
				</linearGradient>
				<polygon id="SVGID_10_" class="st70" points="19.6,54.8 50.5,50.9 51.2,54.1 20.3,58.1 				"/>
			</g>
		</g>
		<g class="st4">
			<g>
				<polygon id="SVGID_91_" class="st55" points="50.5,50.9 63.2,26.4 63.9,29.6 51.2,54.1 				"/>
			</g>
			<g>
				<defs>
					<polygon id="SVGID_126_" points="50.5,50.9 63.2,26.4 63.9,29.6 51.2,54.1 					"/>
				</defs>
				<clipPath id="SVGID_127_">
					<use xlink:href="#SVGID_126_"  style="overflow:visible;"/>
				</clipPath>
				<g class="st71">
					
						<linearGradient id="SVGID_128_" gradientUnits="userSpaceOnUse" x1="49.9304" y1="24.7721" x2="64.4968" y2="24.7721" gradientTransform="matrix(1 0 0 -1 0 65)">
						<stop  offset="0" style="stop-color:#FFFFFF"/>
						<stop  offset="1" style="stop-color:#000000"/>
					</linearGradient>
					<path class="st72" d="M51.2,54.4l-0.8-3.5l0,0l12.7-24.8l0.8,3.5l0,0L51.2,54.4z M50.7,50.9l0.6,2.9l12.5-24.2l-0.6-2.9
						L50.7,50.9z"/>
				</g>
			</g>
			<g>
				
					<linearGradient id="SVGID_129_" gradientUnits="userSpaceOnUse" x1="50.0396" y1="24.7721" x2="64.3993" y2="24.7721" gradientTransform="matrix(1 0 0 -1 0 65)">
					<stop  offset="0" style="stop-color:#FFFFFF"/>
					<stop  offset="1" style="stop-color:#000000"/>
				</linearGradient>
				<polygon id="SVGID_12_" class="st73" points="50.5,50.9 63.2,26.4 63.9,29.6 51.2,54.1 				"/>
			</g>
		</g>
	</g>
</g>
<pattern  id="SVGID_130_" xlink:href="#Alyssa_2" patternTransform="matrix(1 0 0 -1 -134 -16846.2012)">
</pattern>
<linearGradient id="SVGID_131_" gradientUnits="userSpaceOnUse" x1="2.5744" y1="32.8475" x2="62.664" y2="32.8475" gradientTransform="matrix(1 0 0 -1 0 65)">
	<stop  offset="0" style="stop-color:#FFFFFF"/>
	<stop  offset="1" style="stop-color:#000000"/>
</linearGradient>
<polyline class="st74" points="14.9,13.8 45.4,9.8 62.1,27.8 50.7,50.9 20.3,54.5 2.9,36.3 "/>
</svg>
