<?xml version="1.0" encoding="utf-8"?>
<!-- Generator: Adobe Illustrator 19.2.1, SVG Export Plug-In . SVG Version: 6.00 Build 0)  -->
<svg version="1.1" id="Layer_1" xmlns="http://www.w3.org/2000/svg" xmlns:xlink="http://www.w3.org/1999/xlink" x="0px" y="0px"
	 viewBox="0 0 65 52" style="enable-background:new 0 0 65 52;" xml:space="preserve">
<style type="text/css">
	.st0{fill:none;}
	.st1{fill:#C6DD7F;}
	.st2{fill:#E9DDB7;}
	.st3{fill:#A6D0E4;}
	.st4{enable-background:new    ;}
	.st5{clip-path:url(#SVGID_16_);enable-background:new    ;}
	.st6{clip-path:url(#SVGID_20_);enable-background:new    ;}
	.st7{clip-path:url(#SVGID_23_);enable-background:new    ;}
	.st8{clip-path:url(#SVGID_25_);enable-background:new    ;}
	.st9{clip-path:url(#SVGID_27_);enable-background:new    ;}
	.st10{clip-path:url(#SVGID_29_);enable-background:new    ;}
	.st11{clip-path:url(#SVGID_32_);enable-background:new    ;}
	.st12{clip-path:url(#SVGID_36_);enable-background:new    ;}
	.st13{clip-path:url(#SVGID_40_);enable-background:new    ;}
	.st14{clip-path:url(#SVGID_42_);enable-background:new    ;}
	.st15{fill:#797979;}
	.st16{clip-path:url(#SVGID_45_);enable-background:new    ;}
	.st17{clip-path:url(#SVGID_48_);enable-background:new    ;}
	.st18{fill:#7D2F13;}
	.st19{clip-path:url(#SVGID_50_);enable-background:new    ;}
	.st20{fill:#792D12;}
	.st21{clip-path:url(#SVGID_53_);enable-background:new    ;}
	.st22{clip-path:url(#SVGID_56_);enable-background:new    ;}
	.st23{fill:#803013;}
	.st24{fill:#FE8B0A;}
	.st25{fill:#7B2E12;}
	.st26{clip-path:url(#SVGID_58_);enable-background:new    ;}
	.st27{clip-path:url(#SVGID_61_);enable-background:new    ;}
	.st28{clip-path:url(#SVGID_64_);enable-background:new    ;}
	.st29{clip-path:url(#SVGID_66_);enable-background:new    ;}
	.st30{fill:#000303;}
	.st31{clip-path:url(#SVGID_69_);}
	.st32{stroke:url(#SVGID_70_);stroke-miterlimit:10;}
	.st33{fill:none;stroke:url(#SVGID_72_);stroke-miterlimit:10;}
	.st34{clip-path:url(#SVGID_74_);}
	.st35{stroke:url(#SVGID_76_);stroke-miterlimit:10;}
	.st36{fill:none;stroke:url(#SVGID_77_);stroke-miterlimit:10;}
	.st37{clip-path:url(#SVGID_80_);}
	.st38{stroke:url(#SVGID_81_);stroke-miterlimit:10;}
	.st39{fill:none;stroke:url(#SVGID_82_);stroke-miterlimit:10;}
	.st40{clip-path:url(#SVGID_85_);}
	.st41{stroke:url(#SVGID_86_);stroke-miterlimit:10;}
	.st42{fill:none;stroke:url(#SVGID_88_);stroke-miterlimit:10;}
	.st43{clip-path:url(#SVGID_90_);}
	.st44{stroke:url(#SVGID_92_);stroke-miterlimit:10;}
	.st45{fill:none;stroke:url(#SVGID_93_);stroke-miterlimit:10;}
	.st46{clip-path:url(#SVGID_95_);}
	.st47{stroke:url(#SVGID_96_);stroke-miterlimit:10;}
	.st48{fill:none;stroke:url(#SVGID_97_);stroke-miterlimit:10;}
	.st49{clip-path:url(#SVGID_99_);}
	.st50{stroke:url(#SVGID_100_);stroke-miterlimit:10;}
	.st51{fill:none;stroke:url(#SVGID_101_);stroke-miterlimit:10;}
	.st52{clip-path:url(#SVGID_103_);}
	.st53{stroke:url(#SVGID_104_);stroke-miterlimit:10;}
	.st54{fill:none;stroke:url(#SVGID_105_);stroke-miterlimit:10;}
	.st55{fill:#FB7700;}
	.st56{clip-path:url(#SVGID_107_);}
	.st57{fill:#FB7700;stroke:url(#SVGID_108_);stroke-miterlimit:10;}
	.st58{fill:none;stroke:url(#SVGID_109_);stroke-miterlimit:10;}
	.st59{clip-path:url(#SVGID_111_);}
	.st60{fill:#FB7700;stroke:url(#SVGID_112_);stroke-miterlimit:10;}
	.st61{fill:none;stroke:url(#SVGID_113_);stroke-miterlimit:10;}
	.st62{clip-path:url(#SVGID_115_);}
	.st63{fill:#FB7700;stroke:url(#SVGID_116_);stroke-miterlimit:10;}
	.st64{fill:none;stroke:url(#SVGID_117_);stroke-miterlimit:10;}
	.st65{clip-path:url(#SVGID_119_);}
	.st66{fill:#FB7700;stroke:url(#SVGID_120_);stroke-miterlimit:10;}
	.st67{fill:none;stroke:url(#SVGID_121_);stroke-miterlimit:10;}
	.st68{clip-path:url(#SVGID_123_);}
	.st69{fill:#FB7700;stroke:url(#SVGID_124_);stroke-miterlimit:10;}
	.st70{fill:none;stroke:url(#SVGID_125_);stroke-miterlimit:10;}
	.st71{clip-path:url(#SVGID_127_);}
	.st72{fill:#FB7700;stroke:url(#SVGID_128_);stroke-miterlimit:10;}
	.st73{fill:none;stroke:url(#SVGID_129_);stroke-miterlimit:10;}
	.st74{opacity:0.78;fill:url(#SVGID_130_);stroke:url(#SVGID_131_);stroke-miterlimit:10;enable-background:new    ;}
</style>
<pattern  width="144.1" height="138.4" patternUnits="userSpaceOnUse" id="Alyssa_2" viewBox="100.1 -203.2 144.1 138.4" style="overflow:visible;">
	<g>
		<rect x="100.1" y="-203.2" class="st0" width="144.1" height="138.4"/>
		<g>
			<rect x="100.1" y="-203.2" class="st0" width="144.1" height="138.4"/>
			<g>
				<path class="st1" d="M311.1-223.3c-11.8,1.4-19.4-0.3-22.7-3.1c-3-2.5-5-5.4-2.2-11.9c2.9-7.1,1.5-14.7-5.5-15.9
					c-6.2-1-10.9,4.8-11.2,12.3c-0.2,5.2-1.9,8.3-5.5,7.6s-4.6-5.9-3.6-11.8c1.4-8.1,5.5-11.8,6.2-20.2c0.5-6.1-2.9-13.7-12.5-15
					c-9.3-1.4-15.9,4.3-16.6,10.5c-0.7,6.6,3.6,10.9,3.1,17.6s-4,10.2-5.9,17.3c-2.8,10.5,1.2,19,7.8,22.7c14.7,8.1,22.8-3.6,36-1.6
					c10.9,1.7,23.3,18.2,33,19.5c8.2,1.2,13.8-4.7,15-14C327.7-218.6,321.8-224.5,311.1-223.3z M268.9-223.8c0,2.3-1.9,4.2-4.2,4.2
					c-2.3,0-4.2-1.9-4.2-4.2s1.9-4.2,4.2-4.2C267.1-228,268.9-226.1,268.9-223.8z M318.4-208.4c0,1-0.8,1.7-1.7,1.7
					c-1,0-1.7-0.8-1.7-1.7s0.8-1.7,1.7-1.7C317.6-210.2,318.4-209.4,318.4-208.4z"/>
			</g>
			<g>
				<path class="st2" d="M148.9-204.1c0-7.2,4.6-13.8-1-16.3c-8.5-3.8-28,14.3-28,36.2c0,12,8.7,19,17.8,19c12.3,0,18-8.2,18-17.5
					C155.7-192.1,148.9-195.9,148.9-204.1z M143.5-198.7c0,1.1-0.9,2.1-2.1,2.1c-1.1,0-2.1-0.9-2.1-2.1c0-1.1,0.9-2.1,2.1-2.1
					S143.5-199.9,143.5-198.7z"/>
				<path class="st3" d="M223.6-227.6c-7.9-2.7-19.4,15.3-17.7,27c1.2,8.2,7.1,13.2,13.1,14.2c7.5,1.3,12.9-2.6,13.3-7.2
					c0.5-6.3-3.6-7.5-4.2-15C227.5-215.7,231.8-224.8,223.6-227.6z M219.8-200.1c0,1.4-1.2,2.6-2.6,2.6c-1.4,0-2.6-1.2-2.6-2.6
					s1.2-2.6,2.6-2.6C218.6-202.7,219.8-201.5,219.8-200.1z"/>
				<circle class="st2" cx="116.9" cy="-205.1" r="2.6"/>
				<path class="st3" d="M184.7-197.4c0.7-8.1,12.7-7,17.9-14.2c10.5-14.5-1.2-46.4-21.6-46.4c-11.7,0-24.2,9.7-24.2,29.2
					c0,15.8,10.2,21.5,8.3,42.2c-1,10.8-12.5,20.3-12.5,34.8c0,5.9,3.6,13.4,11.6,13.4c7.1,0,10.8-6,10.8-12.9
					c0-6.8-5.4-15.7,1.4-19c5.2-2.6,13.2,4.8,19.5,6.8c5.2,1.6,12.4-0.2,14.8-8.5c2.5-8.9-3.3-14.7-11.6-16.7
					C192.6-190.3,184.1-191,184.7-197.4z M168.7-166.9c0,1.8-1.5,3.3-3.3,3.3c-1.8,0-3.3-1.5-3.3-3.3s1.5-3.3,3.3-3.3
					C167.2-170.1,168.7-168.7,168.7-166.9z M194.7-176.5c1.3,0,2.3,1,2.3,2.3c0,1.3-1,2.3-2.3,2.3c-1.3,0-2.3-1-2.3-2.3
					C192.3-175.5,193.4-176.5,194.7-176.5z M174.7-236.2c0,1.8-1.5,3.3-3.3,3.3c-1.8,0-3.3-1.5-3.3-3.3c0-1.8,1.5-3.3,3.3-3.3
					C173.2-239.5,174.7-238,174.7-236.2z"/>
				<path class="st1" d="M167-223.3c-11.8,1.4-19.4-0.3-22.7-3.1c-3-2.5-5-5.4-2.2-11.9c2.9-7.1,1.5-14.7-5.5-15.9
					c-6.2-1-10.9,4.8-11.2,12.3c-0.2,5.2-1.9,8.3-5.5,7.6s-4.6-5.9-3.6-11.8c1.4-8.1,5.5-11.8,6.2-20.2c0.5-6.1-2.9-13.7-12.5-15
					c-9.3-1.4-15.9,4.3-16.6,10.5c-0.7,6.6,3.6,10.9,3.1,17.6s-4,10.2-5.9,17.3c-2.8,10.5,1.2,19,7.8,22.7c14.7,8.1,22.8-3.6,36-1.6
					c10.9,1.7,23.3,18.2,33,19.5c8.2,1.2,13.8-4.7,15-14C183.6-218.6,177.7-224.5,167-223.3z M124.8-223.8c0,2.3-1.9,4.2-4.2,4.2
					c-2.3,0-4.2-1.9-4.2-4.2s1.9-4.2,4.2-4.2C123-228,124.8-226.1,124.8-223.8z M174.3-208.4c0,1-0.8,1.7-1.7,1.7
					c-1,0-1.7-0.8-1.7-1.7s0.8-1.7,1.7-1.7C173.5-210.2,174.3-209.4,174.3-208.4z"/>
			</g>
			<g>
				<path class="st3" d="M290.4-176.8c0-6.2-4.2-10.7-8.6-11.6c-4.5-0.9-8.3,1.3-13-1.2c-4.8-2.6-7.1-11.1-16.8-11.1
					c-8,0-15.2,8-15.2,18.8c0,20.2,13.1,29.2,25.6,29.2C279-152.5,290.4-165.2,290.4-176.8z M270.7-162.4c0,2.1-1.7,3.8-3.8,3.8
					c-2.1,0-3.8-1.7-3.8-3.8c0-2.1,1.7-3.8,3.8-3.8S270.7-164.5,270.7-162.4z"/>
				<path class="st1" d="M311.1-84.9c-11.8,1.4-19.4-0.3-22.7-3.1c-3-2.5-5-5.4-2.2-11.9c2.9-7.1,1.5-14.7-5.5-15.9
					c-6.2-1-10.9,4.8-11.2,12.3c-0.2,5.2-1.9,8.3-5.5,7.6s-4.6-5.9-3.6-11.8c1.4-8.1,5.5-11.8,6.2-20.2c0.5-6.1-2.9-13.7-12.5-15
					c-9.3-1.4-15.9,4.3-16.6,10.5c-0.7,6.6,3.6,10.9,3.1,17.6c-0.5,6.7-4,10.2-5.9,17.3c-2.8,10.5,1.2,19,7.8,22.7
					c14.7,8.1,22.8-3.6,36-1.6c10.9,1.7,23.3,18.2,33,19.5c8.2,1.2,13.8-4.7,15-14C327.7-80.3,321.8-86.2,311.1-84.9z M268.9-85.4
					c0,2.3-1.9,4.2-4.2,4.2c-2.3,0-4.2-1.9-4.2-4.2s1.9-4.2,4.2-4.2C267.1-89.6,268.9-87.7,268.9-85.4z M318.4-70.1
					c0,1-0.8,1.7-1.7,1.7c-1,0-1.7-0.8-1.7-1.7c0-1,0.8-1.7,1.7-1.7S318.4-71,318.4-70.1z"/>
			</g>
			<g>
				<path class="st3" d="M131.9-148.4c-14-2-21.2,13.3-17.7,20.3c3.7,7.3,12.1,4.2,19.5,4.2c9.7,0,16.4,7.6,20.4,2.3
					C158.4-127.2,149.1-146,131.9-148.4z M132.4-130.9c0,1.2-1,2.2-2.2,2.2c-1.2,0-2.2-1-2.2-2.2s1-2.2,2.2-2.2
					C131.4-133.2,132.4-132.2,132.4-130.9z"/>
				<path class="st2" d="M148.9-65.7c0-7.2,4.6-13.8-1-16.3c-8.5-3.8-28,14.3-28,36.2c0,12,8.7,19,17.8,19c12.3,0,18-8.2,18-17.5
					C155.7-53.7,148.9-57.5,148.9-65.7z M143.5-60.4c0,1.1-0.9,2.1-2.1,2.1c-1.1,0-2.1-0.9-2.1-2.1c0-1.1,0.9-2.1,2.1-2.1
					C142.6-62.4,143.5-61.5,143.5-60.4z"/>
				<path class="st3" d="M146.3-176.8c0-6.2-4.2-10.7-8.6-11.6c-4.5-0.9-8.3,1.3-13-1.2c-4.8-2.6-7.1-11.1-16.8-11.1
					c-8,0-15.2,8-15.2,18.8c0,20.2,13.1,29.2,25.6,29.2C134.8-152.5,146.3-165.2,146.3-176.8z M126.5-162.4c0,2.1-1.7,3.8-3.8,3.8
					c-2.1,0-3.8-1.7-3.8-3.8c0-2.1,1.7-3.8,3.8-3.8C124.8-166.2,126.5-164.5,126.5-162.4z"/>
				<circle class="st1" cx="143.1" cy="-153.1" r="2.4"/>
				<path class="st3" d="M229.3-134.6c-3.2-4.7,1-10.7-1.4-15.2s-6.7-5-9.9-2.6c-3.6,2.8-3.4,6.6-8.3,8.8c-5.5,2.5-18-2.2-19.7,7.3
					c-0.9,4.8,2.4,8.6,7.3,9.7c6.1,1.4,9.4,0.2,15.4,3.1c6.1,2.9,11.2,9,22.1,12.1c10.4,3,16.1-1.6,16.6-5.9
					C252.4-125.7,234.3-127.2,229.3-134.6z M227-127.1c0,1.2-1,2.2-2.2,2.2c-1.2,0-2.2-1-2.2-2.2s1-2.2,2.2-2.2
					C226-129.4,227-128.4,227-127.1z"/>
				<path class="st2" d="M256.2-173.7c0-17.2-14.5-25.5-27-22.8c-10.3,2.2-12.8,17.3-16.7,26.2c-3.7,8.6-8.8,22.5-20.2,22.5
					c-11.2,0-12.8-14.5-23.7-14.5c-11,0-24.5,15.7-24.5,39.7c0,14.7,9.8,31.5,20.8,30.7c11.7-0.8,4.5-19.7,15.3-19.7
					c9.5,0,7.9,16.3,9.2,23.3c1.7,9,6.8,14.2,18.5,13.2c14.4-1.2,22.3-13.5,18.9-23.3c-4-11.5-23.9-17.3-21.5-30.5
					c1.3-7.6,13-12,26-16.2C245.9-149.9,256.2-156.6,256.2-173.7z M211.3-97.9c0-1.8,1.5-3.3,3.3-3.3c1.8,0,3.3,1.5,3.3,3.3
					s-1.5,3.3-3.3,3.3C212.7-94.6,211.3-96.1,211.3-97.9z M164.6-122.8c0,1-0.8,1.7-1.7,1.7c-1,0-1.7-0.8-1.7-1.7
					c0-1,0.8-1.7,1.7-1.7S164.6-123.8,164.6-122.8z M182.1-133.5c0,2.1-1.7,3.8-3.8,3.8s-3.8-1.7-3.8-3.8s1.7-3.8,3.8-3.8
					C180.3-137.3,182.1-135.6,182.1-133.5z M201.9-118c0,0.9-0.7,1.6-1.6,1.6c-0.9,0-1.6-0.7-1.6-1.6c0-0.9,0.7-1.6,1.6-1.6
					C201.2-119.5,201.9-118.8,201.9-118z M231.6-172.7c0,1.8-1.4,3.2-3.2,3.2c-1.8,0-3.2-1.4-3.2-3.2c0-1.8,1.4-3.2,3.2-3.2
					C230.2-175.8,231.6-174.4,231.6-172.7z"/>
				<path class="st3" d="M223.6-89.2c-7.9-2.7-19.4,15.3-17.7,27C207.1-54,213-49,219-48c7.5,1.3,12.9-2.6,13.3-7.2
					c0.5-6.3-3.6-7.5-4.2-15C227.5-77.3,231.8-86.4,223.6-89.2z M219.8-61.7c0,1.4-1.2,2.6-2.6,2.6c-1.4,0-2.6-1.2-2.6-2.6
					c0-1.4,1.2-2.6,2.6-2.6C218.6-64.3,219.8-63.2,219.8-61.7z"/>
				<circle class="st2" cx="116.9" cy="-66.8" r="2.6"/>
				<path class="st2" d="M253.4-153.5c0,8.4-5.1,15.2-11.3,15.2c-6.2,0-11.3-6.8-11.3-15.2s5.1-12.4,11.3-12.4
					C248.3-165.9,253.4-161.9,253.4-153.5z"/>
				<path class="st3" d="M184.7-59c0.7-8.1,12.7-7,17.9-14.2c10.5-14.5-1.2-46.4-21.6-46.4c-11.7,0-24.2,9.7-24.2,29.2
					c0,15.8,10.2,21.5,8.3,42.2c-1,10.8-12.5,20.3-12.5,34.8c0,5.9,3.6,13.4,11.6,13.4c7.1,0,10.8-6,10.8-12.9
					c0-6.8-5.4-15.7,1.4-19c5.2-2.6,13.2,4.8,19.5,6.8c5.2,1.6,12.4-0.2,14.8-8.5c2.5-8.9-3.3-14.7-11.6-16.7
					C192.6-51.9,184.1-52.6,184.7-59z M168.7-28.5c0,1.8-1.5,3.3-3.3,3.3c-1.8,0-3.3-1.5-3.3-3.3s1.5-3.3,3.3-3.3
					C167.2-31.8,168.7-30.3,168.7-28.5z M194.7-38.2c1.3,0,2.3,1,2.3,2.3s-1,2.3-2.3,2.3c-1.3,0-2.3-1-2.3-2.3
					C192.3-37.1,193.4-38.2,194.7-38.2z M174.7-97.9c0,1.8-1.5,3.3-3.3,3.3c-1.8,0-3.3-1.5-3.3-3.3s1.5-3.3,3.3-3.3
					C173.2-101.1,174.7-99.7,174.7-97.9z"/>
				<path class="st1" d="M167-84.9c-11.8,1.4-19.4-0.3-22.7-3.1c-3-2.5-5-5.4-2.2-11.9c2.9-7.1,1.5-14.7-5.5-15.9
					c-6.2-1-10.9,4.8-11.2,12.3c-0.2,5.2-1.9,8.3-5.5,7.6s-4.6-5.9-3.6-11.8c1.4-8.1,5.5-11.8,6.2-20.2c0.5-6.1-2.9-13.7-12.5-15
					c-9.3-1.4-15.9,4.3-16.6,10.5c-0.7,6.6,3.6,10.9,3.1,17.6c-0.5,6.7-4,10.2-5.9,17.3c-2.8,10.5,1.2,19,7.8,22.7
					c14.7,8.1,22.8-3.6,36-1.6c10.9,1.7,23.3,18.2,33,19.5c8.2,1.2,13.8-4.7,15-14C183.6-80.3,177.7-86.2,167-84.9z M124.8-85.4
					c0,2.3-1.9,4.2-4.2,4.2c-2.3,0-4.2-1.9-4.2-4.2s1.9-4.2,4.2-4.2C123-89.6,124.8-87.7,124.8-85.4z M174.3-70.1
					c0,1-0.8,1.7-1.7,1.7c-1,0-1.7-0.8-1.7-1.7c0-1,0.8-1.7,1.7-1.7S174.3-71,174.3-70.1z"/>
				<circle class="st1" cx="228.9" cy="-107.2" r="1.4"/>
				<circle class="st2" cx="233.6" cy="-68.8" r="2.2"/>
				<circle class="st3" cx="151.1" cy="-92" r="1.2"/>
				<circle class="st3" cx="147.3" cy="-160.5" r="1.4"/>
				<circle class="st2" cx="232" cy="-138.5" r="1.2"/>
				<circle class="st1" cx="192.5" cy="-156.5" r="3.4"/>
				<circle class="st2" cx="198.8" cy="-196.3" r="2.1"/>
				<circle class="st2" cx="160.6" cy="-190" r="1.6"/>
				<circle class="st1" cx="233.2" cy="-76" r="2.6"/>
				<circle class="st3" cx="223.2" cy="-110.8" r="2.4"/>
				<circle class="st2" cx="125.2" cy="-117.4" r="2.6"/>
				<circle class="st3" cx="121.5" cy="-110.3" r="1.3"/>
				<circle class="st2" cx="185.5" cy="-162.2" r="1.6"/>
			</g>
			<g>
				<path class="st3" d="M85.1-134.6c-3.2-4.7,1-10.7-1.4-15.2s-6.7-5-9.9-2.6c-3.6,2.8-3.4,6.6-8.3,8.8c-5.5,2.5-18-2.2-19.7,7.3
					c-0.9,4.8,2.4,8.6,7.3,9.7c6.1,1.4,9.4,0.2,15.4,3.1c6.1,2.9,11.2,9,22.1,12.1c10.4,3,16.1-1.6,16.6-5.9
					C108.3-125.7,90.1-127.2,85.1-134.6z M82.9-127.1c0,1.2-1,2.2-2.2,2.2s-2.2-1-2.2-2.2s1-2.2,2.2-2.2
					C81.9-129.4,82.9-128.4,82.9-127.1z"/>
				<path class="st2" d="M112.1-173.7c0-17.2-14.5-25.5-27-22.8c-10.3,2.2-12.8,17.3-16.7,26.2c-3.7,8.6-8.8,22.5-20.2,22.5
					c-11.2,0-12.8-14.5-23.7-14.5c-11,0-24.5,15.7-24.5,39.7c0,14.7,9.8,31.5,20.8,30.7c11.7-0.8,4.5-19.7,15.3-19.7
					c9.5,0,7.9,16.3,9.2,23.3c1.7,9,6.8,14.2,18.5,13.2c14.4-1.2,22.3-13.5,18.9-23.3c-4-11.5-23.9-17.3-21.5-30.5
					c1.3-7.6,13-12,26-16.2C101.8-149.9,112.1-156.6,112.1-173.7z M67.1-97.9c0-1.8,1.5-3.3,3.3-3.3s3.3,1.5,3.3,3.3
					s-1.5,3.3-3.3,3.3S67.1-96.1,67.1-97.9z M20.5-122.8c0,1-0.8,1.7-1.7,1.7c-1,0-1.7-0.8-1.7-1.7c0-1,0.8-1.7,1.7-1.7
					S20.5-123.8,20.5-122.8z M37.9-133.5c0,2.1-1.7,3.8-3.8,3.8s-3.8-1.7-3.8-3.8s1.7-3.8,3.8-3.8S37.9-135.6,37.9-133.5z M57.8-118
					c0,0.9-0.7,1.6-1.6,1.6c-0.9,0-1.6-0.7-1.6-1.6c0-0.9,0.7-1.6,1.6-1.6C57.1-119.5,57.8-118.8,57.8-118z M87.5-172.7
					c0,1.8-1.4,3.2-3.2,3.2c-1.8,0-3.2-1.4-3.2-3.2c0-1.8,1.4-3.2,3.2-3.2C86-175.8,87.5-174.4,87.5-172.7z"/>
				<path class="st2" d="M109.3-153.5c0,8.4-5.1,15.2-11.3,15.2c-6.3,0-11.3-6.8-11.3-15.2s5.1-12.4,11.3-12.4
					C104.2-166,109.3-161.9,109.3-153.5z"/>
			</g>
		</g>
	</g>
</pattern>
<g>
	<g class="st4">
		<g class="st4">
			<g>
				<path id="SVGID_1_" d="M26.4,31.6l-5.8-2.8c0.3-0.4,0.4-0.8,0.4-1.2c0-0.3-0.1-0.6-0.3-0.8l5.8,2.8c0.2,0.3,0.3,0.6,0.3,0.8
					C26.9,30.8,26.7,31.2,26.4,31.6z"/>
			</g>
			<g>
				<defs>
					<path id="SVGID_14_" d="M26.4,31.6l-5.8-2.8c0.3-0.4,0.4-0.8,0.4-1.2c0-0.3-0.1-0.6-0.3-0.8l5.8,2.8c0.2,0.3,0.3,0.6,0.3,0.8
						C26.9,30.8,26.7,31.2,26.4,31.6z"/>
				</defs>
				<clipPath id="SVGID_16_">
					<use xlink:href="#SVGID_14_"  style="overflow:visible;"/>
				</clipPath>
				<g class="st5">
					<path d="M26.4,31.6l-5.8-2.8l0,0L26.4,31.6L26.4,31.6"/>
					<path d="M26.4,31.6l-5.8-2.8c0.1-0.1,0.1-0.2,0.2-0.2l5.8,2.8C26.6,31.5,26.5,31.6,26.4,31.6"/>
					<path d="M26.6,31.4l-5.8-2.8c0.1-0.1,0.1-0.2,0.2-0.3l5.8,2.8C26.7,31.2,26.7,31.3,26.6,31.4"/>
					<path d="M26.7,31.1l-5.8-2.8c0.1-0.2,0.2-0.4,0.2-0.7s-0.1-0.6-0.3-0.8l5.8,2.8c0.2,0.3,0.3,0.6,0.3,0.8
						C26.9,30.6,26.8,30.9,26.7,31.1"/>
				</g>
			</g>
		</g>
		<g class="st4">
			<g>
				<path id="SVGID_3_" d="M20.4,26.6l5.8,2.8c0.2,0.1,0.3,0.2,0.3,0.3l-5.8-2.8C20.7,26.7,20.6,26.6,20.4,26.6z"/>
			</g>
			<g>
				<defs>
					<path id="SVGID_18_" d="M20.4,26.6l5.8,2.8c0.2,0.1,0.3,0.2,0.3,0.3l-5.8-2.8C20.7,26.7,20.6,26.6,20.4,26.6z"/>
				</defs>
				<clipPath id="SVGID_20_">
					<use xlink:href="#SVGID_18_"  style="overflow:visible;"/>
				</clipPath>
				<g class="st6">
					<path d="M26.6,29.6l-5.8-2.8c-0.1-0.1-0.2-0.2-0.3-0.3l5.8,2.8C26.4,29.4,26.5,29.5,26.6,29.6"/>
				</g>
			</g>
		</g>
		<g class="st4">
			<g>
				<path id="SVGID_5_" d="M21.3,25.5l5.8,2.8c-0.2-0.1-0.4-0.2-0.7-0.2l-5.8-2.8C20.9,25.3,21.1,25.3,21.3,25.5z"/>
			</g>
			<g>
				<defs>
					<path id="SVGID_22_" d="M21.3,25.5l5.8,2.8c-0.2-0.1-0.4-0.2-0.7-0.2l-5.8-2.8C20.9,25.3,21.1,25.3,21.3,25.5z"/>
				</defs>
				<clipPath id="SVGID_23_">
					<use xlink:href="#SVGID_22_"  style="overflow:visible;"/>
				</clipPath>
				<g class="st7">
					<path d="M26.4,28l-5.8-2.8l0,0L26.4,28L26.4,28"/>
					<path d="M26.4,28l-5.8-2.8c0.2,0.1,0.4,0.1,0.6,0.2l5.8,2.8C26.9,28.1,26.7,28,26.4,28"/>
					<path d="M27.1,28.2l-5.8-2.8c0.1,0,0.1,0.1,0.1,0.1l5.8,2.8C27.1,28.2,27.1,28.2,27.1,28.2"/>
				</g>
			</g>
		</g>
		<g class="st4">
			<g>
				<path id="SVGID_7_" d="M22.9,32.1l-5.8-2.8c0.6,0.3,1.2,0.4,2,0.3c0.6-0.1,1.1-0.3,1.6-0.7l5.8,2.8c-0.4,0.4-0.9,0.6-1.6,0.7
					C24.1,32.5,23.5,32.3,22.9,32.1z"/>
			</g>
			<g>
				<defs>
					<path id="SVGID_24_" d="M22.9,32.1l-5.8-2.8c0.6,0.3,1.2,0.4,2,0.3c0.6-0.1,1.1-0.3,1.6-0.7l5.8,2.8c-0.4,0.4-0.9,0.6-1.6,0.7
						C24.1,32.5,23.5,32.3,22.9,32.1z"/>
				</defs>
				<clipPath id="SVGID_25_">
					<use xlink:href="#SVGID_24_"  style="overflow:visible;"/>
				</clipPath>
				<g class="st8">
					<path d="M22.9,32.1l-5.8-2.8c0.1,0,0.1,0.1,0.1,0.1l5.8,2.8C23,32.1,22.9,32.1,22.9,32.1"/>
					<path d="M23,32.1l-5.8-2.8c0.2,0.1,0.4,0.2,0.6,0.2l5.8,2.8C23.4,32.2,23.2,32.2,23,32.1"/>
					<path d="M23.6,32.3l-5.8-2.8c0.4,0.1,0.8,0.1,1.3,0.1c0.3-0.1,0.6-0.1,0.8-0.2l5.8,2.8c-0.2,0.1-0.5,0.2-0.8,0.2
						C24.4,32.4,24,32.4,23.6,32.3"/>
					<path d="M25.7,32.1l-5.8-2.8c0.1-0.1,0.2-0.1,0.3-0.2L26,32C25.9,32,25.8,32.1,25.7,32.1"/>
					<path d="M26,32l-5.8-2.8c0.1-0.1,0.2-0.1,0.2-0.2l5.8,2.8C26.2,31.8,26.1,31.9,26,32"/>
					<path d="M26.2,31.8L20.4,29c0.1-0.1,0.1-0.1,0.2-0.2l5.8,2.8C26.4,31.7,26.3,31.7,26.2,31.8"/>
				</g>
			</g>
		</g>
		<g class="st4">
			<g>
				<path id="SVGID_9_" d="M27.6,26.2l-5.8-2.8c-0.3-0.6-0.8-1.1-1.5-1.4l5.8,2.8C26.8,25.1,27.3,25.6,27.6,26.2z"/>
			</g>
			<g>
				<defs>
					<path id="SVGID_26_" d="M27.6,26.2l-5.8-2.8c-0.3-0.6-0.8-1.1-1.5-1.4l5.8,2.8C26.8,25.1,27.3,25.6,27.6,26.2z"/>
				</defs>
				<clipPath id="SVGID_27_">
					<use xlink:href="#SVGID_26_"  style="overflow:visible;"/>
				</clipPath>
				<g class="st9">
					<path d="M27.6,26.2l-5.8-2.8c-0.3-0.6-0.8-1.1-1.5-1.4l5.8,2.8C26.8,25.1,27.3,25.6,27.6,26.2"/>
				</g>
			</g>
		</g>
		<g class="st4">
			<g>
				<path id="SVGID_11_" d="M20.3,22l5.8,2.8c0,0,0.1,0,0.1,0.1L20.3,22C20.3,22,20.3,22,20.3,22z"/>
			</g>
			<g>
				<defs>
					<path id="SVGID_28_" d="M20.3,22l5.8,2.8c0,0,0.1,0,0.1,0.1L20.3,22C20.3,22,20.3,22,20.3,22z"/>
				</defs>
				<clipPath id="SVGID_29_">
					<use xlink:href="#SVGID_28_"  style="overflow:visible;"/>
				</clipPath>
				<g class="st10">
					<path d="M26.2,24.7L20.4,22c0,0-0.1,0-0.1-0.1L26.2,24.7C26.1,24.7,26.1,24.7,26.2,24.7"/>
				</g>
			</g>
		</g>
		<g class="st4">
			<g>
				<path id="SVGID_13_" d="M25.8,24L20,21.2c0.2,0.1,0.3,0.1,0.4,0.1c0.2-0.1,0.6-0.2,1-0.6l5.8,2.8c-0.4,0.3-0.7,0.6-1,0.6
					C26.1,24.1,26,24.1,25.8,24z"/>
			</g>
			<g>
				<defs>
					<path id="SVGID_30_" d="M25.8,24L20,21.2c0.2,0.1,0.3,0.1,0.4,0.1c0.2-0.1,0.6-0.2,1-0.6l5.8,2.8c-0.4,0.3-0.7,0.6-1,0.6
						C26.1,24.1,26,24.1,25.8,24z"/>
				</defs>
				<clipPath id="SVGID_32_">
					<use xlink:href="#SVGID_30_"  style="overflow:visible;"/>
				</clipPath>
				<g class="st11">
					<path d="M25.8,24L20,21.2c0.1,0,0.1,0.1,0.2,0.1l5.8,2.8C25.9,24,25.8,24,25.8,24"/>
					<path d="M25.9,24.1l-5.8-2.8c0.1,0,0.2,0.1,0.3,0c0.1,0,0.2-0.1,0.2-0.1l5.8,2.8c-0.1,0.1-0.2,0.1-0.2,0.1S26.1,24.1,25.9,24.1
						"/>
					<path d="M26.4,24l-5.8-2.8c0.1-0.1,0.2-0.1,0.2-0.1l5.8,2.8C26.6,24,26.6,24,26.4,24"/>
					<path d="M26.7,23.9l-5.8-2.8c0.1-0.1,0.2-0.2,0.3-0.2l5.8,2.8C26.9,23.7,26.8,23.8,26.7,23.9"/>
					<path d="M27,23.7l-5.8-2.8c0.1-0.1,0.1-0.1,0.2-0.2l5.8,2.8C27.1,23.6,27.1,23.6,27,23.7"/>
				</g>
			</g>
		</g>
		<g>
			<polygon points="23.4,27.3 17.6,24.5 20.7,25.2 26.4,28 			"/>
		</g>
		<g class="st4">
			<g>
				<path id="SVGID_15_" d="M22.9,27.1l-5.8-2.8c0.1,0.1,0.3,0.1,0.5,0.2l5.8,2.8C23.2,27.2,23.1,27.2,22.9,27.1z"/>
			</g>
			<g>
				<defs>
					<path id="SVGID_34_" d="M22.9,27.1l-5.8-2.8c0.1,0.1,0.3,0.1,0.5,0.2l5.8,2.8C23.2,27.2,23.1,27.2,22.9,27.1z"/>
				</defs>
				<clipPath id="SVGID_36_">
					<use xlink:href="#SVGID_34_"  style="overflow:visible;"/>
				</clipPath>
				<g class="st12">
					<path d="M22.9,27.1l-5.8-2.8h0.1L22.9,27.1C23,27.2,23,27.2,22.9,27.1"/>
					<path d="M23,27.2l-5.8-2.8c0.1,0.1,0.2,0.1,0.4,0.1l5.8,2.8C23.2,27.2,23.1,27.2,23,27.2"/>
					<path d="M23.4,27.3l-5.8-2.8h0.1L23.4,27.3L23.4,27.3"/>
				</g>
			</g>
		</g>
		<g>
			<polygon points="20.4,30.4 14.6,27.6 15.2,27.5 21,30.2 			"/>
		</g>
		<g>
			<polygon points="21.6,33.5 15.8,30.7 14.6,27.6 20.4,30.4 			"/>
		</g>
		<g class="st4">
			<g>
				<path id="SVGID_17_" d="M21.8,28.2l-5.8-2.8c-0.2-0.1-0.3-0.2-0.4-0.2l5.8,2.8C21.6,28.1,21.7,28.1,21.8,28.2z"/>
			</g>
			<g>
				<defs>
					<path id="SVGID_38_" d="M21.8,28.2l-5.8-2.8c-0.2-0.1-0.3-0.2-0.4-0.2l5.8,2.8C21.6,28.1,21.7,28.1,21.8,28.2z"/>
				</defs>
				<clipPath id="SVGID_40_">
					<use xlink:href="#SVGID_38_"  style="overflow:visible;"/>
				</clipPath>
				<g class="st13">
					<path d="M21.8,28.2l-5.8-2.8c-0.2-0.1-0.3-0.2-0.4-0.2l5.8,2.8C21.6,28.1,21.7,28.1,21.8,28.2"/>
				</g>
			</g>
		</g>
		<g class="st4">
			<g>
				<path id="SVGID_19_" d="M21.8,24.9l-5.8-2.8c0.6-0.6,1.3-0.9,2.2-1c0.6-0.1,1.2-0.1,1.7,0.1l5.8,2.8c-0.6-0.2-1.1-0.2-1.7-0.1
					C23.2,24,22.5,24.3,21.8,24.9z"/>
			</g>
			<g>
				<defs>
					<path id="SVGID_41_" d="M21.8,24.9l-5.8-2.8c0.6-0.6,1.3-0.9,2.2-1c0.6-0.1,1.2-0.1,1.7,0.1l5.8,2.8c-0.6-0.2-1.1-0.2-1.7-0.1
						C23.2,24,22.5,24.3,21.8,24.9z"/>
				</defs>
				<clipPath id="SVGID_42_">
					<use xlink:href="#SVGID_41_"  style="overflow:visible;"/>
				</clipPath>
				<g class="st14">
					<path d="M21.8,24.9l-5.8-2.8c0.1-0.1,0.1-0.1,0.2-0.2l5.8,2.8C22,24.8,21.9,24.8,21.8,24.9"/>
					<path d="M22.1,24.7L16.3,22c0.1-0.1,0.2-0.2,0.4-0.3l5.8,2.8C22.3,24.5,22.2,24.6,22.1,24.7"/>
					<path d="M22.4,24.5l-5.8-2.8c0.2-0.1,0.3-0.2,0.5-0.3l5.8,2.8C22.7,24.3,22.6,24.3,22.4,24.5"/>
					<path d="M22.9,24.2l-5.8-2.8c0.3-0.2,0.7-0.2,1.1-0.3c0.6-0.1,1.1-0.1,1.6,0.1l5.8,2.8c-0.5-0.1-1.1-0.2-1.6-0.1
						C23.6,24,23.3,24.1,22.9,24.2"/>
					<path d="M25.7,24l-5.8-2.8c0.1,0,0.1,0,0.1,0.1l5.8,2.8C25.7,24,25.7,24,25.7,24"/>
				</g>
			</g>
		</g>
		<g>
			<path class="st15" d="M27.2,23.5l1.1,2.5l-0.6,0.2c-0.3-0.6-0.8-1.1-1.5-1.4c-0.6-0.3-1.2-0.4-2.1-0.3c-0.4,0.1-0.8,0.3-1.2,0.7
				c-0.3,0.4-0.5,0.8-0.5,1.2c0,0.5,0.3,0.8,1.1,1l3,0.7c0.6,0.1,1,0.3,1.3,0.7c0.3,0.4,0.5,0.8,0.5,1.4c0,0.8-0.3,1.4-0.9,2
				C26.7,32.6,26,33,25,33.1c-0.7,0.1-1.3,0.1-1.9-0.1c-0.2-0.1-0.4-0.1-0.6-0.1c-0.4,0.1-0.7,0.2-1.1,0.6l-1.2-3.1l0.6-0.2
				c1,1.6,2.3,2.3,3.9,2.1c0.6-0.1,1.1-0.3,1.6-0.7c0.3-0.4,0.4-0.8,0.4-1.2c0-0.3-0.1-0.6-0.3-0.8c-0.2-0.2-0.4-0.3-0.7-0.4
				L23,28.5c-0.7-0.2-1.2-0.3-1.5-0.6c-0.3-0.4-0.4-0.8-0.4-1.4c0-0.5,0.3-1.1,0.8-1.7c0.6-0.6,1.3-0.9,2.2-1
				c0.6-0.1,1.2-0.1,1.7,0.1c0.2,0.1,0.3,0.1,0.4,0.1C26.5,24.1,26.8,23.8,27.2,23.5z"/>
		</g>
		<g class="st4">
			<g>
				<path id="SVGID_21_" d="M21.5,28l-5.8-2.8c-0.3-0.4-0.4-0.8-0.4-1.4c0-0.5,0.3-1.1,0.8-1.7l5.8,2.8c-0.6,0.6-0.8,1.2-0.8,1.7
					C21,27.1,21.2,27.6,21.5,28z"/>
			</g>
			<g>
				<defs>
					<path id="SVGID_44_" d="M21.5,28l-5.8-2.8c-0.3-0.4-0.4-0.8-0.4-1.4c0-0.5,0.3-1.1,0.8-1.7l5.8,2.8c-0.6,0.6-0.8,1.2-0.8,1.7
						C21,27.1,21.2,27.6,21.5,28z"/>
				</defs>
				<clipPath id="SVGID_45_">
					<use xlink:href="#SVGID_44_"  style="overflow:visible;"/>
				</clipPath>
				<g class="st16">
					<path d="M21.5,28l-5.8-2.8c-0.3-0.4-0.4-0.8-0.4-1.4c0-0.2,0.1-0.4,0.2-0.7l5.8,2.8c-0.1,0.2-0.2,0.5-0.2,0.7
						C21,27.1,21.2,27.6,21.5,28"/>
					<path d="M21.2,25.9l-5.8-2.8c0.1-0.1,0.1-0.3,0.2-0.4l5.8,2.8C21.3,25.6,21.2,25.8,21.2,25.9"/>
					<path d="M21.4,25.5l-5.8-2.8c0.1-0.2,0.2-0.3,0.3-0.4l5.8,2.8C21.6,25.2,21.5,25.3,21.4,25.5"/>
					<path d="M21.7,25.1l-5.8-2.8c0.1-0.1,0.1-0.1,0.2-0.2l5.8,2.8C21.8,25,21.7,25,21.7,25.1"/>
				</g>
			</g>
		</g>
	</g>
</g>
<g>
	<g class="st4">
		<g class="st4">
			<g>
				<defs>
					<path id="SVGID_46_" d="M36.7,25.1l1.8-2.4c0.2-0.2,0.6-0.3,1.2-0.3l-1.8,2.4C37.2,24.7,36.8,24.8,36.7,25.1z"/>
				</defs>
				<clipPath id="SVGID_48_">
					<use xlink:href="#SVGID_46_"  style="overflow:visible;"/>
				</clipPath>
				<g class="st17">
					<g>
						<path class="st18" d="M39.6,22.4l-1.8,2.4c-0.6-0.1-1,0.1-1.2,0.3l1.8-2.4C38.7,22.5,39,22.3,39.6,22.4"/>
					</g>
				</g>
			</g>
		</g>
		<g class="st4">
			<g>
				<defs>
					<path id="SVGID_49_" d="M37.6,23.1l-1.8,2.4c0-0.1,0-0.2,0-0.3c-0.1-0.4-0.5-0.6-1.3-0.7l1.8-2.4c0.8,0.1,1.3,0.3,1.3,0.7
						C37.7,22.9,37.7,23,37.6,23.1z"/>
				</defs>
				<clipPath id="SVGID_50_">
					<use xlink:href="#SVGID_49_"  style="overflow:visible;"/>
				</clipPath>
				<g class="st19">
					<g>
						<path class="st18" d="M37.6,23.1l-1.8,2.4c0-0.1,0-0.2,0-0.3c-0.1-0.4-0.5-0.6-1.3-0.7l1.8-2.4c0.8,0.1,1.3,0.3,1.3,0.7
							C37.7,22.9,37.7,23,37.6,23.1"/>
					</g>
				</g>
			</g>
		</g>
		<g>
			<g>
				<polygon class="st20" points="36.3,22.1 34.5,24.5 34.4,23.9 36.3,21.5 				"/>
			</g>
		</g>
		<g class="st4">
			<g>
				<defs>
					<path id="SVGID_52_" d="M31.1,24.6l1.8-2.4c0.2-0.2,0.4-0.3,0.9-0.2L32,24.3C31.5,24.3,31.3,24.4,31.1,24.6z"/>
				</defs>
				<clipPath id="SVGID_53_">
					<use xlink:href="#SVGID_52_"  style="overflow:visible;"/>
				</clipPath>
				<g class="st21">
					<g>
						<path class="st18" d="M33.9,22l-1.8,2.4c-0.4-0.1-0.7,0.1-0.9,0.2l1.8-2.4C33.1,22,33.4,21.9,33.9,22"/>
					</g>
				</g>
			</g>
		</g>
		<g class="st4">
			<g>
				<defs>
					<path id="SVGID_54_" d="M31.2,22.5l-1.8,2.4c-0.2-0.5-0.6-0.7-1.2-0.8l1.8-2.4C30.6,21.7,31,22,31.2,22.5z"/>
				</defs>
				<clipPath id="SVGID_56_">
					<use xlink:href="#SVGID_54_"  style="overflow:visible;"/>
				</clipPath>
				<g class="st22">
					<g>
						<path class="st18" d="M31.2,22.5l-1.8,2.4c-0.2-0.5-0.6-0.7-1.2-0.8l1.8-2.4C30.6,21.7,31,22,31.2,22.5"/>
					</g>
				</g>
			</g>
		</g>
		<g>
			<g>
				<polygon class="st20" points="29.9,21.7 28.1,24.1 28.1,23.4 29.9,21 				"/>
			</g>
		</g>
		<g>
			<g>
				<polygon class="st20" points="35.9,29.6 34.1,32 35.8,25.5 37.6,23.1 				"/>
			</g>
		</g>
		<g>
			<g>
				<polygon class="st23" points="36.1,31.3 34.2,33.7 33.5,33.7 35.3,31.3 				"/>
			</g>
		</g>
		<g>
			<g>
				<path class="st24" d="M39.6,21.7l0.1,0.6c-0.7-0.1-1.2,0.1-1.3,0.5l-2.2,8.4l-0.8-0.1l-4.1-8.9c-0.2-0.5-0.6-0.7-1.2-0.8
					L29.9,21l3.9,0.3l0.1,0.6c-0.7-0.1-1.1,0.2-1,0.7l3.1,7l1.7-6.6c0-0.1,0-0.2,0-0.3c-0.1-0.4-0.5-0.6-1.3-0.7l0.1-0.6L39.6,21.7z
					"/>
			</g>
		</g>
		<g>
			<g>
				<polygon class="st25" points="35.3,31.3 33.5,33.7 29.4,24.8 31.2,22.5 				"/>
			</g>
		</g>
	</g>
</g>
<g>
	<g class="st4">
		<g class="st4">
			<g>
				<path id="SVGID_31_" class="st15" d="M42.7,23l2-1.4c-0.2,0.2-0.4,0.3-0.6,0.6c-0.8,0.9-1.3,2.1-1.5,3.6
					c-0.2,1.8-0.1,3.2,0.5,4.4c0.5,1.1,1.2,1.7,2.1,1.9c0.7,0.2,1.3,0.1,2-0.3c0.1-0.1,0.1-0.1,0.2-0.1l-2,1.4
					c-0.1,0.1-0.1,0.1-0.2,0.1c-0.6,0.4-1.3,0.5-2,0.3c-1-0.2-1.6-0.8-2.1-1.9c-0.6-1.2-0.7-2.6-0.5-4.4c0.2-1.6,0.7-2.8,1.5-3.6
					C42.3,23.3,42.5,23.2,42.7,23z"/>
			</g>
			<g>
				<defs>
					<path id="SVGID_57_" d="M42.7,23l2-1.4c-0.2,0.2-0.4,0.3-0.6,0.6c-0.8,0.9-1.3,2.1-1.5,3.6c-0.2,1.8-0.1,3.2,0.5,4.4
						c0.5,1.1,1.2,1.7,2.1,1.9c0.7,0.2,1.3,0.1,2-0.3c0.1-0.1,0.1-0.1,0.2-0.1l-2,1.4c-0.1,0.1-0.1,0.1-0.2,0.1
						c-0.6,0.4-1.3,0.5-2,0.3c-1-0.2-1.6-0.8-2.1-1.9c-0.6-1.2-0.7-2.6-0.5-4.4c0.2-1.6,0.7-2.8,1.5-3.6
						C42.3,23.3,42.5,23.2,42.7,23z"/>
				</defs>
				<clipPath id="SVGID_58_">
					<use xlink:href="#SVGID_57_"  style="overflow:visible;"/>
				</clipPath>
				<g class="st26">
					<path class="st15" d="M42.7,23l2-1.4c-0.2,0.2-0.4,0.3-0.6,0.6c-0.1,0.1-0.2,0.2-0.3,0.4L41.8,24c0.1-0.1,0.2-0.3,0.3-0.4
						C42.3,23.3,42.5,23.2,42.7,23"/>
					<path class="st15" d="M41.8,24l2-1.4c-0.1,0.2-0.2,0.3-0.3,0.5l-2,1.4C41.6,24.3,41.7,24.1,41.8,24"/>
					<path class="st15" d="M41.5,24.5l2-1.4c-0.1,0.2-0.2,0.3-0.2,0.4l-2,1.4C41.4,24.7,41.4,24.6,41.5,24.5"/>
					<path class="st15" d="M41.3,24.9l2-1.4c-0.1,0.2-0.1,0.3-0.2,0.4l-2,1.4C41.1,25.2,41.2,25,41.3,24.9"/>
					<path class="st15" d="M41.1,25.3l2-1.4c-0.1,0.2-0.1,0.3-0.2,0.4l-2,1.4C41,25.6,41,25.5,41.1,25.3"/>
					<path class="st15" d="M40.9,25.8l2-1.4c-0.1,0.2-0.1,0.3-0.1,0.5l-2,1.4C40.9,26.1,40.9,26,40.9,25.8"/>
					<path class="st15" d="M40.8,26.3l2-1.4c-0.1,0.2-0.1,0.4-0.1,0.6l-2,1.4C40.8,26.6,40.8,26.5,40.8,26.3"/>
					<path class="st15" d="M40.7,26.8l2-1.4c0,0.1-0.1,0.2-0.1,0.4c0,0.1,0,0.2-0.1,0.3l-2,1.4c0-0.1,0-0.2,0.1-0.3
						C40.7,27.1,40.7,27,40.7,26.8"/>
					<path class="st15" d="M40.6,27.5l2-1.4c0,0.2-0.1,0.4-0.1,0.7l-2,1.4C40.6,28,40.6,27.7,40.6,27.5"/>
					<path class="st15" d="M40.6,28.2l2-1.4c0,0.2,0,0.4,0,0.6l-2,1.4C40.6,28.6,40.6,28.4,40.6,28.2"/>
					<path class="st15" d="M40.6,28.8l2-1.4c0,0.2,0,0.3,0,0.5l-2,1.4C40.6,29.1,40.6,29,40.6,28.8"/>
					<path class="st15" d="M40.6,29.3l2-1.4c0,0.2,0,0.3,0.1,0.4l-2,1.4C40.6,29.6,40.6,29.5,40.6,29.3"/>
					<path class="st15" d="M40.6,29.7l2-1.4c0,0.2,0.1,0.3,0.1,0.4l-2,1.4C40.7,30.1,40.6,29.9,40.6,29.7"/>
					<path class="st15" d="M40.7,30.2l2-1.4c0.1,0.2,0.1,0.3,0.1,0.4l-2,1.4C40.8,30.5,40.8,30.3,40.7,30.2"/>
					<path class="st15" d="M40.8,30.6l2-1.4c0.1,0.2,0.1,0.3,0.1,0.4l-2,1.4C40.9,30.9,40.9,30.7,40.8,30.6"/>
					<path class="st15" d="M40.9,31l2-1.4c0.1,0.2,0.1,0.3,0.2,0.4l-2,1.4C41,31.3,41,31.2,40.9,31"/>
					<path class="st15" d="M41.1,31.5l2-1.4c0,0.1,0.1,0.1,0.1,0.1c0.1,0.2,0.2,0.3,0.3,0.5l-2,1.4c-0.1-0.2-0.2-0.3-0.3-0.5
						C41.1,31.6,41.1,31.5,41.1,31.5"/>
					<path class="st15" d="M41.4,32.1l2-1.4c0.2,0.2,0.3,0.4,0.4,0.6l-2,1.4C41.8,32.5,41.6,32.3,41.4,32.1"/>
					<path class="st15" d="M41.9,32.7l2-1.4c0.1,0.1,0.2,0.2,0.3,0.3l-2,1.4C42.2,32.9,42,32.8,41.9,32.7"/>
					<path class="st15" d="M42.3,33l2-1.4c0.1,0.1,0.1,0.1,0.2,0.2l-2,1.4C42.4,33.1,42.3,33.1,42.3,33"/>
					<path class="st15" d="M42.4,33.1l2-1.4c0.1,0.1,0.1,0.1,0.2,0.1l-2,1.4C42.5,33.2,42.5,33.2,42.4,33.1"/>
					<path class="st15" d="M42.6,33.2l2-1.4c0.1,0.1,0.1,0.1,0.2,0.1l-2,1.4C42.7,33.3,42.7,33.3,42.6,33.2"/>
					<path class="st15" d="M42.8,33.3l2-1.4c0.1,0,0.1,0.1,0.2,0.1l-2,1.4C42.9,33.3,42.8,33.3,42.8,33.3"/>
					<path class="st15" d="M42.9,33.4l2-1.4c0.1,0,0.1,0.1,0.2,0.1l-2,1.4C43.1,33.4,43,33.4,42.9,33.4"/>
					<path class="st15" d="M43.1,33.5l2-1.4c0.1,0,0.1,0.1,0.2,0.1l-2,1.4C43.2,33.5,43.2,33.5,43.1,33.5"/>
					<path class="st15" d="M43.3,33.5l2-1.4h0.1c0.1,0,0.1,0,0.1,0l-2,1.4C43.4,33.5,43.4,33.5,43.3,33.5
						C43.3,33.5,43.3,33.5,43.3,33.5"/>
					<path class="st15" d="M43.4,33.5l2-1.4c0.1,0,0.1,0,0.2,0l-2,1.4C43.6,33.5,43.5,33.5,43.4,33.5"/>
					<path class="st15" d="M43.6,33.5l2-1.4c0.1,0,0.1,0,0.2,0l-2,1.4C43.7,33.6,43.6,33.6,43.6,33.5"/>
					<path class="st15" d="M43.7,33.6l2-1.4c0.1,0,0.1,0,0.2,0l-2,1.4C43.8,33.6,43.8,33.6,43.7,33.6"/>
					<path class="st15" d="M43.9,33.6l2-1.4c0.1,0,0.1,0,0.2,0l-2,1.4C44,33.6,44,33.6,43.9,33.6"/>
					<path class="st15" d="M44.1,33.6l2-1.4c0.1,0,0.1,0,0.2,0l-2,1.4C44.2,33.6,44.1,33.6,44.1,33.6"/>
					<path class="st15" d="M44.2,33.6l2-1.4c0.1,0,0.1,0,0.2-0.1l-2,1.4C44.3,33.5,44.3,33.5,44.2,33.6"/>
					<path class="st15" d="M44.4,33.5l2-1.4c0.1,0,0.2-0.1,0.2-0.1l-2,1.4C44.6,33.5,44.5,33.5,44.4,33.5"/>
					<path class="st15" d="M44.6,33.5l2-1.4c0.1-0.1,0.2-0.1,0.3-0.1l-2,1.4C44.8,33.4,44.7,33.4,44.6,33.5"/>
					<path class="st15" d="M44.9,33.3l2-1.4c0.1-0.1,0.2-0.1,0.3-0.2c0.1-0.1,0.1-0.1,0.2-0.1l-2,1.4c-0.1,0.1-0.1,0.1-0.2,0.1
						C45.2,33.2,45,33.3,44.9,33.3"/>
				</g>
			</g>
		</g>
		<g>
			<polygon class="st15" points="47.2,30.9 49.2,29.5 48.7,33 46.8,34.4 			"/>
		</g>
		<g class="st4">
			<g>
				<path id="SVGID_33_" class="st15" d="M47.5,30.1l2-1.4c-0.2,0.1-0.3,0.4-0.3,0.8l-2,1.4C47.3,30.5,47.4,30.2,47.5,30.1z"/>
			</g>
			<g>
				<defs>
					<path id="SVGID_60_" d="M47.5,30.1l2-1.4c-0.2,0.1-0.3,0.4-0.3,0.8l-2,1.4C47.3,30.5,47.4,30.2,47.5,30.1z"/>
				</defs>
				<clipPath id="SVGID_61_">
					<use xlink:href="#SVGID_60_"  style="overflow:visible;"/>
				</clipPath>
				<g class="st27">
					<path class="st15" d="M47.5,30.1l2-1.4c-0.1,0.1-0.1,0.1-0.1,0.1l-2,1.4C47.5,30.2,47.5,30.1,47.5,30.1"/>
					<path class="st15" d="M47.4,30.2l2-1.4l-0.1,0.1L47.4,30.2C47.4,30.3,47.4,30.2,47.4,30.2"/>
					<path class="st15" d="M47.4,30.3l2-1.4c0,0,0,0.1-0.1,0.1L47.4,30.3C47.4,30.3,47.4,30.3,47.4,30.3"/>
					<path class="st15" d="M47.4,30.3l2-1.4c0,0,0,0.1-0.1,0.1L47.4,30.3C47.3,30.4,47.3,30.4,47.4,30.3"/>
					<path class="st15" d="M47.3,30.5l2-1.4c0,0.1,0,0.1-0.1,0.1l-2,1.4C47.3,30.5,47.3,30.5,47.3,30.5"/>
					<path class="st15" d="M47.3,30.6l2-1.4c0,0.1,0,0.1-0.1,0.1l-2,1.4C47.3,30.6,47.3,30.6,47.3,30.6"/>
					<path class="st15" d="M47.3,30.7l2-1.4c0,0.1,0,0.1,0,0.1l-2,1.4C47.3,30.7,47.3,30.7,47.3,30.7"/>
					<path class="st15" d="M47.3,30.8l2-1.4c0,0.1,0,0.1,0,0.1l-2,1.4C47.2,30.8,47.2,30.8,47.3,30.8"/>
				</g>
			</g>
		</g>
		<g>
			<polygon class="st15" points="45.1,28.8 47,27.5 50.5,28.2 48.6,29.6 			"/>
		</g>
		<g>
			<polygon class="st15" points="48.6,29.6 50.5,28.2 50.4,28.7 48.5,30 			"/>
		</g>
		<g class="st4">
			<g>
				<path id="SVGID_35_" class="st15" d="M41.9,22.7l2-1.4c0.8-0.6,1.8-0.8,2.9-0.6c0.4,0.1,0.7,0.2,1.1,0.3l-2,1.4
					c-0.3-0.2-0.7-0.3-1.1-0.3C43.7,22,42.8,22.1,41.9,22.7z"/>
			</g>
			<g>
				<defs>
					<path id="SVGID_62_" d="M41.9,22.7l2-1.4c0.8-0.6,1.8-0.8,2.9-0.6c0.4,0.1,0.7,0.2,1.1,0.3l-2,1.4c-0.3-0.2-0.7-0.3-1.1-0.3
						C43.7,22,42.8,22.1,41.9,22.7z"/>
				</defs>
				<clipPath id="SVGID_64_">
					<use xlink:href="#SVGID_62_"  style="overflow:visible;"/>
				</clipPath>
				<g class="st28">
					<path class="st15" d="M41.9,22.7l2-1.4c0.2-0.2,0.4-0.3,0.7-0.4l-2,1.4C42.4,22.5,42.2,22.6,41.9,22.7"/>
					<path class="st15" d="M42.6,22.3l2-1.4c0.1-0.1,0.2-0.1,0.3-0.1l-2,1.4C42.8,22.3,42.7,22.3,42.6,22.3"/>
					<path class="st15" d="M42.9,22.2l2-1.4c0.1,0,0.2-0.1,0.3-0.1l-2,1.4C43.1,22.2,43,22.2,42.9,22.2"/>
					<path class="st15" d="M43.2,22.2l2-1.4c0.1,0,0.2-0.1,0.2-0.1l-2,1.4C43.4,22.1,43.3,22.1,43.2,22.2"/>
					<path class="st15" d="M43.4,22.1l2-1.4c0.1,0,0.2,0,0.2,0l-2,1.4C43.6,22.1,43.5,22.1,43.4,22.1"/>
					<path class="st15" d="M43.7,22.1l2-1.4c0.1,0,0.2,0,0.2,0l-2,1.4C43.8,22.1,43.7,22.1,43.7,22.1"/>
					<path class="st15" d="M43.9,22.1l2-1.4c0.1,0,0.2,0,0.2,0l-2,1.4C44.1,22.1,44,22.1,43.9,22.1"/>
					<path class="st15" d="M44.1,22.1l2-1.4c0.1,0,0.2,0,0.2,0l-2,1.4C44.3,22.1,44.2,22.1,44.1,22.1"/>
					<path class="st15" d="M44.3,22.1l2-1.4c0.1,0,0.2,0,0.2,0.1l-1.9,1.4C44.5,22.2,44.5,22.1,44.3,22.1"/>
					<path class="st15" d="M44.6,22.2l2-1.4c0.1,0,0.1,0,0.2,0.1c0.1,0,0.1,0,0.1,0l-2,1.4c-0.1,0-0.1,0-0.1,0
						C44.7,22.2,44.7,22.2,44.6,22.2"/>
					<path class="st15" d="M44.9,22.2l2-1.4c0.1,0,0.2,0.1,0.3,0.1l-2,1.3C45.1,22.3,45,22.2,44.9,22.2"/>
					<path class="st15" d="M45.2,22.3l2-1.4c0.1,0.1,0.2,0.1,0.3,0.1l-2,1.4C45.4,22.4,45.3,22.3,45.2,22.3"/>
					<path class="st15" d="M45.5,22.5l2-1.4c0.1,0.1,0.2,0.1,0.3,0.1l-2,1.4C45.7,22.5,45.6,22.5,45.5,22.5"/>
				</g>
			</g>
		</g>
		<g class="st4">
			<g>
				<path id="SVGID_37_" class="st15" d="M45.9,22.6l2-1.4c0.3,0.1,0.5,0.2,0.7,0.4l-2,1.4C46.4,22.8,46.1,22.7,45.9,22.6z"/>
			</g>
			<g>
				<defs>
					<path id="SVGID_65_" d="M45.9,22.6l2-1.4c0.3,0.1,0.5,0.2,0.7,0.4l-2,1.4C46.4,22.8,46.1,22.7,45.9,22.6z"/>
				</defs>
				<clipPath id="SVGID_66_">
					<use xlink:href="#SVGID_65_"  style="overflow:visible;"/>
				</clipPath>
				<g class="st29">
					<path class="st15" d="M45.9,22.6l2-1.4c0.1,0,0.1,0.1,0.2,0.1l-2,1.4C46,22.6,45.9,22.6,45.9,22.6"/>
					<path class="st15" d="M46,22.6l2-1.4c0.1,0.1,0.2,0.1,0.2,0.1l-2,1.4C46.1,22.7,46.1,22.7,46,22.6"/>
					<path class="st15" d="M46.3,22.7l2-1.4c0.1,0.1,0.1,0.1,0.2,0.1l-2,1.4C46.4,22.8,46.3,22.8,46.3,22.7"/>
					<path class="st15" d="M46.4,22.8l2-1.4c0.1,0.1,0.1,0.1,0.1,0.1l-2,1.4C46.5,22.9,46.5,22.8,46.4,22.8"/>
				</g>
			</g>
		</g>
		<g>
			<polygon class="st15" points="47.7,22.8 49.6,21.5 50.2,24.5 48.3,25.8 			"/>
		</g>
		<g>
			<path class="st30" d="M47.7,22.8l0.6,3l-0.2,0.1c-0.4-0.8-0.8-1.5-1.2-2c-0.6-0.7-1.3-1.2-2.1-1.3c-1-0.2-1.9,0.1-2.7,0.9
				c-0.8,0.9-1.3,2.1-1.5,3.6c-0.2,1.8-0.1,3.2,0.5,4.4c0.5,1.1,1.2,1.7,2.1,1.9c0.7,0.2,1.3,0.1,2-0.3c0.6-0.3,0.9-0.8,1-1.3
				l0.2-1.2c0.1-0.4,0-0.7-0.2-0.9c-0.2-0.2-0.6-0.4-1.2-0.6l0.1-0.4l3.5,0.8L48.6,30c-0.4-0.1-0.7-0.1-0.9,0.1
				c-0.2,0.1-0.3,0.4-0.3,0.8l-0.4,3.5l-0.7,0L46,33.5l-0.2,0.1c-0.4,0.2-0.8,0.3-1.1,0.4c-0.5,0.1-1,0.1-1.5,0
				c-1.3-0.3-2.3-1-2.9-2.2c-0.7-1.2-0.8-2.7-0.6-4.6c0.2-1.7,0.8-3,1.7-3.9c1-0.9,2-1.2,3.3-0.9c0.4,0.1,0.7,0.2,1.1,0.3
				c0.3,0.1,0.5,0.2,0.7,0.4L47.7,22.8z"/>
		</g>
		<g>
			<polygon class="st15" points="46.5,22.9 48.5,21.6 49.6,21.5 47.7,22.8 			"/>
		</g>
	</g>
</g>
<g>
	<g class="st4">
		<g class="st4">
			<g>
				<defs>
					<path id="SVGID_68_" d="M20.1,12.2l22.2-3.1l13.2,15.6l-9,18.6l-22.2,3.1L11.1,30.8L20.1,12.2z M55.5,24.7L42.3,9.2l-22.2,3.1
						l-9,18.6l13.2,15.5l22.2-3.1L55.5,24.7"/>
				</defs>
				<clipPath id="SVGID_69_">
					<use xlink:href="#SVGID_68_"  style="overflow:visible;"/>
				</clipPath>
				<g class="st31">
					
						<linearGradient id="SVGID_70_" gradientUnits="userSpaceOnUse" x1="10.4434" y1="25.2303" x2="56.1762" y2="25.2303" gradientTransform="matrix(1 0 0 -1 0 53)">
						<stop  offset="0" style="stop-color:#FFFFFF"/>
						<stop  offset="1" style="stop-color:#000000"/>
					</linearGradient>
					<path class="st32" d="M24.3,46.5L11,30.8v-0.1l9-18.6h0.1l22.3-3.1v0.1l13.2,15.6v0.1l-9,18.6h-0.1L24.3,46.5z M11.2,30.8
						l13.1,15.4l22.1-3.1l9-18.5L42.3,9.3l-22.1,3.1L11.2,30.8z"/>
				</g>
			</g>
			<g>
				
					<linearGradient id="SVGID_72_" gradientUnits="userSpaceOnUse" x1="10.4847" y1="25.2377" x2="56.1341" y2="25.2377" gradientTransform="matrix(1 0 0 -1 0 53)">
					<stop  offset="0" style="stop-color:#FFFFFF"/>
					<stop  offset="1" style="stop-color:#000000"/>
				</linearGradient>
				<path id="SVGID_39_" class="st33" d="M20.1,12.2l22.2-3.1l13.2,15.6l-9,18.6l-22.2,3.1L11.1,30.8L20.1,12.2z M55.5,24.7
					L42.3,9.2l-22.2,3.1l-9,18.6l13.2,15.5l22.2-3.1L55.5,24.7"/>
			</g>
		</g>
		<g class="st4">
			<g>
				<defs>
					<path id="SVGID_73_" d="M19.6,9.8l22.2-3.1L55,22.3l-9,18.6l-22.2,3.1L10.6,28.3L19.6,9.8z M55,22.3L41.8,6.7L19.6,9.8l-9,18.6
						l13.2,15.5L46,40.8L55,22.3"/>
				</defs>
				<clipPath id="SVGID_74_">
					<use xlink:href="#SVGID_73_"  style="overflow:visible;"/>
				</clipPath>
				<g class="st34">
					
						<linearGradient id="SVGID_76_" gradientUnits="userSpaceOnUse" x1="9.9327" y1="27.7018" x2="55.665" y2="27.7018" gradientTransform="matrix(1 0 0 -1 0 53)">
						<stop  offset="0" style="stop-color:#FFFFFF"/>
						<stop  offset="1" style="stop-color:#000000"/>
					</linearGradient>
					<path class="st35" d="M23.8,44L10.5,28.4v-0.1l9-18.6h0.1l22.3-3.1v0.1l13.2,15.6v0.1l-9,18.6H46L23.8,44z M10.7,28.3
						l13.1,15.4l22.1-3.1l9-18.5L41.8,6.9l-22.1,3L10.7,28.3z"/>
				</g>
			</g>
			<g>
				
					<linearGradient id="SVGID_77_" gradientUnits="userSpaceOnUse" x1="9.9736" y1="27.6815" x2="55.623" y2="27.6815" gradientTransform="matrix(1 0 0 -1 0 53)">
					<stop  offset="0" style="stop-color:#FFFFFF"/>
					<stop  offset="1" style="stop-color:#000000"/>
				</linearGradient>
				<path id="SVGID_43_" class="st36" d="M19.6,9.8l22.2-3.1L55,22.3l-9,18.6l-22.2,3.1L10.6,28.3L19.6,9.8z M55,22.3L41.8,6.7
					L19.6,9.8l-9,18.6l13.2,15.5L46,40.8L55,22.3"/>
			</g>
		</g>
		<g class="st4">
			<g>
				<defs>
					<polygon id="SVGID_78_" points="19.6,9.8 41.8,6.7 42.3,9.2 20.1,12.2 					"/>
				</defs>
				<clipPath id="SVGID_80_">
					<use xlink:href="#SVGID_78_"  style="overflow:visible;"/>
				</clipPath>
				<g class="st37">
					
						<linearGradient id="SVGID_81_" gradientUnits="userSpaceOnUse" x1="18.9044" y1="43.4753" x2="43.0246" y2="43.4753" gradientTransform="matrix(1 0 0 -1 0 53)">
						<stop  offset="0" style="stop-color:#FFFFFF"/>
						<stop  offset="1" style="stop-color:#000000"/>
					</linearGradient>
					<path class="st38" d="M20,12.3L20,12.3l-0.5-2.6h0.1l22.3-3.1l0.6,2.6h-0.1L20,12.3z M19.7,9.9l0.5,2.3l22.1-3.1l-0.5-2.3
						L19.7,9.9z"/>
				</g>
			</g>
			<g>
				
					<linearGradient id="SVGID_82_" gradientUnits="userSpaceOnUse" x1="19.0006" y1="43.5104" x2="42.9208" y2="43.5104" gradientTransform="matrix(1 0 0 -1 0 53)">
					<stop  offset="0" style="stop-color:#FFFFFF"/>
					<stop  offset="1" style="stop-color:#000000"/>
				</linearGradient>
				<polygon id="SVGID_47_" class="st39" points="19.6,9.8 41.8,6.7 42.3,9.2 20.1,12.2 				"/>
			</g>
		</g>
		<g class="st4">
			<g>
				<defs>
					<polygon id="SVGID_84_" points="41.8,6.7 55,22.3 55.6,24.7 42.3,9.2 					"/>
				</defs>
				<clipPath id="SVGID_85_">
					<use xlink:href="#SVGID_84_"  style="overflow:visible;"/>
				</clipPath>
				<g class="st40">
					
						<linearGradient id="SVGID_86_" gradientUnits="userSpaceOnUse" x1="40.7881" y1="37.2344" x2="56.5727" y2="37.2344" gradientTransform="matrix(1 0 0 -1 0 53)">
						<stop  offset="0" style="stop-color:#FFFFFF"/>
						<stop  offset="1" style="stop-color:#000000"/>
					</linearGradient>
					<path class="st41" d="M55.7,25l-0.2-0.2L42.3,9.2l-0.6-2.7l0.2,0.2l13.2,15.6L55.7,25z M42.4,9.2l13,15.3l-0.4-2.2L41.9,7
						L42.4,9.2z"/>
				</g>
			</g>
			<g>
				
					<linearGradient id="SVGID_88_" gradientUnits="userSpaceOnUse" x1="40.9316" y1="37.2309" x2="56.4496" y2="37.2309" gradientTransform="matrix(1 0 0 -1 0 53)">
					<stop  offset="0" style="stop-color:#FFFFFF"/>
					<stop  offset="1" style="stop-color:#000000"/>
				</linearGradient>
				<polygon id="SVGID_51_" class="st42" points="41.8,6.7 55,22.3 55.6,24.7 42.3,9.2 				"/>
			</g>
		</g>
		<g class="st4">
			<g>
				<defs>
					<polygon id="SVGID_89_" points="55,22.3 55.6,24.7 46.5,43.3 46,40.8 					"/>
				</defs>
				<clipPath id="SVGID_90_">
					<use xlink:href="#SVGID_89_"  style="overflow:visible;"/>
				</clipPath>
				<g class="st43">
					
						<linearGradient id="SVGID_92_" gradientUnits="userSpaceOnUse" x1="45.4153" y1="20.2114" x2="56.1396" y2="20.2114" gradientTransform="matrix(1 0 0 -1 0 53)">
						<stop  offset="0" style="stop-color:#FFFFFF"/>
						<stop  offset="1" style="stop-color:#000000"/>
					</linearGradient>
					<path class="st44" d="M46.5,43.5l-0.6-2.7l0,0l9.1-18.8l0.6,2.7l0,0L46.5,43.5z M46.1,40.8l0.4,2.2l8.9-18.4L55,22.5L46.1,40.8
						z"/>
				</g>
			</g>
			<g>
				
					<linearGradient id="SVGID_93_" gradientUnits="userSpaceOnUse" x1="45.4877" y1="20.1911" x2="56.0658" y2="20.1911" gradientTransform="matrix(1 0 0 -1 0 53)">
					<stop  offset="0" style="stop-color:#FFFFFF"/>
					<stop  offset="1" style="stop-color:#000000"/>
				</linearGradient>
				<polygon id="SVGID_55_" class="st45" points="55,22.3 55.6,24.7 46.5,43.3 46,40.8 				"/>
			</g>
		</g>
		<g class="st4">
			<g>
				<defs>
					<polygon id="SVGID_94_" points="46,40.8 46.5,43.3 24.3,46.3 23.8,43.9 					"/>
				</defs>
				<clipPath id="SVGID_95_">
					<use xlink:href="#SVGID_94_"  style="overflow:visible;"/>
				</clipPath>
				<g class="st46">
					
						<linearGradient id="SVGID_96_" gradientUnits="userSpaceOnUse" x1="23.0891" y1="9.3737" x2="47.2093" y2="9.3737" gradientTransform="matrix(1 0 0 -1 0 53)">
						<stop  offset="0" style="stop-color:#FFFFFF"/>
						<stop  offset="1" style="stop-color:#000000"/>
					</linearGradient>
					<path class="st47" d="M24.3,46.5L24.3,46.5l-0.5-2.6h0.1l22.3-3.1l0.6,2.6h-0.1L24.3,46.5z M23.9,44l0.5,2.3l22.1-3.1L46,40.9
						L23.9,44z"/>
				</g>
			</g>
			<g>
				
					<linearGradient id="SVGID_97_" gradientUnits="userSpaceOnUse" x1="23.1742" y1="9.4094" x2="47.1216" y2="9.4094" gradientTransform="matrix(1 0 0 -1 0 53)">
					<stop  offset="0" style="stop-color:#FFFFFF"/>
					<stop  offset="1" style="stop-color:#000000"/>
				</linearGradient>
				<polygon id="SVGID_59_" class="st48" points="46,40.8 46.5,43.3 24.3,46.3 23.8,43.9 				"/>
			</g>
		</g>
		<g class="st4">
			<g>
				<defs>
					<polygon id="SVGID_98_" points="23.8,43.9 24.3,46.3 11.1,30.8 10.6,28.3 					"/>
				</defs>
				<clipPath id="SVGID_99_">
					<use xlink:href="#SVGID_98_"  style="overflow:visible;"/>
				</clipPath>
				<g class="st49">
					
						<linearGradient id="SVGID_100_" gradientUnits="userSpaceOnUse" x1="9.5349" y1="15.755" x2="25.2981" y2="15.755" gradientTransform="matrix(1 0 0 -1 0 53)">
						<stop  offset="0" style="stop-color:#FFFFFF"/>
						<stop  offset="1" style="stop-color:#000000"/>
					</linearGradient>
					<path class="st50" d="M24.4,46.6L11,30.8l-0.6-2.7l0.2,0.2l13.2,15.6L24.4,46.6z M11.1,30.8l13,15.3L23.7,44l-13-15.3
						L11.1,30.8z"/>
				</g>
			</g>
			<g>
				
					<linearGradient id="SVGID_101_" gradientUnits="userSpaceOnUse" x1="9.6901" y1="15.6229" x2="25.2026" y2="15.6229" gradientTransform="matrix(1 0 0 -1 0 53)">
					<stop  offset="0" style="stop-color:#FFFFFF"/>
					<stop  offset="1" style="stop-color:#000000"/>
				</linearGradient>
				<polygon id="SVGID_63_" class="st51" points="23.8,43.9 24.3,46.3 11.1,30.8 10.6,28.3 				"/>
			</g>
		</g>
		<g class="st4">
			<g>
				<defs>
					<polygon id="SVGID_102_" points="10.6,28.3 19.6,9.8 20.1,12.2 11.1,30.8 					"/>
				</defs>
				<clipPath id="SVGID_103_">
					<use xlink:href="#SVGID_102_"  style="overflow:visible;"/>
				</clipPath>
				<g class="st52">
					
						<linearGradient id="SVGID_104_" gradientUnits="userSpaceOnUse" x1="9.9684" y1="32.6523" x2="20.7011" y2="32.6523" gradientTransform="matrix(1 0 0 -1 0 53)">
						<stop  offset="0" style="stop-color:#FFFFFF"/>
						<stop  offset="1" style="stop-color:#000000"/>
					</linearGradient>
					<path class="st53" d="M11.1,31.1l-0.6-2.7l0,0l9.1-18.8l0.6,2.7l0,0L11.1,31.1z M10.6,28.4l0.4,2.2L20,12.2L19.5,10L10.6,28.4z
						"/>
				</g>
			</g>
			<g>
				
					<linearGradient id="SVGID_105_" gradientUnits="userSpaceOnUse" x1="10.0412" y1="32.6739" x2="20.6276" y2="32.6739" gradientTransform="matrix(1 0 0 -1 0 53)">
					<stop  offset="0" style="stop-color:#FFFFFF"/>
					<stop  offset="1" style="stop-color:#000000"/>
				</linearGradient>
				<polygon id="SVGID_67_" class="st54" points="10.6,28.3 19.6,9.8 20.1,12.2 11.1,30.8 				"/>
			</g>
		</g>
		<g class="st4">
			<g>
				<polygon id="SVGID_71_" class="st55" points="55,22.3 55.5,24.7 42.3,9.2 41.8,6.7 				"/>
			</g>
			<g>
				<defs>
					<polygon id="SVGID_106_" points="55,22.3 55.5,24.7 42.3,9.2 41.8,6.7 					"/>
				</defs>
				<clipPath id="SVGID_107_">
					<use xlink:href="#SVGID_106_"  style="overflow:visible;"/>
				</clipPath>
				<g class="st56">
					
						<linearGradient id="SVGID_108_" gradientUnits="userSpaceOnUse" x1="40.7699" y1="37.2424" x2="56.5447" y2="37.2424" gradientTransform="matrix(1 0 0 -1 0 53)">
						<stop  offset="0" style="stop-color:#FFFFFF"/>
						<stop  offset="1" style="stop-color:#000000"/>
					</linearGradient>
					<path class="st57" d="M55.6,25l-0.2-0.2L42.3,9.2l-0.6-2.7l0.2,0.2l13.2,15.5l0,0L55.6,25z M42.4,9.2l13,15.3l-0.4-2.2L41.9,7
						L42.4,9.2z"/>
				</g>
			</g>
			<g>
				
					<linearGradient id="SVGID_109_" gradientUnits="userSpaceOnUse" x1="40.9263" y1="37.2588" x2="56.399" y2="37.2588" gradientTransform="matrix(1 0 0 -1 0 53)">
					<stop  offset="0" style="stop-color:#FFFFFF"/>
					<stop  offset="1" style="stop-color:#000000"/>
				</linearGradient>
				<polygon id="SVGID_2_" class="st58" points="55,22.3 55.5,24.7 42.3,9.2 41.8,6.7 				"/>
			</g>
		</g>
		<g class="st4">
			<g>
				<polygon id="SVGID_75_" class="st55" points="41.8,6.7 42.3,9.2 20.1,12.3 19.6,9.8 				"/>
			</g>
			<g>
				<defs>
					<polygon id="SVGID_110_" points="41.8,6.7 42.3,9.2 20.1,12.3 19.6,9.8 					"/>
				</defs>
				<clipPath id="SVGID_111_">
					<use xlink:href="#SVGID_110_"  style="overflow:visible;"/>
				</clipPath>
				<g class="st59">
					
						<linearGradient id="SVGID_112_" gradientUnits="userSpaceOnUse" x1="18.9339" y1="43.4753" x2="43.021" y2="43.4753" gradientTransform="matrix(1 0 0 -1 0 53)">
						<stop  offset="0" style="stop-color:#FFFFFF"/>
						<stop  offset="1" style="stop-color:#000000"/>
					</linearGradient>
					<path class="st60" d="M20,12.3L20,12.3l-0.5-2.6h0.1l22.3-3.1l0.6,2.6h-0.1L20,12.3z M19.7,9.9l0.5,2.3l22.1-3l-0.5-2.3
						L19.7,9.9z"/>
				</g>
			</g>
			<g>
				
					<linearGradient id="SVGID_113_" gradientUnits="userSpaceOnUse" x1="19.003" y1="43.4826" x2="42.9185" y2="43.4826" gradientTransform="matrix(1 0 0 -1 0 53)">
					<stop  offset="0" style="stop-color:#FFFFFF"/>
					<stop  offset="1" style="stop-color:#000000"/>
				</linearGradient>
				<polygon id="SVGID_4_" class="st61" points="41.8,6.7 42.3,9.2 20.1,12.3 19.6,9.8 				"/>
			</g>
		</g>
		<g class="st4">
			<g>
				<polygon id="SVGID_79_" class="st55" points="19.6,9.8 20.1,12.3 11.1,30.8 10.6,28.3 				"/>
			</g>
			<g>
				<defs>
					<polygon id="SVGID_114_" points="19.6,9.8 20.1,12.3 11.1,30.8 10.6,28.3 					"/>
				</defs>
				<clipPath id="SVGID_115_">
					<use xlink:href="#SVGID_114_"  style="overflow:visible;"/>
				</clipPath>
				<g class="st62">
					
						<linearGradient id="SVGID_116_" gradientUnits="userSpaceOnUse" x1="10.003" y1="32.6801" x2="20.7197" y2="32.6801" gradientTransform="matrix(1 0 0 -1 0 53)">
						<stop  offset="0" style="stop-color:#FFFFFF"/>
						<stop  offset="1" style="stop-color:#000000"/>
					</linearGradient>
					<path class="st63" d="M11.1,31l-0.6-2.7l0,0l9.1-18.7l0.6,2.7l0,0L11.1,31z M10.7,28.3l0.4,2.2L20,12.2L19.6,10L10.7,28.3z"/>
				</g>
			</g>
			<g>
				
					<linearGradient id="SVGID_117_" gradientUnits="userSpaceOnUse" x1="10.0749" y1="32.6801" x2="20.6453" y2="32.6801" gradientTransform="matrix(1 0 0 -1 0 53)">
					<stop  offset="0" style="stop-color:#FFFFFF"/>
					<stop  offset="1" style="stop-color:#000000"/>
				</linearGradient>
				<polygon id="SVGID_6_" class="st64" points="19.6,9.8 20.1,12.3 11.1,30.8 10.6,28.3 				"/>
			</g>
		</g>
		<g class="st4">
			<g>
				<polygon id="SVGID_83_" class="st55" points="10.6,28.3 23.8,43.8 24.3,46.3 11.1,30.8 				"/>
			</g>
			<g>
				<defs>
					<polygon id="SVGID_118_" points="10.6,28.3 23.8,43.8 24.3,46.3 11.1,30.8 					"/>
				</defs>
				<clipPath id="SVGID_119_">
					<use xlink:href="#SVGID_118_"  style="overflow:visible;"/>
				</clipPath>
				<g class="st65">
					
						<linearGradient id="SVGID_120_" gradientUnits="userSpaceOnUse" x1="9.5729" y1="15.7757" x2="25.3192" y2="15.7757" gradientTransform="matrix(1 0 0 -1 0 53)">
						<stop  offset="0" style="stop-color:#FFFFFF"/>
						<stop  offset="1" style="stop-color:#000000"/>
					</linearGradient>
					<path class="st66" d="M24.4,46.6L11.1,30.8l-0.6-2.7l0.2,0.2l13.2,15.6L24.4,46.6z M11.2,30.8l13,15.3l-0.4-2.2l-13-15.3
						L11.2,30.8z"/>
				</g>
			</g>
			<g>
				
					<linearGradient id="SVGID_121_" gradientUnits="userSpaceOnUse" x1="9.7171" y1="15.6571" x2="25.1845" y2="15.6571" gradientTransform="matrix(1 0 0 -1 0 53)">
					<stop  offset="0" style="stop-color:#FFFFFF"/>
					<stop  offset="1" style="stop-color:#000000"/>
				</linearGradient>
				<polygon id="SVGID_8_" class="st67" points="10.6,28.3 23.8,43.8 24.3,46.3 11.1,30.8 				"/>
			</g>
		</g>
		<g class="st4">
			<g>
				<polygon id="SVGID_87_" class="st55" points="23.8,43.8 46,40.8 46.5,43.3 24.3,46.3 				"/>
			</g>
			<g>
				<defs>
					<polygon id="SVGID_122_" points="23.8,43.8 46,40.8 46.5,43.3 24.3,46.3 					"/>
				</defs>
				<clipPath id="SVGID_123_">
					<use xlink:href="#SVGID_122_"  style="overflow:visible;"/>
				</clipPath>
				<g class="st68">
					
						<linearGradient id="SVGID_124_" gradientUnits="userSpaceOnUse" x1="23.1048" y1="9.4293" x2="47.1919" y2="9.4293" gradientTransform="matrix(1 0 0 -1 0 53)">
						<stop  offset="0" style="stop-color:#FFFFFF"/>
						<stop  offset="1" style="stop-color:#000000"/>
					</linearGradient>
					<path class="st69" d="M24.3,46.4L24.3,46.4l-0.5-2.6h0.1l22.3-3.1l0.6,2.6h-0.1L24.3,46.4z M23.9,44l0.5,2.3l22.1-3L45.9,41
						L23.9,44z"/>
				</g>
			</g>
			<g>
				
					<linearGradient id="SVGID_125_" gradientUnits="userSpaceOnUse" x1="23.211" y1="9.4081" x2="47.1177" y2="9.4081" gradientTransform="matrix(1 0 0 -1 0 53)">
					<stop  offset="0" style="stop-color:#FFFFFF"/>
					<stop  offset="1" style="stop-color:#000000"/>
				</linearGradient>
				<polygon id="SVGID_10_" class="st70" points="23.8,43.8 46,40.8 46.5,43.3 24.3,46.3 				"/>
			</g>
		</g>
		<g class="st4">
			<g>
				<polygon id="SVGID_91_" class="st55" points="46,40.8 55,22.3 55.5,24.7 46.5,43.3 				"/>
			</g>
			<g>
				<defs>
					<polygon id="SVGID_126_" points="46,40.8 55,22.3 55.5,24.7 46.5,43.3 					"/>
				</defs>
				<clipPath id="SVGID_127_">
					<use xlink:href="#SVGID_126_"  style="overflow:visible;"/>
				</clipPath>
				<g class="st71">
					
						<linearGradient id="SVGID_128_" gradientUnits="userSpaceOnUse" x1="45.3895" y1="20.2114" x2="56.107" y2="20.2114" gradientTransform="matrix(1 0 0 -1 0 53)">
						<stop  offset="0" style="stop-color:#FFFFFF"/>
						<stop  offset="1" style="stop-color:#000000"/>
					</linearGradient>
					<path class="st72" d="M46.5,43.5l-0.6-2.7l0,0L55,22.1l0.6,2.7l0,0L46.5,43.5z M46.1,40.8l0.4,2.2l8.9-18.3L55,22.5L46.1,40.8z
						"/>
				</g>
			</g>
			<g>
				
					<linearGradient id="SVGID_129_" gradientUnits="userSpaceOnUse" x1="45.4683" y1="20.2114" x2="56.0368" y2="20.2114" gradientTransform="matrix(1 0 0 -1 0 53)">
					<stop  offset="0" style="stop-color:#FFFFFF"/>
					<stop  offset="1" style="stop-color:#000000"/>
				</linearGradient>
				<polygon id="SVGID_12_" class="st73" points="46,40.8 55,22.3 55.5,24.7 46.5,43.3 				"/>
			</g>
		</g>
	</g>
</g>
<pattern  id="SVGID_130_" xlink:href="#Alyssa_2" patternTransform="matrix(1 0 0 -1 -134 -16878.2012)">
</pattern>
<linearGradient id="SVGID_131_" gradientUnits="userSpaceOnUse" x1="11.5399" y1="26.3224" x2="54.8091" y2="26.3224" gradientTransform="matrix(1 0 0 -1 0 53)">
	<stop  offset="0" style="stop-color:#FFFFFF"/>
	<stop  offset="1" style="stop-color:#000000"/>
</linearGradient>
<polyline class="st74" points="20.4,12.8 42.3,9.8 54.2,23.3 46.1,40.8 24.3,43.6 11.9,29.8 "/>
</svg>
