<?xml version="1.0" encoding="utf-8"?>
<!-- Generator: Adobe Illustrator 19.2.1, SVG Export Plug-In . SVG Version: 6.00 Build 0)  -->
<svg version="1.1" id="Layer_1" xmlns="http://www.w3.org/2000/svg" xmlns:xlink="http://www.w3.org/1999/xlink" x="0px" y="0px"
	 width="640px" height="480px" viewBox="0 0 640 480" style="enable-background:new 0 0 640 480;" xml:space="preserve">
<style type="text/css">
	.st0{fill:none;stroke:#000000;stroke-width:3;stroke-miterlimit:10;}
	.st1{fill:#06008F;stroke:#110087;stroke-width:3;stroke-miterlimit:10;}
	.st2{fill:#0900C7;}
	.st3{font-family:'ArialMT';}
	.st4{font-size:12px;}
	.st5{fill:#07009F;}
</style>
<path class="st0" d="M220.7,79.3c0,0,332.3-12.3,67.7,180.8s132.3,123.1,132.3,123.1"/>
<circle class="st1" cx="556" cy="67" r="2.5"/>
<ellipse class="st2" cx="27.4" cy="453" rx="3.8" ry="4.3"/>
<text transform="matrix(1 0 0 1 183.6665 79.1503)" class="st3 st4">Moveto</text>
<text transform="matrix(1 0 0 1 308.9998 137)" class="st3 st4">1ère courbe (q)</text>
<text transform="matrix(1 0 0 1 230.3335 361.0002)" class="st3 st4">2eme courbe (t)</text>
<text transform="matrix(1 0 0 1 572.3335 64.5)" class="st3 st4">Point de</text>
<text transform="matrix(1 0 0 1 572.3335 78.9)" class="st3 st4">contrôle</text>
<text transform="matrix(1 0 0 1 572.3335 93.3)" class="st3 st4">de la 1ère</text>
<text transform="matrix(1 0 0 1 572.3335 107.7)" class="st3 st4">courbe</text>
<text transform="matrix(1 0 0 1 23.6011 361.0002)" class="st3 st4">point de contrôle </text>
<text transform="matrix(1 0 0 1 23.6011 375.4002)" class="st3 st4">de la 2ème courbe, </text>
<text transform="matrix(1 0 0 1 23.6011 389.8002)" class="st3 st4">obtenu par symétrie centrale</text>
<text transform="matrix(1 0 0 1 23.6011 404.2002)" class="st3 st4"> du point de contrôle</text>
<text transform="matrix(1 0 0 1 23.6011 418.6002)" class="st3 st4"> de la 1ère courbe à partir</text>
<text transform="matrix(1 0 0 1 23.6011 433.0002)" class="st3 st4"> du point central</text>
<text transform="matrix(1 0 0 1 301.6665 265.0003)" class="st3 st4">Fin de la 1ère courbe</text>
<circle class="st5" cx="288.1" cy="258.4" r="6.6"/>
</svg>
