<?xml version="1.0" encoding="UTF-8" standalone="no"?>
<!-- Created with Inkscape (http://www.inkscape.org/) -->

<svg
   xmlns:dc="http://purl.org/dc/elements/1.1/"
   xmlns:cc="http://creativecommons.org/ns#"
   xmlns:rdf="http://www.w3.org/1999/02/22-rdf-syntax-ns#"
   xmlns:svg="http://www.w3.org/2000/svg"
   xmlns="http://www.w3.org/2000/svg"
   xmlns:sodipodi="http://sodipodi.sourceforge.net/DTD/sodipodi-0.dtd"
   xmlns:inkscape="http://www.inkscape.org/namespaces/inkscape"
   width="210mm"
   height="297mm"
   viewBox="0 0 744.09448819 1052.3622047"
   id="svg3559"
   version="1.1"
   inkscape:version="0.91 r13725"
   sodipodi:docname="dessin.svg">
  <defs
     id="defs3561" />
  <sodipodi:namedview
     id="base"
     pagecolor="#ffffff"
     bordercolor="#666666"
     borderopacity="1.0"
     inkscape:pageopacity="0.0"
     inkscape:pageshadow="2"
     inkscape:zoom="1.4322098"
     inkscape:cx="371.95122"
     inkscape:cy="625.36993"
     inkscape:document-units="px"
     inkscape:current-layer="layer1"
     showgrid="false"
     inkscape:window-width="1375"
     inkscape:window-height="876"
     inkscape:window-x="65"
     inkscape:window-y="24"
     inkscape:window-maximized="1"
     showguides="false" />
  <metadata
     id="metadata3564">
    <rdf:RDF>
      <cc:Work
         rdf:about="">
        <dc:format>image/svg+xml</dc:format>
        <dc:type
           rdf:resource="http://purl.org/dc/dcmitype/StillImage" />
        <dc:title></dc:title>
      </cc:Work>
    </rdf:RDF>
  </metadata>
  <g
     inkscape:label="chat"
     inkscape:groupmode="layer"
     id="layer1"
     style="display:inline;opacity:0.36" />
  <g
     inkscape:groupmode="layer"
     id="layer5"
     inkscape:label="Calque ">
    <path
       style="fill:none;fill-rule:evenodd;stroke:#000000;stroke-width:1px;stroke-linecap:butt;stroke-linejoin:miter;stroke-opacity:1"
       d="m 197.56098,316.99635 c 23.17073,18.29268 35.36585,39.02439 70.7317,48.78049 21.95122,-15.85366 62.19512,9.7561 78.04878,3.65854 79.26829,-28.04878 120.73171,8.53658 120.73171,8.53658 24.39024,9.7561 43.90244,98.78049 76.82927,126.82927 13.41463,9.7561 36.68936,17.08867 35.36585,25.60975 10.03953,28.33222 0.40651,35.77236 17.07317,54.87805 5.82126,6.70337 -12.19512,34.14635 -24.39024,39.0244 -18.29268,-6.09756 -30.4878,-3.65854 -45.12195,-9.7561 -3.65854,-18.29268 14.63415,-32.92683 14.63415,-32.92683 7.31707,-18.29268 -17.07318,-36.58537 -17.07318,-36.58537 -25.60976,7.31707 -59.75609,-36.58536 -59.75609,-36.58536 -13.41463,3.65854 -10.97561,29.26829 -10.97561,37.80488 13.41463,6.09756 28.98225,15.98081 21.95122,23.17073 -24.39024,9.7561 -12.19513,25.60976 -54.87805,58.53658 -20.73171,-4.87805 -40.2439,8.53659 -56.09756,2.43903 -17.07317,-3.65854 -23.17073,-25.60976 -23.17073,-25.60976 17.07317,-12.19512 42.68292,-7.31707 42.68292,-7.31707 25.60976,-12.19512 34.14634,-24.39025 34.14634,-24.39025 -9.7561,-30.4878 -39.02439,-49.99999 -46.34146,-53.65853 -14.63415,8.53659 -54.87805,-3.65854 -54.87805,-3.65854 l -7.31707,51.21951 17.07316,-8.53658 c 64.63415,10.97561 8.53659,41.46341 8.53659,41.46341 -6.09756,3.65854 -37.80487,-15.85366 -52.43902,-12.19512 -10.97561,-13.41463 6.09756,-56.09756 -4.87805,-60.97561 l -31.70732,2.43903 c -12.19512,0 -12.19512,87.80487 -37.80488,96.34146 -14.63415,7.31707 -48.78048,2.43902 -56.09755,-3.65854 -9.7561,-2.43902 -13.41464,-19.51219 -13.41464,-19.51219 7.31707,-9.7561 37.98216,-19.81735 40.2439,-25.60976 26.82927,-30.4878 -7.31707,-90.24391 10.97561,-125.60976 -23.17073,-24.39024 -56.09756,-15.85365 -56.09756,-15.85365 -32.92683,15.85366 -47.560974,-21.95122 -47.560974,-21.95122 -13.414634,-6.09756 12.195123,-24.39025 3.658536,-35.36586 -10.97561,-10.97561 0,-31.70731 0,-31.70731 14.634148,8.53659 14.634148,-20.73171 14.634148,-20.73171 -20.731708,-14.63415 -15.186348,-51.74493 26.82926,-17.07317 13.41463,13.41463 53.65855,2.43902 65.85367,8.53658 z"
       id="path3644"
       inkscape:connector-curvature="0"
       sodipodi:nodetypes="ccccccccccccccccccccccccccccccccccccccc" />
    <path
       style="fill:none;fill-rule:evenodd;stroke:#000000;stroke-width:1px;stroke-linecap:butt;stroke-linejoin:miter;stroke-opacity:1"
       d="m 182.92683,314.55733 c -2.43902,-10.97561 -31.70731,-17.07317 -35.36585,-26.82927 -20.73171,-7.31707 -18.29269,19.51219 -18.29269,19.51219 17.07317,9.7561 53.65854,7.31708 53.65854,7.31708 z"
       id="path3652"
       inkscape:connector-curvature="0"
       sodipodi:nodetypes="cccc" />
    <path
       style="fill:none;fill-rule:evenodd;stroke:#000000;stroke-width:1px;stroke-linecap:butt;stroke-linejoin:miter;stroke-opacity:1"
       d="m 119.5122,418.21586 c 0,0 35.36584,-34.14634 82.92682,-28.04878 0,0 -57.31706,-1.21951 -82.92682,28.04878 z"
       id="path3666"
       inkscape:connector-curvature="0"
       sodipodi:nodetypes="ccc" />
    <path
       style="fill:none;fill-rule:evenodd;stroke:#000000;stroke-width:1px;stroke-linecap:butt;stroke-linejoin:miter;stroke-opacity:1"
       d="m 89.02439,409.67928 c -26.829268,4.87805 -57.317073,32.92683 -57.317073,32.92683 0,0 29.268293,-28.04878 57.317073,-32.92683 z"
       id="path3676"
       inkscape:connector-curvature="0"
       sodipodi:nodetypes="ccc" />
    <path
       style="fill:none;fill-rule:evenodd;stroke:#000000;stroke-width:1px;stroke-linecap:butt;stroke-linejoin:miter;stroke-opacity:1"
       d="m 97.560976,426.75245 c -30.487805,7.31707 -46.341464,51.21951 -46.341464,51.21951 0,0 15.853659,-43.90244 46.341464,-51.21951 z"
       id="path3678"
       inkscape:connector-curvature="0"
       sodipodi:nodetypes="ccc" />
    <path
       style="fill:none;fill-rule:evenodd;stroke:#000000;stroke-width:1px;stroke-linecap:butt;stroke-linejoin:miter;stroke-opacity:1"
       d="m 102.43902,432.85001 c -32.926829,7.31707 -26.829264,96.34146 -26.829264,96.34146 0,0 -6.097565,-89.02439 26.829264,-96.34146 z"
       id="path3680"
       inkscape:connector-curvature="0"
       sodipodi:nodetypes="ccc" />
    <path
       style="fill:none;fill-rule:evenodd;stroke:#000000;stroke-width:1px;stroke-linecap:butt;stroke-linejoin:miter;stroke-opacity:1"
       d="m 128.04878,418.21586 c 20.73171,-12.19512 101.21951,-9.75609 101.21951,-9.75609 0,0 -80.4878,-3.65854 -101.21951,9.75609 z"
       id="path3682"
       inkscape:connector-curvature="0"
       sodipodi:nodetypes="ccc" />
    <path
       style="fill:none;fill-rule:evenodd;stroke:#000000;stroke-width:1px;stroke-linecap:butt;stroke-linejoin:miter;stroke-opacity:1"
       d="m 131.70732,420.65489 c 76.82927,-1.21951 110.97561,41.46341 110.97561,41.46341 0,0 -35.36585,-43.90243 -110.97561,-41.46341 z"
       id="path3684"
       inkscape:connector-curvature="0"
       sodipodi:nodetypes="ccc" />
    <path
       style="fill:none;fill-rule:evenodd;stroke:#000000;stroke-width:1px;stroke-linecap:butt;stroke-linejoin:miter;stroke-opacity:1"
       d="m 53.658537,334.06952 c 20.731707,-3.65854 40.243902,21.95122 40.243902,21.95122 0,0 -14.634146,-20.73171 -40.243902,-21.95122 z"
       id="path3686"
       inkscape:connector-curvature="0"
       sodipodi:nodetypes="ccc" />
    <path
       style="fill:none;fill-rule:evenodd;stroke:#000000;stroke-width:1px;stroke-linecap:butt;stroke-linejoin:miter;stroke-opacity:1"
       d="m 474.39024,381.6305 c 85.36585,1.21951 121.95122,-82.92683 208.53659,-98.78049 51.21951,13.41463 8.53658,28.04878 8.53658,28.04878 C 590.2439,336.50855 574.39025,420.65488 497.56098,418.21586 Z"
       id="path3707"
       inkscape:connector-curvature="0"
       sodipodi:nodetypes="ccccc" />
    <path
       style="fill:none;fill-rule:evenodd;stroke:#000000;stroke-width:1px;stroke-linecap:butt;stroke-linejoin:miter;stroke-opacity:1"
       d="m 99.845705,364.61381 10.473325,21.64488 c 0,0 36.30753,-32.11821 -10.473325,-21.64488 z"
       id="path3753"
       inkscape:connector-curvature="0"
       sodipodi:nodetypes="ccc" />
    <ellipse
       style="fill:#000000"
       id="path3763"
       cx="-41.133911"
       cy="387.30087"
       rx="4.5384412"
       ry="10.822436"
       transform="matrix(0.92554695,-0.37863285,0.37863285,0.92554695,0,0)" />
    <path
       style="fill:none;fill-rule:evenodd;stroke:#000000;stroke-width:1px;stroke-linecap:butt;stroke-linejoin:miter;stroke-opacity:1"
       d="m 100.54393,414.88578 2.79288,0"
       id="path3765"
       inkscape:connector-curvature="0" />
    <path
       style="fill:none;fill-rule:evenodd;stroke:#000000;stroke-width:1px;stroke-linecap:butt;stroke-linejoin:miter;stroke-opacity:1"
       d="m 110.31903,419.77333 -0.69822,-1.39644"
       id="path3767"
       inkscape:connector-curvature="0" />
    <path
       style="fill:none;fill-rule:evenodd;stroke:#000000;stroke-width:1px;stroke-linecap:butt;stroke-linejoin:miter;stroke-opacity:1"
       d="m 118.69769,423.26444 3.49111,0"
       id="path3769"
       inkscape:connector-curvature="0" />
    <path
       style="fill:none;fill-rule:evenodd;stroke:#000000;stroke-width:1px;stroke-linecap:butt;stroke-linejoin:miter;stroke-opacity:1"
       d="m 108.92259,413.48933 -2.09467,-1.39644"
       id="path3771"
       inkscape:connector-curvature="0" />
  </g>
</svg>
