<?xml version="1.0" encoding="UTF-8" standalone="no"?>
<!-- Created with Inkscape (http://www.inkscape.org/) -->

<svg
   xmlns:dc="http://purl.org/dc/elements/1.1/"
   xmlns:cc="http://creativecommons.org/ns#"
   xmlns:rdf="http://www.w3.org/1999/02/22-rdf-syntax-ns#"
   xmlns:svg="http://www.w3.org/2000/svg"
   xmlns="http://www.w3.org/2000/svg"
   xmlns:sodipodi="http://sodipodi.sourceforge.net/DTD/sodipodi-0.dtd"
   xmlns:inkscape="http://www.inkscape.org/namespaces/inkscape"
   width="210mm"
   height="297mm"
   viewBox="0 0 744.09448819 1052.3622047"
   id="svg5974"
   version="1.1"
   inkscape:version="0.91 r13725"
   sodipodi:docname="tete.svg">
  <defs
     id="defs5976" />
  <sodipodi:namedview
     id="base"
     pagecolor="#ffffff"
     bordercolor="#666666"
     borderopacity="1.0"
     inkscape:pageopacity="0.0"
     inkscape:pageshadow="2"
     inkscape:zoom="0.85722656"
     inkscape:cx="358.08499"
     inkscape:cy="380.01367"
     inkscape:document-units="px"
     inkscape:current-layer="layer1"
     showgrid="false"
     inkscape:window-width="1301"
     inkscape:window-height="744"
     inkscape:window-x="65"
     inkscape:window-y="24"
     inkscape:window-maximized="1" />
  <metadata
     id="metadata5979">
    <rdf:RDF>
      <cc:Work
         rdf:about="">
        <dc:format>image/svg+xml</dc:format>
        <dc:type
           rdf:resource="http://purl.org/dc/dcmitype/StillImage" />
        <dc:title></dc:title>
      </cc:Work>
    </rdf:RDF>
  </metadata>
  <g
     inkscape:label="Calque 1"
     inkscape:groupmode="layer"
     id="layer1">
    <rect
       style="fill:none;fill-opacity:1;stroke:#000000;stroke-width:4.05838251;stroke-linejoin:round;stroke-miterlimit:4;stroke-dasharray:none;stroke-opacity:1"
       id="rect5982"
       width="488.09378"
       height="470.59546"
       x="103.58583"
       y="443.18433" />
    <ellipse
       style="fill:none;fill-opacity:1;stroke:#000000;stroke-width:2.551;stroke-linejoin:round;stroke-miterlimit:4;stroke-dasharray:none;stroke-opacity:1"
       id="path6524"
       ry="175.9906"
       rx="177.74042"
       cy="680.23193"
       cx="349.38257" />
    <path
       style="fill:#000000;fill-opacity:1;stroke:none;stroke-width:3.08810449;stroke-linejoin:round;stroke-miterlimit:4;stroke-dasharray:none;stroke-opacity:1"
       id="path6528"
       sodipodi:type="arc"
       sodipodi:cx="281.72253"
       sodipodi:cy="650.4848"
       sodipodi:rx="71.474541"
       sodipodi:ry="71.47435"
       sodipodi:start="0"
       sodipodi:end="6.2335086"
       d="m 353.19707,650.4848 a 71.474541,71.47435 0 0 1 -70.5869,71.46884 71.474541,71.47435 0 0 1 -72.34013,-69.69372 71.474541,71.47435 0 0 1 68.79015,-73.19987 71.474541,71.47435 0 0 1 74.04871,67.8756"
       sodipodi:open="true"
       inkscape:transform-center-x="-6.8228272"
       inkscape:transform-center-y="27.429488" />
    <path
       style="fill:#000000;fill-opacity:1;stroke:none;stroke-width:3.08810449;stroke-linejoin:round;stroke-miterlimit:4;stroke-dasharray:none;stroke-opacity:1"
       id="path6528-6"
       sodipodi:type="arc"
       sodipodi:cx="433.95764"
       sodipodi:cy="653.98444"
       sodipodi:rx="53.392971"
       sodipodi:ry="53.976055"
       sodipodi:start="0"
       sodipodi:end="6.2335086"
       d="m 487.35061,653.98444 a 53.392971,53.976055 0 0 1 -52.72989,53.97189 53.392971,53.976055 0 0 1 -54.03958,-52.63136 53.392971,53.976055 0 0 1 51.38767,-55.27913 53.392971,53.976055 0 0 1 55.31594,51.25835"
       sodipodi:open="true"
       inkscape:transform-center-x="-5.0968265"
       inkscape:transform-center-y="20.71423" />
    <path
       style="fill:none;fill-rule:evenodd;stroke:#000000;stroke-width:1.9;stroke-linecap:butt;stroke-linejoin:miter;stroke-opacity:1;stroke-miterlimit:4;stroke-dasharray:none"
       d="m 256.64161,763.05712 c 0,0 99.15698,117.82182 185.48188,-2.33311"
       id="path6547"
       inkscape:connector-curvature="0"
       sodipodi:nodetypes="cc" />
    <path
       style="fill:#ffffff;fill-opacity:1;stroke:none;stroke-width:1.89999998;stroke-linejoin:round;stroke-miterlimit:4;stroke-dasharray:none;stroke-opacity:1"
       id="path6549"
       sodipodi:type="arc"
       sodipodi:cx="326.05148"
       sodipodi:cy="653.98444"
       sodipodi:rx="15.748462"
       sodipodi:ry="15.748462"
       sodipodi:start="0"
       sodipodi:end="6.2335132"
       sodipodi:open="true"
       d="m 341.79994,653.98444 a 15.748462,15.748462 0 0 1 -15.5529,15.74724 15.748462,15.748462 0 0 1 -15.93916,-15.35615 15.748462,15.748462 0 0 1 15.15704,-16.12863 15.748462,15.748462 0 0 1 16.3156,14.9556" />
    <path
       style="fill:#ffffff;fill-opacity:1;stroke:none;stroke-width:1.89999998;stroke-linejoin:round;stroke-miterlimit:4;stroke-dasharray:none;stroke-opacity:1"
       id="path6549-5"
       sodipodi:type="arc"
       sodipodi:cx="407.12692"
       sodipodi:cy="652.23462"
       sodipodi:rx="15.748462"
       sodipodi:ry="15.748462"
       sodipodi:start="0"
       sodipodi:end="6.2335132"
       sodipodi:open="true"
       d="m 422.87538,652.23462 a 15.748462,15.748462 0 0 1 -15.5529,15.74725 15.748462,15.748462 0 0 1 -15.93916,-15.35616 15.748462,15.748462 0 0 1 15.15704,-16.12863 15.748462,15.748462 0 0 1 16.3156,14.9556" />
  </g>
</svg>
